  0
SECTION
  2
HEADER
  9
$ACADVER
  1
AC1027
  9
$ACADMAINTVER
 70
   125
  9
$DWGCODEPAGE
  3
ANSI_1252
  9
$REQUIREDVERSIONS
160
                 0
  9
$INSBASE
 10
0.0
 20
0.0
 30
0.0
  9
$EXTMIN
 10
-13.31557135146909
 20
-5.354744712025338
 30
0.0
  9
$EXTMAX
 10
13.3159688682739
 20
23.03269536757341
 30
0.0
  9
$LIMMIN
 10
0.0
 20
0.0
  9
$LIMMAX
 10
12.0
 20
9.0
  9
$ORTHOMODE
 70
     0
  9
$REGENMODE
 70
     1
  9
$FILLMODE
 70
     1
  9
$QTEXTMODE
 70
     0
  9
$MIRRTEXT
 70
     0
  9
$LTSCALE
 40
1.0
  9
$ATTMODE
 70
     1
  9
$TEXTSIZE
 40
0.2
  9
$TRACEWID
 40
0.05
  9
$TEXTSTYLE
  7
Standard
  9
$CLAYER
  8
0
  9
$CELTYPE
  6
ByLayer
  9
$CECOLOR
 62
   256
  9
$CELTSCALE
 40
1.0
  9
$DISPSILH
 70
     0
  9
$DIMSCALE
 40
1.0
  9
$DIMASZ
 40
0.18
  9
$DIMEXO
 40
0.0625
  9
$DIMDLI
 40
0.38
  9
$DIMRND
 40
0.0
  9
$DIMDLE
 40
0.0
  9
$DIMEXE
 40
0.18
  9
$DIMTP
 40
0.0
  9
$DIMTM
 40
0.0
  9
$DIMTXT
 40
0.18
  9
$DIMCEN
 40
0.09
  9
$DIMTSZ
 40
0.0
  9
$DIMTOL
 70
     0
  9
$DIMLIM
 70
     0
  9
$DIMTIH
 70
     1
  9
$DIMTOH
 70
     1
  9
$DIMSE1
 70
     0
  9
$DIMSE2
 70
     0
  9
$DIMTAD
 70
     0
  9
$DIMZIN
 70
     0
  9
$DIMBLK
  1

  9
$DIMASO
 70
     1
  9
$DIMSHO
 70
     1
  9
$DIMPOST
  1

  9
$DIMAPOST
  1

  9
$DIMALT
 70
     0
  9
$DIMALTD
 70
     2
  9
$DIMALTF
 40
25.4
  9
$DIMLFAC
 40
1.0
  9
$DIMTOFL
 70
     0
  9
$DIMTVP
 40
0.0
  9
$DIMTIX
 70
     0
  9
$DIMSOXD
 70
     0
  9
$DIMSAH
 70
     0
  9
$DIMBLK1
  1

  9
$DIMBLK2
  1

  9
$DIMSTYLE
  2
Standard
  9
$DIMCLRD
 70
     0
  9
$DIMCLRE
 70
     0
  9
$DIMCLRT
 70
     0
  9
$DIMTFAC
 40
1.0
  9
$DIMGAP
 40
0.09
  9
$DIMJUST
 70
     0
  9
$DIMSD1
 70
     0
  9
$DIMSD2
 70
     0
  9
$DIMTOLJ
 70
     1
  9
$DIMTZIN
 70
     0
  9
$DIMALTZ
 70
     0
  9
$DIMALTTZ
 70
     0
  9
$DIMUPT
 70
     0
  9
$DIMDEC
 70
     4
  9
$DIMTDEC
 70
     4
  9
$DIMALTU
 70
     2
  9
$DIMALTTD
 70
     2
  9
$DIMTXSTY
  7
Standard
  9
$DIMAUNIT
 70
     0
  9
$DIMADEC
 70
     0
  9
$DIMALTRND
 40
0.0
  9
$DIMAZIN
 70
     0
  9
$DIMDSEP
 70
    46
  9
$DIMATFIT
 70
     3
  9
$DIMFRAC
 70
     0
  9
$DIMLDRBLK
  1

  9
$DIMLUNIT
 70
     2
  9
$DIMLWD
 70
    -2
  9
$DIMLWE
 70
    -2
  9
$DIMTMOVE
 70
     0
  9
$DIMFXL
 40
1.0
  9
$DIMFXLON
 70
     0
  9
$DIMJOGANG
 40
0.7853981633974483
  9
$DIMTFILL
 70
     0
  9
$DIMTFILLCLR
 70
     0
  9
$DIMARCSYM
 70
     0
  9
$DIMLTYPE
  6

  9
$DIMLTEX1
  6

  9
$DIMLTEX2
  6

  9
$DIMTXTDIRECTION
 70
     0
  9
$LUNITS
 70
     2
  9
$LUPREC
 70
     4
  9
$SKETCHINC
 40
0.1
  9
$FILLETRAD
 40
0.0
  9
$AUNITS
 70
     0
  9
$AUPREC
 70
     0
  9
$MENU
  1
.
  9
$ELEVATION
 40
0.0
  9
$PELEVATION
 40
0.0
  9
$THICKNESS
 40
0.0
  9
$LIMCHECK
 70
     0
  9
$CHAMFERA
 40
0.0
  9
$CHAMFERB
 40
0.0
  9
$CHAMFERC
 40
0.0
  9
$CHAMFERD
 40
0.0
  9
$SKPOLY
 70
     0
  9
$TDCREATE
 40
2458010.285023148
  9
$TDUCREATE
 40
2458010.451699861
  9
$TDUPDATE
 40
2458010.285023148
  9
$TDUUPDATE
 40
2458010.451700903
  9
$TDINDWG
 40
0.0000126157
  9
$TDUSRTIMER
 40
0.0000126157
  9
$USRTIMER
 70
     1
  9
$ANGBASE
 50
0.0
  9
$ANGDIR
 70
     0
  9
$PDMODE
 70
     0
  9
$PDSIZE
 40
0.0
  9
$PLINEWID
 40
0.0
  9
$SPLFRAME
 70
     0
  9
$SPLINETYPE
 70
     6
  9
$SPLINESEGS
 70
     8
  9
$HANDSEED
  5
2F0
  9
$SURFTAB1
 70
     6
  9
$SURFTAB2
 70
     6
  9
$SURFTYPE
 70
     6
  9
$SURFU
 70
     6
  9
$SURFV
 70
     6
  9
$UCSBASE
  2

  9
$UCSNAME
  2

  9
$UCSORG
 10
0.0
 20
0.0
 30
0.0
  9
$UCSXDIR
 10
1.0
 20
0.0
 30
0.0
  9
$UCSYDIR
 10
0.0
 20
1.0
 30
0.0
  9
$UCSORTHOREF
  2

  9
$UCSORTHOVIEW
 70
     0
  9
$UCSORGTOP
 10
0.0
 20
0.0
 30
0.0
  9
$UCSORGBOTTOM
 10
0.0
 20
0.0
 30
0.0
  9
$UCSORGLEFT
 10
0.0
 20
0.0
 30
0.0
  9
$UCSORGRIGHT
 10
0.0
 20
0.0
 30
0.0
  9
$UCSORGFRONT
 10
0.0
 20
0.0
 30
0.0
  9
$UCSORGBACK
 10
0.0
 20
0.0
 30
0.0
  9
$PUCSBASE
  2

  9
$PUCSNAME
  2

  9
$PUCSORG
 10
0.0
 20
0.0
 30
0.0
  9
$PUCSXDIR
 10
1.0
 20
0.0
 30
0.0
  9
$PUCSYDIR
 10
0.0
 20
1.0
 30
0.0
  9
$PUCSORTHOREF
  2

  9
$PUCSORTHOVIEW
 70
     0
  9
$PUCSORGTOP
 10
0.0
 20
0.0
 30
0.0
  9
$PUCSORGBOTTOM
 10
0.0
 20
0.0
 30
0.0
  9
$PUCSORGLEFT
 10
0.0
 20
0.0
 30
0.0
  9
$PUCSORGRIGHT
 10
0.0
 20
0.0
 30
0.0
  9
$PUCSORGFRONT
 10
0.0
 20
0.0
 30
0.0
  9
$PUCSORGBACK
 10
0.0
 20
0.0
 30
0.0
  9
$USERI1
 70
     0
  9
$USERI2
 70
     0
  9
$USERI3
 70
     0
  9
$USERI4
 70
     0
  9
$USERI5
 70
     0
  9
$USERR1
 40
0.0
  9
$USERR2
 40
0.0
  9
$USERR3
 40
0.0
  9
$USERR4
 40
0.0
  9
$USERR5
 40
0.0
  9
$WORLDVIEW
 70
     1
  9
$SHADEDGE
 70
     3
  9
$SHADEDIF
 70
    70
  9
$TILEMODE
 70
     1
  9
$MAXACTVP
 70
    64
  9
$PINSBASE
 10
0.0
 20
0.0
 30
0.0
  9
$PLIMCHECK
 70
     0
  9
$PEXTMIN
 10
1.000000000000000E+20
 20
1.000000000000000E+20
 30
1.000000000000000E+20
  9
$PEXTMAX
 10
-1.000000000000000E+20
 20
-1.000000000000000E+20
 30
-1.000000000000000E+20
  9
$PLIMMIN
 10
0.0
 20
0.0
  9
$PLIMMAX
 10
12.0
 20
9.0
  9
$UNITMODE
 70
     0
  9
$VISRETAIN
 70
     1
  9
$PLINEGEN
 70
     0
  9
$PSLTSCALE
 70
     1
  9
$TREEDEPTH
 70
  3020
  9
$CMLSTYLE
  2
Standard
  9
$CMLJUST
 70
     0
  9
$CMLSCALE
 40
1.0
  9
$PROXYGRAPHICS
 70
     1
  9
$MEASUREMENT
 70
     0
  9
$CELWEIGHT
370
    -1
  9
$ENDCAPS
280
     0
  9
$JOINSTYLE
280
     0
  9
$LWDISPLAY
290
     0
  9
$INSUNITS
 70
     1
  9
$HYPERLINKBASE
  1

  9
$STYLESHEET
  1

  9
$XEDIT
290
     1
  9
$CEPSNTYPE
380
     0
  9
$PSTYLEMODE
290
     1
  9
$FINGERPRINTGUID
  2
{19287CC9-EF11-4C95-B7BF-ABFA981B9519}
  9
$VERSIONGUID
  2
{A26FD015-965B-4325-A7B0-A6FF88695E14}
  9
$EXTNAMES
290
     1
  9
$PSVPSCALE
 40
0.0
  9
$OLESTARTUP
290
     0
  9
$SORTENTS
280
   127
  9
$INDEXCTL
280
     0
  9
$HIDETEXT
280
     1
  9
$XCLIPFRAME
280
     2
  9
$HALOGAP
280
     0
  9
$OBSCOLOR
 70
   257
  9
$OBSLTYPE
280
     0
  9
$INTERSECTIONDISPLAY
280
     0
  9
$INTERSECTIONCOLOR
 70
   257
  9
$DIMASSOC
280
     2
  9
$PROJECTNAME
  1

  9
$CAMERADISPLAY
290
     0
  9
$LENSLENGTH
 40
50.0
  9
$CAMERAHEIGHT
 40
0.0
  9
$STEPSPERSEC
 40
2.0
  9
$STEPSIZE
 40
6.0
  9
$3DDWFPREC
 40
2.0
  9
$PSOLWIDTH
 40
0.25
  9
$PSOLHEIGHT
 40
4.0
  9
$LOFTANG1
 40
1.570796326794896
  9
$LOFTANG2
 40
1.570796326794896
  9
$LOFTMAG1
 40
0.0
  9
$LOFTMAG2
 40
0.0
  9
$LOFTPARAM
 70
     7
  9
$LOFTNORMALS
280
     1
  9
$LATITUDE
 40
37.795
  9
$LONGITUDE
 40
-122.394
  9
$NORTHDIRECTION
 40
0.0
  9
$TIMEZONE
 70
 -8000
  9
$LIGHTGLYPHDISPLAY
280
     1
  9
$TILEMODELIGHTSYNCH
280
     1
  9
$CMATERIAL
347
11
  9
$SOLIDHIST
280
     0
  9
$SHOWHIST
280
     1
  9
$DWFFRAME
280
     2
  9
$DGNFRAME
280
     0
  9
$REALWORLDSCALE
290
     1
  9
$INTERFERECOLOR
 62
     1
  9
$INTERFEREOBJVS
345
33
  9
$INTERFEREVPVS
346
30
  9
$CSHADOW
280
     0
  9
$SHADOWPLANELOCATION
 40
0.0
  0
ENDSEC
  0
SECTION
  2
CLASSES
  0
CLASS
  1
ACDBDICTIONARYWDFLT
  2
AcDbDictionaryWithDefault
  3
ObjectDBX Classes
 90
        0
 91
        1
280
     0
281
     0
  0
CLASS
  1
MATERIAL
  2
AcDbMaterial
  3
ObjectDBX Classes
 90
     1153
 91
        3
280
     0
281
     0
  0
CLASS
  1
VISUALSTYLE
  2
AcDbVisualStyle
  3
ObjectDBX Classes
 90
     4095
 91
       24
280
     0
281
     0
  0
CLASS
  1
SCALE
  2
AcDbScale
  3
ObjectDBX Classes
 90
     1153
 91
       17
280
     0
281
     0
  0
CLASS
  1
TABLESTYLE
  2
AcDbTableStyle
  3
ObjectDBX Classes
 90
     4095
 91
        1
280
     0
281
     0
  0
CLASS
  1
MLEADERSTYLE
  2
AcDbMLeaderStyle
  3
ACDB_MLEADERSTYLE_CLASS
 90
     4095
 91
        1
280
     0
281
     0
  0
CLASS
  1
ACDBSECTIONVIEWSTYLE
  2
AcDbSectionViewStyle
  3
ObjectDBX Classes
 90
     1025
 91
        1
280
     0
281
     0
  0
CLASS
  1
ACDBDETAILVIEWSTYLE
  2
AcDbDetailViewStyle
  3
ObjectDBX Classes
 90
     1025
 91
        1
280
     0
281
     0
  0
CLASS
  1
DICTIONARYVAR
  2
AcDbDictionaryVar
  3
ObjectDBX Classes
 90
        0
 91
        6
280
     0
281
     0
  0
CLASS
  1
CELLSTYLEMAP
  2
AcDbCellStyleMap
  3
ObjectDBX Classes
 90
     1152
 91
        2
280
     0
281
     0
  0
ENDSEC
  0
SECTION
  2
TABLES
  0
TABLE
  2
VPORT
  5
8
330
0
100
AcDbSymbolTable
 70
     1
1001
ACAD
1000
DbSaveVer
1071
       51
  0
VPORT
  5
57
330
8
100
AcDbSymbolTableRecord
100
AcDbViewportTableRecord
  2
*Active
 70
     0
 10
0.0
 20
0.0
 11
1.0
 21
1.0
 12
1970.212709629992
 22
1055.415094339622
 13
0.0
 23
0.0
 14
1.0
 24
1.0
 15
0.0
 25
0.0
 16
0.0
 26
0.0
 36
1.0
 17
0.0
 27
0.0
 37
0.0
 40
9.0
 41
2.184
 42
50.0
 43
0.0
 44
0.0
 50
0.0
 51
0.0
 71
     0
 72
   100
 73
     1
 74
     1
 75
     0
 76
     0
 77
     0
 78
     0
281
     0
 65
     1
110
0.0
120
0.0
130
0.0
111
1.0
121
0.0
131
0.0
112
0.0
122
1.0
132
0.0
 79
     0
146
0.0
348
2F
 60
     3
 61
     5
292
     1
282
     1
141
0.0
142
0.0
 63
   250
421
  3355443
1001
ACAD_NAV_VCDISPLAY
1070
     3
  0
ENDTAB
  0
TABLE
  2
LTYPE
  5
5
330
0
100
AcDbSymbolTable
 70
     1
  0
LTYPE
  5
5B
330
5
100
AcDbSymbolTableRecord
100
AcDbLinetypeTableRecord
  2
ByBlock
 70
     0
  3

 72
    65
 73
     0
 40
0.0
  0
LTYPE
  5
5C
330
5
100
AcDbSymbolTableRecord
100
AcDbLinetypeTableRecord
  2
ByLayer
 70
     0
  3

 72
    65
 73
     0
 40
0.0
  0
LTYPE
  5
5D
330
5
100
AcDbSymbolTableRecord
100
AcDbLinetypeTableRecord
  2
Continuous
 70
     0
  3
Solid line
 72
    65
 73
     0
 40
0.0
  0
ENDTAB
  0
TABLE
  2
LAYER
  5
2
102
{ACAD_XDICTIONARY
360
2DB
102
}
330
0
100
AcDbSymbolTable
 70
     3
  0
LAYER
  5
54
330
2
100
AcDbSymbolTableRecord
100
AcDbLayerTableRecord
  2
0
 70
     0
 62
     7
  6
Continuous
370
    -3
390
F
347
21
348
0
  0
LAYER
  5
79
330
2
100
AcDbSymbolTableRecord
100
AcDbLayerTableRecord
  2
A-FURN-P-SEAT-T
 70
     0
 62
     2
  6
Continuous
370
    -3
390
F
347
21
348
0
  0
LAYER
  5
7C
330
2
100
AcDbSymbolTableRecord
100
AcDbLayerTableRecord
  2
A-FURN-P-SEAT
 70
     0
 62
     2
  6
Continuous
370
    -3
390
F
347
21
348
0
  0
ENDTAB
  0
TABLE
  2
STYLE
  5
3
330
0
100
AcDbSymbolTable
 70
     3
  0
STYLE
  5
55
330
3
100
AcDbSymbolTableRecord
100
AcDbTextStyleTableRecord
  2
Standard
 70
     0
 40
0.0
 41
1.0
 50
0.0
 71
     0
 42
0.2
  3
txt
  4

  0
STYLE
  5
5A
330
3
100
AcDbSymbolTableRecord
100
AcDbTextStyleTableRecord
  2
Annotative
 70
     0
 40
0.0
 41
1.0
 50
0.0
 71
     0
 42
0.2
  3
txt
  4

1001
AcadAnnotative
1000
AnnotativeData
1002
{
1070
     1
1070
     1
1002
}
  0
STYLE
  5
7A
330
3
100
AcDbSymbolTableRecord
100
AcDbTextStyleTableRecord
  2
MONOTXT
 70
     0
 40
0.0
 41
1.0
 50
0.0
 71
     0
 42
0.2
  3
MONOTXT.SHX
  4

  0
ENDTAB
  0
TABLE
  2
VIEW
  5
6
330
0
100
AcDbSymbolTable
 70
     1
  0
ENDTAB
  0
TABLE
  2
UCS
  5
7
330
0
100
AcDbSymbolTable
 70
     0
  0
ENDTAB
  0
TABLE
  2
APPID
  5
9
330
0
100
AcDbSymbolTable
 70
     4
  0
APPID
  5
56
330
9
100
AcDbSymbolTableRecord
100
AcDbRegAppTableRecord
  2
ACAD
 70
     0
  0
APPID
  5
5E
330
9
100
AcDbSymbolTableRecord
100
AcDbRegAppTableRecord
  2
AcadAnnotative
 70
     0
  0
APPID
  5
2C4
330
9
100
AcDbSymbolTableRecord
100
AcDbRegAppTableRecord
  2
ACAD_MLEADERVER
 70
     0
  0
APPID
  5
2E1
330
9
100
AcDbSymbolTableRecord
100
AcDbRegAppTableRecord
  2
ACAD_NAV_VCDISPLAY
 70
     0
  0
ENDTAB
  0
TABLE
  2
DIMSTYLE
  5
A
330
0
100
AcDbSymbolTable
 70
     2
100
AcDbDimStyleTable
 71
     0
  0
DIMSTYLE
105
58
330
A
100
AcDbSymbolTableRecord
100
AcDbDimStyleTableRecord
  2
Standard
 70
     0
340
55
  0
DIMSTYLE
105
59
330
A
100
AcDbSymbolTableRecord
100
AcDbDimStyleTableRecord
  2
Annotative
 70
     0
340
55
1001
AcadAnnotative
1000
AnnotativeData
1002
{
1070
     1
1070
     1
1002
}
  0
ENDTAB
  0
TABLE
  2
BLOCK_RECORD
  5
1
330
0
100
AcDbSymbolTable
 70
     1
  0
BLOCK_RECORD
  5
70
102
{ACAD_XDICTIONARY
360
254
102
}
330
1
100
AcDbSymbolTableRecord
100
AcDbBlockTableRecord
  2
*Model_Space
340
73
 70
     0
280
     1
281
     0
  0
BLOCK_RECORD
  5
6C
330
1
100
AcDbSymbolTableRecord
100
AcDbBlockTableRecord
  2
*Paper_Space
340
6F
 70
     0
280
     1
281
     0
  0
BLOCK_RECORD
  5
74
330
1
100
AcDbSymbolTableRecord
100
AcDbBlockTableRecord
  2
*Paper_Space0
340
77
 70
     0
280
     1
281
     0
  0
ENDTAB
  0
ENDSEC
  0
SECTION
  2
BLOCKS
  0
BLOCK
  5
71
330
70
100
AcDbEntity
  8
0
100
AcDbBlockBegin
  2
*Model_Space
 70
     0
 10
0.0
 20
0.0
 30
0.0
  3
*Model_Space
  1

  0
ENDBLK
  5
72
330
70
100
AcDbEntity
  8
0
100
AcDbBlockEnd
  0
BLOCK
  5
6D
330
6C
100
AcDbEntity
 67
     1
  8
0
100
AcDbBlockBegin
  2
*Paper_Space
 70
     0
 10
0.0
 20
0.0
 30
0.0
  3
*Paper_Space
  1

  0
ENDBLK
  5
6E
330
6C
100
AcDbEntity
 67
     1
  8
0
100
AcDbBlockEnd
  0
BLOCK
  5
75
330
74
100
AcDbEntity
 67
     1
  8
0
100
AcDbBlockBegin
  2
*Paper_Space0
 70
     0
 10
0.0
 20
0.0
 30
0.0
  3
*Paper_Space0
  1

  0
ENDBLK
  5
76
330
74
100
AcDbEntity
 67
     1
  8
0
100
AcDbBlockEnd
  0
ENDSEC
  0
SECTION
  2
ENTITIES
  0
TEXT
  5
78
330
70
100
AcDbEntity
  8
A-FURN-P-SEAT-T
100
AcDbText
 10
-0.8333915394043742
 20
-5.354744712025336
 30
0.0
 40
2.5
  1
Q
  7
MONOTXT
 72
     1
 11
-0.0000582060710599
 21
-2.854744712025308
 31
0.0
100
AcDbText
 73
     3
  0
POINT
  5
7B
330
70
100
AcDbEntity
  8
A-FURN-P-SEAT
100
AcDbPoint
 10
0.0002227869451303
 20
0.0000005960464478
 30
0.0
  0
LWPOLYLINE
  5
7D
330
70
100
AcDbEntity
  8
A-FURN-P-SEAT
100
AcDbPolyline
 90
        2
 70
     0
 10
-9.838542736822944
 20
16.19698678652779
 40
0.0
 41
0.0
 10
-9.657022655756122
 20
16.10378656869525
 40
0.1969552685041935
 41
0.1969552685041935
  0
LWPOLYLINE
  5
7E
330
70
100
AcDbEntity
  8
A-FURN-P-SEAT
100
AcDbPolyline
 90
        2
 70
     0
 10
-9.534063875539516
 20
15.96988239334206
 40
0.0
 41
0.0
 10
-9.314256281141297
 20
15.26998431769348
 40
0.1969552685041935
 41
0.1969552685041935
  0
LWPOLYLINE
  5
7F
330
70
100
AcDbEntity
  8
A-FURN-P-SEAT
100
AcDbPolyline
 90
        2
 70
     0
 10
-9.534063875539516
 20
15.96988239334206
 40
0.0
 41
0.0
 10
-9.657022655756122
 20
16.10378656869525
 40
0.1969552685041935
 41
0.1969552685041935
  0
LWPOLYLINE
  5
80
330
70
100
AcDbEntity
  8
A-FURN-P-SEAT
100
AcDbPolyline
 90
        2
 70
     0
 10
-9.959247560946778
 20
16.3934973300357
 40
0.0
 41
0.0
 10
-9.519061398826977
 20
17.2165584285143
 40
0.1969552685041935
 41
0.1969552685041935
  0
LWPOLYLINE
  5
81
330
70
100
AcDbEntity
  8
A-FURN-P-SEAT
100
AcDbPolyline
 90
        2
 70
     0
 10
-9.414290649835663
 20
15.5885159373847
 40
0.0
 41
0.0
 10
-9.041525427409112
 20
16.46222250751702
 40
0.1969552685041935
 41
0.1969552685041935
  0
LWPOLYLINE
  5
82
330
70
100
AcDbEntity
  8
A-FURN-P-SEAT
100
AcDbPolyline
 90
        2
 70
     0
 10
-9.391065684573618
 20
15.51455549191127
 40
0.0
 41
0.0
 10
-8.766498469156772
 20
15.33563206910443
 40
0.1969552685041935
 41
0.1969552685041935
  0
LWPOLYLINE
  5
83
330
70
100
AcDbEntity
  8
A-FURN-P-SEAT
100
AcDbPolyline
 90
        2
 70
     0
 10
-8.766498469156772
 20
15.33563206910443
 40
0.0
 41
0.0
 10
-8.190166386817622
 20
15.05213623126164
 40
0.1969552685041935
 41
0.1969552685041935
  0
LWPOLYLINE
  5
84
330
70
100
AcDbEntity
  8
A-FURN-P-SEAT
100
AcDbPolyline
 90
        2
 70
     0
 10
-7.607805503709585
 20
18.1389808995348
 40
0.0
 41
0.0
 10
-8.42751284787613
 20
18.01679142659694
 40
0.1969552685041935
 41
0.1969552685041935
  0
LWPOLYLINE
  5
85
330
70
100
AcDbEntity
  8
A-FURN-P-SEAT
100
AcDbPolyline
 90
        2
 70
     0
 10
-7.607805503709585
 20
18.1389808995348
 40
0.0
 41
0.0
 10
-7.549364542528508
 20
18.13711159708143
 40
0.1969552685041935
 41
0.1969552685041935
  0
LWPOLYLINE
  5
86
330
70
100
AcDbEntity
  8
A-FURN-P-SEAT
100
AcDbPolyline
 90
        2
 70
     0
 10
-9.373100015846489
 20
11.69576438365382
 40
0.0
 41
0.0
 10
-9.677284429003464
 20
8.242982538202653
 40
0.1969552685041935
 41
0.1969552685041935
  0
LWPOLYLINE
  5
87
330
70
100
AcDbEntity
  8
A-FURN-P-SEAT
100
AcDbPolyline
 90
        2
 70
     0
 10
-9.373100015846489
 20
11.69576438365382
 40
0.0
 41
0.0
 10
-9.30668906277009
 20
13.96010671554509
 40
0.1969552685041935
 41
0.1969552685041935
  0
LWPOLYLINE
  5
88
330
70
100
AcDbEntity
  8
A-FURN-P-SEAT
100
AcDbPolyline
 90
        2
 70
     0
 10
-9.677284429003464
 20
8.242982538202653
 40
0.0
 41
0.0
 10
-9.828186434894405
 20
7.895227286636611
 40
0.1969552685041935
 41
0.1969552685041935
  0
LWPOLYLINE
  5
89
330
70
100
AcDbEntity
  8
A-FURN-P-SEAT
100
AcDbPolyline
 90
        2
 70
     0
 10
-9.828186434894405
 20
7.895227286636611
 40
0.0
 41
0.0
 10
-9.958087494415281
 20
7.757524435019746
 40
0.1969552685041935
 41
0.1969552685041935
  0
LWPOLYLINE
  5
8A
330
70
100
AcDbEntity
  8
A-FURN-P-SEAT
100
AcDbPolyline
 90
        2
 70
     0
 10
-10.12676294069132
 20
7.669343031339252
 40
0.0
 41
0.0
 10
-10.51935112002695
 20
7.58663718107843
 40
0.1969552685041935
 41
0.1969552685041935
  0
LWPOLYLINE
  5
8B
330
70
100
AcDbEntity
  8
A-FURN-P-SEAT
100
AcDbPolyline
 90
        2
 70
     0
 10
-10.12676294069132
 20
7.669343031339252
 40
0.0
 41
0.0
 10
-9.958087494415281
 20
7.757524435019746
 40
0.1969552685041935
 41
0.1969552685041935
  0
LWPOLYLINE
  5
8C
330
70
100
AcDbEntity
  8
A-FURN-P-SEAT
100
AcDbPolyline
 90
        2
 70
     0
 10
-10.51935112002695
 20
7.58663718107843
 40
0.0
 41
0.0
 10
-11.46195717305323
 20
7.740304045028636
 40
0.1969552685041935
 41
0.1969552685041935
  0
LWPOLYLINE
  5
8D
330
70
100
AcDbEntity
  8
A-FURN-P-SEAT
100
AcDbPolyline
 90
        2
 70
     0
 10
-11.46195717305323
 20
7.740304045028636
 40
0.0
 41
0.0
 10
-12.05011208625012
 20
8.042937829356702
 40
0.1969552685041935
 41
0.1969552685041935
  0
LWPOLYLINE
  5
8E
330
70
100
AcDbEntity
  8
A-FURN-P-SEAT
100
AcDbPolyline
 90
        2
 70
     0
 10
-12.68877716283123
 20
11.61944776230328
 40
0.0
 41
0.0
 10
-12.71635680907991
 20
14.29806462423468
 40
0.1969552685041935
 41
0.1969552685041935
  0
LWPOLYLINE
  5
8F
330
70
100
AcDbEntity
  8
A-FURN-P-SEAT
100
AcDbPolyline
 90
        2
 70
     0
 10
-12.71635680907991
 20
14.29806462423468
 40
0.0
 41
0.0
 10
-12.53740325211697
 20
15.29293886337186
 40
0.1969552685041935
 41
0.1969552685041935
  0
LWPOLYLINE
  5
90
330
70
100
AcDbEntity
  8
A-FURN-P-SEAT
100
AcDbPolyline
 90
        2
 70
     0
 10
-12.41363321314935
 20
9.023807170216343
 40
0.0
 41
0.0
 10
-12.68877716283123
 20
11.61944776230328
 40
0.1969552685041935
 41
0.1969552685041935
  0
LWPOLYLINE
  5
91
330
70
100
AcDbEntity
  8
A-FURN-P-SEAT
100
AcDbPolyline
 90
        2
 70
     0
 10
-12.53740325211697
 20
15.29293886337186
 40
0.0
 41
0.0
 10
-12.23295452498962
 20
15.7402053704391
 40
0.1969552685041935
 41
0.1969552685041935
  0
LWPOLYLINE
  5
92
330
70
100
AcDbEntity
  8
A-FURN-P-SEAT
100
AcDbPolyline
 90
        2
 70
     0
 10
-12.30817115116559
 20
8.508638758690125
 40
0.0
 41
0.0
 10
-12.41363321314935
 20
9.023807170216343
 40
0.1969552685041935
 41
0.1969552685041935
  0
LWPOLYLINE
  5
93
330
70
100
AcDbEntity
  8
A-FURN-P-SEAT
100
AcDbPolyline
 90
        2
 70
     0
 10
-12.30817115116559
 20
8.508638758690125
 40
0.0
 41
0.0
 10
-12.21099184604344
 20
8.222221877260153
 40
0.1969552685041935
 41
0.1969552685041935
  0
LWPOLYLINE
  5
94
330
70
100
AcDbEntity
  8
A-FURN-P-SEAT
100
AcDbPolyline
 90
        2
 70
     0
 10
-12.23295452498962
 20
15.7402053704391
 40
0.0
 41
0.0
 10
-11.73637100955477
 20
16.01730607071354
 40
0.1969552685041935
 41
0.1969552685041935
  0
LWPOLYLINE
  5
95
330
70
100
AcDbEntity
  8
A-FURN-P-SEAT
100
AcDbPolyline
 90
        2
 70
     0
 10
-12.05011208625012
 20
8.042937829356702
 40
0.0
 41
0.0
 10
-12.21099184604344
 20
8.222221877260153
 40
0.1969552685041935
 41
0.1969552685041935
  0
LWPOLYLINE
  5
96
330
70
100
AcDbEntity
  8
A-FURN-P-SEAT
100
AcDbPolyline
 90
        2
 70
     0
 10
-11.73637100955477
 20
16.01730607071354
 40
0.0
 41
0.0
 10
-10.23923917065235
 20
16.27828617921619
 40
0.1969552685041935
 41
0.1969552685041935
  0
LWPOLYLINE
  5
97
330
70
100
AcDbEntity
  8
A-FURN-P-SEAT
100
AcDbPolyline
 90
        2
 70
     0
 10
-10.23923917065235
 20
16.27828617921619
 40
0.0
 41
0.0
 10
-9.838542736822944
 20
16.19698678652779
 40
0.1969552685041935
 41
0.1969552685041935
  0
LWPOLYLINE
  5
98
330
70
100
AcDbEntity
  8
A-FURN-P-SEAT
100
AcDbPolyline
 90
        2
 70
     0
 10
-10.0082699242327
 20
16.23142756651003
 40
0.0
 41
0.0
 10
-9.959247560946778
 20
16.3934973300357
 40
0.1969552685041935
 41
0.1969552685041935
  0
LWPOLYLINE
  5
99
330
70
100
AcDbEntity
  8
A-FURN-P-SEAT
100
AcDbPolyline
 90
        2
 70
     0
 10
-9.085715296227078
 20
17.56171111316234
 40
0.0
 41
0.0
 10
-9.519061398826977
 20
17.2165584285143
 40
0.1969552685041935
 41
0.1969552685041935
  0
LWPOLYLINE
  5
9A
330
70
100
AcDbEntity
  8
A-FURN-P-SEAT
100
AcDbPolyline
 90
        2
 70
     0
 10
-9.085715296227078
 20
17.56171111316234
 40
0.0
 41
0.0
 10
-8.42751284787613
 20
18.01679142659694
 40
0.1969552685041935
 41
0.1969552685041935
  0
LWPOLYLINE
  5
9B
330
70
100
AcDbEntity
  8
A-FURN-P-SEAT
100
AcDbPolyline
 90
        2
 70
     0
 10
-7.601536417513102
 20
16.98635868632877
 40
0.0
 41
0.0
 10
-7.670592282890254
 20
16.98675535423953
 40
0.1969552685041935
 41
0.1969552685041935
  0
LWPOLYLINE
  5
9C
330
70
100
AcDbEntity
  8
A-FURN-P-SEAT
100
AcDbPolyline
 90
        2
 70
     0
 10
-7.52211243289139
 20
16.43115970734487
 40
0.0
 41
0.0
 10
-7.625188184841988
 20
16.82356767260984
 40
0.1969552685041935
 41
0.1969552685041935
  0
LWPOLYLINE
  5
9D
330
70
100
AcDbEntity
  8
A-FURN-P-SEAT
100
AcDbPolyline
 90
        2
 70
     0
 10
-7.5761116588572
 20
17.49144121551015
 40
0.0
 41
0.0
 10
-7.521349034270656
 20
17.53823975685944
 40
0.1969552685041935
 41
0.1969552685041935
  0
LWPOLYLINE
  5
9E
330
70
100
AcDbEntity
  8
A-FURN-P-SEAT
100
AcDbPolyline
 90
        2
 70
     0
 10
-7.569878615474806
 20
17.51244826749354
 40
0.0
 41
0.0
 10
-7.518722438809902
 20
17.55634368818505
 40
0.1969552685041935
 41
0.1969552685041935
  0
LWPOLYLINE
  5
9F
330
70
100
AcDbEntity
  8
A-FURN-P-SEAT
100
AcDbPolyline
 90
        2
 70
     0
 10
-9.041525427409112
 20
16.46222250751702
 40
0.0
 41
0.0
 10
-8.524433747685975
 20
17.59296023301849
 40
0.1969552685041935
 41
0.1969552685041935
  0
LWPOLYLINE
  5
A0
330
70
100
AcDbEntity
  8
A-FURN-P-SEAT
100
AcDbPolyline
 90
        2
 70
     0
 10
-7.658552998192419
 20
16.98289050100567
 40
0.0
 41
0.0
 10
-7.669366039388535
 20
16.98274022413579
 40
0.1969552685041935
 41
0.1969552685041935
  0
LWPOLYLINE
  5
A1
330
70
100
AcDbEntity
  8
A-FURN-P-SEAT
100
AcDbPolyline
 90
        2
 70
     0
 10
-7.624929779529736
 20
16.98463966074524
 40
0.0
 41
0.0
 10
-7.658540983921
 20
16.98289050100567
 40
0.1969552685041935
 41
0.1969552685041935
  0
LWPOLYLINE
  5
A2
330
70
100
AcDbEntity
  8
A-FURN-P-SEAT
100
AcDbPolyline
 90
        2
 70
     0
 10
-7.608070014635188
 20
16.9414054188901
 40
0.0
 41
0.0
 10
-7.654976684426912
 20
16.93552098633299
 40
0.1969552685041935
 41
0.1969552685041935
  0
LWPOLYLINE
  5
A3
330
70
100
AcDbEntity
  8
A-FURN-P-SEAT
100
AcDbPolyline
 90
        2
 70
     0
 10
-7.621605962418414
 20
17.33179971348988
 40
0.0
 41
0.0
 10
-7.541286225235523
 20
17.40102968732438
 40
0.1969552685041935
 41
0.1969552685041935
  0
LWPOLYLINE
  5
A4
330
70
100
AcDbEntity
  8
A-FURN-P-SEAT
100
AcDbPolyline
 90
        2
 70
     0
 10
-7.549364542528508
 20
18.13711159708143
 40
0.0
 41
0.0
 10
-7.512537649468356
 20
18.11782967629486
 40
0.1969552685041935
 41
0.1969552685041935
  0
LWPOLYLINE
  5
A5
330
70
100
AcDbEntity
  8
A-FURN-P-SEAT
100
AcDbPolyline
 90
        2
 70
     0
 10
-9.314256281141297
 20
15.26998431769348
 40
0.0
 41
0.0
 10
-9.30668906277009
 20
13.96010671554509
 40
0.1969552685041935
 41
0.1969552685041935
  0
LWPOLYLINE
  5
A6
330
70
100
AcDbEntity
  8
A-FURN-P-SEAT
100
AcDbPolyline
 90
        2
 70
     0
 10
9.373485518379879
 20
11.69571632656831
 40
0.0
 41
0.0
 10
9.677651811652197
 20
8.242940389775185
 40
0.1969552685041935
 41
0.1969552685041935
  0
LWPOLYLINE
  5
A7
330
70
100
AcDbEntity
  8
A-FURN-P-SEAT
100
AcDbPolyline
 90
        2
 70
     0
 10
9.373485518379879
 20
11.69571632656831
 40
0.0
 41
0.0
 10
9.3070865795749
 20
13.96006476407291
 40
0.1969552685041935
 41
0.1969552685041935
  0
LWPOLYLINE
  5
A8
330
70
100
AcDbEntity
  8
A-FURN-P-SEAT
100
AcDbPolyline
 90
        2
 70
     0
 10
9.677651811652197
 20
8.242940389775185
 40
0.0
 41
0.0
 10
9.828554014498422
 20
7.895179229551104
 40
0.1969552685041935
 41
0.1969552685041935
  0
LWPOLYLINE
  5
A9
330
70
100
AcDbEntity
  8
A-FURN-P-SEAT
100
AcDbPolyline
 90
        2
 70
     0
 10
9.828554014498422
 20
7.895179229551104
 40
0.0
 41
0.0
 10
9.958455074019241
 20
7.757476377934239
 40
0.1969552685041935
 41
0.1969552685041935
  0
LWPOLYLINE
  5
AA
330
70
100
AcDbEntity
  8
A-FURN-P-SEAT
100
AcDbPolyline
 90
        2
 70
     0
 10
-9.70875000269973
 20
7.536160106179323
 40
0.0
 41
0.0
 10
-9.751323065718509
 20
8.07236570384498
 40
0.1969552685041935
 41
0.1969552685041935
  0
LWPOLYLINE
  5
AB
330
70
100
AcDbEntity
  8
A-FURN-P-SEAT
100
AcDbPolyline
 90
        2
 70
     0
 10
-9.70875000269973
 20
7.536160106179323
 40
0.0
 41
0.0
 10
-9.175375440063533
 20
4.440798501230204
 40
0.1969552685041935
 41
0.1969552685041935
  0
LWPOLYLINE
  5
AC
330
70
100
AcDbEntity
  8
A-FURN-P-SEAT
100
AcDbPolyline
 90
        2
 70
     0
 10
-9.668334584647368
 20
8.344555521454566
 40
0.0
 41
0.0
 10
-9.605956684604166
 20
7.524583863317701
 40
0.1969552685041935
 41
0.1969552685041935
  0
LWPOLYLINE
  5
AD
330
70
100
AcDbEntity
  8
A-FURN-P-SEAT
100
AcDbPolyline
 90
        2
 70
     0
 10
-9.605956684604166
 20
7.524583863317701
 40
0.0
 41
0.0
 10
-9.092903966572237
 20
4.424642063599549
 40
0.1969552685041935
 41
0.1969552685041935
  0
LWPOLYLINE
  5
AE
330
70
100
AcDbEntity
  8
A-FURN-P-SEAT
100
AcDbPolyline
 90
        2
 70
     0
 10
-8.770399365204752
 20
2.922882169797816
 40
0.0
 41
0.0
 10
-9.092903966572237
 20
4.424642063599549
 40
0.1969552685041935
 41
0.1969552685041935
  0
LWPOLYLINE
  5
AF
330
70
100
AcDbEntity
  8
A-FURN-P-SEAT
100
AcDbPolyline
 90
        2
 70
     0
 10
-8.607470088887339
 20
2.423876301515605
 40
0.0
 41
0.0
 10
-8.913036931073975
 20
3.341448158183368
 40
0.1969552685041935
 41
0.1969552685041935
  0
LWPOLYLINE
  5
B0
330
70
100
AcDbEntity
  8
A-FURN-P-SEAT
100
AcDbPolyline
 90
        2
 70
     0
 10
-8.249533037760727
 20
1.621948306392226
 40
0.0
 41
0.0
 10
-8.770399365204752
 20
2.922882169797816
 40
0.1969552685041935
 41
0.1969552685041935
  0
LWPOLYLINE
  5
B1
330
70
100
AcDbEntity
  8
A-FURN-P-SEAT
100
AcDbPolyline
 90
        2
 70
     0
 10
-8.474323403496782
 20
2.183386237416499
 40
0.0
 41
0.0
 10
-8.607470088887339
 20
2.423876301515605
 40
0.1969552685041935
 41
0.1969552685041935
  0
LWPOLYLINE
  5
B2
330
70
100
AcDbEntity
  8
A-FURN-P-SEAT
100
AcDbPolyline
 90
        2
 70
     0
 10
4.418072252063893
 20
0.1601559543622386
 40
0.0
 41
0.0
 10
0.0002227869451303
 20
0.0000005960464478
 40
0.1969552685041935
 41
0.1969552685041935
  0
LWPOLYLINE
  5
B3
330
70
100
AcDbEntity
  8
A-FURN-P-SEAT
100
AcDbPolyline
 90
        2
 70
     0
 10
4.418072252063893
 20
0.1601559543622386
 40
0.0
 41
0.0
 10
6.18863807500702
 20
0.3444798906314475
 40
0.1969552685041935
 41
0.1969552685041935
  0
LWPOLYLINE
  5
B4
330
70
100
AcDbEntity
  8
A-FURN-P-SEAT
100
AcDbPolyline
 90
        2
 70
     0
 10
6.18863807500702
 20
0.3444798906314475
 40
0.0
 41
0.0
 10
7.145002438314634
 20
0.6491691001416485
 40
0.1969552685041935
 41
0.1969552685041935
  0
LWPOLYLINE
  5
B5
330
70
100
AcDbEntity
  8
A-FURN-P-SEAT
100
AcDbPolyline
 90
        2
 70
     0
 10
9.314653797946107
 20
15.26993626060798
 40
0.0
 41
0.0
 10
9.3070865795749
 20
13.96006476407291
 40
0.1969552685041935
 41
0.1969552685041935
  0
LWPOLYLINE
  5
B6
330
70
100
AcDbEntity
  8
A-FURN-P-SEAT
100
AcDbPolyline
 90
        2
 70
     0
 10
9.534467497957621
 20
15.96984024491459
 40
0.0
 41
0.0
 10
9.314653797946107
 20
15.26993626060798
 40
0.1969552685041935
 41
0.1969552685041935
  0
LWPOLYLINE
  5
B7
330
70
100
AcDbEntity
  8
A-FURN-P-SEAT
100
AcDbPolyline
 90
        2
 70
     0
 10
9.534467497957621
 20
15.96984024491459
 40
0.0
 41
0.0
 10
9.657426278174227
 20
16.10373851160975
 40
0.1969552685041935
 41
0.1969552685041935
  0
LWPOLYLINE
  5
B8
330
70
100
AcDbEntity
  8
A-FURN-P-SEAT
100
AcDbPolyline
 90
        2
 70
     0
 10
9.83895226789906
 20
16.19693872944225
 40
0.0
 41
0.0
 10
9.657426278174227
 20
16.10373851160975
 40
0.1969552685041935
 41
0.1969552685041935
  0
LWPOLYLINE
  5
B9
330
70
100
AcDbEntity
  8
A-FURN-P-SEAT
100
AcDbPolyline
 90
        2
 70
     0
 10
10.23964870172852
 20
16.27823812213071
 40
0.0
 41
0.0
 10
9.83895226789906
 20
16.19693872944225
 40
0.1969552685041935
 41
0.1969552685041935
  0
LWPOLYLINE
  5
BA
330
70
100
AcDbEntity
  8
A-FURN-P-SEAT
100
AcDbPolyline
 90
        2
 70
     0
 10
10.12713032334
 20
7.669294974253745
 40
0.0
 41
0.0
 10
9.958455074019241
 20
7.757476377934239
 40
0.1969552685041935
 41
0.1969552685041935
  0
LWPOLYLINE
  5
BB
330
70
100
AcDbEntity
  8
A-FURN-P-SEAT
100
AcDbPolyline
 90
        2
 70
     0
 10
10.12713032334
 20
7.669294974253745
 40
0.0
 41
0.0
 10
10.51971869963091
 20
7.586583018379599
 40
0.1969552685041935
 41
0.1969552685041935
  0
LWPOLYLINE
  5
BC
330
70
100
AcDbEntity
  8
A-FURN-P-SEAT
100
AcDbPolyline
 90
        2
 70
     0
 10
10.51971869963091
 20
7.586583018379599
 40
0.0
 41
0.0
 10
11.4623186470439
 20
7.740243973671738
 40
0.1969552685041935
 41
0.1969552685041935
  0
LWPOLYLINE
  5
BD
330
70
100
AcDbEntity
  8
A-FURN-P-SEAT
100
AcDbPolyline
 90
        2
 70
     0
 10
11.4623186470439
 20
7.740243973671738
 40
0.0
 41
0.0
 10
12.05047966585408
 20
8.042877561044548
 40
0.1969552685041935
 41
0.1969552685041935
  0
LWPOLYLINE
  5
BE
330
70
100
AcDbEntity
  8
A-FURN-P-SEAT
100
AcDbPolyline
 90
        2
 70
     0
 10
12.05047966585408
 20
8.042877561044548
 40
0.0
 41
0.0
 10
12.21135922869217
 20
8.222161805903255
 40
0.1969552685041935
 41
0.1969552685041935
  0
LWPOLYLINE
  5
BF
330
70
100
AcDbEntity
  8
A-FURN-P-SEAT
100
AcDbPolyline
 90
        2
 70
     0
 10
2.757674737245451
 20
17.57397276035834
 40
0.0
 41
0.0
 10
5.112656868478723
 20
16.93530453249292
 40
0.1969552685041935
 41
0.1969552685041935
  0
LWPOLYLINE
  5
C0
330
70
100
AcDbEntity
  8
A-FURN-P-SEAT
100
AcDbPolyline
 90
        2
 70
     0
 10
5.112656868478723
 20
16.93530453249292
 40
0.0
 41
0.0
 10
6.406720735163617
 20
16.42700040598461
 40
0.1969552685041935
 41
0.1969552685041935
  0
LWPOLYLINE
  5
C1
330
70
100
AcDbEntity
  8
A-FURN-P-SEAT
100
AcDbPolyline
 90
        2
 70
     0
 10
6.406720735163617
 20
16.42700040598461
 40
0.0
 41
0.0
 10
7.051862094883745
 20
16.36279515496019
 40
0.1969552685041935
 41
0.1969552685041935
  0
LWPOLYLINE
  5
C2
330
70
100
AcDbEntity
  8
A-FURN-P-SEAT
100
AcDbPolyline
 90
        2
 70
     0
 10
7.051862094883745
 20
16.36279515496019
 40
0.0
 41
0.0
 10
7.522564112395002
 20
16.43115379868681
 40
0.1969552685041935
 41
0.1969552685041935
  0
LWPOLYLINE
  5
C3
330
70
100
AcDbEntity
  8
A-FURN-P-SEAT
100
AcDbPolyline
 90
        2
 70
     0
 10
7.051988343210837
 20
16.36281327484488
 40
0.0
 41
0.0
 10
7.314951988222617
 20
16.04807422580401
 40
0.1969552685041935
 41
0.1969552685041935
  0
LWPOLYLINE
  5
C4
330
70
100
AcDbEntity
  8
A-FURN-P-SEAT
100
AcDbPolyline
 90
        2
 70
     0
 10
7.145002438314634
 20
0.6491691001416485
 40
0.0
 41
0.0
 10
8.249984717264339
 20
1.621948306392226
 40
0.1969552685041935
 41
0.1969552685041935
  0
LWPOLYLINE
  5
C5
330
70
100
AcDbEntity
  8
A-FURN-P-SEAT
100
AcDbPolyline
 90
        2
 70
     0
 10
7.486254029959411
 20
17.78289503097684
 40
0.0
 41
0.0
 10
7.6256398643456
 20
16.82356767260984
 40
0.1969552685041935
 41
0.1969552685041935
  0
LWPOLYLINE
  5
C6
330
70
100
AcDbEntity
  8
A-FURN-P-SEAT
100
AcDbPolyline
 90
        2
 70
     0
 10
7.522564112395002
 20
16.43115379868681
 40
0.0
 41
0.0
 10
7.6256398643456
 20
16.82356767260984
 40
0.1969552685041935
 41
0.1969552685041935
  0
LWPOLYLINE
  5
C7
330
70
100
AcDbEntity
  8
A-FURN-P-SEAT
100
AcDbPolyline
 90
        2
 70
     0
 10
8.249984717264339
 20
1.621948306392226
 40
0.0
 41
0.0
 10
8.770851044708422
 20
2.922882169797816
 40
0.1969552685041935
 41
0.1969552685041935
  0
LWPOLYLINE
  5
C8
330
70
100
AcDbEntity
  8
A-FURN-P-SEAT
100
AcDbPolyline
 90
        2
 70
     0
 10
11.73677443501759
 20
16.01724599935667
 40
0.0
 41
0.0
 10
10.23964870172852
 20
16.27823812213071
 40
0.1969552685041935
 41
0.1969552685041935
  0
LWPOLYLINE
  5
C9
330
70
100
AcDbEntity
  8
A-FURN-P-SEAT
100
AcDbPolyline
 90
        2
 70
     0
 10
12.23335814740773
 20
15.7401452990822
 40
0.0
 41
0.0
 10
11.73677443501759
 20
16.01724599935667
 40
0.1969552685041935
 41
0.1969552685041935
  0
LWPOLYLINE
  5
CA
330
70
100
AcDbEntity
  8
A-FURN-P-SEAT
100
AcDbPolyline
 90
        2
 70
     0
 10
12.30853873076955
 20
8.508578687333255
 40
0.0
 41
0.0
 10
12.21135922869217
 20
8.222161805903255
 40
0.1969552685041935
 41
0.1969552685041935
  0
LWPOLYLINE
  5
CB
330
70
100
AcDbEntity
  8
A-FURN-P-SEAT
100
AcDbPolyline
 90
        2
 70
     0
 10
12.53780076892178
 20
15.29287879201496
 40
0.0
 41
0.0
 10
12.23335814740773
 20
15.7401452990822
 40
0.1969552685041935
 41
0.1969552685041935
  0
LWPOLYLINE
  5
CC
330
70
100
AcDbEntity
  8
A-FURN-P-SEAT
100
AcDbPolyline
 90
        2
 70
     0
 10
12.30853873076955
 20
8.508578687333255
 40
0.0
 41
0.0
 10
12.41400650445615
 20
9.023747098859445
 40
0.1969552685041935
 41
0.1969552685041935
  0
LWPOLYLINE
  5
CD
330
70
100
AcDbEntity
  8
A-FURN-P-SEAT
100
AcDbPolyline
 90
        2
 70
     0
 10
12.41400650445615
 20
9.023747098859445
 40
0.0
 41
0.0
 10
12.68915971103564
 20
11.61938769094638
 40
0.1969552685041935
 41
0.1969552685041935
  0
LWPOLYLINE
  5
CE
330
70
100
AcDbEntity
  8
A-FURN-P-SEAT
100
AcDbPolyline
 90
        2
 70
     0
 10
12.71675432588466
 20
14.29800455287778
 40
0.0
 41
0.0
 10
12.53780076892178
 20
15.29287879201496
 40
0.1969552685041935
 41
0.1969552685041935
  0
LWPOLYLINE
  5
CF
330
70
100
AcDbEntity
  8
A-FURN-P-SEAT
100
AcDbPolyline
 90
        2
 70
     0
 10
12.68915971103564
 20
11.61938769094638
 40
0.0
 41
0.0
 10
12.71675432588466
 20
14.29800455287778
 40
0.1969552685041935
 41
0.1969552685041935
  0
LWPOLYLINE
  5
D0
330
70
100
AcDbEntity
  8
A-FURN-P-SEAT
100
AcDbPolyline
 90
        2
 70
     0
 10
-7.144550758810964
 20
0.6491691001416485
 40
0.0
 41
0.0
 10
-8.249533037760727
 20
1.621948306392226
 40
0.1969552685041935
 41
0.1969552685041935
  0
LWPOLYLINE
  5
D1
330
70
100
AcDbEntity
  8
A-FURN-P-SEAT
100
AcDbPolyline
 90
        2
 70
     0
 10
-6.188192501116702
 20
0.3444828449604813
 40
0.0
 41
0.0
 10
-7.144550758810964
 20
0.6491691001416485
 40
0.1969552685041935
 41
0.1969552685041935
  0
LWPOLYLINE
  5
D2
330
70
100
AcDbEntity
  8
A-FURN-P-SEAT
100
AcDbPolyline
 90
        2
 70
     0
 10
-4.417620769515508
 20
0.1601559543622386
 40
0.0
 41
0.0
 10
-6.188192501116702
 20
0.3444828449604813
 40
0.1969552685041935
 41
0.1969552685041935
  0
LWPOLYLINE
  5
D3
330
70
100
AcDbEntity
  8
A-FURN-P-SEAT
100
AcDbPolyline
 90
        2
 70
     0
 10
0.0002227869451303
 20
0.0000005960464478
 40
0.0
 41
0.0
 10
-4.417620769515508
 20
0.1601559543622386
 40
0.1969552685041935
 41
0.1969552685041935
  0
LWPOLYLINE
  5
D4
330
70
100
AcDbEntity
  8
A-FURN-P-SEAT
100
AcDbPolyline
 90
        2
 70
     0
 10
8.420150721012419
 20
14.5305126108102
 40
0.0
 41
0.0
 10
7.314951988222617
 20
16.04807422580401
 40
0.1969552685041935
 41
0.1969552685041935
  0
LWPOLYLINE
  5
D5
330
70
100
AcDbEntity
  8
A-FURN-P-SEAT
100
AcDbPolyline
 90
        2
 70
     0
 10
8.420150721012419
 20
14.5305126108102
 40
0.0
 41
0.0
 10
9.34132882864651
 20
12.79239182011358
 40
0.1969552685041935
 41
0.1969552685041935
  0
LWPOLYLINE
  5
D6
330
70
100
AcDbEntity
  8
A-FURN-P-SEAT
100
AcDbPolyline
 90
        2
 70
     0
 10
9.093355646075849
 20
4.424635957986225
 40
0.0
 41
0.0
 10
8.770851044708422
 20
2.922882169797816
 40
0.1969552685041935
 41
0.1969552685041935
  0
LWPOLYLINE
  5
D7
330
70
100
AcDbEntity
  8
A-FURN-P-SEAT
100
AcDbPolyline
 90
        2
 70
     0
 10
9.606408364107778
 20
7.524583863317701
 40
0.0
 41
0.0
 10
9.093355646075849
 20
4.424635957986225
 40
0.1969552685041935
 41
0.1969552685041935
  0
LWPOLYLINE
  5
D8
330
70
100
AcDbEntity
  8
A-FURN-P-SEAT
100
AcDbPolyline
 90
        2
 70
     0
 10
9.668750221336892
 20
8.344020590945291
 40
0.0
 41
0.0
 10
9.606408364107778
 20
7.524583863317701
 40
0.1969552685041935
 41
0.1969552685041935
  0
LWPOLYLINE
  5
D9
330
70
100
AcDbEntity
  8
A-FURN-P-SEAT
100
AcDbPolyline
 90
        2
 70
     0
 10
-8.419699041508749
 20
14.5305126108102
 40
0.0
 41
0.0
 10
-9.340937417454995
 20
12.7922777830131
 40
0.1969552685041935
 41
0.1969552685041935
  0
LWPOLYLINE
  5
DA
330
70
100
AcDbEntity
  8
A-FURN-P-SEAT
100
AcDbPolyline
 90
        2
 70
     0
 10
-9.340540749544231
 20
12.80590373935402
 40
0.0
 41
0.0
 10
-8.419705147122101
 20
14.54338718280178
 40
0.1969552685041935
 41
0.1969552685041935
  0
LWPOLYLINE
  5
DB
330
70
100
AcDbEntity
  8
A-FURN-P-SEAT
100
AcDbPolyline
 90
        2
 70
     0
 10
-9.333766670039324
 20
13.0367707659893
 40
0.0
 41
0.0
 10
-8.525605828488835
 20
14.57922240608505
 40
0.1969552685041935
 41
0.1969552685041935
  0
LWPOLYLINE
  5
DC
330
70
100
AcDbEntity
  8
A-FURN-P-SEAT
100
AcDbPolyline
 90
        2
 70
     0
 10
-7.314500308718947
 20
16.04807422580401
 40
0.0
 41
0.0
 10
-8.419699041508749
 20
14.5305126108102
 40
0.1969552685041935
 41
0.1969552685041935
  0
LWPOLYLINE
  5
DD
330
70
100
AcDbEntity
  8
A-FURN-P-SEAT
100
AcDbPolyline
 90
        2
 70
     0
 10
-8.419705147122101
 20
14.54338718280178
 40
0.0
 41
0.0
 10
-7.314500308718947
 20
16.06094899475087
 40
0.1969552685041935
 41
0.1969552685041935
  0
LWPOLYLINE
  5
DE
330
70
100
AcDbEntity
  8
A-FURN-P-SEAT
100
AcDbPolyline
 90
        2
 70
     0
 10
-8.525605828488835
 20
14.57922240608505
 40
0.0
 41
0.0
 10
-7.418910432613699
 20
16.13825728587832
 40
0.1969552685041935
 41
0.1969552685041935
  0
LWPOLYLINE
  5
DF
330
70
100
AcDbEntity
  8
A-FURN-P-SEAT
100
AcDbPolyline
 90
        2
 70
     0
 10
-7.314500308718947
 20
16.06094899475087
 40
0.0
 41
0.0
 10
-7.061129763970257
 20
16.3642077181459
 40
0.1969552685041935
 41
0.1969552685041935
  0
LWPOLYLINE
  5
E0
330
70
100
AcDbEntity
  8
A-FURN-P-SEAT
100
AcDbPolyline
 90
        2
 70
     0
 10
-7.624857693901446
 20
16.83673078406977
 40
0.0
 41
0.0
 10
-7.690301005743663
 20
17.05140533026022
 40
0.1969552685041935
 41
0.1969552685041935
  0
LWPOLYLINE
  5
E1
330
70
100
AcDbEntity
  8
A-FURN-P-SEAT
100
AcDbPolyline
 90
        2
 70
     0
 10
-7.623276930916404
 20
16.83673078406977
 40
0.0
 41
0.0
 10
-7.624857693901446
 20
16.83673078406977
 40
0.1969552685041935
 41
0.1969552685041935
  0
LWPOLYLINE
  5
E2
330
70
100
AcDbEntity
  8
A-FURN-P-SEAT
100
AcDbPolyline
 90
        2
 70
     0
 10
-7.732874068762441
 20
17.40649342342794
 40
0.0
 41
0.0
 10
-7.696527943512705
 20
17.51446174120346
 40
0.1969552685041935
 41
0.1969552685041935
  0
LWPOLYLINE
  5
E3
330
70
100
AcDbEntity
  8
A-FURN-P-SEAT
100
AcDbPolyline
 90
        2
 70
     0
 10
-6.406269055660004
 20
16.42700631464265
 40
0.0
 41
0.0
 10
-7.051410612335359
 20
16.36279515496019
 40
0.1969552685041935
 41
0.1969552685041935
  0
LWPOLYLINE
  5
E4
330
70
100
AcDbEntity
  8
A-FURN-P-SEAT
100
AcDbPolyline
 90
        2
 70
     0
 10
-7.051410612335359
 20
16.36279515496019
 40
0.0
 41
0.0
 10
-7.52211243289139
 20
16.43115970734487
 40
0.1969552685041935
 41
0.1969552685041935
  0
LWPOLYLINE
  5
E5
330
70
100
AcDbEntity
  8
A-FURN-P-SEAT
100
AcDbPolyline
 90
        2
 70
     0
 10
-6.568801664066654
 20
20.47334082937934
 40
0.0
 41
0.0
 10
-7.18208097913498
 20
18.81387491298093
 40
0.1969552685041935
 41
0.1969552685041935
  0
LWPOLYLINE
  5
E6
330
70
100
AcDbEntity
  8
A-FURN-P-SEAT
100
AcDbPolyline
 90
        2
 70
     0
 10
-7.18208097913498
 20
18.81387491298093
 40
0.0
 41
0.0
 10
-7.485802350455742
 20
17.78290113659017
 40
0.1969552685041935
 41
0.1969552685041935
  0
LWPOLYLINE
  5
E7
330
70
100
AcDbEntity
  8
A-FURN-P-SEAT
100
AcDbPolyline
 90
        2
 70
     0
 10
-7.485802350455742
 20
17.78290113659017
 40
0.0
 41
0.0
 10
-7.625188184841988
 20
16.82356767260984
 40
0.1969552685041935
 41
0.1969552685041935
  0
LWPOLYLINE
  5
E8
330
70
100
AcDbEntity
  8
A-FURN-P-SEAT
100
AcDbPolyline
 90
        2
 70
     0
 10
-7.051536663707224
 20
16.36281327484488
 40
0.0
 41
0.0
 10
-7.314500308718947
 20
16.04807422580401
 40
0.1969552685041935
 41
0.1969552685041935
  0
LWPOLYLINE
  5
E9
330
70
100
AcDbEntity
  8
A-FURN-P-SEAT
100
AcDbPolyline
 90
        2
 70
     0
 10
-8.212549762217349
 20
15.02023203818245
 40
0.0
 41
0.0
 10
-7.415929317669622
 20
16.15556788138244
 40
0.1969552685041935
 41
0.1969552685041935
  0
LWPOLYLINE
  5
EA
330
70
100
AcDbEntity
  8
A-FURN-P-SEAT
100
AcDbPolyline
 90
        2
 70
     0
 10
-7.792787664486183
 20
17.18686013444238
 40
0.0
 41
0.0
 10
-7.757006603901743
 20
17.2993544842881
 40
0.1969552685041935
 41
0.1969552685041935
  0
LWPOLYLINE
  5
EB
330
70
100
AcDbEntity
  8
A-FURN-P-SEAT
100
AcDbPolyline
 90
        2
 70
     0
 10
-7.757006603901743
 20
17.2993544842881
 40
0.0
 41
0.0
 10
-7.732874068762441
 20
17.40649342342794
 40
0.1969552685041935
 41
0.1969552685041935
  0
LWPOLYLINE
  5
EC
330
70
100
AcDbEntity
  8
A-FURN-P-SEAT
100
AcDbPolyline
 90
        2
 70
     0
 10
-7.666264584775433
 20
16.84232667715852
 40
0.0
 41
0.0
 10
-7.624857693901446
 20
16.83673078406977
 40
0.1969552685041935
 41
0.1969552685041935
  0
LWPOLYLINE
  5
ED
330
70
100
AcDbEntity
  8
A-FURN-P-SEAT
100
AcDbPolyline
 90
        2
 70
     0
 10
-7.415929317669622
 20
16.15556788138244
 40
0.0
 41
0.0
 10
-7.227659382595902
 20
16.38838831037068
 40
0.1969552685041935
 41
0.1969552685041935
  0
LWPOLYLINE
  5
EE
330
70
100
AcDbEntity
  8
A-FURN-P-SEAT
100
AcDbPolyline
 90
        2
 70
     0
 10
-7.180217585339676
 20
19.20761705323477
 40
0.0
 41
0.0
 10
-6.544488717901401
 20
20.84094306639727
 40
0.1969552685041935
 41
0.1969552685041935
  0
LWPOLYLINE
  5
EF
330
70
100
AcDbEntity
  8
A-FURN-P-SEAT
100
AcDbPolyline
 90
        2
 70
     0
 10
2.757674737245451
 20
17.57397276035834
 40
0.0
 41
0.0
 10
0.0002288925584821
 20
17.81909087935673
 40
0.1969552685041935
 41
0.1969552685041935
  0
LWPOLYLINE
  5
F0
330
70
100
AcDbEntity
  8
A-FURN-P-SEAT
100
AcDbPolyline
 90
        2
 70
     0
 10
2.956000420507905
 20
22.22937312610426
 40
0.0
 41
0.0
 10
4.573728758136496
 20
21.8905316760802
 40
0.1969552685041935
 41
0.1969552685041935
  0
LWPOLYLINE
  5
F1
330
70
100
AcDbEntity
  8
A-FURN-P-SEAT
100
AcDbPolyline
 90
        2
 70
     0
 10
2.956000420507905
 20
22.22937312610426
 40
0.0
 41
0.0
 10
0.0002288925584821
 20
22.43654032832515
 40
0.1969552685041935
 41
0.1969552685041935
  0
LWPOLYLINE
  5
F2
330
70
100
AcDbEntity
  8
A-FURN-P-SEAT
100
AcDbPolyline
 90
        2
 70
     0
 10
4.573728758136496
 20
21.8905316760802
 40
0.0
 41
0.0
 10
5.353904422540495
 20
21.58795205445096
 40
0.1969552685041935
 41
0.1969552685041935
  0
LWPOLYLINE
  5
F3
330
70
100
AcDbEntity
  8
A-FURN-P-SEAT
100
AcDbPolyline
 90
        2
 70
     0
 10
5.353904422540495
 20
21.58795205445096
 40
0.0
 41
0.0
 10
5.903345020339088
 20
21.31382084875975
 40
0.1969552685041935
 41
0.1969552685041935
  0
LWPOLYLINE
  5
F4
330
70
100
AcDbEntity
  8
A-FURN-P-SEAT
100
AcDbPolyline
 90
        2
 70
     0
 10
5.903345020339088
 20
21.31382084875975
 40
0.0
 41
0.0
 10
6.275214687159746
 20
20.9978376332877
 40
0.1969552685041935
 41
0.1969552685041935
  0
LWPOLYLINE
  5
F5
330
70
100
AcDbEntity
  8
A-FURN-P-SEAT
100
AcDbPolyline
 90
        2
 70
     0
 10
-7.748170993601377
 20
16.92952842533347
 40
0.0
 41
0.0
 10
-7.812304158997505
 20
17.14232756345723
 40
0.1969552685041935
 41
0.1969552685041935
  0
LWPOLYLINE
  5
F6
330
70
100
AcDbEntity
  8
A-FURN-P-SEAT
100
AcDbPolyline
 90
        2
 70
     0
 10
-7.812304158997505
 20
17.14232756345723
 40
0.0
 41
0.0
 10
-7.76094964837722
 20
17.25949231358501
 40
0.1969552685041935
 41
0.1969552685041935
  0
LWPOLYLINE
  5
F7
330
70
100
AcDbEntity
  8
A-FURN-P-SEAT
100
AcDbPolyline
 90
        2
 70
     0
 10
-7.748170993601377
 20
16.92952842533347
 40
0.0
 41
0.0
 10
-7.666264584775433
 20
16.84232667715852
 40
0.1969552685041935
 41
0.1969552685041935
  0
LWPOLYLINE
  5
F8
330
70
100
AcDbEntity
  8
A-FURN-P-SEAT
100
AcDbPolyline
 90
        2
 70
     0
 10
-7.180217585339676
 20
19.20761705323477
 40
0.0
 41
0.0
 10
-7.696527943512705
 20
17.51446174120346
 40
0.1969552685041935
 41
0.1969552685041935
  0
LWPOLYLINE
  5
F9
330
70
100
AcDbEntity
  8
A-FURN-P-SEAT
100
AcDbPolyline
 90
        2
 70
     0
 10
-7.60133808355772
 20
16.98770507254426
 40
0.0
 41
0.0
 10
-7.671103184856747
 20
16.98842632273752
 40
0.1969552685041935
 41
0.1969552685041935
  0
LWPOLYLINE
  5
FA
330
70
100
AcDbEntity
  8
A-FURN-P-SEAT
100
AcDbPolyline
 90
        2
 70
     0
 10
-6.568801664066654
 20
20.47334082937934
 40
0.0
 41
0.0
 10
-6.47108132282193
 20
20.70824090904776
 40
0.1969552685041935
 41
0.1969552685041935
  0
LWPOLYLINE
  5
FB
330
70
100
AcDbEntity
  8
A-FURN-P-SEAT
100
AcDbPolyline
 90
        2
 70
     0
 10
-6.526985894055258
 20
20.87504705287037
 40
0.0
 41
0.0
 10
-6.544488717901401
 20
20.84094306639727
 40
0.1969552685041935
 41
0.1969552685041935
  0
LWPOLYLINE
  5
FC
330
70
100
AcDbEntity
  8
A-FURN-P-SEAT
100
AcDbPolyline
 90
        2
 70
     0
 10
6.569253146615039
 20
20.47333492072127
 40
0.0
 41
0.0
 10
7.182538567296717
 20
18.81387491298093
 40
0.1969552685041935
 41
0.1969552685041935
  0
LWPOLYLINE
  5
FD
330
70
100
AcDbEntity
  8
A-FURN-P-SEAT
100
AcDbPolyline
 90
        2
 70
     0
 10
6.569253146615039
 20
20.47333492072127
 40
0.0
 41
0.0
 10
6.471538910983611
 20
20.70824090904776
 40
0.1969552685041935
 41
0.1969552685041935
  0
LWPOLYLINE
  5
FE
330
70
100
AcDbEntity
  8
A-FURN-P-SEAT
100
AcDbPolyline
 90
        2
 70
     0
 10
7.182538567296717
 20
18.81387491298093
 40
0.0
 41
0.0
 10
7.486254029959411
 20
17.78289503097684
 40
0.1969552685041935
 41
0.1969552685041935
  0
LWPOLYLINE
  5
FF
330
70
100
AcDbEntity
  8
A-FURN-P-SEAT
100
AcDbPolyline
 90
        2
 70
     0
 10
-6.27476320461136
 20
20.9978376332877
 40
0.0
 41
0.0
 10
-6.47108132282193
 20
20.70824090904776
 40
0.1969552685041935
 41
0.1969552685041935
  0
LWPOLYLINE
  5
100
330
70
100
AcDbEntity
  8
A-FURN-P-SEAT
100
AcDbPolyline
 90
        2
 70
     0
 10
-5.112205385930337
 20
16.93530453249292
 40
0.0
 41
0.0
 10
-6.406269055660004
 20
16.42700631464265
 40
0.1969552685041935
 41
0.1969552685041935
  0
LWPOLYLINE
  5
101
330
70
100
AcDbEntity
  8
A-FURN-P-SEAT
100
AcDbPolyline
 90
        2
 70
     0
 10
-5.90289353779076
 20
21.31382675741779
 40
0.0
 41
0.0
 10
-6.27476320461136
 20
20.9978376332877
 40
0.1969552685041935
 41
0.1969552685041935
  0
LWPOLYLINE
  5
102
330
70
100
AcDbEntity
  8
A-FURN-P-SEAT
100
AcDbPolyline
 90
        2
 70
     0
 10
-5.353452743036825
 20
21.58795205445096
 40
0.0
 41
0.0
 10
-5.90289353779076
 20
21.31382675741779
 40
0.1969552685041935
 41
0.1969552685041935
  0
LWPOLYLINE
  5
103
330
70
100
AcDbEntity
  8
A-FURN-P-SEAT
100
AcDbPolyline
 90
        2
 70
     0
 10
-4.573277078632884
 20
21.8905316760802
 40
0.0
 41
0.0
 10
-5.353452743036825
 20
21.58795205445096
 40
0.1969552685041935
 41
0.1969552685041935
  0
LWPOLYLINE
  5
104
330
70
100
AcDbEntity
  8
A-FURN-P-SEAT
100
AcDbPolyline
 90
        2
 70
     0
 10
-2.757223057741839
 20
17.57397866901638
 40
0.0
 41
0.0
 10
-5.112205385930337
 20
16.93530453249292
 40
0.1969552685041935
 41
0.1969552685041935
  0
LWPOLYLINE
  5
105
330
70
100
AcDbEntity
  8
A-FURN-P-SEAT
100
AcDbPolyline
 90
        2
 70
     0
 10
-2.955542832346225
 20
22.22937312610426
 40
0.0
 41
0.0
 10
-4.573277078632884
 20
21.8905316760802
 40
0.1969552685041935
 41
0.1969552685041935
  0
LWPOLYLINE
  5
106
330
70
100
AcDbEntity
  8
A-FURN-P-SEAT
100
AcDbPolyline
 90
        2
 70
     0
 10
-2.955542832346225
 20
22.22937312610426
 40
0.0
 41
0.0
 10
0.0002288925584821
 20
22.43654032832515
 40
0.1969552685041935
 41
0.1969552685041935
  0
LWPOLYLINE
  5
107
330
70
100
AcDbEntity
  8
A-FURN-P-SEAT
100
AcDbPolyline
 90
        2
 70
     0
 10
-2.757223057741839
 20
17.57397866901638
 40
0.0
 41
0.0
 10
0.0002288925584821
 20
17.81909087935673
 40
0.1969552685041935
 41
0.1969552685041935
  0
LWPOLYLINE
  5
108
330
70
100
AcDbEntity
  8
A-FURN-P-SEAT
100
AcDbPolyline
 90
        2
 70
     0
 10
6.275214687159746
 20
20.9978376332877
 40
0.0
 41
0.0
 10
6.471538910983611
 20
20.70824090904776
 40
0.1969552685041935
 41
0.1969552685041935
  0
LWPOLYLINE
  5
109
330
70
100
AcDbEntity
  8
A-FURN-P-SEAT
100
AcDbPolyline
 90
        2
 70
     0
 10
11.74200970300967
 20
7.28684664300647
 40
0.0
 41
0.0
 10
11.76914166993305
 20
7.203341351310825
 40
0.1969552685041935
 41
0.1969552685041935
  0
LWPOLYLINE
  5
10A
330
70
100
AcDbEntity
  8
A-FURN-P-SEAT
100
AcDbPolyline
 90
        2
 70
     0
 10
11.76914166993305
 20
7.203341351310825
 40
0.0
 41
0.0
 10
12.10844576788281
 20
6.956822683398087
 40
0.1969552685041935
 41
0.1969552685041935
  0
LWPOLYLINE
  5
10B
330
70
100
AcDbEntity
  8
A-FURN-P-SEAT
100
AcDbPolyline
 90
        2
 70
     0
 10
12.10844576788281
 20
6.956822683398087
 40
0.0
 41
0.0
 10
12.52784724051736
 20
6.956822683398087
 40
0.1969552685041935
 41
0.1969552685041935
  0
LWPOLYLINE
  5
10C
330
70
100
AcDbEntity
  8
A-FURN-P-SEAT
100
AcDbPolyline
 90
        2
 70
     0
 10
12.52784724051736
 20
8.24761669871529
 40
0.0
 41
0.0
 10
12.21999650503716
 20
8.24761669871529
 40
0.1969552685041935
 41
0.1969552685041935
  0
LWPOLYLINE
  5
10D
330
70
100
AcDbEntity
  8
A-FURN-P-SEAT
100
AcDbPolyline
 90
        2
 70
     0
 10
12.86715764103576
 20
8.001098030802552
 40
0.0
 41
0.0
 10
12.52784724051736
 20
8.24761669871529
 40
0.1969552685041935
 41
0.1969552685041935
  0
LWPOLYLINE
  5
10E
330
70
100
AcDbEntity
  8
A-FURN-P-SEAT
100
AcDbPolyline
 90
        2
 70
     0
 10
12.52784724051736
 20
6.956822683398087
 40
0.0
 41
0.0
 10
12.86715764103576
 20
7.203341351310825
 40
0.1969552685041935
 41
0.1969552685041935
  0
LWPOLYLINE
  5
10F
330
70
100
AcDbEntity
  8
A-FURN-P-SEAT
100
AcDbPolyline
 90
        2
 70
     0
 10
12.99675814681689
 20
7.602216736727655
 40
0.0
 41
0.0
 10
12.86715764103576
 20
8.001098030802552
 40
0.1969552685041935
 41
0.1969552685041935
  0
LWPOLYLINE
  5
110
330
70
100
AcDbEntity
  8
A-FURN-P-SEAT
100
AcDbPolyline
 90
        2
 70
     0
 10
12.99675814681689
 20
7.602216736727655
 40
0.0
 41
0.0
 10
12.86715764103576
 20
7.203341351310825
 40
0.1969552685041935
 41
0.1969552685041935
  0
LWPOLYLINE
  5
111
330
70
100
AcDbEntity
  8
A-FURN-P-SEAT
100
AcDbPolyline
 90
        2
 70
     0
 10
11.41539385736746
 20
7.401955574041636
 40
0.0
 41
0.0
 10
11.53516097745802
 20
7.033349652975374
 40
0.1969552685041935
 41
0.1969552685041935
  0
LWPOLYLINE
  5
112
330
70
100
AcDbEntity
  8
A-FURN-P-SEAT
100
AcDbPolyline
 90
        2
 70
     0
 10
11.53516097745802
 20
7.033349652975374
 40
0.0
 41
0.0
 10
12.01907416351474
 20
6.681765787944897
 40
0.1969552685041935
 41
0.1969552685041935
  0
LWPOLYLINE
  5
113
330
70
100
AcDbEntity
  8
A-FURN-P-SEAT
100
AcDbPolyline
 90
        2
 70
     0
 10
12.01907416351474
 20
6.681765787944897
 40
0.0
 41
0.0
 10
12.61722495049878
 20
6.681765787944897
 40
0.1969552685041935
 41
0.1969552685041935
  0
LWPOLYLINE
  5
114
330
70
100
AcDbEntity
  8
A-FURN-P-SEAT
100
AcDbPolyline
 90
        2
 70
     0
 10
12.61722495049878
 20
8.52267359416848
 40
0.0
 41
0.0
 10
12.31142373154262
 20
8.52267359416848
 40
0.1969552685041935
 41
0.1969552685041935
  0
LWPOLYLINE
  5
115
330
70
100
AcDbEntity
  8
A-FURN-P-SEAT
100
AcDbPolyline
 90
        2
 70
     0
 10
13.10113203094221
 20
8.171089729137975
 40
0.0
 41
0.0
 10
12.61722495049878
 20
8.52267359416848
 40
0.1969552685041935
 41
0.1969552685041935
  0
LWPOLYLINE
  5
116
330
70
100
AcDbEntity
  8
A-FURN-P-SEAT
100
AcDbPolyline
 90
        2
 70
     0
 10
12.61722495049878
 20
6.681765787944897
 40
0.0
 41
0.0
 10
13.10113203094221
 20
7.033349652975374
 40
0.1969552685041935
 41
0.1969552685041935
  0
LWPOLYLINE
  5
117
330
70
100
AcDbEntity
  8
A-FURN-P-SEAT
100
AcDbPolyline
 90
        2
 70
     0
 10
13.28597002046223
 20
7.602216736727655
 40
0.0
 41
0.0
 10
13.10113203094221
 20
8.171089729137975
 40
0.1969552685041935
 41
0.1969552685041935
  0
LWPOLYLINE
  5
118
330
70
100
AcDbEntity
  8
A-FURN-P-SEAT
100
AcDbPolyline
 90
        2
 70
     0
 10
13.28597002046223
 20
7.602216736727655
 40
0.0
 41
0.0
 10
13.10113203094221
 20
7.033349652975374
 40
0.1969552685041935
 41
0.1969552685041935
  0
LWPOLYLINE
  5
119
330
70
100
AcDbEntity
  8
A-FURN-P-SEAT
100
AcDbPolyline
 90
        2
 70
     0
 10
11.38188467580528
 20
7.412762706579712
 40
0.0
 41
0.0
 10
11.51089017972026
 20
7.015714475188786
 40
0.1969552685041935
 41
0.1969552685041935
  0
LWPOLYLINE
  5
11A
330
70
100
AcDbEntity
  8
A-FURN-P-SEAT
100
AcDbPolyline
 90
        2
 70
     0
 10
11.51089017972026
 20
7.015714475188786
 40
0.0
 41
0.0
 10
12.00980584248947
 20
6.653233469062485
 40
0.1969552685041935
 41
0.1969552685041935
  0
LWPOLYLINE
  5
11B
330
70
100
AcDbEntity
  8
A-FURN-P-SEAT
100
AcDbPolyline
 90
        2
 70
     0
 10
12.00980584248947
 20
6.653233469062485
 40
0.0
 41
0.0
 10
12.62649327152405
 20
6.653233469062485
 40
0.1969552685041935
 41
0.1969552685041935
  0
LWPOLYLINE
  5
11C
330
70
100
AcDbEntity
  8
A-FURN-P-SEAT
100
AcDbPolyline
 90
        2
 70
     0
 10
12.62649327152405
 20
8.551199807437541
 40
0.0
 41
0.0
 10
12.31726601567226
 20
8.551199807437541
 40
0.1969552685041935
 41
0.1969552685041935
  0
LWPOLYLINE
  5
11D
330
70
100
AcDbEntity
  8
A-FURN-P-SEAT
100
AcDbPolyline
 90
        2
 70
     0
 10
13.12540282867997
 20
8.188718801311239
 40
0.0
 41
0.0
 10
12.62649327152405
 20
8.551199807437541
 40
0.1969552685041935
 41
0.1969552685041935
  0
LWPOLYLINE
  5
11E
330
70
100
AcDbEntity
  8
A-FURN-P-SEAT
100
AcDbPolyline
 90
        2
 70
     0
 10
13.3159688682739
 20
7.602216736727655
 40
0.0
 41
0.0
 10
13.12540282867997
 20
8.188718801311239
 40
0.1969552685041935
 41
0.1969552685041935
  0
LWPOLYLINE
  5
11F
330
70
100
AcDbEntity
  8
A-FURN-P-SEAT
100
AcDbPolyline
 90
        2
 70
     0
 10
13.3159688682739
 20
7.602216736727655
 40
0.0
 41
0.0
 10
13.12540282867997
 20
7.015714475188786
 40
0.1969552685041935
 41
0.1969552685041935
  0
LWPOLYLINE
  5
120
330
70
100
AcDbEntity
  8
A-FURN-P-SEAT
100
AcDbPolyline
 90
        2
 70
     0
 10
-11.92852982640505
 20
7.200215868154913
 40
0.0
 41
0.0
 10
-12.189954659904
 20
7.13015631872949
 40
0.1969552685041935
 41
0.1969552685041935
  0
LWPOLYLINE
  5
121
330
70
100
AcDbEntity
  8
A-FURN-P-SEAT
100
AcDbPolyline
 90
        2
 70
     0
 10
-12.189954659904
 20
7.13015631872949
 40
0.0
 41
0.0
 10
-12.54944253681481
 20
7.17354083745451
 40
0.1969552685041935
 41
0.1969552685041935
  0
LWPOLYLINE
  5
122
330
70
100
AcDbEntity
  8
A-FURN-P-SEAT
100
AcDbPolyline
 90
        2
 70
     0
 10
-12.54944253681481
 20
7.17354083745451
 40
0.0
 41
0.0
 10
-12.78288810182533
 20
7.454512299620887
 40
0.1969552685041935
 41
0.1969552685041935
  0
LWPOLYLINE
  5
123
330
70
100
AcDbEntity
  8
A-FURN-P-SEAT
100
AcDbPolyline
 90
        2
 70
     0
 10
-11.82448643322033
 20
7.253012879161758
 40
0.0
 41
0.0
 10
-11.92852982640505
 20
7.200215868154913
 40
0.1969552685041935
 41
0.1969552685041935
  0
LWPOLYLINE
  5
124
330
70
100
AcDbEntity
  8
A-FURN-P-SEAT
100
AcDbPolyline
 90
        2
 70
     0
 10
-11.82448643322033
 20
7.253012879161758
 40
0.0
 41
0.0
 10
-11.71894027133686
 20
7.296036772790159
 40
0.1969552685041935
 41
0.1969552685041935
  0
LWPOLYLINE
  5
125
330
70
100
AcDbEntity
  8
A-FURN-P-SEAT
100
AcDbPolyline
 90
        2
 70
     0
 10
-11.55924460661776
 20
7.355367380919091
 40
0.0
 41
0.0
 10
-11.71894027133686
 20
7.296036772790159
 40
0.1969552685041935
 41
0.1969552685041935
  0
LWPOLYLINE
  5
126
330
70
100
AcDbEntity
  8
A-FURN-P-SEAT
100
AcDbPolyline
 90
        2
 70
     0
 10
-11.3316594456216
 20
7.428798804541315
 40
0.0
 41
0.0
 10
-11.55924460661776
 20
7.355367380919091
 40
0.1969552685041935
 41
0.1969552685041935
  0
LWPOLYLINE
  5
127
330
70
100
AcDbEntity
  8
A-FURN-P-SEAT
100
AcDbPolyline
 90
        2
 70
     0
 10
-10.70054661881124
 20
7.616173184009142
 40
0.0
 41
0.0
 10
-11.3316594456216
 20
7.428798804541315
 40
0.1969552685041935
 41
0.1969552685041935
  0
LWPOLYLINE
  5
128
330
70
100
AcDbEntity
  8
A-FURN-P-SEAT
100
AcDbPolyline
 90
        2
 70
     0
 10
-13.12500531187515
 20
8.189211583393046
 40
0.0
 41
0.0
 10
-13.31557135146909
 20
7.602703610151394
 40
0.1969552685041935
 41
0.1969552685041935
  0
LWPOLYLINE
  5
129
330
70
100
AcDbEntity
  8
A-FURN-P-SEAT
100
AcDbPolyline
 90
        2
 70
     0
 10
-12.62609575471924
 20
8.55168668086128
 40
0.0
 41
0.0
 10
-13.12500531187515
 20
8.189211583393046
 40
0.1969552685041935
 41
0.1969552685041935
  0
LWPOLYLINE
  5
12A
330
70
100
AcDbEntity
  8
A-FURN-P-SEAT
100
AcDbPolyline
 90
        2
 70
     0
 10
-12.31698273292318
 20
8.55168668086128
 40
0.0
 41
0.0
 10
-12.62609575471924
 20
8.55168668086128
 40
0.1969552685041935
 41
0.1969552685041935
  0
LWPOLYLINE
  5
12B
330
70
100
AcDbEntity
  8
A-FURN-P-SEAT
100
AcDbPolyline
 90
        2
 70
     0
 10
-9.737799132206646
 20
7.902007274799586
 40
0.0
 41
0.0
 10
-9.854464797684045
 20
7.867368160861957
 40
0.1969552685041935
 41
0.1969552685041935
  0
LWPOLYLINE
  5
12C
330
70
100
AcDbEntity
  8
A-FURN-P-SEAT
100
AcDbPolyline
 90
        2
 70
     0
 10
-8.025415865132345
 20
21.81785143985203
 40
0.0
 41
0.0
 10
-8.095246946446366
 20
22.17315598685985
 40
0.1969552685041935
 41
0.1969552685041935
  0
LWPOLYLINE
  5
12D
330
70
100
AcDbEntity
  8
A-FURN-P-SEAT
100
AcDbPolyline
 90
        2
 70
     0
 10
-8.095246946446366
 20
22.17315598685985
 40
0.0
 41
0.0
 10
-7.900167086008821
 20
22.48199248345892
 40
0.1969552685041935
 41
0.1969552685041935
  0
LWPOLYLINE
  5
12E
330
70
100
AcDbEntity
  8
A-FURN-P-SEAT
100
AcDbPolyline
 90
        2
 70
     0
 10
-7.87800587615203
 20
21.59086718938008
 40
0.0
 41
0.0
 10
-8.025415865132345
 20
21.81785143985203
 40
0.1969552685041935
 41
0.1969552685041935
  0
LWPOLYLINE
  5
12F
330
70
100
AcDbEntity
  8
A-FURN-P-SEAT
100
AcDbPolyline
 90
        2
 70
     0
 10
-7.795636819400328
 20
21.50823953036087
 40
0.0
 41
0.0
 10
-7.87800587615203
 20
21.59086718938008
 40
0.1969552685041935
 41
0.1969552685041935
  0
LWPOLYLINE
  5
130
330
70
100
AcDbEntity
  8
A-FURN-P-SEAT
100
AcDbPolyline
 90
        2
 70
     0
 10
-7.795636819400328
 20
21.50823953036087
 40
0.0
 41
0.0
 10
-7.722103175993765
 20
21.42114591062833
 40
0.1969552685041935
 41
0.1969552685041935
  0
LWPOLYLINE
  5
131
330
70
100
AcDbEntity
  8
A-FURN-P-SEAT
100
AcDbPolyline
 90
        2
 70
     0
 10
-7.61632854599884
 20
21.28760846598504
 40
0.0
 41
0.0
 10
-7.722103175993765
 20
21.42114591062833
 40
0.1969552685041935
 41
0.1969552685041935
  0
LWPOLYLINE
  5
132
330
70
100
AcDbEntity
  8
A-FURN-P-SEAT
100
AcDbPolyline
 90
        2
 70
     0
 10
-8.161928516061664
 20
22.48216068325823
 40
0.0
 41
0.0
 10
-8.291529021842791
 20
22.08327938918333
 40
0.1969552685041935
 41
0.1969552685041935
  0
LWPOLYLINE
  5
133
330
70
100
AcDbEntity
  8
A-FURN-P-SEAT
100
AcDbPolyline
 90
        2
 70
     0
 10
-8.291529021842791
 20
22.08327938918333
 40
0.0
 41
0.0
 10
-8.161928516061664
 20
21.68439809510843
 40
0.1969552685041935
 41
0.1969552685041935
  0
LWPOLYLINE
  5
134
330
70
100
AcDbEntity
  8
A-FURN-P-SEAT
100
AcDbPolyline
 90
        2
 70
     0
 10
-8.161928516061664
 20
21.68439809510843
 40
0.0
 41
0.0
 10
-7.822618312498548
 20
21.4378794271957
 40
0.1969552685041935
 41
0.1969552685041935
  0
LWPOLYLINE
  5
135
330
70
100
AcDbEntity
  8
A-FURN-P-SEAT
100
AcDbPolyline
 90
        2
 70
     0
 10
-7.822618312498548
 20
21.4378794271957
 40
0.0
 41
0.0
 10
-7.736233928687852
 20
21.4378794271957
 40
0.1969552685041935
 41
0.1969552685041935
  0
LWPOLYLINE
  5
136
330
70
100
AcDbEntity
  8
A-FURN-P-SEAT
100
AcDbPolyline
 90
        2
 70
     0
 10
-0.4725348527035181
 20
-0.5178785108402053
 40
0.0
 41
0.0
 10
-0.8070005475272523
 20
-0.7608840876286252
 40
0.1969552685041935
 41
0.1969552685041935
  0
LWPOLYLINE
  5
137
330
70
100
AcDbEntity
  8
A-FURN-P-SEAT
100
AcDbPolyline
 90
        2
 70
     0
 10
0.80750619277444
 20
-0.7608840876286252
 40
0.0
 41
0.0
 10
0.4730404979507057
 20
-0.5178785108402053
 40
0.1969552685041935
 41
0.1969552685041935
  0
LWPOLYLINE
  5
138
330
70
100
AcDbEntity
  8
A-FURN-P-SEAT
100
AcDbPolyline
 90
        2
 70
     0
 10
0.9980781410264398
 20
-1.347389106541243
 40
0.0
 41
0.0
 10
0.80750619277444
 20
-0.7608840876286252
 40
0.1969552685041935
 41
0.1969552685041935
  0
LWPOLYLINE
  5
139
330
70
100
AcDbEntity
  8
A-FURN-P-SEAT
100
AcDbPolyline
 90
        2
 70
     0
 10
0.9980781410264398
 20
-1.347389106541243
 40
0.0
 41
0.0
 10
0.80750619277444
 20
-1.933891171124855
 40
0.1969552685041935
 41
0.1969552685041935
  0
LWPOLYLINE
  5
13A
330
70
100
AcDbEntity
  8
A-FURN-P-SEAT
100
AcDbPolyline
 90
        2
 70
     0
 10
-7.546154762517687
 20
22.5720912466783
 40
0.0
 41
0.0
 10
-7.900167086008821
 20
22.48199248345892
 40
0.1969552685041935
 41
0.1969552685041935
  0
LWPOLYLINE
  5
13B
330
70
100
AcDbEntity
  8
A-FURN-P-SEAT
100
AcDbPolyline
 90
        2
 70
     0
 10
-7.476161390062486
 20
21.09385687187836
 40
0.0
 41
0.0
 10
-7.61632854599884
 20
21.28760846598504
 40
0.1969552685041935
 41
0.1969552685041935
  0
LWPOLYLINE
  5
13C
330
70
100
AcDbEntity
  8
A-FURN-P-SEAT
100
AcDbPolyline
 90
        2
 70
     0
 10
-7.229823133175671
 20
22.39588462484523
 40
0.0
 41
0.0
 10
-7.546154762517687
 20
22.5720912466783
 40
0.1969552685041935
 41
0.1969552685041935
  0
LWPOLYLINE
  5
13D
330
70
100
AcDbEntity
  8
A-FURN-P-SEAT
100
AcDbPolyline
 90
        2
 70
     0
 10
-6.818181304209645
 20
20.13776312510964
 40
0.0
 41
0.0
 10
-7.476161390062486
 20
21.09385687187836
 40
0.1969552685041935
 41
0.1969552685041935
  0
LWPOLYLINE
  5
13E
330
70
100
AcDbEntity
  8
A-FURN-P-SEAT
100
AcDbPolyline
 90
        2
 70
     0
 10
-7.059500746944422
 20
22.18554368542769
 40
0.0
 41
0.0
 10
-7.229823133175671
 20
22.39588462484523
 40
0.1969552685041935
 41
0.1969552685041935
  0
LWPOLYLINE
  5
13F
330
70
100
AcDbEntity
  8
A-FURN-P-SEAT
100
AcDbPolyline
 90
        2
 70
     0
 10
-7.006367139383712
 20
22.08167459765556
 40
0.0
 41
0.0
 10
-7.059500746944422
 20
22.18554368542769
 40
0.1969552685041935
 41
0.1969552685041935
  0
LWPOLYLINE
  5
140
330
70
100
AcDbEntity
  8
A-FURN-P-SEAT
100
AcDbPolyline
 90
        2
 70
     0
 10
-7.006367139383712
 20
22.08167459765556
 40
0.0
 41
0.0
 10
-6.946267223976008
 20
21.98482578347398
 40
0.1969552685041935
 41
0.1969552685041935
  0
LWPOLYLINE
  5
141
330
70
100
AcDbEntity
  8
A-FURN-P-SEAT
100
AcDbPolyline
 90
        2
 70
     0
 10
-8.610739940255029
 20
22.08327938918333
 40
0.0
 41
0.0
 10
-8.420173900661154
 20
21.49677732459972
 40
0.1969552685041935
 41
0.1969552685041935
  0
LWPOLYLINE
  5
142
330
70
100
AcDbEntity
  8
A-FURN-P-SEAT
100
AcDbPolyline
 90
        2
 70
     0
 10
-8.420173900661154
 20
21.49677732459972
 40
0.0
 41
0.0
 10
-7.921264146549958
 20
21.13429631847342
 40
0.1969552685041935
 41
0.1969552685041935
  0
LWPOLYLINE
  5
143
330
70
100
AcDbEntity
  8
A-FURN-P-SEAT
100
AcDbPolyline
 90
        2
 70
     0
 10
-8.033061274745193
 20
22.38852775470079
 40
0.0
 41
0.0
 10
-8.132242236261106
 20
22.08327938918333
 40
0.1969552685041935
 41
0.1969552685041935
  0
LWPOLYLINE
  5
144
330
70
100
AcDbEntity
  8
A-FURN-P-SEAT
100
AcDbPolyline
 90
        2
 70
     0
 10
-7.773397615257181
 20
22.57718825207192
 40
0.0
 41
0.0
 10
-8.033061274745193
 20
22.38852775470079
 40
0.1969552685041935
 41
0.1969552685041935
  0
LWPOLYLINE
  5
145
330
70
100
AcDbEntity
  8
A-FURN-P-SEAT
100
AcDbPolyline
 90
        2
 70
     0
 10
-7.921264146549958
 20
21.13429631847342
 40
0.0
 41
0.0
 10
-7.505421064751487
 20
21.13429631847342
 40
0.1969552685041935
 41
0.1969552685041935
  0
LWPOLYLINE
  5
146
330
70
100
AcDbEntity
  8
A-FURN-P-SEAT
100
AcDbPolyline
 90
        2
 70
     0
 10
-7.452437537105367
 20
22.57718825207192
 40
0.0
 41
0.0
 10
-7.773397615257181
 20
22.57718825207192
 40
0.1969552685041935
 41
0.1969552685041935
  0
LWPOLYLINE
  5
147
330
70
100
AcDbEntity
  8
A-FURN-P-SEAT
100
AcDbPolyline
 90
        2
 70
     0
 10
-7.192779786275423
 20
22.38852775470079
 40
0.0
 41
0.0
 10
-7.452437537105367
 20
22.57718825207192
 40
0.1969552685041935
 41
0.1969552685041935
  0
LWPOLYLINE
  5
148
330
70
100
AcDbEntity
  8
A-FURN-P-SEAT
100
AcDbPolyline
 90
        2
 70
     0
 10
-7.171941131046594
 20
22.32440660357602
 40
0.0
 41
0.0
 10
-7.192779786275423
 20
22.38852775470079
 40
0.1969552685041935
 41
0.1969552685041935
  0
LWPOLYLINE
  5
149
330
70
100
AcDbEntity
  8
A-FURN-P-SEAT
100
AcDbPolyline
 90
        2
 70
     0
 10
6.805722171952311
 20
22.67020825583379
 40
0.0
 41
0.0
 10
6.615156132358436
 20
22.08370619125017
 40
0.1969552685041935
 41
0.1969552685041935
  0
LWPOLYLINE
  5
14A
330
70
100
AcDbEntity
  8
A-FURN-P-SEAT
100
AcDbPolyline
 90
        2
 70
     0
 10
6.615156132358436
 20
22.08370619125017
 40
0.0
 41
0.0
 10
6.742388447991061
 20
21.6921337102342
 40
0.1969552685041935
 41
0.1969552685041935
  0
LWPOLYLINE
  5
14B
330
70
100
AcDbEntity
  8
A-FURN-P-SEAT
100
AcDbPolyline
 90
        2
 70
     0
 10
7.304631729108223
 20
23.03269536757341
 40
0.0
 41
0.0
 10
6.805722171952311
 20
22.67020825583379
 40
0.1969552685041935
 41
0.1969552685041935
  0
LWPOLYLINE
  5
14C
330
70
100
AcDbEntity
  8
A-FURN-P-SEAT
100
AcDbPolyline
 90
        2
 70
     0
 10
7.921319158142807
 20
23.03269536757341
 40
0.0
 41
0.0
 10
7.304631729108223
 20
23.03269536757341
 40
0.1969552685041935
 41
0.1969552685041935
  0
LWPOLYLINE
  5
14D
330
70
100
AcDbEntity
  8
A-FURN-P-SEAT
100
AcDbPolyline
 90
        2
 70
     0
 10
7.506227263738423
 20
21.134722923585
 40
0.0
 41
0.0
 10
7.921319158142807
 20
21.134722923585
 40
0.1969552685041935
 41
0.1969552685041935
  0
LWPOLYLINE
  5
14E
330
70
100
AcDbEntity
  8
A-FURN-P-SEAT
100
AcDbPolyline
 90
        2
 70
     0
 10
8.420228912254003
 20
22.67020825583379
 40
0.0
 41
0.0
 10
7.921319158142807
 20
23.03269536757341
 40
0.1969552685041935
 41
0.1969552685041935
  0
LWPOLYLINE
  5
14F
330
70
100
AcDbEntity
  8
A-FURN-P-SEAT
100
AcDbPolyline
 90
        2
 70
     0
 10
8.610794754892651
 20
22.08370619125017
 40
0.0
 41
0.0
 10
8.420228912254003
 20
22.67020825583379
 40
0.1969552685041935
 41
0.1969552685041935
  0
LWPOLYLINE
  5
150
330
70
100
AcDbEntity
  8
A-FURN-P-SEAT
100
AcDbPolyline
 90
        2
 70
     0
 10
8.610794754892651
 20
22.08370619125017
 40
0.0
 41
0.0
 10
8.420228912254003
 20
21.49720412666659
 40
0.1969552685041935
 41
0.1969552685041935
  0
LWPOLYLINE
  5
151
330
70
100
AcDbEntity
  8
A-FURN-P-SEAT
100
AcDbPolyline
 90
        2
 70
     0
 10
-13.12500531187515
 20
7.016201348612497
 40
0.0
 41
0.0
 10
-12.62609575471924
 20
6.653720342486224
 40
0.1969552685041935
 41
0.1969552685041935
  0
LWPOLYLINE
  5
152
330
70
100
AcDbEntity
  8
A-FURN-P-SEAT
100
AcDbPolyline
 90
        2
 70
     0
 10
-13.1007345141374
 20
7.03383042078579
 40
0.0
 41
0.0
 10
-12.61682447936493
 20
6.682246555755313
 40
0.1969552685041935
 41
0.1969552685041935
  0
LWPOLYLINE
  5
153
330
70
100
AcDbEntity
  8
A-FURN-P-SEAT
100
AcDbPolyline
 90
        2
 70
     0
 10
-12.7591794144239
 20
7.819031004955121
 40
0.0
 41
0.0
 10
-12.78288810182533
 20
7.454512299620887
 40
0.1969552685041935
 41
0.1969552685041935
  0
LWPOLYLINE
  5
154
330
70
100
AcDbEntity
  8
A-FURN-P-SEAT
100
AcDbPolyline
 90
        2
 70
     0
 10
-12.49384462493458
 20
8.065429333198807
 40
0.0
 41
0.0
 10
-12.7591794144239
 20
7.819031004955121
 40
0.1969552685041935
 41
0.1969552685041935
  0
LWPOLYLINE
  5
155
330
70
100
AcDbEntity
  8
A-FURN-P-SEAT
100
AcDbPolyline
 90
        2
 70
     0
 10
-12.62609575471924
 20
6.653720342486224
 40
0.0
 41
0.0
 10
-12.00940832568466
 20
6.653720342486224
 40
0.1969552685041935
 41
0.1969552685041935
  0
LWPOLYLINE
  5
156
330
70
100
AcDbEntity
  8
A-FURN-P-SEAT
100
AcDbPolyline
 90
        2
 70
     0
 10
-12.61682447936493
 20
6.682246555755313
 40
0.0
 41
0.0
 10
-12.01867664670993
 20
6.682246555755313
 40
0.1969552685041935
 41
0.1969552685041935
  0
LWPOLYLINE
  5
157
330
70
100
AcDbEntity
  8
A-FURN-P-SEAT
100
AcDbPolyline
 90
        2
 70
     0
 10
-12.24116499926777
 20
8.162416409978874
 40
0.0
 41
0.0
 10
-12.49384462493458
 20
8.065429333198807
 40
0.1969552685041935
 41
0.1969552685041935
  0
LWPOLYLINE
  5
158
330
70
100
AcDbEntity
  8
A-FURN-P-SEAT
100
AcDbPolyline
 90
        2
 70
     0
 10
-12.16785371835937
 20
8.174149035323665
 40
0.0
 41
0.0
 10
-12.24116499926777
 20
8.162416409978874
 40
0.1969552685041935
 41
0.1969552685041935
  0
LWPOLYLINE
  5
159
330
70
100
AcDbEntity
  8
A-FURN-P-SEAT
100
AcDbPolyline
 90
        2
 70
     0
 10
-12.01867664670993
 20
6.682246555755313
 40
0.0
 41
0.0
 10
-11.53476346065321
 20
7.03383042078579
 40
0.1969552685041935
 41
0.1969552685041935
  0
LWPOLYLINE
  5
15A
330
70
100
AcDbEntity
  8
A-FURN-P-SEAT
100
AcDbPolyline
 90
        2
 70
     0
 10
-12.00940832568466
 20
6.653720342486224
 40
0.0
 41
0.0
 10
-11.51049266291545
 20
7.016201348612497
 40
0.1969552685041935
 41
0.1969552685041935
  0
LWPOLYLINE
  5
15B
330
70
100
AcDbEntity
  8
A-FURN-P-SEAT
100
AcDbPolyline
 90
        2
 70
     0
 10
-11.74180461150223
 20
7.286720394679377
 40
0.0
 41
0.0
 10
-11.76873804751494
 20
7.203828224734564
 40
0.1969552685041935
 41
0.1969552685041935
  0
LWPOLYLINE
  5
15C
330
70
100
AcDbEntity
  8
A-FURN-P-SEAT
100
AcDbPolyline
 90
        2
 70
     0
 10
-11.41518876586002
 20
7.401847445599202
 40
0.0
 41
0.0
 10
-11.53476346065321
 20
7.03383042078579
 40
0.1969552685041935
 41
0.1969552685041935
  0
LWPOLYLINE
  5
15D
330
70
100
AcDbEntity
  8
A-FURN-P-SEAT
100
AcDbPolyline
 90
        2
 70
     0
 10
-13.28557250365742
 20
7.602703610151394
 40
0.0
 41
0.0
 10
-13.1007345141374
 20
7.03383042078579
 40
0.1969552685041935
 41
0.1969552685041935
  0
LWPOLYLINE
  5
15E
330
70
100
AcDbEntity
  8
A-FURN-P-SEAT
100
AcDbPolyline
 90
        2
 70
     0
 10
-12.99636063001208
 20
7.602703610151394
 40
0.0
 41
0.0
 10
-12.86676012423095
 20
7.203828224734564
 40
0.1969552685041935
 41
0.1969552685041935
  0
LWPOLYLINE
  5
15F
330
70
100
AcDbEntity
  8
A-FURN-P-SEAT
100
AcDbPolyline
 90
        2
 70
     0
 10
-12.86676012423095
 20
8.001584904226291
 40
0.0
 41
0.0
 10
-12.99636063001208
 20
7.602703610151394
 40
0.1969552685041935
 41
0.1969552685041935
  0
LWPOLYLINE
  5
160
330
70
100
AcDbEntity
  8
A-FURN-P-SEAT
100
AcDbPolyline
 90
        2
 70
     0
 10
-13.1007345141374
 20
8.171576602561714
 40
0.0
 41
0.0
 10
-13.28557250365742
 20
7.602703610151394
 40
0.1969552685041935
 41
0.1969552685041935
  0
LWPOLYLINE
  5
161
330
70
100
AcDbEntity
  8
A-FURN-P-SEAT
100
AcDbPolyline
 90
        2
 70
     0
 10
-12.219773293645
 20
8.248103572139029
 40
0.0
 41
0.0
 10
-12.52744972371255
 20
8.248103572139029
 40
0.1969552685041935
 41
0.1969552685041935
  0
LWPOLYLINE
  5
162
330
70
100
AcDbEntity
  8
A-FURN-P-SEAT
100
AcDbPolyline
 90
        2
 70
     0
 10
-12.52744972371255
 20
8.248103572139029
 40
0.0
 41
0.0
 10
-12.86676012423095
 20
8.001584904226291
 40
0.1969552685041935
 41
0.1969552685041935
  0
LWPOLYLINE
  5
163
330
70
100
AcDbEntity
  8
A-FURN-P-SEAT
100
AcDbPolyline
 90
        2
 70
     0
 10
-12.3111463574516
 20
8.523160467592219
 40
0.0
 41
0.0
 10
-12.61682447936493
 20
8.523160467592219
 40
0.1969552685041935
 41
0.1969552685041935
  0
LWPOLYLINE
  5
164
330
70
100
AcDbEntity
  8
A-FURN-P-SEAT
100
AcDbPolyline
 90
        2
 70
     0
 10
-12.61682447936493
 20
8.523160467592219
 40
0.0
 41
0.0
 10
-13.1007345141374
 20
8.171576602561714
 40
0.1969552685041935
 41
0.1969552685041935
  0
LWPOLYLINE
  5
165
330
70
100
AcDbEntity
  8
A-FURN-P-SEAT
100
AcDbPolyline
 90
        2
 70
     0
 10
-7.690301005743663
 20
17.05140533026022
 40
0.0
 41
0.0
 10
-7.651460442018276
 20
17.16956175016491
 40
0.1969552685041935
 41
0.1969552685041935
  0
LWPOLYLINE
  5
166
330
70
100
AcDbEntity
  8
A-FURN-P-SEAT
100
AcDbPolyline
 90
        2
 70
     0
 10
-7.651460442018276
 20
17.16956175016491
 40
0.0
 41
0.0
 10
-7.637059072785291
 20
17.26996265261394
 40
0.1969552685041935
 41
0.1969552685041935
  0
LWPOLYLINE
  5
167
330
70
100
AcDbEntity
  8
A-FURN-P-SEAT
100
AcDbPolyline
 90
        2
 70
     0
 10
-7.637059072785291
 20
17.26996265261394
 40
0.0
 41
0.0
 10
-7.611604179973255
 20
17.37182437228949
 40
0.1969552685041935
 41
0.1969552685041935
  0
LWPOLYLINE
  5
168
330
70
100
AcDbEntity
  8
A-FURN-P-SEAT
100
AcDbPolyline
 90
        2
 70
     0
 10
-7.611604179973255
 20
17.37182437228949
 40
0.0
 41
0.0
 10
-7.100673458004166
 20
19.09368020300249
 40
0.1969552685041935
 41
0.1969552685041935
  0
LWPOLYLINE
  5
169
330
70
100
AcDbEntity
  8
A-FURN-P-SEAT
100
AcDbPolyline
 90
        2
 70
     0
 10
-6.608561614985376
 20
20.36574515097183
 40
0.0
 41
0.0
 10
-7.100673458004166
 20
19.09368020300249
 40
0.1969552685041935
 41
0.1969552685041935
  0
LWPOLYLINE
  5
16A
330
70
100
AcDbEntity
  8
A-FURN-P-SEAT
100
AcDbPolyline
 90
        2
 70
     0
 10
-6.471087231479998
 20
20.72111567799459
 40
0.0
 41
0.0
 10
-6.542252881693343
 20
20.53716142676436
 40
0.1969552685041935
 41
0.1969552685041935
  0
LWPOLYLINE
  5
16B
330
70
100
AcDbEntity
  8
A-FURN-P-SEAT
100
AcDbPolyline
 90
        2
 70
     0
 10
-13.31557135146909
 20
7.602703610151394
 40
0.0
 41
0.0
 10
-13.12500531187515
 20
7.016201348612497
 40
0.1969552685041935
 41
0.1969552685041935
  0
LWPOLYLINE
  5
16C
330
70
100
AcDbEntity
  8
A-FURN-P-SEAT
100
AcDbPolyline
 90
        2
 70
     0
 10
-12.86676012423095
 20
7.203828224734564
 40
0.0
 41
0.0
 10
-12.52744972371255
 20
6.957303648163758
 40
0.1969552685041935
 41
0.1969552685041935
  0
LWPOLYLINE
  5
16D
330
70
100
AcDbEntity
  8
A-FURN-P-SEAT
100
AcDbPolyline
 90
        2
 70
     0
 10
-12.83707364747511
 20
7.602703610151394
 40
0.0
 41
0.0
 10
-12.73789288291448
 20
7.297455244633937
 40
0.1969552685041935
 41
0.1969552685041935
  0
LWPOLYLINE
  5
16E
330
70
100
AcDbEntity
  8
A-FURN-P-SEAT
100
AcDbPolyline
 90
        2
 70
     0
 10
-12.73789288291448
 20
7.907951778713595
 40
0.0
 41
0.0
 10
-12.83707364747511
 20
7.602703610151394
 40
0.1969552685041935
 41
0.1969552685041935
  0
LWPOLYLINE
  5
16F
330
70
100
AcDbEntity
  8
A-FURN-P-SEAT
100
AcDbPolyline
 90
        2
 70
     0
 10
-12.73789288291448
 20
7.297455244633937
 40
0.0
 41
0.0
 10
-12.47822902647124
 20
7.108794747262805
 40
0.1969552685041935
 41
0.1969552685041935
  0
LWPOLYLINE
  5
170
330
70
100
AcDbEntity
  8
A-FURN-P-SEAT
100
AcDbPolyline
 90
        2
 70
     0
 10
-12.47822902647124
 20
8.096612473040011
 40
0.0
 41
0.0
 10
-12.73789288291448
 20
7.907951778713595
 40
0.1969552685041935
 41
0.1969552685041935
  0
LWPOLYLINE
  5
171
330
70
100
AcDbEntity
  8
A-FURN-P-SEAT
100
AcDbPolyline
 90
        2
 70
     0
 10
-12.52744972371255
 20
6.957303648163758
 40
0.0
 41
0.0
 10
-12.10804825107806
 20
6.957303648163758
 40
0.1969552685041935
 41
0.1969552685041935
  0
LWPOLYLINE
  5
172
330
70
100
AcDbEntity
  8
A-FURN-P-SEAT
100
AcDbPolyline
 90
        2
 70
     0
 10
-12.47822902647124
 20
7.108794747262805
 40
0.0
 41
0.0
 10
-12.15726914527465
 20
7.108794747262805
 40
0.1969552685041935
 41
0.1969552685041935
  0
LWPOLYLINE
  5
173
330
70
100
AcDbEntity
  8
A-FURN-P-SEAT
100
AcDbPolyline
 90
        2
 70
     0
 10
-12.41261140921636
 20
8.096612473040011
 40
0.0
 41
0.0
 10
-12.47822902647124
 20
8.096612473040011
 40
0.1969552685041935
 41
0.1969552685041935
  0
LWPOLYLINE
  5
174
330
70
100
AcDbEntity
  8
A-FURN-P-SEAT
100
AcDbPolyline
 90
        2
 70
     0
 10
-12.15726914527465
 20
7.108794747262805
 40
0.0
 41
0.0
 10
-12.09159125970763
 20
7.156518781418782
 40
0.1969552685041935
 41
0.1969552685041935
  0
LWPOLYLINE
  5
175
330
70
100
AcDbEntity
  8
A-FURN-P-SEAT
100
AcDbPolyline
 90
        2
 70
     0
 10
-12.10804825107806
 20
6.957303648163758
 40
0.0
 41
0.0
 10
-11.76873804751494
 20
7.203828224734564
 40
0.1969552685041935
 41
0.1969552685041935
  0
LWPOLYLINE
  5
176
330
70
100
AcDbEntity
  8
A-FURN-P-SEAT
100
AcDbPolyline
 90
        2
 70
     0
 10
-8.913036931073975
 20
3.341448158183368
 40
0.0
 41
0.0
 10
-9.175375440063533
 20
4.440798501230204
 40
0.1969552685041935
 41
0.1969552685041935
  0
LWPOLYLINE
  5
177
330
70
100
AcDbEntity
  8
A-FURN-P-SEAT
100
AcDbPolyline
 90
        2
 70
     0
 10
-0.4848744941858172
 20
0.0175875197922721
 40
0.0
 41
0.0
 10
-0.4726488898039634
 20
-0.460729773175757
 40
0.1969552685041935
 41
0.1969552685041935
  0
LWPOLYLINE
  5
178
330
70
100
AcDbEntity
  8
A-FURN-P-SEAT
100
AcDbPolyline
 90
        2
 70
     0
 10
-0.4726488898039634
 20
-0.460729773175757
 40
0.0
 41
0.0
 10
-0.4721620163802527
 20
-0.6998673454460232
 40
0.1969552685041935
 41
0.1969552685041935
  0
LWPOLYLINE
  5
179
330
70
100
AcDbEntity
  8
A-FURN-P-SEAT
100
AcDbPolyline
 90
        2
 70
     0
 10
0.4853801394330617
 20
0.0175875197922721
 40
0.0
 41
0.0
 10
0.4731547320064351
 20
-0.460729773175757
 40
0.1969552685041935
 41
0.1969552685041935
  0
LWPOLYLINE
  5
17A
330
70
100
AcDbEntity
  8
A-FURN-P-SEAT
100
AcDbPolyline
 90
        2
 70
     0
 10
0.4731547320064351
 20
-0.460729773175757
 40
0.0
 41
0.0
 10
0.4726678585827245
 20
-0.6998673454460232
 40
0.1969552685041935
 41
0.1969552685041935
  0
LWPOLYLINE
  5
17B
330
70
100
AcDbEntity
  8
A-FURN-P-SEAT
100
AcDbPolyline
 90
        2
 70
     0
 10
-11.38167958429778
 20
7.412666395453413
 40
0.0
 41
0.0
 10
-11.51049266291545
 20
7.016201348612497
 40
0.1969552685041935
 41
0.1969552685041935
  0
LWPOLYLINE
  5
17C
330
70
100
AcDbEntity
  8
A-FURN-P-SEAT
100
AcDbPolyline
 90
        2
 70
     0
 10
-0.5487551629277619
 20
-0.9485107667953798
 40
0.0
 41
0.0
 10
-0.678355668708889
 20
-1.347389106541243
 40
0.1969552685041935
 41
0.1969552685041935
  0
LWPOLYLINE
  5
17D
330
70
100
AcDbEntity
  8
A-FURN-P-SEAT
100
AcDbPolyline
 90
        2
 70
     0
 10
-0.678355668708889
 20
-1.347389106541243
 40
0.0
 41
0.0
 10
-0.5487551629277619
 20
-1.746267446287106
 40
0.1969552685041935
 41
0.1969552685041935
  0
LWPOLYLINE
  5
17E
330
70
100
AcDbEntity
  8
A-FURN-P-SEAT
100
AcDbPolyline
 90
        2
 70
     0
 10
-0.4813942945913823
 20
-0.8995725034090753
 40
0.0
 41
0.0
 10
-0.5487551629277619
 20
-0.9485107667953798
 40
0.1969552685041935
 41
0.1969552685041935
  0
LWPOLYLINE
  5
17F
330
70
100
AcDbEntity
  8
A-FURN-P-SEAT
100
AcDbPolyline
 90
        2
 70
     0
 10
-0.5487551629277619
 20
-1.746267446287106
 40
0.0
 41
0.0
 10
-0.2094449593646459
 20
-1.992786114199844
 40
0.1969552685041935
 41
0.1969552685041935
  0
LWPOLYLINE
  5
180
330
70
100
AcDbEntity
  8
A-FURN-P-SEAT
100
AcDbPolyline
 90
        2
 70
     0
 10
-0.2094449593646459
 20
-1.992786114199844
 40
0.0
 41
0.0
 10
0.2099565132699013
 20
-1.992786114199844
 40
0.1969552685041935
 41
0.1969552685041935
  0
LWPOLYLINE
  5
181
330
70
100
AcDbEntity
  8
A-FURN-P-SEAT
100
AcDbPolyline
 90
        2
 70
     0
 10
0.0002529211012074
 20
-0.8443562908391868
 40
0.0
 41
0.0
 10
0.0383119663212028
 20
-0.8478362934783945
 40
0.1969552685041935
 41
0.1969552685041935
  0
LWPOLYLINE
  5
182
330
70
100
AcDbEntity
  8
A-FURN-P-SEAT
100
AcDbPolyline
 90
        2
 70
     0
 10
0.2099565132699013
 20
-1.992786114199844
 40
0.0
 41
0.0
 10
0.5492669137883013
 20
-1.746267446287106
 40
0.1969552685041935
 41
0.1969552685041935
  0
LWPOLYLINE
  5
183
330
70
100
AcDbEntity
  8
A-FURN-P-SEAT
100
AcDbPolyline
 90
        2
 70
     0
 10
-0.5056050209722685
 20
-1.099019256059847
 40
0.0
 41
0.0
 10
-0.4914441341220482
 20
-1.369300774072883
 40
0.1969552685041935
 41
0.1969552685041935
  0
LWPOLYLINE
  5
184
330
70
100
AcDbEntity
  8
A-FURN-P-SEAT
100
AcDbPolyline
 90
        2
 70
     0
 10
0.5061167718327511
 20
-1.099019256059847
 40
0.0
 41
0.0
 10
0.4919558849825876
 20
-1.369300774072883
 40
0.1969552685041935
 41
0.1969552685041935
  0
LWPOLYLINE
  5
185
330
70
100
AcDbEntity
  8
A-FURN-P-SEAT
100
AcDbPolyline
 90
        2
 70
     0
 10
-0.7827297497894392
 20
-0.7785161141309232
 40
0.0
 41
0.0
 10
-0.9675675423541747
 20
-1.347389106541243
 40
0.1969552685041935
 41
0.1969552685041935
  0
LWPOLYLINE
  5
186
330
70
100
AcDbEntity
  8
A-FURN-P-SEAT
100
AcDbPolyline
 90
        2
 70
     0
 10
0.6788674195694285
 20
-1.347389106541243
 40
0.0
 41
0.0
 10
0.5492669137883013
 20
-0.9485107667953798
 40
0.1969552685041935
 41
0.1969552685041935
  0
LWPOLYLINE
  5
187
330
70
100
AcDbEntity
  8
A-FURN-P-SEAT
100
AcDbPolyline
 90
        2
 70
     0
 10
0.4880488833212553
 20
-0.9837568968705454
 40
0.0
 41
0.0
 10
0.5061167718327511
 20
-1.099019256059847
 40
0.1969552685041935
 41
0.1969552685041935
  0
LWPOLYLINE
  5
188
330
70
100
AcDbEntity
  8
A-FURN-P-SEAT
100
AcDbPolyline
 90
        2
 70
     0
 10
-0.4875432380740677
 20
-0.9837568968705454
 40
0.0
 41
0.0
 10
-0.4792425582829765
 20
-0.8700786489058316
 40
0.1969552685041935
 41
0.1969552685041935
  0
LWPOLYLINE
  5
189
330
70
100
AcDbEntity
  8
A-FURN-P-SEAT
100
AcDbPolyline
 90
        2
 70
     0
 10
0.4880488833212553
 20
-0.9837568968705454
 40
0.0
 41
0.0
 10
0.4797482035301642
 20
-0.8700786489058316
 40
0.1969552685041935
 41
0.1969552685041935
  0
LWPOLYLINE
  5
18A
330
70
100
AcDbEntity
  8
A-FURN-P-SEAT
100
AcDbPolyline
 90
        2
 70
     0
 10
0.5492669137883013
 20
-0.9485107667953798
 40
0.0
 41
0.0
 10
0.4819001367938541
 20
-0.8995665947510076
 40
0.1969552685041935
 41
0.1969552685041935
  0
LWPOLYLINE
  5
18B
330
70
100
AcDbEntity
  8
A-FURN-P-SEAT
100
AcDbPolyline
 90
        2
 70
     0
 10
-0.4875432380740677
 20
-0.9837568968705454
 40
0.0
 41
0.0
 10
-0.5056050209722685
 20
-1.099019256059847
 40
0.1969552685041935
 41
0.1969552685041935
  0
LWPOLYLINE
  5
18C
330
70
100
AcDbEntity
  8
A-FURN-P-SEAT
100
AcDbPolyline
 90
        2
 70
     0
 10
-0.7827297497894392
 20
-1.916259144622557
 40
0.0
 41
0.0
 10
-0.2988163667774302
 20
-2.267843009653034
 40
0.1969552685041935
 41
0.1969552685041935
  0
LWPOLYLINE
  5
18D
330
70
100
AcDbEntity
  8
A-FURN-P-SEAT
100
AcDbPolyline
 90
        2
 70
     0
 10
-0.2988163667774302
 20
-2.267843009653034
 40
0.0
 41
0.0
 10
0.2993281176379696
 20
-2.267843009653034
 40
0.1969552685041935
 41
0.1969552685041935
  0
LWPOLYLINE
  5
18E
330
70
100
AcDbEntity
  8
A-FURN-P-SEAT
100
AcDbPolyline
 90
        2
 70
     0
 10
0.2993281176379696
 20
-2.267843009653034
 40
0.0
 41
0.0
 10
0.7832415006499787
 20
-1.916259144622557
 40
0.1969552685041935
 41
0.1969552685041935
  0
LWPOLYLINE
  5
18F
330
70
100
AcDbEntity
  8
A-FURN-P-SEAT
100
AcDbPolyline
 90
        2
 70
     0
 10
-0.9675675423541747
 20
-1.347389106541243
 40
0.0
 41
0.0
 10
-0.7827297497894392
 20
-1.916259144622557
 40
0.1969552685041935
 41
0.1969552685041935
  0
LWPOLYLINE
  5
190
330
70
100
AcDbEntity
  8
A-FURN-P-SEAT
100
AcDbPolyline
 90
        2
 70
     0
 10
-0.3391055365027
 20
-1.697792027781787
 40
0.0
 41
0.0
 10
0.0002529211012074
 20
-1.832982321038343
 40
0.1969552685041935
 41
0.1969552685041935
  0
LWPOLYLINE
  5
191
330
70
100
AcDbEntity
  8
A-FURN-P-SEAT
100
AcDbPolyline
 90
        2
 70
     0
 10
0.3396111817498877
 20
-1.697792027781787
 40
0.0
 41
0.0
 10
0.0002529211012074
 20
-1.832982321038343
 40
0.1969552685041935
 41
0.1969552685041935
  0
LWPOLYLINE
  5
192
330
70
100
AcDbEntity
  8
A-FURN-P-SEAT
100
AcDbPolyline
 90
        2
 70
     0
 10
0.6788674195694285
 20
-1.347389106541243
 40
0.0
 41
0.0
 10
0.5492669137883013
 20
-1.746267446287106
 40
0.1969552685041935
 41
0.1969552685041935
  0
LWPOLYLINE
  5
193
330
70
100
AcDbEntity
  8
A-FURN-P-SEAT
100
AcDbPolyline
 90
        2
 70
     0
 10
-0.4914441341220482
 20
-1.369300774072883
 40
0.0
 41
0.0
 10
-0.3391055365027
 20
-1.697792027781787
 40
0.1969552685041935
 41
0.1969552685041935
  0
LWPOLYLINE
  5
194
330
70
100
AcDbEntity
  8
A-FURN-P-SEAT
100
AcDbPolyline
 90
        2
 70
     0
 10
0.4919558849825876
 20
-1.369300774072883
 40
0.0
 41
0.0
 10
0.3396111817498877
 20
-1.697792027781787
 40
0.1969552685041935
 41
0.1969552685041935
  0
LWPOLYLINE
  5
195
330
70
100
AcDbEntity
  8
A-FURN-P-SEAT
100
AcDbPolyline
 90
        2
 70
     0
 10
-0.8070005475272523
 20
-0.7608840876286252
 40
0.0
 41
0.0
 10
-0.9975663901659004
 20
-1.347389106541243
 40
0.1969552685041935
 41
0.1969552685041935
  0
LWPOLYLINE
  5
196
330
70
100
AcDbEntity
  8
A-FURN-P-SEAT
100
AcDbPolyline
 90
        2
 70
     0
 10
-0.9975663901659004
 20
-1.347389106541243
 40
0.0
 41
0.0
 10
-0.8070005475272523
 20
-1.933891171124855
 40
0.1969552685041935
 41
0.1969552685041935
  0
LWPOLYLINE
  5
197
330
70
100
AcDbEntity
  8
A-FURN-P-SEAT
100
AcDbPolyline
 90
        2
 70
     0
 10
-0.8070005475272523
 20
-1.933891171124855
 40
0.0
 41
0.0
 10
-0.3080907934160564
 20
-2.296372374206413
 40
0.1969552685041935
 41
0.1969552685041935
  0
LWPOLYLINE
  5
198
330
70
100
AcDbEntity
  8
A-FURN-P-SEAT
100
AcDbPolyline
 90
        2
 70
     0
 10
-0.4962705229767721
 20
-1.27721532306009
 40
0.0
 41
0.0
 10
-0.5190688831272042
 20
-1.347389106541243
 40
0.1969552685041935
 41
0.1969552685041935
  0
LWPOLYLINE
  5
199
330
70
100
AcDbEntity
  8
A-FURN-P-SEAT
100
AcDbPolyline
 90
        2
 70
     0
 10
-0.3080907934160564
 20
-2.296372374206413
 40
0.0
 41
0.0
 10
0.308596438663244
 20
-2.296372374206413
 40
0.1969552685041935
 41
0.1969552685041935
  0
LWPOLYLINE
  5
19A
330
70
100
AcDbEntity
  8
A-FURN-P-SEAT
100
AcDbPolyline
 90
        2
 70
     0
 10
0.308596438663244
 20
-2.296372374206413
 40
0.0
 41
0.0
 10
0.80750619277444
 20
-1.933891171124855
 40
0.1969552685041935
 41
0.1969552685041935
  0
LWPOLYLINE
  5
19B
330
70
100
AcDbEntity
  8
A-FURN-P-SEAT
100
AcDbPolyline
 90
        2
 70
     0
 10
0.5195804370324595
 20
-1.347389106541243
 40
0.0
 41
0.0
 10
0.4203935668584791
 20
-1.652637275103444
 40
0.1969552685041935
 41
0.1969552685041935
  0
LWPOLYLINE
  5
19C
330
70
100
AcDbEntity
  8
A-FURN-P-SEAT
100
AcDbPolyline
 90
        2
 70
     0
 10
0.5195804370324595
 20
-1.347389106541243
 40
0.0
 41
0.0
 10
0.4967822738373116
 20
-1.277221428673414
 40
0.1969552685041935
 41
0.1969552685041935
  0
LWPOLYLINE
  5
19D
330
70
100
AcDbEntity
  8
A-FURN-P-SEAT
100
AcDbPolyline
 90
        2
 70
     0
 10
-0.4721620163802527
 20
-0.6998673454460232
 40
0.0
 41
0.0
 10
-0.4792425582829765
 20
-0.8700786489058316
 40
0.1969552685041935
 41
0.1969552685041935
  0
LWPOLYLINE
  5
19E
330
70
100
AcDbEntity
  8
A-FURN-P-SEAT
100
AcDbPolyline
 90
        2
 70
     0
 10
0.4726678585827245
 20
-0.6998673454460232
 40
0.0
 41
0.0
 10
0.4797482035301642
 20
-0.8700786489058316
 40
0.1969552685041935
 41
0.1969552685041935
  0
LWPOLYLINE
  5
19F
330
70
100
AcDbEntity
  8
A-FURN-P-SEAT
100
AcDbPolyline
 90
        2
 70
     0
 10
-0.4724625701200012
 20
-0.55309155243026
 40
0.0
 41
0.0
 10
-0.7827297497894392
 20
-0.7785161141309232
 40
0.1969552685041935
 41
0.1969552685041935
  0
LWPOLYLINE
  5
1A0
330
70
100
AcDbEntity
  8
A-FURN-P-SEAT
100
AcDbPolyline
 90
        2
 70
     0
 10
-0.5190688831272042
 20
-1.347389106541243
 40
0.0
 41
0.0
 10
-0.4198879216112914
 20
-1.652637275103444
 40
0.1969552685041935
 41
0.1969552685041935
  0
LWPOLYLINE
  5
1A1
330
70
100
AcDbEntity
  8
A-FURN-P-SEAT
100
AcDbPolyline
 90
        2
 70
     0
 10
-0.4198879216112914
 20
-1.652637275103444
 40
0.0
 41
0.0
 10
-0.1602240651680518
 20
-1.841295015100826
 40
0.1969552685041935
 41
0.1969552685041935
  0
LWPOLYLINE
  5
1A2
330
70
100
AcDbEntity
  8
A-FURN-P-SEAT
100
AcDbPolyline
 90
        2
 70
     0
 10
-0.1602240651680518
 20
-1.841295015100826
 40
0.0
 41
0.0
 10
0.1607358160285344
 20
-1.841295015100826
 40
0.1969552685041935
 41
0.1969552685041935
  0
LWPOLYLINE
  5
1A3
330
70
100
AcDbEntity
  8
A-FURN-P-SEAT
100
AcDbPolyline
 90
        2
 70
     0
 10
0.1607358160285344
 20
-1.841295015100826
 40
0.0
 41
0.0
 10
0.4203935668584791
 20
-1.652637275103444
 40
0.1969552685041935
 41
0.1969552685041935
  0
LWPOLYLINE
  5
1A4
330
70
100
AcDbEntity
  8
A-FURN-P-SEAT
100
AcDbPolyline
 90
        2
 70
     0
 10
0.7832415006499787
 20
-0.7785161141309232
 40
0.0
 41
0.0
 10
0.4729684123224729
 20
-0.5530885981012262
 40
0.1969552685041935
 41
0.1969552685041935
  0
LWPOLYLINE
  5
1A5
330
70
100
AcDbEntity
  8
A-FURN-P-SEAT
100
AcDbPolyline
 90
        2
 70
     0
 10
0.9680792932147141
 20
-1.347389106541243
 40
0.0
 41
0.0
 10
0.7832415006499787
 20
-0.7785161141309232
 40
0.1969552685041935
 41
0.1969552685041935
  0
LWPOLYLINE
  5
1A6
330
70
100
AcDbEntity
  8
A-FURN-P-SEAT
100
AcDbPolyline
 90
        2
 70
     0
 10
0.9680792932147141
 20
-1.347389106541243
 40
0.0
 41
0.0
 10
0.7832415006499787
 20
-1.916259144622557
 40
0.1969552685041935
 41
0.1969552685041935
  0
LWPOLYLINE
  5
1A7
330
70
100
AcDbEntity
  8
A-FURN-P-SEAT
100
AcDbPolyline
 90
        2
 70
     0
 10
1.304077693937927
 20
22.56817242770089
 40
0.0
 41
0.0
 10
0.7503694693813828
 20
22.56817242770089
 40
0.1969552685041935
 41
0.1969552685041935
  0
LWPOLYLINE
  5
1A8
330
70
100
AcDbEntity
  8
A-FURN-P-SEAT
100
AcDbPolyline
 90
        2
 70
     0
 10
2.977013381149333
 20
22.40697419123836
 40
0.0
 41
0.0
 10
1.304077693937927
 20
22.56817242770089
 40
0.1969552685041935
 41
0.1969552685041935
  0
LWPOLYLINE
  5
1A9
330
70
100
AcDbEntity
  8
A-FURN-P-SEAT
100
AcDbPolyline
 90
        2
 70
     0
 10
4.610207040371449
 20
22.06571038836697
 40
0.0
 41
0.0
 10
2.977013381149333
 20
22.40697419123836
 40
0.1969552685041935
 41
0.1969552685041935
  0
LWPOLYLINE
  5
1AA
330
70
100
AcDbEntity
  8
A-FURN-P-SEAT
100
AcDbPolyline
 90
        2
 70
     0
 10
5.410746500851871
 20
21.75676576332546
 40
0.0
 41
0.0
 10
4.610207040371449
 20
22.06571038836697
 40
0.1969552685041935
 41
0.1969552685041935
  0
LWPOLYLINE
  5
1AB
330
70
100
AcDbEntity
  8
A-FURN-P-SEAT
100
AcDbPolyline
 90
        2
 70
     0
 10
5.95400841492227
 20
21.48362012179786
 40
0.0
 41
0.0
 10
5.410746500851871
 20
21.75676576332546
 40
0.1969552685041935
 41
0.1969552685041935
  0
LWPOLYLINE
  5
1AC
330
70
100
AcDbEntity
  8
A-FURN-P-SEAT
100
AcDbPolyline
 90
        2
 70
     0
 10
6.328685088229576
 20
21.16582787218462
 40
0.0
 41
0.0
 10
5.95400841492227
 20
21.48362012179786
 40
0.1969552685041935
 41
0.1969552685041935
  0
LWPOLYLINE
  5
1AD
330
70
100
AcDbEntity
  8
A-FURN-P-SEAT
100
AcDbPolyline
 90
        2
 70
     0
 10
6.52743757355887
 20
20.87504705287037
 40
0.0
 41
0.0
 10
6.328685088229576
 20
21.16582787218462
 40
0.1969552685041935
 41
0.1969552685041935
  0
LWPOLYLINE
  5
1AE
330
70
100
AcDbEntity
  8
A-FURN-P-SEAT
100
AcDbPolyline
 90
        2
 70
     0
 10
6.52743757355887
 20
20.87504705287037
 40
0.0
 41
0.0
 10
6.544940397405071
 20
20.84094306639727
 40
0.1969552685041935
 41
0.1969552685041935
  0
LWPOLYLINE
  5
1AF
330
70
100
AcDbEntity
  8
A-FURN-P-SEAT
100
AcDbPolyline
 90
        2
 70
     0
 10
7.696979623016318
 20
17.51446174120346
 40
0.0
 41
0.0
 10
7.180669264843345
 20
19.20761705323477
 40
0.1969552685041935
 41
0.1969552685041935
  0
LWPOLYLINE
  5
1B0
330
70
100
AcDbEntity
  8
A-FURN-P-SEAT
100
AcDbPolyline
 90
        2
 70
     0
 10
7.733325748266111
 20
17.40648731781462
 40
0.0
 41
0.0
 10
7.696979623016318
 20
17.51446174120346
 40
0.1969552685041935
 41
0.1969552685041935
  0
LWPOLYLINE
  5
1B1
330
70
100
AcDbEntity
  8
A-FURN-P-SEAT
100
AcDbPolyline
 90
        2
 70
     0
 10
7.757458283405355
 20
17.2993544842881
 40
0.0
 41
0.0
 10
7.733325748266111
 20
17.40648731781462
 40
0.1969552685041935
 41
0.1969552685041935
  0
LWPOLYLINE
  5
1B2
330
70
100
AcDbEntity
  8
A-FURN-P-SEAT
100
AcDbPolyline
 90
        2
 70
     0
 10
-6.27476320461136
 20
21.01071831089263
 40
0.0
 41
0.0
 10
-5.90289353779076
 20
21.32670152636464
 40
0.1969552685041935
 41
0.1969552685041935
  0
LWPOLYLINE
  5
1B3
330
70
100
AcDbEntity
  8
A-FURN-P-SEAT
100
AcDbPolyline
 90
        2
 70
     0
 10
-5.90289353779076
 20
21.32670152636464
 40
0.0
 41
0.0
 10
-5.36210794231124
 20
21.59747287213045
 40
0.1969552685041935
 41
0.1969552685041935
  0
LWPOLYLINE
  5
1B4
330
70
100
AcDbEntity
  8
A-FURN-P-SEAT
100
AcDbPolyline
 90
        2
 70
     0
 10
-5.36210794231124
 20
21.59747287213045
 40
0.0
 41
0.0
 10
-4.573277078632884
 20
21.90340624807177
 40
0.1969552685041935
 41
0.1969552685041935
  0
LWPOLYLINE
  5
1B5
330
70
100
AcDbEntity
  8
A-FURN-P-SEAT
100
AcDbPolyline
 90
        2
 70
     0
 10
-4.573277078632884
 20
21.90340624807177
 40
0.0
 41
0.0
 10
-2.955542832346225
 20
22.24224769809584
 40
0.1969552685041935
 41
0.1969552685041935
  0
LWPOLYLINE
  5
1B6
330
70
100
AcDbEntity
  8
A-FURN-P-SEAT
100
AcDbPolyline
 90
        2
 70
     0
 10
-2.955542832346225
 20
22.24224769809584
 40
0.0
 41
0.0
 10
-1.293576371858875
 20
22.40253225906778
 40
0.1969552685041935
 41
0.1969552685041935
  0
LWPOLYLINE
  5
1B7
330
70
100
AcDbEntity
  8
A-FURN-P-SEAT
100
AcDbPolyline
 90
        2
 70
     0
 10
-1.293576371858875
 20
22.40253225906778
 40
0.0
 41
0.0
 10
0.0002288925584821
 20
22.45576828336812
 40
0.1969552685041935
 41
0.1969552685041935
  0
LWPOLYLINE
  5
1B8
330
70
100
AcDbEntity
  8
A-FURN-P-SEAT
100
AcDbPolyline
 90
        2
 70
     0
 10
7.41638080021795
 20
16.15556177576908
 40
0.0
 41
0.0
 10
7.228110865144287
 20
16.38838831037068
 40
0.1969552685041935
 41
0.1969552685041935
  0
LWPOLYLINE
  5
1B9
330
70
100
AcDbEntity
  8
A-FURN-P-SEAT
100
AcDbPolyline
 90
        2
 70
     0
 10
8.212779079222855
 20
15.0205325919222
 40
0.0
 41
0.0
 10
7.41638080021795
 20
16.15556177576908
 40
0.1969552685041935
 41
0.1969552685041935
  0
LWPOLYLINE
  5
1BA
330
70
100
AcDbEntity
  8
A-FURN-P-SEAT
100
AcDbPolyline
 90
        2
 70
     0
 10
7.60178976306139
 20
16.98770507254426
 40
0.0
 41
0.0
 10
7.671554864360359
 20
16.98842632273752
 40
0.1969552685041935
 41
0.1969552685041935
  0
LWPOLYLINE
  5
1BB
330
70
100
AcDbEntity
  8
A-FURN-P-SEAT
100
AcDbPolyline
 90
        2
 70
     0
 10
7.793251358261159
 20
17.18681818297017
 40
0.0
 41
0.0
 10
7.757458283405355
 20
17.2993544842881
 40
0.1969552685041935
 41
0.1969552685041935
  0
LWPOLYLINE
  5
1BC
330
70
100
AcDbEntity
  8
A-FURN-P-SEAT
100
AcDbPolyline
 90
        2
 70
     0
 10
-6.526985894055258
 20
20.87504705287037
 40
0.0
 41
0.0
 10
-6.328233408725964
 20
21.16582787218462
 40
0.1969552685041935
 41
0.1969552685041935
  0
LWPOLYLINE
  5
1BD
330
70
100
AcDbEntity
  8
A-FURN-P-SEAT
100
AcDbPolyline
 90
        2
 70
     0
 10
-1.302688507356208
 20
22.54541621597792
 40
0.0
 41
0.0
 10
0.0002288925584821
 20
22.59905481684706
 40
0.1969552685041935
 41
0.1969552685041935
  0
LWPOLYLINE
  5
1BE
330
70
100
AcDbEntity
  8
A-FURN-P-SEAT
100
AcDbPolyline
 90
        2
 70
     0
 10
-6.328233408725964
 20
21.16582787218462
 40
0.0
 41
0.0
 10
-5.953556735418601
 20
21.48362012179786
 40
0.1969552685041935
 41
0.1969552685041935
  0
LWPOLYLINE
  5
1BF
330
70
100
AcDbEntity
  8
A-FURN-P-SEAT
100
AcDbPolyline
 90
        2
 70
     0
 10
-5.953556735418601
 20
21.48362012179786
 40
0.0
 41
0.0
 10
-5.410295018303486
 20
21.75676576332546
 40
0.1969552685041935
 41
0.1969552685041935
  0
LWPOLYLINE
  5
1C0
330
70
100
AcDbEntity
  8
A-FURN-P-SEAT
100
AcDbPolyline
 90
        2
 70
     0
 10
-5.410295018303486
 20
21.75676576332546
 40
0.0
 41
0.0
 10
-4.609755360867836
 20
22.06571038836697
 40
0.1969552685041935
 41
0.1969552685041935
  0
LWPOLYLINE
  5
1C1
330
70
100
AcDbEntity
  8
A-FURN-P-SEAT
100
AcDbPolyline
 90
        2
 70
     0
 10
-4.609755360867836
 20
22.06571038836697
 40
0.0
 41
0.0
 10
-2.976561898601005
 20
22.40697419123836
 40
0.1969552685041935
 41
0.1969552685041935
  0
LWPOLYLINE
  5
1C2
330
70
100
AcDbEntity
  8
A-FURN-P-SEAT
100
AcDbPolyline
 90
        2
 70
     0
 10
-2.976561898601005
 20
22.40697419123836
 40
0.0
 41
0.0
 10
-1.303626211389598
 20
22.56817242770089
 40
0.1969552685041935
 41
0.1969552685041935
  0
LWPOLYLINE
  5
1C3
330
70
100
AcDbEntity
  8
A-FURN-P-SEAT
100
AcDbPolyline
 90
        2
 70
     0
 10
-1.303626211389598
 20
22.56817242770089
 40
0.0
 41
0.0
 10
-0.7499177898777134
 20
22.56817242770089
 40
0.1969552685041935
 41
0.1969552685041935
  0
LWPOLYLINE
  5
1C4
330
70
100
AcDbEntity
  8
A-FURN-P-SEAT
100
AcDbPolyline
 90
        2
 70
     0
 10
-9.319834251300619
 20
15.28773963819389
 40
0.0
 41
0.0
 10
-9.234922502032532
 20
15.46982478392601
 40
0.1969552685041935
 41
0.1969552685041935
  0
LWPOLYLINE
  5
1C5
330
70
100
AcDbEntity
  8
A-FURN-P-SEAT
100
AcDbPolyline
 90
        2
 70
     0
 10
-7.624929779529736
 20
16.98463966074524
 40
0.0
 41
0.0
 10
-7.601770991237913
 20
16.98474778918768
 40
0.1969552685041935
 41
0.1969552685041935
  0
LWPOLYLINE
  5
1C6
330
70
100
AcDbEntity
  8
A-FURN-P-SEAT
100
AcDbPolyline
 90
        2
 70
     0
 10
-7.614970145511961
 20
18.13791714412963
 40
0.0
 41
0.0
 10
-7.458784814543435
 20
18.29409636948483
 40
0.1969552685041935
 41
0.1969552685041935
  0
LWPOLYLINE
  5
1C7
330
70
100
AcDbEntity
  8
A-FURN-P-SEAT
100
AcDbPolyline
 90
        2
 70
     0
 10
-6.851948891084191
 20
21.84296382745214
 40
0.0
 41
0.0
 10
-6.946267223976008
 20
21.98482578347398
 40
0.1969552685041935
 41
0.1969552685041935
  0
LWPOLYLINE
  5
1C8
330
70
100
AcDbEntity
  8
A-FURN-P-SEAT
100
AcDbPolyline
 90
        2
 70
     0
 10
-6.710988399326254
 20
21.64978320666882
 40
0.0
 41
0.0
 10
-6.851948891084191
 20
21.84296382745214
 40
0.1969552685041935
 41
0.1969552685041935
  0
LWPOLYLINE
  5
1C9
330
70
100
AcDbEntity
  8
A-FURN-P-SEAT
100
AcDbPolyline
 90
        2
 70
     0
 10
-6.333835407428011
 20
21.15763532083591
 40
0.0
 41
0.0
 10
-6.710988399326254
 20
21.64978320666882
 40
0.1969552685041935
 41
0.1969552685041935
  0
LWPOLYLINE
  5
1CA
330
70
100
AcDbEntity
  8
A-FURN-P-SEAT
100
AcDbPolyline
 90
        2
 70
     0
 10
-6.471087231479998
 20
20.72111567799459
 40
0.0
 41
0.0
 10
-6.27476320461136
 20
21.01071831089263
 40
0.1969552685041935
 41
0.1969552685041935
  0
LWPOLYLINE
  5
1CB
330
70
100
AcDbEntity
  8
A-FURN-P-SEAT
100
AcDbPolyline
 90
        2
 70
     0
 10
8.474775083000452
 20
2.183386237416499
 40
0.0
 41
0.0
 10
8.607921768391008
 20
2.423876301515605
 40
0.1969552685041935
 41
0.1969552685041935
  0
LWPOLYLINE
  5
1CC
330
70
100
AcDbEntity
  8
A-FURN-P-SEAT
100
AcDbPolyline
 90
        2
 70
     0
 10
6.544940397405071
 20
20.84094306639727
 40
0.0
 41
0.0
 10
7.180669264843345
 20
19.20761705323477
 40
0.1969552685041935
 41
0.1969552685041935
  0
LWPOLYLINE
  5
1CD
330
70
100
AcDbEntity
  8
A-FURN-P-SEAT
100
AcDbPolyline
 90
        2
 70
     0
 10
8.526051402379152
 20
14.57922240608505
 40
0.0
 41
0.0
 10
7.419362112117312
 20
16.138251180265
 40
0.1969552685041935
 41
0.1969552685041935
  0
LWPOLYLINE
  5
1CE
330
70
100
AcDbEntity
  8
A-FURN-P-SEAT
100
AcDbPolyline
 90
        2
 70
     0
 10
7.666716264279045
 20
16.84232667715852
 40
0.0
 41
0.0
 10
7.625309176449775
 20
16.83673078406977
 40
0.1969552685041935
 41
0.1969552685041935
  0
LWPOLYLINE
  5
1CF
330
70
100
AcDbEntity
  8
A-FURN-P-SEAT
100
AcDbPolyline
 90
        2
 70
     0
 10
7.748622673104989
 20
16.92952842533347
 40
0.0
 41
0.0
 10
7.666716264279045
 20
16.84232667715852
 40
0.1969552685041935
 41
0.1969552685041935
  0
LWPOLYLINE
  5
1D0
330
70
100
AcDbEntity
  8
A-FURN-P-SEAT
100
AcDbPolyline
 90
        2
 70
     0
 10
7.748622673104989
 20
16.92952842533347
 40
0.0
 41
0.0
 10
7.812755641545891
 20
17.14232165479919
 40
0.1969552685041935
 41
0.1969552685041935
  0
LWPOLYLINE
  5
1D1
330
70
100
AcDbEntity
  8
A-FURN-P-SEAT
100
AcDbPolyline
 90
        2
 70
     0
 10
7.812755641545891
 20
17.14232165479919
 40
0.0
 41
0.0
 10
7.761395222267481
 20
17.25949231358501
 40
0.1969552685041935
 41
0.1969552685041935
  0
LWPOLYLINE
  5
1D2
330
70
100
AcDbEntity
  8
A-FURN-P-SEAT
100
AcDbPolyline
 90
        2
 70
     0
 10
9.334158278186066
 20
13.03689090870307
 40
0.0
 41
0.0
 10
8.526051402379152
 20
14.57922240608505
 40
0.1969552685041935
 41
0.1969552685041935
  0
LWPOLYLINE
  5
1D3
330
70
100
AcDbEntity
  8
A-FURN-P-SEAT
100
AcDbPolyline
 90
        2
 70
     0
 10
8.607921768391008
 20
2.423876301515605
 40
0.0
 41
0.0
 10
8.913488610577587
 20
3.341448158183368
 40
0.1969552685041935
 41
0.1969552685041935
  0
LWPOLYLINE
  5
1D4
330
70
100
AcDbEntity
  8
A-FURN-P-SEAT
100
AcDbPolyline
 90
        2
 70
     0
 10
9.17582101395385
 20
4.440798501230204
 40
0.0
 41
0.0
 10
8.913488610577587
 20
3.341448158183368
 40
0.1969552685041935
 41
0.1969552685041935
  0
LWPOLYLINE
  5
1D5
330
70
100
AcDbEntity
  8
A-FURN-P-SEAT
100
AcDbPolyline
 90
        2
 70
     0
 10
9.17582101395385
 20
4.440798501230204
 40
0.0
 41
0.0
 10
9.709201485248115
 20
7.536154197521256
 40
0.1969552685041935
 41
0.1969552685041935
  0
LWPOLYLINE
  5
1D6
330
70
100
AcDbEntity
  8
A-FURN-P-SEAT
100
AcDbPolyline
 90
        2
 70
     0
 10
9.709201485248115
 20
7.536154197521256
 40
0.0
 41
0.0
 10
9.751756625337463
 20
8.072161264276275
 40
0.1969552685041935
 41
0.1969552685041935
  0
LWPOLYLINE
  5
1D7
330
70
100
AcDbEntity
  8
A-FURN-P-SEAT
100
AcDbPolyline
 90
        2
 70
     0
 10
1.303139989904593
 20
22.54541621597792
 40
0.0
 41
0.0
 10
0.0002288925584821
 20
22.59905481684706
 40
0.1969552685041935
 41
0.1969552685041935
  0
LWPOLYLINE
  5
1D8
330
70
100
AcDbEntity
  8
A-FURN-P-SEAT
100
AcDbPolyline
 90
        2
 70
     0
 10
1.294033960020556
 20
22.40253225906778
 40
0.0
 41
0.0
 10
0.0002288925584821
 20
22.45576828336812
 40
0.1969552685041935
 41
0.1969552685041935
  0
LWPOLYLINE
  5
1D9
330
70
100
AcDbEntity
  8
A-FURN-P-SEAT
100
AcDbPolyline
 90
        2
 70
     0
 10
2.956000420507905
 20
22.24224769809584
 40
0.0
 41
0.0
 10
1.294033960020556
 20
22.40253225906778
 40
0.1969552685041935
 41
0.1969552685041935
  0
LWPOLYLINE
  5
1DA
330
70
100
AcDbEntity
  8
A-FURN-P-SEAT
100
AcDbPolyline
 90
        2
 70
     0
 10
4.573728758136496
 20
21.90340624807177
 40
0.0
 41
0.0
 10
2.956000420507905
 20
22.24224769809584
 40
0.1969552685041935
 41
0.1969552685041935
  0
LWPOLYLINE
  5
1DB
330
70
100
AcDbEntity
  8
A-FURN-P-SEAT
100
AcDbPolyline
 90
        2
 70
     0
 10
5.362559621814909
 20
21.59747287213045
 40
0.0
 41
0.0
 10
4.573728758136496
 20
21.90340624807177
 40
0.1969552685041935
 41
0.1969552685041935
  0
LWPOLYLINE
  5
1DC
330
70
100
AcDbEntity
  8
A-FURN-P-SEAT
100
AcDbPolyline
 90
        2
 70
     0
 10
5.903345020339088
 20
21.32670152636464
 40
0.0
 41
0.0
 10
5.362559621814909
 20
21.59747287213045
 40
0.1969552685041935
 41
0.1969552685041935
  0
LWPOLYLINE
  5
1DD
330
70
100
AcDbEntity
  8
A-FURN-P-SEAT
100
AcDbPolyline
 90
        2
 70
     0
 10
6.275220792773041
 20
21.01071831089263
 40
0.0
 41
0.0
 10
5.903345020339088
 20
21.32670152636464
 40
0.1969552685041935
 41
0.1969552685041935
  0
LWPOLYLINE
  5
1DE
330
70
100
AcDbEntity
  8
A-FURN-P-SEAT
100
AcDbPolyline
 90
        2
 70
     0
 10
6.471538910983611
 20
20.72111567799459
 40
0.0
 41
0.0
 10
6.275220792773041
 20
21.01071831089263
 40
0.1969552685041935
 41
0.1969552685041935
  0
LWPOLYLINE
  5
1DF
330
70
100
AcDbEntity
  8
A-FURN-P-SEAT
100
AcDbPolyline
 90
        2
 70
     0
 10
6.334310918519179
 20
21.15760538363509
 40
0.0
 41
0.0
 10
6.711487938960146
 20
21.64978911532688
 40
0.1969552685041935
 41
0.1969552685041935
  0
LWPOLYLINE
  5
1E0
330
70
100
AcDbEntity
  8
A-FURN-P-SEAT
100
AcDbPolyline
 90
        2
 70
     0
 10
6.711487938960146
 20
21.64978911532688
 40
0.0
 41
0.0
 10
6.852442522060016
 20
21.84296382745214
 40
0.1969552685041935
 41
0.1969552685041935
  0
LWPOLYLINE
  5
1E1
330
70
100
AcDbEntity
  8
A-FURN-P-SEAT
100
AcDbPolyline
 90
        2
 70
     0
 10
6.818650906642744
 20
20.13772097668217
 40
0.0
 41
0.0
 10
7.476661126651606
 20
21.09385687187836
 40
0.1969552685041935
 41
0.1969552685041935
  0
LWPOLYLINE
  5
1E2
330
70
100
AcDbEntity
  8
A-FURN-P-SEAT
100
AcDbPolyline
 90
        2
 70
     0
 10
6.852442522060016
 20
21.84296382745214
 40
0.0
 41
0.0
 10
6.9467667636099
 20
21.98483188908733
 40
0.1969552685041935
 41
0.1969552685041935
  0
LWPOLYLINE
  5
1E3
330
70
100
AcDbEntity
  8
A-FURN-P-SEAT
100
AcDbPolyline
 90
        2
 70
     0
 10
7.006866875972889
 20
22.08167459765556
 40
0.0
 41
0.0
 10
6.9467667636099
 20
21.98483188908733
 40
0.1969552685041935
 41
0.1969552685041935
  0
LWPOLYLINE
  5
1E4
330
70
100
AcDbEntity
  8
A-FURN-P-SEAT
100
AcDbPolyline
 90
        2
 70
     0
 10
7.006866875972889
 20
22.08167459765556
 40
0.0
 41
0.0
 10
7.060006589146894
 20
22.18554979104101
 40
0.1969552685041935
 41
0.1969552685041935
  0
LWPOLYLINE
  5
1E5
330
70
100
AcDbEntity
  8
A-FURN-P-SEAT
100
AcDbPolyline
 90
        2
 70
     0
 10
7.060006589146894
 20
22.18554979104101
 40
0.0
 41
0.0
 10
7.230322869764847
 20
22.39588462484523
 40
0.1969552685041935
 41
0.1969552685041935
  0
LWPOLYLINE
  5
1E6
330
70
100
AcDbEntity
  8
A-FURN-P-SEAT
100
AcDbPolyline
 90
        2
 70
     0
 10
7.459212465504322
 20
18.29416845511312
 40
0.0
 41
0.0
 10
7.615488001985852
 20
18.13789902424491
 40
0.1969552685041935
 41
0.1969552685041935
  0
LWPOLYLINE
  5
1E7
330
70
100
AcDbEntity
  8
A-FURN-P-SEAT
100
AcDbPolyline
 90
        2
 70
     0
 10
7.549810116418825
 20
18.13710568842339
 40
0.0
 41
0.0
 10
7.512989132016684
 20
18.11782967629486
 40
0.1969552685041935
 41
0.1969552685041935
  0
LWPOLYLINE
  5
1E8
330
70
100
AcDbEntity
  8
A-FURN-P-SEAT
100
AcDbPolyline
 90
        2
 70
     0
 10
9.340926252077679
 20
12.80602998768117
 40
0.0
 41
0.0
 10
8.420156629670429
 20
14.54338718280178
 40
0.1969552685041935
 41
0.1969552685041935
  0
LWPOLYLINE
  5
1E9
330
70
100
AcDbEntity
  8
A-FURN-P-SEAT
100
AcDbPolyline
 90
        2
 70
     0
 10
8.420156629670429
 20
14.54338718280178
 40
0.0
 41
0.0
 10
7.314951988222617
 20
16.06094899475087
 40
0.1969552685041935
 41
0.1969552685041935
  0
LWPOLYLINE
  5
1EA
330
70
100
AcDbEntity
  8
A-FURN-P-SEAT
100
AcDbPolyline
 90
        2
 70
     0
 10
7.314951988222617
 20
16.06094899475087
 40
0.0
 41
0.0
 10
7.061581246518585
 20
16.3642077181459
 40
0.1969552685041935
 41
0.1969552685041935
  0
LWPOLYLINE
  5
1EB
330
70
100
AcDbEntity
  8
A-FURN-P-SEAT
100
AcDbPolyline
 90
        2
 70
     0
 10
7.623728413464789
 20
16.83673078406977
 40
0.0
 41
0.0
 10
7.625309176449775
 20
16.83673078406977
 40
0.1969552685041935
 41
0.1969552685041935
  0
LWPOLYLINE
  5
1EC
330
70
100
AcDbEntity
  8
A-FURN-P-SEAT
100
AcDbPolyline
 90
        2
 70
     0
 10
7.625309176449775
 20
16.83673078406977
 40
0.0
 41
0.0
 10
7.690752685247275
 20
17.05140533026022
 40
0.1969552685041935
 41
0.1969552685041935
  0
LWPOLYLINE
  5
1ED
330
70
100
AcDbEntity
  8
A-FURN-P-SEAT
100
AcDbPolyline
 90
        2
 70
     0
 10
7.608521694138858
 20
16.94139340461871
 40
0.0
 41
0.0
 10
7.65542225831723
 20
16.93551507767495
 40
0.1969552685041935
 41
0.1969552685041935
  0
LWPOLYLINE
  5
1EE
330
70
100
AcDbEntity
  8
A-FURN-P-SEAT
100
AcDbPolyline
 90
        2
 70
     0
 10
7.625405487576131
 20
16.98463966074524
 40
0.0
 41
0.0
 10
7.602222473786298
 20
16.98474188052961
 40
0.1969552685041935
 41
0.1969552685041935
  0
LWPOLYLINE
  5
1EF
330
70
100
AcDbEntity
  8
A-FURN-P-SEAT
100
AcDbPolyline
 90
        2
 70
     0
 10
7.601988097016771
 20
16.98635258071545
 40
0.0
 41
0.0
 10
7.671043962393866
 20
16.98675535423953
 40
0.1969552685041935
 41
0.1969552685041935
  0
LWPOLYLINE
  5
1F0
330
70
100
AcDbEntity
  8
A-FURN-P-SEAT
100
AcDbPolyline
 90
        2
 70
     0
 10
7.690752685247275
 20
17.05140533026022
 40
0.0
 41
0.0
 10
7.65191822713524
 20
17.16956175016491
 40
0.1969552685041935
 41
0.1969552685041935
  0
LWPOLYLINE
  5
1F1
330
70
100
AcDbEntity
  8
A-FURN-P-SEAT
100
AcDbPolyline
 90
        2
 70
     0
 10
7.65191822713524
 20
17.16956175016491
 40
0.0
 41
0.0
 10
7.637510752288903
 20
17.2699567439559
 40
0.1969552685041935
 41
0.1969552685041935
  0
LWPOLYLINE
  5
1F2
330
70
100
AcDbEntity
  8
A-FURN-P-SEAT
100
AcDbPolyline
 90
        2
 70
     0
 10
7.637510752288903
 20
17.2699567439559
 40
0.0
 41
0.0
 10
7.612055859476868
 20
17.37181826667617
 40
0.1969552685041935
 41
0.1969552685041935
  0
LWPOLYLINE
  5
1F3
330
70
100
AcDbEntity
  8
A-FURN-P-SEAT
100
AcDbPolyline
 90
        2
 70
     0
 10
7.622057444966799
 20
17.33178769921849
 40
0.0
 41
0.0
 10
7.541737904739193
 20
17.40101767305299
 40
0.1969552685041935
 41
0.1969552685041935
  0
LWPOLYLINE
  5
1F4
330
70
100
AcDbEntity
  8
A-FURN-P-SEAT
100
AcDbPolyline
 90
        2
 70
     0
 10
7.612055859476868
 20
17.37181826667617
 40
0.0
 41
0.0
 10
7.101124940552551
 20
19.09368020300249
 40
0.1969552685041935
 41
0.1969552685041935
  0
LWPOLYLINE
  5
1F5
330
70
100
AcDbEntity
  8
A-FURN-P-SEAT
100
AcDbPolyline
 90
        2
 70
     0
 10
7.576557232747461
 20
17.49144121551015
 40
0.0
 41
0.0
 10
7.521800713774325
 20
17.53823975685944
 40
0.1969552685041935
 41
0.1969552685041935
  0
LWPOLYLINE
  5
1F6
330
70
100
AcDbEntity
  8
A-FURN-P-SEAT
100
AcDbPolyline
 90
        2
 70
     0
 10
7.570324189365123
 20
17.51245417615161
 40
0.0
 41
0.0
 10
7.519174118313515
 20
17.55634368818505
 40
0.1969552685041935
 41
0.1969552685041935
  0
LWPOLYLINE
  5
1F7
330
70
100
AcDbEntity
  8
A-FURN-P-SEAT
100
AcDbPolyline
 90
        2
 70
     0
 10
7.608257183213254
 20
18.13897499087676
 40
0.0
 41
0.0
 10
7.549810116418825
 20
18.13710568842339
 40
0.1969552685041935
 41
0.1969552685041935
  0
LWPOLYLINE
  5
1F8
330
70
100
AcDbEntity
  8
A-FURN-P-SEAT
100
AcDbPolyline
 90
        2
 70
     0
 10
6.609007385830977
 20
20.36576917951459
 40
0.0
 41
0.0
 10
7.101124940552551
 20
19.09368020300249
 40
0.1969552685041935
 41
0.1969552685041935
  0
LWPOLYLINE
  5
1F9
330
70
100
AcDbEntity
  8
A-FURN-P-SEAT
100
AcDbPolyline
 90
        2
 70
     0
 10
6.471538910983611
 20
20.72111567799459
 40
0.0
 41
0.0
 10
6.542686441312298
 20
20.53720337823654
 40
0.1969552685041935
 41
0.1969552685041935
  0
LWPOLYLINE
  5
1FA
330
70
100
AcDbEntity
  8
A-FURN-P-SEAT
100
AcDbPolyline
 90
        2
 70
     0
 10
7.230322869764847
 20
22.39588462484523
 40
0.0
 41
0.0
 10
7.546654499106864
 20
22.57209735229162
 40
0.1969552685041935
 41
0.1969552685041935
  0
LWPOLYLINE
  5
1FB
330
70
100
AcDbEntity
  8
A-FURN-P-SEAT
100
AcDbPolyline
 90
        2
 70
     0
 10
7.546654499106864
 20
22.57209735229162
 40
0.0
 41
0.0
 10
7.900666822597997
 20
22.48199839211697
 40
0.1969552685041935
 41
0.1969552685041935
  0
LWPOLYLINE
  5
1FC
330
70
100
AcDbEntity
  8
A-FURN-P-SEAT
100
AcDbPolyline
 90
        2
 70
     0
 10
8.095746683035486
 20
22.17315598685985
 40
0.0
 41
0.0
 10
7.900666822597997
 20
22.48199839211697
 40
0.1969552685041935
 41
0.1969552685041935
  0
LWPOLYLINE
  5
1FD
330
70
100
AcDbEntity
  8
A-FURN-P-SEAT
100
AcDbPolyline
 90
        2
 70
     0
 10
12.09085273852366
 20
7.156855377972647
 40
0.0
 41
0.0
 10
12.15766666207946
 20
7.108313782497106
 40
0.1969552685041935
 41
0.1969552685041935
  0
LWPOLYLINE
  5
1FE
330
70
100
AcDbEntity
  8
A-FURN-P-SEAT
100
AcDbPolyline
 90
        2
 70
     0
 10
12.15766666207946
 20
7.108313782497106
 40
0.0
 41
0.0
 10
12.47862654327605
 20
7.108313782497106
 40
0.1969552685041935
 41
0.1969552685041935
  0
LWPOLYLINE
  5
1FF
330
70
100
AcDbEntity
  8
A-FURN-P-SEAT
100
AcDbPolyline
 90
        2
 70
     0
 10
12.47862654327605
 20
8.096125599616243
 40
0.0
 41
0.0
 10
12.41439726370885
 20
8.096125599616243
 40
0.1969552685041935
 41
0.1969552685041935
  0
LWPOLYLINE
  5
200
330
70
100
AcDbEntity
  8
A-FURN-P-SEAT
100
AcDbPolyline
 90
        2
 70
     0
 10
12.73829039971929
 20
7.907470813947895
 40
0.0
 41
0.0
 10
12.47862654327605
 20
8.096125599616243
 40
0.1969552685041935
 41
0.1969552685041935
  0
LWPOLYLINE
  5
201
330
70
100
AcDbEntity
  8
A-FURN-P-SEAT
100
AcDbPolyline
 90
        2
 70
     0
 10
12.47862654327605
 20
7.108313782497106
 40
0.0
 41
0.0
 10
12.73829039971929
 20
7.296968371210169
 40
0.1969552685041935
 41
0.1969552685041935
  0
LWPOLYLINE
  5
202
330
70
100
AcDbEntity
  8
A-FURN-P-SEAT
100
AcDbPolyline
 90
        2
 70
     0
 10
12.62649327152405
 20
6.653233469062485
 40
0.0
 41
0.0
 10
13.12540282867997
 20
7.015714475188786
 40
0.1969552685041935
 41
0.1969552685041935
  0
LWPOLYLINE
  5
203
330
70
100
AcDbEntity
  8
A-FURN-P-SEAT
100
AcDbPolyline
 90
        2
 70
     0
 10
12.83747116427992
 20
7.602216736727655
 40
0.0
 41
0.0
 10
12.73829039971929
 20
7.907470813947895
 40
0.1969552685041935
 41
0.1969552685041935
  0
LWPOLYLINE
  5
204
330
70
100
AcDbEntity
  8
A-FURN-P-SEAT
100
AcDbPolyline
 90
        2
 70
     0
 10
12.83747116427992
 20
7.602216736727655
 40
0.0
 41
0.0
 10
12.73829039971929
 20
7.296968371210169
 40
0.1969552685041935
 41
0.1969552685041935
  0
LWPOLYLINE
  5
205
330
70
100
AcDbEntity
  8
A-FURN-P-SEAT
100
AcDbPolyline
 90
        2
 70
     0
 10
7.476661126651606
 20
21.09385687187836
 40
0.0
 41
0.0
 10
7.616828282588016
 20
21.28760846598504
 40
0.1969552685041935
 41
0.1969552685041935
  0
LWPOLYLINE
  5
206
330
70
100
AcDbEntity
  8
A-FURN-P-SEAT
100
AcDbPolyline
 90
        2
 70
     0
 10
7.616828282588016
 20
21.28760846598504
 40
0.0
 41
0.0
 10
7.722602715627658
 20
21.42115201624165
 40
0.1969552685041935
 41
0.1969552685041935
  0
LWPOLYLINE
  5
207
330
70
100
AcDbEntity
  8
A-FURN-P-SEAT
100
AcDbPolyline
 90
        2
 70
     0
 10
7.796136359034221
 20
21.50823953036087
 40
0.0
 41
0.0
 10
7.722602715627658
 20
21.42115201624165
 40
0.1969552685041935
 41
0.1969552685041935
  0
LWPOLYLINE
  5
208
330
70
100
AcDbEntity
  8
A-FURN-P-SEAT
100
AcDbPolyline
 90
        2
 70
     0
 10
7.796136359034221
 20
21.50823953036087
 40
0.0
 41
0.0
 10
7.87850561274115
 20
21.5908732949934
 40
0.1969552685041935
 41
0.1969552685041935
  0
LWPOLYLINE
  5
209
330
70
100
AcDbEntity
  8
A-FURN-P-SEAT
100
AcDbPolyline
 90
        2
 70
     0
 10
7.87850561274115
 20
21.5908732949934
 40
0.0
 41
0.0
 10
8.025915601721521
 20
21.81785754546536
 40
0.1969552685041935
 41
0.1969552685041935
  0
LWPOLYLINE
  5
20A
330
70
100
AcDbEntity
  8
A-FURN-P-SEAT
100
AcDbPolyline
 90
        2
 70
     0
 10
8.025915601721521
 20
21.81785754546536
 40
0.0
 41
0.0
 10
8.095746683035486
 20
22.17315598685985
 40
0.1969552685041935
 41
0.1969552685041935
  0
LWPOLYLINE
  5
20B
330
70
100
AcDbEntity
  8
A-FURN-P-SEAT
100
AcDbPolyline
 90
        2
 70
     0
 10
12.16829338359156
 20
8.17417306386639
 40
0.0
 41
0.0
 10
12.2416767501283
 20
8.162422318636913
 40
0.1969552685041935
 41
0.1969552685041935
  0
LWPOLYLINE
  5
20C
330
70
100
AcDbEntity
  8
A-FURN-P-SEAT
100
AcDbPolyline
 90
        2
 70
     0
 10
12.2416767501283
 20
8.162422318636913
 40
0.0
 41
0.0
 10
12.49435027018182
 20
8.065435438812102
 40
0.1969552685041935
 41
0.1969552685041935
  0
LWPOLYLINE
  5
20D
330
70
100
AcDbEntity
  8
A-FURN-P-SEAT
100
AcDbPolyline
 90
        2
 70
     0
 10
12.49435027018182
 20
8.065435438812102
 40
0.0
 41
0.0
 10
12.75968801400012
 20
7.819043019226484
 40
0.1969552685041935
 41
0.1969552685041935
  0
LWPOLYLINE
  5
20E
330
70
100
AcDbEntity
  8
A-FURN-P-SEAT
100
AcDbPolyline
 90
        2
 70
     0
 10
12.75968801400012
 20
7.819043019226484
 40
0.0
 41
0.0
 10
12.7833939440278
 20
7.454512299620887
 40
0.1969552685041935
 41
0.1969552685041935
  0
LWPOLYLINE
  5
20F
330
70
100
AcDbEntity
  8
A-FURN-P-SEAT
100
AcDbPolyline
 90
        2
 70
     0
 10
7.625411396234142
 20
16.98463966074524
 40
0.0
 41
0.0
 10
7.658992663424669
 20
16.98288459234763
 40
0.1969552685041935
 41
0.1969552685041935
  0
LWPOLYLINE
  5
210
330
70
100
AcDbEntity
  8
A-FURN-P-SEAT
100
AcDbPolyline
 90
        2
 70
     0
 10
7.658998572082737
 20
16.98288459234763
 40
0.0
 41
0.0
 10
7.669817718892204
 20
16.98274022413579
 40
0.1969552685041935
 41
0.1969552685041935
  0
LWPOLYLINE
  5
211
330
70
100
AcDbEntity
  8
A-FURN-P-SEAT
100
AcDbPolyline
 90
        2
 70
     0
 10
7.608257183213254
 20
18.13897499087676
 40
0.0
 41
0.0
 10
8.427964527379799
 20
18.0167855179389
 40
0.1969552685041935
 41
0.1969552685041935
  0
LWPOLYLINE
  5
212
330
70
100
AcDbEntity
  8
A-FURN-P-SEAT
100
AcDbPolyline
 90
        2
 70
     0
 10
8.766950148660384
 20
15.33563206910443
 40
0.0
 41
0.0
 10
8.19061196070794
 20
15.05213032260357
 40
0.1969552685041935
 41
0.1969552685041935
  0
LWPOLYLINE
  5
213
330
70
100
AcDbEntity
  8
A-FURN-P-SEAT
100
AcDbPolyline
 90
        2
 70
     0
 10
9.041977106912781
 20
16.46222250751702
 40
0.0
 41
0.0
 10
8.524885427189587
 20
17.59296023301849
 40
0.1969552685041935
 41
0.1969552685041935
  0
LWPOLYLINE
  5
214
330
70
100
AcDbEntity
  8
A-FURN-P-SEAT
100
AcDbPolyline
 90
        2
 70
     0
 10
9.086166975730691
 20
17.56170500754902
 40
0.0
 41
0.0
 10
8.427964527379799
 20
18.0167855179389
 40
0.1969552685041935
 41
0.1969552685041935
  0
LWPOLYLINE
  5
215
330
70
100
AcDbEntity
  8
A-FURN-P-SEAT
100
AcDbPolyline
 90
        2
 70
     0
 10
9.391475215649791
 20
15.51454347763987
 40
0.0
 41
0.0
 10
8.766950148660384
 20
15.33563206910443
 40
0.1969552685041935
 41
0.1969552685041935
  0
LWPOLYLINE
  5
216
330
70
100
AcDbEntity
  8
A-FURN-P-SEAT
100
AcDbPolyline
 90
        2
 70
     0
 10
9.41471830079655
 20
15.58855808581214
 40
0.0
 41
0.0
 10
9.041977106912781
 20
16.46222250751702
 40
0.1969552685041935
 41
0.1969552685041935
  0
LWPOLYLINE
  5
217
330
70
100
AcDbEntity
  8
A-FURN-P-SEAT
100
AcDbPolyline
 90
        2
 70
     0
 10
9.086166975730691
 20
17.56170500754902
 40
0.0
 41
0.0
 10
9.519513078330589
 20
17.21655251985623
 40
0.1969552685041935
 41
0.1969552685041935
  0
LWPOLYLINE
  5
218
330
70
100
AcDbEntity
  8
A-FURN-P-SEAT
100
AcDbPolyline
 90
        2
 70
     0
 10
9.959699240450447
 20
16.3934973300357
 40
0.0
 41
0.0
 10
9.519513078330589
 20
17.21655251985623
 40
0.1969552685041935
 41
0.1969552685041935
  0
LWPOLYLINE
  5
219
330
70
100
AcDbEntity
  8
A-FURN-P-SEAT
100
AcDbPolyline
 90
        2
 70
     0
 10
10.00873361800774
 20
16.23138541808259
 40
0.0
 41
0.0
 10
9.959699240450447
 20
16.3934973300357
 40
0.1969552685041935
 41
0.1969552685041935
  0
LWPOLYLINE
  5
21A
330
70
100
AcDbEntity
  8
A-FURN-P-SEAT
100
AcDbPolyline
 90
        2
 70
     0
 10
9.235422238621652
 20
15.46983679819738
 40
0.0
 41
0.0
 10
9.32027982519088
 20
15.28785978090766
 40
0.1969552685041935
 41
0.1969552685041935
  0
LWPOLYLINE
  5
21B
330
70
100
AcDbEntity
  8
A-FURN-P-SEAT
100
AcDbPolyline
 90
        2
 70
     0
 10
9.738250811710315
 20
7.90203130334234
 40
0.0
 41
0.0
 10
9.854706128960913
 20
7.867452260761609
 40
0.1969552685041935
 41
0.1969552685041935
  0
LWPOLYLINE
  5
21C
330
70
100
AcDbEntity
  8
A-FURN-P-SEAT
100
AcDbPolyline
 90
        2
 70
     0
 10
10.70113656091337
 20
7.61616116973775
 40
0.0
 41
0.0
 10
11.33217119648213
 20
7.428811015767962
 40
0.1969552685041935
 41
0.1969552685041935
  0
LWPOLYLINE
  5
21D
330
70
100
AcDbEntity
  8
A-FURN-P-SEAT
100
AcDbPolyline
 90
        2
 70
     0
 10
11.33217119648213
 20
7.428811015767962
 40
0.0
 41
0.0
 10
11.55975044882024
 20
7.355373486532414
 40
0.1969552685041935
 41
0.1969552685041935
  0
LWPOLYLINE
  5
21E
330
70
100
AcDbEntity
  8
A-FURN-P-SEAT
100
AcDbPolyline
 90
        2
 70
     0
 10
11.55975044882024
 20
7.355373486532414
 40
0.0
 41
0.0
 10
11.71944591658405
 20
7.296042878403483
 40
0.1969552685041935
 41
0.1969552685041935
  0
LWPOLYLINE
  5
21F
330
70
100
AcDbEntity
  8
A-FURN-P-SEAT
100
AcDbPolyline
 90
        2
 70
     0
 10
11.82499207846752
 20
7.253018984775081
 40
0.0
 41
0.0
 10
11.71944591658405
 20
7.296042878403483
 40
0.1969552685041935
 41
0.1969552685041935
  0
LWPOLYLINE
  5
220
330
70
100
AcDbEntity
  8
A-FURN-P-SEAT
100
AcDbPolyline
 90
        2
 70
     0
 10
11.82499207846752
 20
7.253018984775081
 40
0.0
 41
0.0
 10
11.92903547165224
 20
7.200215868154913
 40
0.1969552685041935
 41
0.1969552685041935
  0
LWPOLYLINE
  5
221
330
70
100
AcDbEntity
  8
A-FURN-P-SEAT
100
AcDbPolyline
 90
        2
 70
     0
 10
11.92903547165224
 20
7.200215868154913
 40
0.0
 41
0.0
 10
12.19046050210647
 20
7.130168333000852
 40
0.1969552685041935
 41
0.1969552685041935
  0
LWPOLYLINE
  5
222
330
70
100
AcDbEntity
  8
A-FURN-P-SEAT
100
AcDbPolyline
 90
        2
 70
     0
 10
12.19046050210647
 20
7.130168333000852
 40
0.0
 41
0.0
 10
12.54995428767535
 20
7.17354083745451
 40
0.1969552685041935
 41
0.1969552685041935
  0
LWPOLYLINE
  5
223
330
70
100
AcDbEntity
  8
A-FURN-P-SEAT
100
AcDbPolyline
 90
        2
 70
     0
 10
12.54995428767535
 20
7.17354083745451
 40
0.0
 41
0.0
 10
12.7833939440278
 20
7.454512299620887
 40
0.1969552685041935
 41
0.1969552685041935
  0
LWPOLYLINE
  5
224
330
70
100
AcDbEntity
  8
A-FURN-P-SEAT
100
AcDbPolyline
 90
        2
 70
     0
 10
7.192834797868272
 20
22.3889604654257
 40
0.0
 41
0.0
 10
7.171467120788292
 20
22.32320438861709
 40
0.1969552685041935
 41
0.1969552685041935
  0
LWPOLYLINE
  5
225
330
70
100
AcDbEntity
  8
A-FURN-P-SEAT
100
AcDbPolyline
 90
        2
 70
     0
 10
7.452498457356284
 20
22.57761505413879
 40
0.0
 41
0.0
 10
7.192834797868272
 20
22.3889604654257
 40
0.1969552685041935
 41
0.1969552685041935
  0
LWPOLYLINE
  5
226
330
70
100
AcDbEntity
  8
A-FURN-P-SEAT
100
AcDbPolyline
 90
        2
 70
     0
 10
7.773452429894803
 20
22.57761505413879
 40
0.0
 41
0.0
 10
7.452498457356284
 20
22.57761505413879
 40
0.1969552685041935
 41
0.1969552685041935
  0
LWPOLYLINE
  5
227
330
70
100
AcDbEntity
  8
A-FURN-P-SEAT
100
AcDbPolyline
 90
        2
 70
     0
 10
8.033116286338042
 20
22.3889604654257
 40
0.0
 41
0.0
 10
7.773452429894803
 20
22.57761505413879
 40
0.1969552685041935
 41
0.1969552685041935
  0
LWPOLYLINE
  5
228
330
70
100
AcDbEntity
  8
A-FURN-P-SEAT
100
AcDbPolyline
 90
        2
 70
     0
 10
7.921319158142807
 20
21.134722923585
 40
0.0
 41
0.0
 10
8.420228912254003
 20
21.49720412666659
 40
0.1969552685041935
 41
0.1969552685041935
  0
LWPOLYLINE
  5
229
330
70
100
AcDbEntity
  8
A-FURN-P-SEAT
100
AcDbPolyline
 90
        2
 70
     0
 10
7.971032834421237
 20
21.73335447837946
 40
0.0
 41
0.0
 10
8.033116286338042
 20
21.778458022688
 40
0.1969552685041935
 41
0.1969552685041935
  0
LWPOLYLINE
  5
22A
330
70
100
AcDbEntity
  8
A-FURN-P-SEAT
100
AcDbPolyline
 90
        2
 70
     0
 10
8.132297247853955
 20
22.08370619125017
 40
0.0
 41
0.0
 10
8.033116286338042
 20
22.3889604654257
 40
0.1969552685041935
 41
0.1969552685041935
  0
LWPOLYLINE
  5
22B
330
70
100
AcDbEntity
  8
A-FURN-P-SEAT
100
AcDbPolyline
 90
        2
 70
     0
 10
8.132297247853955
 20
22.08370619125017
 40
0.0
 41
0.0
 10
8.033116286338042
 20
21.778458022688
 40
0.1969552685041935
 41
0.1969552685041935
  0
LWPOLYLINE
  5
22C
330
70
100
AcDbEntity
  8
A-FURN-P-SEAT
100
AcDbPolyline
 90
        2
 70
     0
 10
-8.580741092443361
 20
22.08327938918333
 40
0.0
 41
0.0
 10
-8.395903102923341
 20
21.51440639677298
 40
0.1969552685041935
 41
0.1969552685041935
  0
LWPOLYLINE
  5
22D
330
70
100
AcDbEntity
  8
A-FURN-P-SEAT
100
AcDbPolyline
 90
        2
 70
     0
 10
-8.395903102923341
 20
21.51440639677298
 40
0.0
 41
0.0
 10
-7.911989916866616
 20
21.16282253174251
 40
0.1969552685041935
 41
0.1969552685041935
  0
LWPOLYLINE
  5
22E
330
70
100
AcDbEntity
  8
A-FURN-P-SEAT
100
AcDbPolyline
 90
        2
 70
     0
 10
-7.822618312498548
 20
22.72867935117097
 40
0.0
 41
0.0
 10
-8.161928516061664
 20
22.48216068325823
 40
0.1969552685041935
 41
0.1969552685041935
  0
LWPOLYLINE
  5
22F
330
70
100
AcDbEntity
  8
A-FURN-P-SEAT
100
AcDbPolyline
 90
        2
 70
     0
 10
-7.911989916866616
 20
21.16282253174251
 40
0.0
 41
0.0
 10
-7.52605547736681
 20
21.16282253174251
 40
0.1969552685041935
 41
0.1969552685041935
  0
LWPOLYLINE
  5
230
330
70
100
AcDbEntity
  8
A-FURN-P-SEAT
100
AcDbPolyline
 90
        2
 70
     0
 10
-7.403216839864001
 20
22.72867935117097
 40
0.0
 41
0.0
 10
-7.822618312498548
 20
22.72867935117097
 40
0.1969552685041935
 41
0.1969552685041935
  0
LWPOLYLINE
  5
231
330
70
100
AcDbEntity
  8
A-FURN-P-SEAT
100
AcDbPolyline
 90
        2
 70
     0
 10
-7.063906636300885
 20
22.48216068325823
 40
0.0
 41
0.0
 10
-7.403216839864001
 20
22.72867935117097
 40
0.1969552685041935
 41
0.1969552685041935
  0
LWPOLYLINE
  5
232
330
70
100
AcDbEntity
  8
A-FURN-P-SEAT
100
AcDbPolyline
 90
        2
 70
     0
 10
-6.934306130519757
 20
22.08327938918333
 40
0.0
 41
0.0
 10
-7.063906636300885
 20
22.48216068325823
 40
0.1969552685041935
 41
0.1969552685041935
  0
LWPOLYLINE
  5
233
330
70
100
AcDbEntity
  8
A-FURN-P-SEAT
100
AcDbPolyline
 90
        2
 70
     0
 10
-6.934306130519757
 20
22.08327938918333
 40
0.0
 41
0.0
 10
-6.959412412506537
 20
22.00600714087
 40
0.1969552685041935
 41
0.1969552685041935
  0
LWPOLYLINE
  5
234
330
70
100
AcDbEntity
  8
A-FURN-P-SEAT
100
AcDbPolyline
 90
        2
 70
     0
 10
6.829992969690067
 20
22.65257918366049
 40
0.0
 41
0.0
 10
6.645154980170104
 20
22.08370619125017
 40
0.1969552685041935
 41
0.1969552685041935
  0
LWPOLYLINE
  5
235
330
70
100
AcDbEntity
  8
A-FURN-P-SEAT
100
AcDbPolyline
 90
        2
 70
     0
 10
6.645154980170104
 20
22.08370619125017
 40
0.0
 41
0.0
 10
6.763143003320237
 20
21.72058192921696
 40
0.1969552685041935
 41
0.1969552685041935
  0
LWPOLYLINE
  5
236
330
70
100
AcDbEntity
  8
A-FURN-P-SEAT
100
AcDbPolyline
 90
        2
 70
     0
 10
7.313900247088781
 20
23.00415714003296
 40
0.0
 41
0.0
 10
6.829992969690067
 20
22.65257918366049
 40
0.1969552685041935
 41
0.1969552685041935
  0
LWPOLYLINE
  5
237
330
70
100
AcDbEntity
  8
A-FURN-P-SEAT
100
AcDbPolyline
 90
        2
 70
     0
 10
7.912050837117533
 20
23.00415714003296
 40
0.0
 41
0.0
 10
7.313900247088781
 20
23.00415714003296
 40
0.1969552685041935
 41
0.1969552685041935
  0
LWPOLYLINE
  5
238
330
70
100
AcDbEntity
  8
A-FURN-P-SEAT
100
AcDbPolyline
 90
        2
 70
     0
 10
7.526861676353803
 20
21.16325524246741
 40
0.0
 41
0.0
 10
7.912050837117533
 20
21.16325524246741
 40
0.1969552685041935
 41
0.1969552685041935
  0
LWPOLYLINE
  5
239
330
70
100
AcDbEntity
  8
A-FURN-P-SEAT
100
AcDbPolyline
 90
        2
 70
     0
 10
8.395958114516247
 20
22.65257918366049
 40
0.0
 41
0.0
 10
7.912050837117533
 20
23.00415714003296
 40
0.1969552685041935
 41
0.1969552685041935
  0
LWPOLYLINE
  5
23A
330
70
100
AcDbEntity
  8
A-FURN-P-SEAT
100
AcDbPolyline
 90
        2
 70
     0
 10
8.580795907080982
 20
22.08370619125017
 40
0.0
 41
0.0
 10
8.395958114516247
 20
22.65257918366049
 40
0.1969552685041935
 41
0.1969552685041935
  0
LWPOLYLINE
  5
23B
330
70
100
AcDbEntity
  8
A-FURN-P-SEAT
100
AcDbPolyline
 90
        2
 70
     0
 10
8.580795907080982
 20
22.08370619125017
 40
0.0
 41
0.0
 10
8.395958114516247
 20
21.51483319883985
 40
0.1969552685041935
 41
0.1969552685041935
  0
LWPOLYLINE
  5
23C
330
70
100
AcDbEntity
  8
A-FURN-P-SEAT
100
AcDbPolyline
 90
        2
 70
     0
 10
7.063967556551801
 20
22.48258748532507
 40
0.0
 41
0.0
 10
6.934360945157379
 20
22.08370619125017
 40
0.1969552685041935
 41
0.1969552685041935
  0
LWPOLYLINE
  5
23D
330
70
100
AcDbEntity
  8
A-FURN-P-SEAT
100
AcDbPolyline
 90
        2
 70
     0
 10
6.934360945157379
 20
22.08370619125017
 40
0.0
 41
0.0
 10
6.959713618184991
 20
22.00568866420085
 40
0.1969552685041935
 41
0.1969552685041935
  0
LWPOLYLINE
  5
23E
330
70
100
AcDbEntity
  8
A-FURN-P-SEAT
100
AcDbPolyline
 90
        2
 70
     0
 10
7.403271654501565
 20
22.72910615323781
 40
0.0
 41
0.0
 10
7.063967556551801
 20
22.48258748532507
 40
0.1969552685041935
 41
0.1969552685041935
  0
LWPOLYLINE
  5
23F
330
70
100
AcDbEntity
  8
A-FURN-P-SEAT
100
AcDbPolyline
 90
        2
 70
     0
 10
7.822679232749464
 20
22.72910615323781
 40
0.0
 41
0.0
 10
7.403271654501565
 20
22.72910615323781
 40
0.1969552685041935
 41
0.1969552685041935
  0
LWPOLYLINE
  5
240
330
70
100
AcDbEntity
  8
A-FURN-P-SEAT
100
AcDbPolyline
 90
        2
 70
     0
 10
8.161983527654513
 20
22.48258748532507
 40
0.0
 41
0.0
 10
7.822679232749464
 20
22.72910615323781
 40
0.1969552685041935
 41
0.1969552685041935
  0
LWPOLYLINE
  5
241
330
70
100
AcDbEntity
  8
A-FURN-P-SEAT
100
AcDbPolyline
 90
        2
 70
     0
 10
7.912050837117533
 20
21.16325524246741
 40
0.0
 41
0.0
 10
8.395958114516247
 20
21.51483319883985
 40
0.1969552685041935
 41
0.1969552685041935
  0
LWPOLYLINE
  5
242
330
70
100
AcDbEntity
  8
A-FURN-P-SEAT
100
AcDbPolyline
 90
        2
 70
     0
 10
8.291589942093708
 20
22.08370619125017
 40
0.0
 41
0.0
 10
8.161983527654513
 20
22.48258748532507
 40
0.1969552685041935
 41
0.1969552685041935
  0
LWPOLYLINE
  5
243
330
70
100
AcDbEntity
  8
A-FURN-P-SEAT
100
AcDbPolyline
 90
        2
 70
     0
 10
8.291589942093708
 20
22.08370619125017
 40
0.0
 41
0.0
 10
8.161983527654513
 20
21.6848310027886
 40
0.1969552685041935
 41
0.1969552685041935
  0
LWPOLYLINE
  5
244
330
70
100
AcDbEntity
  8
A-FURN-P-SEAT
100
AcDbPolyline
 90
        2
 70
     0
 10
-8.420173900661154
 20
22.66978755938024
 40
0.0
 41
0.0
 10
-8.610739940255029
 20
22.08327938918333
 40
0.1969552685041935
 41
0.1969552685041935
  0
LWPOLYLINE
  5
245
330
70
100
AcDbEntity
  8
A-FURN-P-SEAT
100
AcDbPolyline
 90
        2
 70
     0
 10
-7.921264146549958
 20
23.0322626568485
 40
0.0
 41
0.0
 10
-8.420173900661154
 20
22.66978755938024
 40
0.1969552685041935
 41
0.1969552685041935
  0
LWPOLYLINE
  5
246
330
70
100
AcDbEntity
  8
A-FURN-P-SEAT
100
AcDbPolyline
 90
        2
 70
     0
 10
-7.304576914470658
 20
23.0322626568485
 40
0.0
 41
0.0
 10
-7.921264146549958
 20
23.0322626568485
 40
0.1969552685041935
 41
0.1969552685041935
  0
LWPOLYLINE
  5
247
330
70
100
AcDbEntity
  8
A-FURN-P-SEAT
100
AcDbPolyline
 90
        2
 70
     0
 10
-6.805661251701394
 20
22.66978755938024
 40
0.0
 41
0.0
 10
-7.304576914470658
 20
23.0322626568485
 40
0.1969552685041935
 41
0.1969552685041935
  0
LWPOLYLINE
  5
248
330
70
100
AcDbEntity
  8
A-FURN-P-SEAT
100
AcDbPolyline
 90
        2
 70
     0
 10
-6.615095212107519
 20
22.08327938918333
 40
0.0
 41
0.0
 10
-6.805661251701394
 20
22.66978755938024
 40
0.1969552685041935
 41
0.1969552685041935
  0
LWPOLYLINE
  5
249
330
70
100
AcDbEntity
  8
A-FURN-P-SEAT
100
AcDbPolyline
 90
        2
 70
     0
 10
-6.615095212107519
 20
22.08327938918333
 40
0.0
 41
0.0
 10
-6.742093150970617
 20
21.69241634104452
 40
0.1969552685041935
 41
0.1969552685041935
  0
LWPOLYLINE
  5
24A
330
70
100
AcDbEntity
  8
A-FURN-P-SEAT
100
AcDbPolyline
 90
        2
 70
     0
 10
7.737088381715579
 20
21.43830622926254
 40
0.0
 41
0.0
 10
7.822679232749464
 20
21.43830622926254
 40
0.1969552685041935
 41
0.1969552685041935
  0
LWPOLYLINE
  5
24B
330
70
100
AcDbEntity
  8
A-FURN-P-SEAT
100
AcDbPolyline
 90
        2
 70
     0
 10
7.822679232749464
 20
21.43830622926254
 40
0.0
 41
0.0
 10
8.161983527654513
 20
21.6848310027886
 40
0.1969552685041935
 41
0.1969552685041935
  0
LWPOLYLINE
  5
24C
330
70
100
AcDbEntity
  8
A-FURN-P-SEAT
100
AcDbPolyline
 90
        2
 70
     0
 10
-8.395903102923341
 20
22.65215257854894
 40
0.0
 41
0.0
 10
-8.580741092443361
 20
22.08327938918333
 40
0.1969552685041935
 41
0.1969552685041935
  0
LWPOLYLINE
  5
24D
330
70
100
AcDbEntity
  8
A-FURN-P-SEAT
100
AcDbPolyline
 90
        2
 70
     0
 10
-7.911989916866616
 20
23.00373644357941
 40
0.0
 41
0.0
 10
-8.395903102923341
 20
22.65215257854894
 40
0.1969552685041935
 41
0.1969552685041935
  0
LWPOLYLINE
  5
24E
330
70
100
AcDbEntity
  8
A-FURN-P-SEAT
100
AcDbPolyline
 90
        2
 70
     0
 10
-8.132242236261106
 20
22.08327938918333
 40
0.0
 41
0.0
 10
-8.033061274745193
 20
21.77803122062113
 40
0.1969552685041935
 41
0.1969552685041935
  0
LWPOLYLINE
  5
24F
330
70
100
AcDbEntity
  8
A-FURN-P-SEAT
100
AcDbPolyline
 90
        2
 70
     0
 10
-8.033061274745193
 20
21.77803122062113
 40
0.0
 41
0.0
 10
-7.969619422341509
 20
21.73193600653568
 40
0.1969552685041935
 41
0.1969552685041935
  0
LWPOLYLINE
  5
250
330
70
100
AcDbEntity
  8
A-FURN-P-SEAT
100
AcDbPolyline
 90
        2
 70
     0
 10
-7.313845235495932
 20
23.00373644357941
 40
0.0
 41
0.0
 10
-7.911989916866616
 20
23.00373644357941
 40
0.1969552685041935
 41
0.1969552685041935
  0
LWPOLYLINE
  5
251
330
70
100
AcDbEntity
  8
A-FURN-P-SEAT
100
AcDbPolyline
 90
        2
 70
     0
 10
-6.82993204943915
 20
22.65215257854894
 40
0.0
 41
0.0
 10
-7.313845235495932
 20
23.00373644357941
 40
0.1969552685041935
 41
0.1969552685041935
  0
LWPOLYLINE
  5
252
330
70
100
AcDbEntity
  8
A-FURN-P-SEAT
100
AcDbPolyline
 90
        2
 70
     0
 10
-6.645094059919188
 20
22.08327938918333
 40
0.0
 41
0.0
 10
-6.82993204943915
 20
22.65215257854894
 40
0.1969552685041935
 41
0.1969552685041935
  0
LWPOLYLINE
  5
253
330
70
100
AcDbEntity
  8
A-FURN-P-SEAT
100
AcDbPolyline
 90
        2
 70
     0
 10
-6.645094059919188
 20
22.08327938918333
 40
0.0
 41
0.0
 10
-6.762853811913089
 20
21.72085845441393
 40
0.1969552685041935
 41
0.1969552685041935
  0
ENDSEC
  0
SECTION
  2
OBJECTS
  0
DICTIONARY
  5
C
330
0
100
AcDbDictionary
281
     1
  3
ACAD_CIP_PREVIOUS_PRODUCT_INFO
350
2D7
  3
ACAD_COLOR
350
63
  3
ACAD_DETAILVIEWSTYLE
350
6A
  3
ACAD_GROUP
350
D
  3
ACAD_LAYOUT
350
62
  3
ACAD_MATERIAL
350
10
  3
ACAD_MLEADERSTYLE
350
66
  3
ACAD_MLINESTYLE
350
5F
  3
ACAD_PLOTSETTINGS
350
61
  3
ACAD_PLOTSTYLENAME
350
E
  3
ACAD_SCALELIST
350
42
  3
ACAD_SECTIONVIEWSTYLE
350
68
  3
ACAD_TABLESTYLE
350
64
  3
ACAD_VISUALSTYLE
350
29
  3
ACDB_RECOMPOSE_DATA
350
2E3
  3
AcDbVariableDictionary
350
2CB
  3
AcDsDecomposeData
350
2E9
  0
DICTIONARY
  5
2DB
330
2
100
AcDbDictionary
280
     1
281
     1
  3
ACAD_LAYERSTATES
360
2DC
  0
DICTIONARY
  5
254
330
70
100
AcDbDictionary
280
     1
281
     1
  0
XRECORD
  5
2D7
102
{ACAD_REACTORS
330
C
102
}
330
C
100
AcDbXrecord
280
     1
300
ACD
300
2018
300
ACD_F_S
  0
DICTIONARY
  5
63
102
{ACAD_REACTORS
330
C
102
}
330
C
100
AcDbDictionary
281
     1
  0
DICTIONARY
  5
6A
102
{ACAD_REACTORS
330
C
102
}
330
C
100
AcDbDictionary
281
     1
  3
Imperial24
350
6B
  0
DICTIONARY
  5
D
102
{ACAD_REACTORS
330
C
102
}
330
C
100
AcDbDictionary
281
     1
  0
DICTIONARY
  5
62
102
{ACAD_REACTORS
330
C
102
}
330
C
100
AcDbDictionary
281
     1
  3
Layout1
350
6F
  3
Layout2
350
77
  3
Model
350
73
  0
DICTIONARY
  5
10
102
{ACAD_REACTORS
330
C
102
}
330
C
100
AcDbDictionary
281
     1
  3
ByBlock
350
19
  3
ByLayer
350
11
  3
Global
350
21
  0
DICTIONARY
  5
66
102
{ACAD_REACTORS
330
C
102
}
330
C
100
AcDbDictionary
281
     1
  3
Standard
350
67
  0
DICTIONARY
  5
5F
102
{ACAD_REACTORS
330
C
102
}
330
C
100
AcDbDictionary
281
     1
  3
Standard
350
60
  0
DICTIONARY
  5
61
102
{ACAD_REACTORS
330
C
102
}
330
C
100
AcDbDictionary
281
     1
  0
ACDBDICTIONARYWDFLT
  5
E
102
{ACAD_REACTORS
330
C
102
}
330
C
100
AcDbDictionary
281
     1
  3
Normal
350
F
100
AcDbDictionaryWithDefault
340
F
  0
DICTIONARY
  5
42
102
{ACAD_REACTORS
330
C
102
}
330
C
100
AcDbDictionary
281
     1
  3
A0
350
43
  3
A1
350
44
  3
A2
350
45
  3
A3
350
46
  3
A4
350
47
  3
A5
350
48
  3
A6
350
49
  3
A7
350
4A
  3
A8
350
4B
  3
A9
350
4C
  3
B0
350
4D
  3
B1
350
4E
  3
B2
350
4F
  3
B3
350
50
  3
B4
350
51
  3
B5
350
52
  3
B6
350
53
  0
DICTIONARY
  5
68
102
{ACAD_REACTORS
330
C
102
}
330
C
100
AcDbDictionary
281
     1
  3
Imperial24
350
69
  0
DICTIONARY
  5
64
102
{ACAD_REACTORS
330
C
102
}
330
C
100
AcDbDictionary
281
     1
  3
Standard
350
65
  0
DICTIONARY
  5
29
102
{ACAD_REACTORS
330
C
102
}
330
C
100
AcDbDictionary
281
     1
  3
2dWireframe
350
2F
  3
Basic
350
2E
  3
Brighten
350
35
  3
ColorChange
350
39
  3
Conceptual
350
32
  3
Dim
350
34
  3
EdgeColorOff
350
41
  3
Facepattern
350
38
  3
Flat
350
2A
  3
FlatWithEdges
350
2B
  3
Gouraud
350
2C
  3
GouraudWithEdges
350
2D
  3
Hidden
350
31
  3
JitterOff
350
3F
  3
Linepattern
350
37
  3
OverhangOff
350
40
  3
Realistic
350
33
  3
Shaded
350
3E
  3
Shaded with edges
350
3D
  3
Shades of Gray
350
3A
  3
Sketchy
350
3B
  3
Thicken
350
36
  3
Wireframe
350
30
  3
X-Ray
350
3C
  0
XRECORD
  5
2E3
102
{ACAD_REACTORS
330
C
102
}
330
C
100
AcDbXrecord
280
     1
 90
        1
330
65
  0
DICTIONARY
  5
2CB
102
{ACAD_REACTORS
330
C
102
}
330
C
100
AcDbDictionary
281
     1
  3
CANNOSCALE
350
2D0
  3
CMLEADERSTYLE
350
2CD
  3
CTABLESTYLE
350
2CC
  3
CVIEWDETAILSTYLE
350
2CE
  3
CVIEWSECTIONSTYLE
350
2CF
  0
DICTIONARY
  5
2E9
102
{ACAD_REACTORS
330
C
102
}
330
C
100
AcDbDictionary
281
     1
  3
AcDsRecords
350
2EB
  3
AcDsSchemas
350
2EA
1001
ACAD
1070
     2
  0
DICTIONARY
  5
2DC
102
{ACAD_REACTORS
330
2DB
102
}
330
2DB
100
AcDbDictionary
281
     1
  0
ACDBDETAILVIEWSTYLE
  5
6B
102
{ACAD_XDICTIONARY
360
2EE
102
}
102
{ACAD_REACTORS
330
6A
102
}
330
6A
100
AcDbModelDocViewStyle
 70
     0
  3
Imperial24
290
     0
100
AcDbDetailViewStyle
 70
     0
 71
     0
 90
        3
 71
     1
340
55
 62
   256
 40
0.24
340
0
 62
   256
 40
0.24
300

 40
0.36
280
     3
 71
     2
340
5D
 90
       25
 62
   256
 71
     3
340
55
 62
   256
 40
0.24
 90
        1
 40
0.75
 90
        1
300
%<\AcVar ViewType \f "%tc1">% %<\AcVar ViewDetailId>%\PSCALE %<\AcVar ViewScale \f "%sn">%
 71
     4
340
5D
 90
       25
 62
   256
340
5D
 90
       25
 62
   256
280
     0
  0
LAYOUT
  5
6F
102
{ACAD_REACTORS
330
62
102
}
330
62
100
AcDbPlotSettings
  1

  2
Send To OneNote 2010
  4

  6

 40
0.0
 41
0.0
 42
0.0
 43
0.0
 44
0.0
 45
0.0
 46
0.0
 47
0.0
 48
0.0
 49
0.0
140
0.0
141
0.0
142
1.0
143
1.0
 70
   688
 72
     0
 73
     0
 74
     5
  7

 75
    16
147
1.0
 76
     0
 77
     2
 78
   300
148
0.0
149
0.0
100
AcDbLayout
  1
Layout1
 70
     1
 71
     1
 10
0.0
 20
0.0
 11
12.0
 21
9.0
 12
0.0
 22
0.0
 32
0.0
 14
1.000000000000000E+20
 24
1.000000000000000E+20
 34
1.000000000000000E+20
 15
-1.000000000000000E+20
 25
-1.000000000000000E+20
 35
-1.000000000000000E+20
146
0.0
 13
0.0
 23
0.0
 33
0.0
 16
1.0
 26
0.0
 36
0.0
 17
0.0
 27
1.0
 37
0.0
 76
     0
330
6C
  0
LAYOUT
  5
77
102
{ACAD_REACTORS
330
62
102
}
330
62
100
AcDbPlotSettings
  1

  2
Send To OneNote 2010
  4

  6

 40
0.0
 41
0.0
 42
0.0
 43
0.0
 44
0.0
 45
0.0
 46
0.0
 47
0.0
 48
0.0
 49
0.0
140
0.0
141
0.0
142
1.0
143
1.0
 70
   688
 72
     0
 73
     0
 74
     5
  7

 75
    16
147
1.0
 76
     0
 77
     2
 78
   300
148
0.0
149
0.0
100
AcDbLayout
  1
Layout2
 70
     1
 71
     2
 10
0.0
 20
0.0
 11
12.0
 21
9.0
 12
0.0
 22
0.0
 32
0.0
 14
0.0
 24
0.0
 34
0.0
 15
0.0
 25
0.0
 35
0.0
146
0.0
 13
0.0
 23
0.0
 33
0.0
 16
1.0
 26
0.0
 36
0.0
 17
0.0
 27
1.0
 37
0.0
 76
     0
330
74
  0
LAYOUT
  5
73
102
{ACAD_REACTORS
330
62
102
}
330
62
100
AcDbPlotSettings
  1

  2
Send To OneNote 2010
  4

  6

 40
0.0
 41
0.0
 42
0.0
 43
0.0
 44
0.0
 45
0.0
 46
0.0
 47
0.0
 48
0.0
 49
0.0
140
0.0
141
0.0
142
1.0
143
1.0
 70
  1712
 72
     0
 73
     0
 74
     0
  7

 75
     0
147
1.0
 76
     0
 77
     2
 78
   300
148
0.0
149
0.0
100
AcDbLayout
  1
Model
 70
     1
 71
     0
 10
0.0
 20
0.0
 11
12.0
 21
9.0
 12
0.0
 22
0.0
 32
0.0
 14
0.0
 24
0.0
 34
0.0
 15
0.0
 25
0.0
 35
0.0
146
0.0
 13
0.0
 23
0.0
 33
0.0
 16
1.0
 26
0.0
 36
0.0
 17
0.0
 27
1.0
 37
0.0
 76
     0
330
70
  0
MATERIAL
  5
19
102
{ACAD_XDICTIONARY
360
1A
102
}
102
{ACAD_REACTORS
330
10
102
}
330
10
100
AcDbMaterial
  1
ByBlock
 72
     0
 43
0.0208333333333333
 43
0.0
 43
0.0
 43
0.0
 43
0.0
 43
0.0208333333333333
 43
0.0
 43
0.0
 43
0.0
 43
0.0
 43
1.0
 43
0.0
 43
0.0
 43
0.0
 43
0.0
 43
1.0
 77
     0
 47
0.0208333333333333
 47
0.0
 47
0.0
 47
0.0
 47
0.0
 47
0.0208333333333333
 47
0.0
 47
0.0
 47
0.0
 47
0.0
 47
1.0
 47
0.0
 47
0.0
 47
0.0
 47
0.0
 47
1.0
171
     0
 49
0.0208333333333333
 49
0.0
 49
0.0
 49
0.0
 49
0.0
 49
0.0208333333333333
 49
0.0
 49
0.0
 49
0.0
 49
0.0
 49
1.0
 49
0.0
 49
0.0
 49
0.0
 49
0.0
 49
1.0
175
     0
142
0.0208333333333333
142
0.0
142
0.0
142
0.0
142
0.0
142
0.0208333333333333
142
0.0
142
0.0
142
0.0
142
0.0
142
1.0
142
0.0
142
0.0
142
0.0
142
0.0
142
1.0
179
     0
144
0.0208333333333333
144
0.0
144
0.0
144
0.0
144
0.0
144
0.0208333333333333
144
0.0
144
0.0
144
0.0
144
0.0
144
1.0
144
0.0
144
0.0
144
0.0
144
0.0
144
1.0
147
0.0208333333333333
147
0.0
147
0.0
147
0.0
147
0.0
147
0.0208333333333333
147
0.0
147
0.0
147
0.0
147
0.0
147
1.0
147
0.0
147
0.0
147
0.0
147
0.0
147
1.0
  0
MATERIAL
  5
11
102
{ACAD_XDICTIONARY
360
12
102
}
102
{ACAD_REACTORS
330
10
102
}
330
10
100
AcDbMaterial
  1
ByLayer
 72
     0
 43
0.0208333333333333
 43
0.0
 43
0.0
 43
0.0
 43
0.0
 43
0.0208333333333333
 43
0.0
 43
0.0
 43
0.0
 43
0.0
 43
1.0
 43
0.0
 43
0.0
 43
0.0
 43
0.0
 43
1.0
 77
     0
 47
0.0208333333333333
 47
0.0
 47
0.0
 47
0.0
 47
0.0
 47
0.0208333333333333
 47
0.0
 47
0.0
 47
0.0
 47
0.0
 47
1.0
 47
0.0
 47
0.0
 47
0.0
 47
0.0
 47
1.0
171
     0
 49
0.0208333333333333
 49
0.0
 49
0.0
 49
0.0
 49
0.0
 49
0.0208333333333333
 49
0.0
 49
0.0
 49
0.0
 49
0.0
 49
1.0
 49
0.0
 49
0.0
 49
0.0
 49
0.0
 49
1.0
175
     0
142
0.0208333333333333
142
0.0
142
0.0
142
0.0
142
0.0
142
0.0208333333333333
142
0.0
142
0.0
142
0.0
142
0.0
142
1.0
142
0.0
142
0.0
142
0.0
142
0.0
142
1.0
179
     0
144
0.0208333333333333
144
0.0
144
0.0
144
0.0
144
0.0
144
0.0208333333333333
144
0.0
144
0.0
144
0.0
144
0.0
144
1.0
144
0.0
144
0.0
144
0.0
144
0.0
144
1.0
147
0.0208333333333333
147
0.0
147
0.0
147
0.0
147
0.0
147
0.0208333333333333
147
0.0
147
0.0
147
0.0
147
0.0
147
1.0
147
0.0
147
0.0
147
0.0
147
0.0
147
1.0
  0
MATERIAL
  5
21
102
{ACAD_XDICTIONARY
360
22
102
}
102
{ACAD_REACTORS
330
10
102
}
330
10
100
AcDbMaterial
  1
Global
 72
     0
 43
0.0208333333333333
 43
0.0
 43
0.0
 43
0.0
 43
0.0
 43
0.0208333333333333
 43
0.0
 43
0.0
 43
0.0
 43
0.0
 43
1.0
 43
0.0
 43
0.0
 43
0.0
 43
0.0
 43
1.0
 77
     0
 47
0.0208333333333333
 47
0.0
 47
0.0
 47
0.0
 47
0.0
 47
0.0208333333333333
 47
0.0
 47
0.0
 47
0.0
 47
0.0
 47
1.0
 47
0.0
 47
0.0
 47
0.0
 47
0.0
 47
1.0
171
     0
 49
0.0208333333333333
 49
0.0
 49
0.0
 49
0.0
 49
0.0
 49
0.0208333333333333
 49
0.0
 49
0.0
 49
0.0
 49
0.0
 49
1.0
 49
0.0
 49
0.0
 49
0.0
 49
0.0
 49
1.0
175
     0
142
0.0208333333333333
142
0.0
142
0.0
142
0.0
142
0.0
142
0.0208333333333333
142
0.0
142
0.0
142
0.0
142
0.0
142
1.0
142
0.0
142
0.0
142
0.0
142
0.0
142
1.0
179
     0
144
0.0208333333333333
144
0.0
144
0.0
144
0.0
144
0.0
144
0.0208333333333333
144
0.0
144
0.0
144
0.0
144
0.0
144
1.0
144
0.0
144
0.0
144
0.0
144
0.0
144
1.0
147
0.0208333333333333
147
0.0
147
0.0
147
0.0
147
0.0
147
0.0208333333333333
147
0.0
147
0.0
147
0.0
147
0.0
147
1.0
147
0.0
147
0.0
147
0.0
147
0.0
147
1.0
  0
MLEADERSTYLE
  5
67
102
{ACAD_REACTORS
330
66
102
}
330
66
100
AcDbMLeaderStyle
179
     2
170
     2
171
     1
172
     0
 90
        2
 40
0.0
 41
0.0
173
     1
 91
-1056964608
340
5B
 92
       -2
290
     1
 42
0.09
291
     1
 43
0.36
  3
Standard
 44
0.18
300

342
55
174
     1
178
     6
175
     1
176
     0
 93
-1056964608
 45
0.18
292
     0
297
     0
 46
0.18
 94
-1056964608
 47
1.0
 49
1.0
140
1.0
293
     1
141
0.0
294
     1
177
     0
142
1.0
295
     0
296
     0
143
0.125
271
     0
272
     9
273
     9
298
     1
  0
MLINESTYLE
  5
60
102
{ACAD_REACTORS
330
5F
102
}
330
5F
100
AcDbMlineStyle
  2
STANDARD
 70
     0
  3

 62
   256
 51
90.0
 52
90.0
 71
     2
 49
0.5
 62
   256
  6
BYLAYER
 49
-0.5
 62
   256
  6
BYLAYER
  0
ACDBPLACEHOLDER
  5
F
102
{ACAD_REACTORS
330
E
102
}
330
E
  0
SCALE
  5
43
102
{ACAD_REACTORS
330
42
102
}
330
42
100
AcDbScale
 70
     0
300
1:1
140
1.0
141
1.0
290
     1
  0
SCALE
  5
44
102
{ACAD_REACTORS
330
42
102
}
330
42
100
AcDbScale
 70
     0
300
1/128" = 1'-0"
140
0.0078125
141
12.0
290
     0
  0
SCALE
  5
45
102
{ACAD_REACTORS
330
42
102
}
330
42
100
AcDbScale
 70
     0
300
1/64" = 1'-0"
140
0.015625
141
12.0
290
     0
  0
SCALE
  5
46
102
{ACAD_REACTORS
330
42
102
}
330
42
100
AcDbScale
 70
     0
300
1/32" = 1'-0"
140
0.03125
141
12.0
290
     0
  0
SCALE
  5
47
102
{ACAD_REACTORS
330
42
102
}
330
42
100
AcDbScale
 70
     0
300
1/16" = 1'-0"
140
0.0625
141
12.0
290
     0
  0
SCALE
  5
48
102
{ACAD_REACTORS
330
42
102
}
330
42
100
AcDbScale
 70
     0
300
3/32" = 1'-0"
140
0.09375
141
12.0
290
     0
  0
SCALE
  5
49
102
{ACAD_REACTORS
330
42
102
}
330
42
100
AcDbScale
 70
     0
300
1/8" = 1'-0"
140
0.125
141
12.0
290
     0
  0
SCALE
  5
4A
102
{ACAD_REACTORS
330
42
102
}
330
42
100
AcDbScale
 70
     0
300
3/16" = 1'-0"
140
0.1875
141
12.0
290
     0
  0
SCALE
  5
4B
102
{ACAD_REACTORS
330
42
102
}
330
42
100
AcDbScale
 70
     0
300
1/4" = 1'-0"
140
0.25
141
12.0
290
     0
  0
SCALE
  5
4C
102
{ACAD_REACTORS
330
42
102
}
330
42
100
AcDbScale
 70
     0
300
3/8" = 1'-0"
140
0.375
141
12.0
290
     0
  0
SCALE
  5
4D
102
{ACAD_REACTORS
330
42
102
}
330
42
100
AcDbScale
 70
     0
300
1/2" = 1'-0"
140
0.5
141
12.0
290
     0
  0
SCALE
  5
4E
102
{ACAD_REACTORS
330
42
102
}
330
42
100
AcDbScale
 70
     0
300
3/4" = 1'-0"
140
0.75
141
12.0
290
     0
  0
SCALE
  5
4F
102
{ACAD_REACTORS
330
42
102
}
330
42
100
AcDbScale
 70
     0
300
1" = 1'-0"
140
1.0
141
12.0
290
     0
  0
SCALE
  5
50
102
{ACAD_REACTORS
330
42
102
}
330
42
100
AcDbScale
 70
     0
300
1-1/2" = 1'-0"
140
1.5
141
12.0
290
     0
  0
SCALE
  5
51
102
{ACAD_REACTORS
330
42
102
}
330
42
100
AcDbScale
 70
     0
300
3" = 1'-0"
140
3.0
141
12.0
290
     0
  0
SCALE
  5
52
102
{ACAD_REACTORS
330
42
102
}
330
42
100
AcDbScale
 70
     0
300
6" = 1'-0"
140
6.0
141
12.0
290
     0
  0
SCALE
  5
53
102
{ACAD_REACTORS
330
42
102
}
330
42
100
AcDbScale
 70
     0
300
1'-0" = 1'-0"
140
12.0
141
12.0
290
     0
  0
ACDBSECTIONVIEWSTYLE
  5
69
102
{ACAD_XDICTIONARY
360
2EC
102
}
102
{ACAD_REACTORS
330
68
102
}
330
68
100
AcDbModelDocViewStyle
 70
     0
  3
Imperial24
290
     0
100
AcDbSectionViewStyle
 70
     0
 71
     0
 90
       78
 71
     1
340
55
 62
   256
 40
0.24
340
0
340
0
 62
   256
 40
0.24
300
I, O, Q, S, X, Z
 40
0.48
 90
        3
 40
0.18
 90
        1
 71
     2
340
5D
 90
       25
 62
   256
340
5D
 90
       50
 62
   256
 40
0.24
 40
0.0
 40
0.24
 71
     3
340
55
 62
   256
 40
0.24
 90
        1
 40
0.75
 90
        1
300
%<\AcVar ViewType \f "%tc1">% %<\AcVar ViewSectionStartId>%-%<\AcVar ViewSectionEndId>%\PSCALE %<\AcVar ViewScale \f "%sn">%
 71
     4
 62
   256
 62
   257
300
ANSI31
 40
1.0
 90
        0
290
     0
290
     0
 90
        6
 40
0.0
 40
1.570796326794896
 40
0.2617993877991494
 40
1.308996938995747
 40
-0.2617993877991494
 40
1.832595714594046
  0
TABLESTYLE
  5
65
102
{ACAD_XDICTIONARY
360
291
102
}
102
{ACAD_REACTORS
330
64
102
}
330
64
100
AcDbTableStyle
280
     0
  3
Standard
 70
     0
 71
     0
 40
0.06
 41
0.06
280
     0
281
     0
  7
Standard
140
0.18
170
     2
 62
     0
 63
     7
283
     0
 90
      512
 91
        0
  1

274
    -2
284
     1
 64
     0
275
    -2
285
     1
 65
     0
276
    -2
286
     1
 66
     0
277
    -2
287
     1
 67
     0
278
    -2
288
     1
 68
     0
279
    -2
289
     1
 69
     0
  7
Standard
140
0.25
170
     5
 62
     0
 63
     7
283
     0
 90
      512
 91
        0
  1

274
    -2
284
     1
 64
     0
275
    -2
285
     1
 65
     0
276
    -2
286
     1
 66
     0
277
    -2
287
     1
 67
     0
278
    -2
288
     1
 68
     0
279
    -2
289
     1
 69
     0
  7
Standard
140
0.18
170
     5
 62
     0
 63
     7
283
     0
 90
      512
 91
        0
  1

274
    -2
284
     1
 64
     0
275
    -2
285
     1
 65
     0
276
    -2
286
     1
 66
     0
277
    -2
287
     1
 67
     0
278
    -2
288
     1
 68
     0
279
    -2
289
     1
 69
     0
  0
VISUALSTYLE
  5
2F
102
{ACAD_REACTORS
330
29
102
}
330
29
100
AcDbVisualStyle
  2
2dWireframe
 70
     4
177
     3
291
     0
 70
    58
 90
        0
176
     1
 90
        2
176
     1
 90
        0
176
     1
 90
        0
176
     1
 40
0.6
176
     1
 40
30.0
176
     1
 62
     7
420
 16777215
176
     1
 90
        1
176
     1
 90
        4
176
     1
 62
     7
176
     1
 62
   257
176
     1
 90
        1
176
     1
 90
        1
176
     1
 40
1.0
176
     1
 90
        0
176
     1
 62
   257
176
     1
 40
1.0
176
     1
 90
        1
176
     1
 90
        6
176
     1
 90
        2
176
     1
 62
     7
176
     1
 90
        5
176
     1
 90
        0
176
     1
 90
        0
176
     1
290
     0
176
     1
 90
        1
176
     1
 40
0.0
176
     1
 90
        0
176
     1
290
     1
176
     1
290
     1
176
     1
290
     0
176
     1
290
     0
176
     1
290
     0
176
     1
290
     0
176
     1
290
     0
176
     1
290
     0
176
     1
290
     0
176
     1
 90
       50
176
     1
 40
0.0
176
     1
 40
1.0
176
     1
 90
        0
176
     1
 62
    18
420
        0
176
     1
 90
       50
176
     1
 90
        3
176
     1
 62
     5
420
      255
176
     1
290
     0
176
     1
 90
       50
176
     1
 90
       50
176
     1
 90
       50
176
     1
290
     0
176
     1
 90
       50
176
     1
 62
   256
176
     0
 40
1.0
176
     0
 90
        2
176
     1
  1
strokes_ogs.tif
176
     1
290
     0
176
     1
 40
1.0
176
     1
 40
1.0
176
     1
1001
ACAD
1000
AcDbSavedByObjectVersion
1070
     0
  0
VISUALSTYLE
  5
2E
102
{ACAD_REACTORS
330
29
102
}
330
29
100
AcDbVisualStyle
  2
Basic
 70
     7
177
     3
291
     1
 70
    58
 90
        1
176
     1
 90
        0
176
     1
 90
        1
176
     1
 90
        0
176
     1
 40
0.6
176
     1
 40
30.0
176
     1
 62
     7
420
 16777215
176
     1
 90
        0
176
     1
 90
        4
176
     1
 62
     7
176
     1
 62
   257
176
     1
 90
        1
176
     1
 90
        1
176
     1
 40
1.0
176
     1
 90
        8
176
     1
 62
     7
176
     1
 40
1.0
176
     1
 90
        1
176
     1
 90
        6
176
     1
 90
        2
176
     1
 62
     7
176
     1
 90
        5
176
     1
 90
        0
176
     1
 90
        0
176
     1
290
     0
176
     1
 90
        1
176
     1
 40
0.0
176
     1
 90
        0
176
     1
290
     0
176
     1
290
     1
176
     1
290
     1
176
     1
290
     0
176
     1
290
     0
176
     1
290
     0
176
     1
290
     0
176
     1
290
     0
176
     1
290
     0
176
     1
 90
       50
176
     1
 40
0.0
176
     1
 40
1.0
176
     1
 90
        0
176
     1
 62
    18
420
        0
176
     1
 90
       50
176
     1
 90
        3
176
     1
 62
     5
420
      255
176
     1
290
     0
176
     1
 90
       50
176
     1
 90
       50
176
     1
 90
       50
176
     1
290
     0
176
     1
 90
       50
176
     1
 62
   256
176
     0
 40
1.0
176
     0
 90
        2
176
     1
  1
strokes_ogs.tif
176
     1
290
     0
176
     1
 40
1.0
176
     1
 40
1.0
176
     1
1001
ACAD
1000
AcDbSavedByObjectVersion
1070
     0
  0
VISUALSTYLE
  5
35
102
{ACAD_REACTORS
330
29
102
}
330
29
100
AcDbVisualStyle
  2
Brighten
 70
    12
177
     3
291
     1
 70
    58
 90
        2
176
     1
 90
        2
176
     1
 90
        0
176
     1
 90
        0
176
     1
 40
0.6
176
     1
 40
30.0
176
     1
 62
     7
420
 16777215
176
     1
 90
        1
176
     1
 90
        4
176
     1
 62
     7
176
     1
 62
   257
176
     1
 90
        1
176
     1
 90
        1
176
     1
 40
1.0
176
     1
 90
        8
176
     1
 62
     7
176
     1
 40
1.0
176
     1
 90
        1
176
     1
 90
        6
176
     1
 90
        2
176
     1
 62
     7
176
     1
 90
        5
176
     1
 90
        0
176
     1
 90
        0
176
     1
290
     0
176
     1
 90
        1
176
     1
 40
50.0
176
     1
 90
        0
176
     1
290
     0
176
     1
290
     1
176
     1
290
     1
176
     1
290
     0
176
     1
290
     0
176
     1
290
     0
176
     1
290
     0
176
     1
290
     0
176
     1
290
     0
176
     1
 90
       50
176
     1
 40
0.0
176
     1
 40
1.0
176
     1
 90
        0
176
     1
 62
    18
420
        0
176
     1
 90
       50
176
     1
 90
        3
176
     1
 62
     5
420
      255
176
     1
290
     0
176
     1
 90
       50
176
     1
 90
       50
176
     1
 90
       50
176
     1
290
     0
176
     1
 90
       50
176
     1
 62
   256
176
     0
 40
1.0
176
     0
 90
        2
176
     1
  1
strokes_ogs.tif
176
     1
290
     0
176
     1
 40
1.0
176
     1
 40
1.0
176
     1
1001
ACAD
1000
AcDbSavedByObjectVersion
1070
     0
  0
VISUALSTYLE
  5
39
102
{ACAD_REACTORS
330
29
102
}
330
29
100
AcDbVisualStyle
  2
ColorChange
 70
    16
177
     3
291
     1
 70
    58
 90
        2
176
     1
 90
        2
176
     1
 90
        3
176
     1
 90
        0
176
     1
 40
0.6
176
     1
 40
30.0
176
     1
 62
     8
420
  8421504
176
     1
 90
        1
176
     1
 90
        4
176
     1
 62
     7
176
     1
 62
   257
176
     1
 90
        1
176
     1
 90
        1
176
     1
 40
1.0
176
     1
 90
        8
176
     1
 62
     8
420
  8421504
176
     1
 40
1.0
176
     1
 90
        1
176
     1
 90
        6
176
     1
 90
        2
176
     1
 62
     7
176
     1
 90
        5
176
     1
 90
        0
176
     1
 90
        0
176
     1
290
     0
176
     1
 90
        1
176
     1
 40
0.0
176
     1
 90
        0
176
     1
290
     0
176
     1
290
     1
176
     1
290
     1
176
     1
290
     0
176
     1
290
     0
176
     1
290
     0
176
     1
290
     0
176
     1
290
     0
176
     1
290
     0
176
     1
 90
       50
176
     1
 40
0.0
176
     1
 40
1.0
176
     1
 90
        0
176
     1
 62
    18
420
        0
176
     1
 90
       50
176
     1
 90
        3
176
     1
 62
     5
420
      255
176
     1
290
     0
176
     1
 90
       50
176
     1
 90
       50
176
     1
 90
       50
176
     1
290
     0
176
     1
 90
       50
176
     1
 62
   256
176
     0
 40
1.0
176
     0
 90
        2
176
     1
  1
strokes_ogs.tif
176
     1
290
     0
176
     1
 40
1.0
176
     1
 40
1.0
176
     1
1001
ACAD
1000
AcDbSavedByObjectVersion
1070
     0
  0
VISUALSTYLE
  5
32
102
{ACAD_REACTORS
330
29
102
}
330
29
100
AcDbVisualStyle
  2
Conceptual
 70
     9
177
     3
291
     0
 70
    58
 90
        3
176
     1
 90
        2
176
     1
 90
        0
176
     1
 90
        0
176
     1
 40
0.6
176
     1
 40
30.0
176
     1
 62
     7
420
 16777215
176
     1
 90
        2
176
     1
 90
        2
176
     1
 62
     7
176
     1
 62
   257
176
     1
 90
        1
176
     1
 90
        1
176
     1
 40
179.0
176
     1
 90
        8
176
     1
 62
     7
176
     1
 40
1.0
176
     1
 90
        1
176
     1
 90
        6
176
     1
 90
        2
176
     1
 62
     7
176
     1
 90
        3
176
     1
 90
        0
176
     1
 90
        0
176
     1
290
     0
176
     1
 90
        1
176
     1
 40
0.0
176
     1
 90
        0
176
     1
290
     0
176
     1
290
     1
176
     1
290
     1
176
     1
290
     0
176
     1
290
     0
176
     1
290
     0
176
     1
290
     0
176
     1
290
     0
176
     1
290
     0
176
     1
 90
       50
176
     1
 40
0.0
176
     1
 40
1.0
176
     1
 90
        0
176
     1
 62
    18
420
        0
176
     1
 90
       50
176
     1
 90
        3
176
     1
 62
     5
420
      255
176
     1
290
     0
176
     1
 90
       50
176
     1
 90
       50
176
     1
 90
       50
176
     1
290
     0
176
     1
 90
       50
176
     1
 62
   256
176
     0
 40
1.0
176
     0
 90
        2
176
     1
  1
strokes_ogs.tif
176
     1
290
     0
176
     1
 40
1.0
176
     1
 40
1.0
176
     1
1001
ACAD
1000
AcDbSavedByObjectVersion
1070
     0
  0
VISUALSTYLE
  5
34
102
{ACAD_REACTORS
330
29
102
}
330
29
100
AcDbVisualStyle
  2
Dim
 70
    11
177
     3
291
     1
 70
    58
 90
        2
176
     1
 90
        2
176
     1
 90
        0
176
     1
 90
        0
176
     1
 40
0.6
176
     1
 40
30.0
176
     1
 62
     7
420
 16777215
176
     1
 90
        1
176
     1
 90
        4
176
     1
 62
     7
176
     1
 62
   257
176
     1
 90
        1
176
     1
 90
        1
176
     1
 40
1.0
176
     1
 90
        8
176
     1
 62
     7
176
     1
 40
1.0
176
     1
 90
        1
176
     1
 90
        6
176
     1
 90
        2
176
     1
 62
     7
176
     1
 90
        5
176
     1
 90
        0
176
     1
 90
        0
176
     1
290
     0
176
     1
 90
        1
176
     1
 40
-50.0
176
     1
 90
        0
176
     1
290
     0
176
     1
290
     1
176
     1
290
     1
176
     1
290
     0
176
     1
290
     0
176
     1
290
     0
176
     1
290
     0
176
     1
290
     0
176
     1
290
     0
176
     1
 90
       50
176
     1
 40
0.0
176
     1
 40
1.0
176
     1
 90
        0
176
     1
 62
    18
420
        0
176
     1
 90
       50
176
     1
 90
        3
176
     1
 62
     5
420
      255
176
     1
290
     0
176
     1
 90
       50
176
     1
 90
       50
176
     1
 90
       50
176
     1
290
     0
176
     1
 90
       50
176
     1
 62
   256
176
     0
 40
1.0
176
     0
 90
        2
176
     1
  1
strokes_ogs.tif
176
     1
290
     0
176
     1
 40
1.0
176
     1
 40
1.0
176
     1
1001
ACAD
1000
AcDbSavedByObjectVersion
1070
     0
  0
VISUALSTYLE
  5
41
102
{ACAD_REACTORS
330
29
102
}
330
29
100
AcDbVisualStyle
  2
EdgeColorOff
 70
    22
177
     3
291
     1
 70
    58
 90
        2
176
     0
 90
        2
176
     0
 90
        0
176
     0
 90
        0
176
     0
 40
0.6
176
     0
 40
30.0
176
     0
 62
     7
420
 16777215
176
     0
 90
        1
176
     0
 90
        4
176
     0
 62
     7
176
     0
 62
   257
176
     0
 90
        1
176
     0
 90
        1
176
     0
 40
1.0
176
     0
 90
        8
176
     2
 62
     7
176
     0
 40
1.0
176
     0
 90
        1
176
     0
 90
        6
176
     0
 90
        2
176
     0
 62
     7
176
     0
 90
        5
176
     0
 90
        0
176
     0
 90
        0
176
     0
290
     0
176
     0
 90
        1
176
     0
 40
0.0
176
     0
 90
        0
176
     0
290
     0
176
     0
290
     1
176
     0
290
     1
176
     0
290
     0
176
     0
290
     0
176
     0
290
     0
176
     0
290
     0
176
     0
290
     0
176
     0
290
     0
176
     0
 90
       50
176
     0
 40
0.0
176
     0
 40
1.0
176
     0
 90
        0
176
     0
 62
    18
420
        0
176
     0
 90
       50
176
     0
 90
        3
176
     0
 62
     5
420
      255
176
     0
290
     0
176
     0
 90
       50
176
     0
 90
       50
176
     0
 90
       50
176
     0
290
     0
176
     0
 90
       50
176
     0
 62
   256
176
     0
 40
1.0
176
     0
 90
        2
176
     0
  1
strokes_ogs.tif
176
     0
290
     0
176
     0
 40
1.0
176
     0
 40
1.0
176
     0
1001
ACAD
1000
AcDbSavedByObjectVersion
1070
     0
  0
VISUALSTYLE
  5
38
102
{ACAD_REACTORS
330
29
102
}
330
29
100
AcDbVisualStyle
  2
Facepattern
 70
    15
177
     3
291
     1
 70
    58
 90
        2
176
     1
 90
        2
176
     1
 90
        0
176
     1
 90
        0
176
     1
 40
0.6
176
     1
 40
30.0
176
     1
 62
     7
420
 16777215
176
     1
 90
        1
176
     1
 90
        4
176
     1
 62
     7
176
     1
 62
   257
176
     1
 90
        1
176
     1
 90
        1
176
     1
 40
1.0
176
     1
 90
        8
176
     1
 62
     7
176
     1
 40
1.0
176
     1
 90
        1
176
     1
 90
        6
176
     1
 90
        2
176
     1
 62
     7
176
     1
 90
        5
176
     1
 90
        0
176
     1
 90
        0
176
     1
290
     0
176
     1
 90
        1
176
     1
 40
0.0
176
     1
 90
        0
176
     1
290
     0
176
     1
290
     1
176
     1
290
     1
176
     1
290
     0
176
     1
290
     0
176
     1
290
     0
176
     1
290
     0
176
     1
290
     0
176
     1
290
     0
176
     1
 90
       50
176
     1
 40
0.0
176
     1
 40
1.0
176
     1
 90
        0
176
     1
 62
    18
420
        0
176
     1
 90
       50
176
     1
 90
        3
176
     1
 62
     5
420
      255
176
     1
290
     0
176
     1
 90
       50
176
     1
 90
       50
176
     1
 90
       50
176
     1
290
     0
176
     1
 90
       50
176
     1
 62
   256
176
     0
 40
1.0
176
     0
 90
        2
176
     1
  1
strokes_ogs.tif
176
     1
290
     0
176
     1
 40
1.0
176
     1
 40
1.0
176
     1
1001
ACAD
1000
AcDbSavedByObjectVersion
1070
     0
  0
VISUALSTYLE
  5
2A
102
{ACAD_REACTORS
330
29
102
}
330
29
100
AcDbVisualStyle
  2
Flat
 70
     0
177
     3
291
     1
 70
    58
 90
        2
176
     1
 90
        1
176
     1
 90
        1
176
     1
 90
        2
176
     1
 40
0.6
176
     1
 40
30.0
176
     1
 62
     7
420
 16777215
176
     1
 90
        0
176
     1
 90
        0
176
     1
 62
     7
176
     1
 62
   257
176
     1
 90
        1
176
     1
 90
        1
176
     1
 40
1.0
176
     1
 90
        8
176
     1
 62
     7
176
     1
 40
1.0
176
     1
 90
        1
176
     1
 90
        6
176
     1
 90
        2
176
     1
 62
     7
176
     1
 90
        5
176
     1
 90
        0
176
     1
 90
        0
176
     1
290
     0
176
     1
 90
       13
176
     1
 40
0.0
176
     1
 90
        0
176
     1
290
     0
176
     1
290
     1
176
     1
290
     1
176
     1
290
     0
176
     1
290
     0
176
     1
290
     0
176
     1
290
     0
176
     1
290
     0
176
     1
290
     0
176
     1
 90
       50
176
     1
 40
0.0
176
     1
 40
1.0
176
     1
 90
        0
176
     1
 62
    18
420
        0
176
     1
 90
       50
176
     1
 90
        3
176
     1
 62
     5
420
      255
176
     1
290
     0
176
     1
 90
       50
176
     1
 90
       50
176
     1
 90
       50
176
     1
290
     0
176
     1
 90
       50
176
     1
 62
   256
176
     0
 40
1.0
176
     0
 90
        2
176
     1
  1
strokes_ogs.tif
176
     1
290
     0
176
     1
 40
1.0
176
     1
 40
1.0
176
     1
1001
ACAD
1000
AcDbSavedByObjectVersion
1070
     0
  0
VISUALSTYLE
  5
2B
102
{ACAD_REACTORS
330
29
102
}
330
29
100
AcDbVisualStyle
  2
FlatWithEdges
 70
     1
177
     3
291
     1
 70
    58
 90
        2
176
     1
 90
        1
176
     1
 90
        1
176
     1
 90
        2
176
     1
 40
0.6
176
     1
 40
30.0
176
     1
 62
     7
420
 16777215
176
     1
 90
        1
176
     1
 90
        0
176
     1
 62
     7
176
     1
 62
   257
176
     1
 90
        1
176
     1
 90
        1
176
     1
 40
1.0
176
     1
 90
        0
176
     1
 62
   257
176
     1
 40
1.0
176
     1
 90
        1
176
     1
 90
        6
176
     1
 90
        2
176
     1
 62
     7
176
     1
 90
        5
176
     1
 90
        0
176
     1
 90
        0
176
     1
290
     0
176
     1
 90
       13
176
     1
 40
0.0
176
     1
 90
        0
176
     1
290
     0
176
     1
290
     1
176
     1
290
     1
176
     1
290
     0
176
     1
290
     0
176
     1
290
     0
176
     1
290
     0
176
     1
290
     0
176
     1
290
     0
176
     1
 90
       50
176
     1
 40
0.0
176
     1
 40
1.0
176
     1
 90
        0
176
     1
 62
    18
420
        0
176
     1
 90
       50
176
     1
 90
        3
176
     1
 62
     5
420
      255
176
     1
290
     0
176
     1
 90
       50
176
     1
 90
       50
176
     1
 90
       50
176
     1
290
     0
176
     1
 90
       50
176
     1
 62
   256
176
     0
 40
1.0
176
     0
 90
        2
176
     1
  1
strokes_ogs.tif
176
     1
290
     0
176
     1
 40
1.0
176
     1
 40
1.0
176
     1
1001
ACAD
1000
AcDbSavedByObjectVersion
1070
     0
  0
VISUALSTYLE
  5
2C
102
{ACAD_REACTORS
330
29
102
}
330
29
100
AcDbVisualStyle
  2
Gouraud
 70
     2
177
     3
291
     1
 70
    58
 90
        2
176
     1
 90
        2
176
     1
 90
        1
176
     1
 90
        2
176
     1
 40
0.6
176
     1
 40
30.0
176
     1
 62
     7
420
 16777215
176
     1
 90
        0
176
     1
 90
        0
176
     1
 62
     7
176
     1
 62
   257
176
     1
 90
        1
176
     1
 90
        1
176
     1
 40
1.0
176
     1
 90
        0
176
     1
 62
     7
176
     1
 40
1.0
176
     1
 90
        1
176
     1
 90
        6
176
     1
 90
        2
176
     1
 62
     7
176
     1
 90
        5
176
     1
 90
        0
176
     1
 90
        0
176
     1
290
     0
176
     1
 90
       13
176
     1
 40
0.0
176
     1
 90
        0
176
     1
290
     0
176
     1
290
     1
176
     1
290
     1
176
     1
290
     0
176
     1
290
     0
176
     1
290
     0
176
     1
290
     0
176
     1
290
     0
176
     1
290
     0
176
     1
 90
       50
176
     1
 40
0.0
176
     1
 40
1.0
176
     1
 90
        0
176
     1
 62
    18
420
        0
176
     1
 90
       50
176
     1
 90
        3
176
     1
 62
     5
420
      255
176
     1
290
     0
176
     1
 90
       50
176
     1
 90
       50
176
     1
 90
       50
176
     1
290
     0
176
     1
 90
       50
176
     1
 62
   256
176
     0
 40
1.0
176
     0
 90
        2
176
     1
  1
strokes_ogs.tif
176
     1
290
     0
176
     1
 40
1.0
176
     1
 40
1.0
176
     1
1001
ACAD
1000
AcDbSavedByObjectVersion
1070
     0
  0
VISUALSTYLE
  5
2D
102
{ACAD_REACTORS
330
29
102
}
330
29
100
AcDbVisualStyle
  2
GouraudWithEdges
 70
     3
177
     3
291
     1
 70
    58
 90
        2
176
     1
 90
        2
176
     1
 90
        1
176
     1
 90
        2
176
     1
 40
0.6
176
     1
 40
30.0
176
     1
 62
     7
420
 16777215
176
     1
 90
        1
176
     1
 90
        0
176
     1
 62
     7
176
     1
 62
   257
176
     1
 90
        1
176
     1
 90
        1
176
     1
 40
1.0
176
     1
 90
        0
176
     1
 62
   257
176
     1
 40
1.0
176
     1
 90
        1
176
     1
 90
        6
176
     1
 90
        2
176
     1
 62
     7
176
     1
 90
        5
176
     1
 90
        0
176
     1
 90
        0
176
     1
290
     0
176
     1
 90
       13
176
     1
 40
0.0
176
     1
 90
        0
176
     1
290
     0
176
     1
290
     1
176
     1
290
     1
176
     1
290
     0
176
     1
290
     0
176
     1
290
     0
176
     1
290
     0
176
     1
290
     0
176
     1
290
     0
176
     1
 90
       50
176
     1
 40
0.0
176
     1
 40
1.0
176
     1
 90
        0
176
     1
 62
    18
420
        0
176
     1
 90
       50
176
     1
 90
        3
176
     1
 62
     5
420
      255
176
     1
290
     0
176
     1
 90
       50
176
     1
 90
       50
176
     1
 90
       50
176
     1
290
     0
176
     1
 90
       50
176
     1
 62
   256
176
     0
 40
1.0
176
     0
 90
        2
176
     1
  1
strokes_ogs.tif
176
     1
290
     0
176
     1
 40
1.0
176
     1
 40
1.0
176
     1
1001
ACAD
1000
AcDbSavedByObjectVersion
1070
     0
  0
VISUALSTYLE
  5
31
102
{ACAD_REACTORS
330
29
102
}
330
29
100
AcDbVisualStyle
  2
Hidden
 70
     6
177
     3
291
     0
 70
    58
 90
        1
176
     1
 90
        2
176
     1
 90
        2
176
     1
 90
        0
176
     1
 40
0.6
176
     1
 40
30.0
176
     1
 62
     7
420
 16777215
176
     1
 90
        2
176
     1
 90
        2
176
     1
 62
     7
176
     1
 62
   257
176
     1
 90
        2
176
     1
 90
        1
176
     1
 40
40.0
176
     1
 90
        0
176
     1
 62
   257
176
     1
 40
1.0
176
     1
 90
        1
176
     1
 90
        6
176
     1
 90
        2
176
     1
 62
     7
176
     1
 90
        3
176
     1
 90
        0
176
     1
 90
        0
176
     1
290
     0
176
     1
 90
        1
176
     1
 40
0.0
176
     1
 90
        0
176
     1
290
     0
176
     1
290
     1
176
     1
290
     1
176
     1
290
     0
176
     1
290
     0
176
     1
290
     0
176
     1
290
     0
176
     1
290
     0
176
     1
290
     0
176
     1
 90
       50
176
     1
 40
0.0
176
     1
 40
1.0
176
     1
 90
        0
176
     1
 62
    18
420
        0
176
     1
 90
       50
176
     1
 90
        3
176
     1
 62
     5
420
      255
176
     1
290
     0
176
     1
 90
       50
176
     1
 90
       50
176
     1
 90
       50
176
     1
290
     0
176
     1
 90
       50
176
     1
 62
   256
176
     0
 40
1.0
176
     0
 90
        2
176
     1
  1
strokes_ogs.tif
176
     1
290
     0
176
     1
 40
1.0
176
     1
 40
1.0
176
     1
1001
ACAD
1000
AcDbSavedByObjectVersion
1070
     0
  0
VISUALSTYLE
  5
3F
102
{ACAD_REACTORS
330
29
102
}
330
29
100
AcDbVisualStyle
  2
JitterOff
 70
    20
177
     3
291
     1
 70
    58
 90
        2
176
     0
 90
        2
176
     0
 90
        0
176
     0
 90
        0
176
     0
 40
0.6
176
     0
 40
30.0
176
     0
 62
     7
420
 16777215
176
     0
 90
        1
176
     0
 90
        4
176
     0
 62
     7
176
     0
 62
   257
176
     0
 90
        1
176
     0
 90
        1
176
     0
 40
1.0
176
     0
 90
       10
176
     2
 62
     7
176
     0
 40
1.0
176
     0
 90
        1
176
     0
 90
        6
176
     0
 90
        2
176
     0
 62
     7
176
     0
 90
        5
176
     0
 90
        0
176
     0
 90
        0
176
     0
290
     0
176
     0
 90
        1
176
     0
 40
0.0
176
     0
 90
        0
176
     0
290
     0
176
     0
290
     1
176
     0
290
     1
176
     0
290
     0
176
     0
290
     0
176
     0
290
     0
176
     0
290
     0
176
     0
290
     0
176
     0
290
     0
176
     0
 90
       50
176
     0
 40
0.0
176
     0
 40
1.0
176
     0
 90
        0
176
     0
 62
    18
420
        0
176
     0
 90
       50
176
     0
 90
        3
176
     0
 62
     5
420
      255
176
     0
290
     0
176
     0
 90
       50
176
     0
 90
       50
176
     0
 90
       50
176
     0
290
     0
176
     0
 90
       50
176
     0
 62
   256
176
     0
 40
1.0
176
     0
 90
        2
176
     0
  1
strokes_ogs.tif
176
     0
290
     0
176
     0
 40
1.0
176
     0
 40
1.0
176
     0
1001
ACAD
1000
AcDbSavedByObjectVersion
1070
     0
  0
VISUALSTYLE
  5
37
102
{ACAD_REACTORS
330
29
102
}
330
29
100
AcDbVisualStyle
  2
Linepattern
 70
    14
177
     3
291
     1
 70
    58
 90
        2
176
     1
 90
        2
176
     1
 90
        0
176
     1
 90
        0
176
     1
 40
0.6
176
     1
 40
30.0
176
     1
 62
     7
420
 16777215
176
     1
 90
        1
176
     1
 90
        4
176
     1
 62
     7
176
     1
 62
   257
176
     1
 90
        7
176
     1
 90
        7
176
     1
 40
1.0
176
     1
 90
        8
176
     1
 62
     7
176
     1
 40
1.0
176
     1
 90
        1
176
     1
 90
        6
176
     1
 90
        2
176
     1
 62
     7
176
     1
 90
        5
176
     1
 90
        0
176
     1
 90
        0
176
     1
290
     0
176
     1
 90
        1
176
     1
 40
0.0
176
     1
 90
        0
176
     1
290
     0
176
     1
290
     1
176
     1
290
     1
176
     1
290
     0
176
     1
290
     0
176
     1
290
     0
176
     1
290
     0
176
     1
290
     0
176
     1
290
     0
176
     1
 90
       50
176
     1
 40
0.0
176
     1
 40
1.0
176
     1
 90
        0
176
     1
 62
    18
420
        0
176
     1
 90
       50
176
     1
 90
        3
176
     1
 62
     5
420
      255
176
     1
290
     0
176
     1
 90
       50
176
     1
 90
       50
176
     1
 90
       50
176
     1
290
     0
176
     1
 90
       50
176
     1
 62
   256
176
     0
 40
1.0
176
     0
 90
        2
176
     1
  1
strokes_ogs.tif
176
     1
290
     0
176
     1
 40
1.0
176
     1
 40
1.0
176
     1
1001
ACAD
1000
AcDbSavedByObjectVersion
1070
     0
  0
VISUALSTYLE
  5
40
102
{ACAD_REACTORS
330
29
102
}
330
29
100
AcDbVisualStyle
  2
OverhangOff
 70
    21
177
     3
291
     1
 70
    58
 90
        2
176
     0
 90
        2
176
     0
 90
        0
176
     0
 90
        0
176
     0
 40
0.6
176
     0
 40
30.0
176
     0
 62
     7
420
 16777215
176
     0
 90
        1
176
     0
 90
        4
176
     0
 62
     7
176
     0
 62
   257
176
     0
 90
        1
176
     0
 90
        1
176
     0
 40
1.0
176
     0
 90
        9
176
     2
 62
     7
176
     0
 40
1.0
176
     0
 90
        1
176
     0
 90
        6
176
     0
 90
        2
176
     0
 62
     7
176
     0
 90
        5
176
     0
 90
        0
176
     0
 90
        0
176
     0
290
     0
176
     0
 90
        1
176
     0
 40
0.0
176
     0
 90
        0
176
     0
290
     0
176
     0
290
     1
176
     0
290
     1
176
     0
290
     0
176
     0
290
     0
176
     0
290
     0
176
     0
290
     0
176
     0
290
     0
176
     0
290
     0
176
     0
 90
       50
176
     0
 40
0.0
176
     0
 40
1.0
176
     0
 90
        0
176
     0
 62
    18
420
        0
176
     0
 90
       50
176
     0
 90
        3
176
     0
 62
     5
420
      255
176
     0
290
     0
176
     0
 90
       50
176
     0
 90
       50
176
     0
 90
       50
176
     0
290
     0
176
     0
 90
       50
176
     0
 62
   256
176
     0
 40
1.0
176
     0
 90
        2
176
     0
  1
strokes_ogs.tif
176
     0
290
     0
176
     0
 40
1.0
176
     0
 40
1.0
176
     0
1001
ACAD
1000
AcDbSavedByObjectVersion
1070
     0
  0
VISUALSTYLE
  5
33
102
{ACAD_REACTORS
330
29
102
}
330
29
100
AcDbVisualStyle
  2
Realistic
 70
     8
177
     3
291
     0
 70
    58
 90
        2
176
     1
 90
        2
176
     1
 90
        0
176
     1
 90
        2
176
     1
 40
0.6
176
     1
 40
30.0
176
     1
 62
     7
420
 16777215
176
     1
 90
        0
176
     1
 90
        0
176
     1
 62
     7
176
     1
 62
   257
176
     1
 90
        1
176
     1
 90
        1
176
     1
 40
1.0
176
     1
 90
        8
176
     1
 62
   257
176
     1
 40
1.0
176
     1
 90
        1
176
     1
 90
        6
176
     1
 90
        2
176
     1
 62
     7
176
     1
 90
        3
176
     1
 90
        0
176
     1
 90
        0
176
     1
290
     0
176
     1
 90
       13
176
     1
 40
0.0
176
     1
 90
        0
176
     1
290
     0
176
     1
290
     1
176
     1
290
     1
176
     1
290
     0
176
     1
290
     0
176
     1
290
     0
176
     1
290
     0
176
     1
290
     0
176
     1
290
     0
176
     1
 90
       50
176
     1
 40
0.0
176
     1
 40
1.0
176
     1
 90
        0
176
     1
 62
    18
420
        0
176
     1
 90
       50
176
     1
 90
        3
176
     1
 62
     5
420
      255
176
     1
290
     0
176
     1
 90
       50
176
     1
 90
       50
176
     1
 90
       50
176
     1
290
     0
176
     1
 90
       50
176
     1
 62
   256
176
     0
 40
1.0
176
     0
 90
        2
176
     1
  1
strokes_ogs.tif
176
     1
290
     0
176
     1
 40
1.0
176
     1
 40
1.0
176
     1
1001
ACAD
1000
AcDbSavedByObjectVersion
1070
     0
  0
VISUALSTYLE
  5
3E
102
{ACAD_REACTORS
330
29
102
}
330
29
100
AcDbVisualStyle
  2
Shaded
 70
    27
177
     3
291
     0
 70
    58
 90
        2
176
     1
 90
        2
176
     1
 90
        1
176
     1
 90
        2
176
     1
 40
0.6
176
     1
 40
30.0
176
     1
 62
     7
420
 16777215
176
     1
 90
        0
176
     1
 90
        4
176
     1
 62
     7
176
     1
 62
   257
176
     1
 90
        1
176
     1
 90
        1
176
     1
 40
1.0
176
     1
 90
        8
176
     1
 62
   257
176
     1
 40
1.0
176
     1
 90
        1
176
     1
 90
        6
176
     1
 90
        2
176
     1
 62
     8
420
  7895160
176
     1
 90
        3
176
     1
 90
        0
176
     1
 90
        0
176
     1
290
     0
176
     1
 90
        5
176
     1
 40
0.0
176
     1
 90
        0
176
     1
290
     0
176
     1
290
     1
176
     1
290
     1
176
     1
290
     0
176
     1
290
     0
176
     1
290
     0
176
     1
290
     0
176
     1
290
     0
176
     1
290
     0
176
     1
 90
       50
176
     1
 40
0.0
176
     1
 40
1.0
176
     1
 90
        0
176
     1
 62
    18
420
        0
176
     1
 90
       50
176
     1
 90
        3
176
     1
 62
     5
420
      255
176
     1
290
     0
176
     1
 90
       50
176
     1
 90
       50
176
     1
 90
       50
176
     1
290
     0
176
     1
 90
       50
176
     1
 62
   256
176
     0
 40
1.0
176
     0
 90
        2
176
     1
  1
strokes_ogs.tif
176
     1
290
     0
176
     1
 40
1.0
176
     1
 40
1.0
176
     1
1001
ACAD
1000
AcDbSavedByObjectVersion
1070
     0
  0
VISUALSTYLE
  5
3D
102
{ACAD_REACTORS
330
29
102
}
330
29
100
AcDbVisualStyle
  2
Shaded with edges
 70
    26
177
     3
291
     0
 70
    58
 90
        2
176
     1
 90
        2
176
     1
 90
        1
176
     1
 90
        2
176
     1
 40
0.6
176
     1
 40
30.0
176
     1
 62
     7
420
 16777215
176
     1
 90
        1
176
     1
 90
        2
176
     1
 62
     7
176
     1
 62
   257
176
     1
 90
        2
176
     1
 90
        1
176
     1
 40
1.0
176
     1
 90
        8
176
     1
 62
   257
176
     1
 40
1.0
176
     1
 90
        1
176
     1
 90
        6
176
     1
 90
        2
176
     1
 62
     7
176
     1
 90
        3
176
     1
 90
        0
176
     1
 90
        0
176
     1
290
     0
176
     1
 90
        5
176
     1
 40
0.0
176
     1
 90
        0
176
     1
290
     0
176
     1
290
     1
176
     1
290
     1
176
     1
290
     0
176
     1
290
     0
176
     1
290
     0
176
     1
290
     0
176
     1
290
     0
176
     1
290
     0
176
     1
 90
       50
176
     1
 40
0.0
176
     1
 40
1.0
176
     1
 90
        0
176
     1
 62
    18
420
        0
176
     1
 90
       50
176
     1
 90
        3
176
     1
 62
     5
420
      255
176
     1
290
     0
176
     1
 90
       50
176
     1
 90
       50
176
     1
 90
       50
176
     1
290
     0
176
     1
 90
       50
176
     1
 62
   256
176
     0
 40
1.0
176
     0
 90
        2
176
     1
  1
strokes_ogs.tif
176
     1
290
     0
176
     1
 40
1.0
176
     1
 40
1.0
176
     1
1001
ACAD
1000
AcDbSavedByObjectVersion
1070
     0
  0
VISUALSTYLE
  5
3A
102
{ACAD_REACTORS
330
29
102
}
330
29
100
AcDbVisualStyle
  2
Shades of Gray
 70
    23
177
     3
291
     0
 70
    58
 90
        2
176
     1
 90
        2
176
     1
 90
        3
176
     1
 90
        0
176
     1
 40
0.6
176
     1
 40
30.0
176
     1
 62
     7
420
 16777215
176
     1
 90
        2
176
     1
 90
        2
176
     1
 62
     7
176
     1
 62
     7
176
     1
 90
        1
176
     1
 90
        1
176
     1
 40
40.0
176
     1
 90
        8
176
     1
 62
     7
176
     1
 40
1.0
176
     1
 90
        1
176
     1
 90
        6
176
     1
 90
        2
176
     1
 62
     7
176
     1
 90
        3
176
     1
 90
        0
176
     1
 90
        0
176
     1
290
     0
176
     1
 90
        1
176
     1
 40
0.0
176
     1
 90
        0
176
     1
290
     0
176
     1
290
     1
176
     1
290
     1
176
     1
290
     0
176
     1
290
     0
176
     1
290
     0
176
     1
290
     0
176
     1
290
     0
176
     1
290
     0
176
     1
 90
       50
176
     1
 40
0.0
176
     1
 40
1.0
176
     1
 90
        0
176
     1
 62
    18
420
        0
176
     1
 90
       50
176
     1
 90
        3
176
     1
 62
     5
420
      255
176
     1
290
     0
176
     1
 90
       50
176
     1
 90
       50
176
     1
 90
       50
176
     1
290
     0
176
     1
 90
       50
176
     1
 62
   256
176
     0
 40
1.0
176
     0
 90
        2
176
     1
  1
strokes_ogs.tif
176
     1
290
     0
176
     1
 40
1.0
176
     1
 40
1.0
176
     1
1001
ACAD
1000
AcDbSavedByObjectVersion
1070
     0
  0
VISUALSTYLE
  5
3B
102
{ACAD_REACTORS
330
29
102
}
330
29
100
AcDbVisualStyle
  2
Sketchy
 70
    24
177
     3
291
     0
 70
    58
 90
        1
176
     1
 90
        2
176
     1
 90
        2
176
     1
 90
        0
176
     1
 40
0.6
176
     1
 40
30.0
176
     1
 62
     7
420
 16777215
176
     1
 90
        2
176
     1
 90
        2
176
     1
 62
     7
176
     1
 62
     7
176
     1
 90
        1
176
     1
 90
        1
176
     1
 40
40.0
176
     1
 90
       11
176
     1
 62
     7
176
     1
 40
1.0
176
     1
 90
        1
176
     1
 90
        6
176
     1
 90
        2
176
     1
 62
     7
176
     1
 90
        6
176
     1
 90
        0
176
     1
 90
        0
176
     1
290
     0
176
     1
 90
        1
176
     1
 40
0.0
176
     1
 90
        0
176
     1
290
     0
176
     1
290
     1
176
     1
290
     1
176
     1
290
     0
176
     1
290
     0
176
     1
290
     0
176
     1
290
     0
176
     1
290
     0
176
     1
290
     0
176
     1
 90
       50
176
     1
 40
0.0
176
     1
 40
1.0
176
     1
 90
        0
176
     1
 62
    18
420
        0
176
     1
 90
       50
176
     1
 90
        3
176
     1
 62
     5
420
      255
176
     1
290
     0
176
     1
 90
       50
176
     1
 90
       50
176
     1
 90
       50
176
     1
290
     0
176
     1
 90
       50
176
     1
 62
   256
176
     0
 40
1.0
176
     0
 90
        2
176
     1
  1
strokes_ogs.tif
176
     1
290
     0
176
     1
 40
1.0
176
     1
 40
1.0
176
     1
1001
ACAD
1000
AcDbSavedByObjectVersion
1070
     0
  0
VISUALSTYLE
  5
36
102
{ACAD_REACTORS
330
29
102
}
330
29
100
AcDbVisualStyle
  2
Thicken
 70
    13
177
     3
291
     1
 70
    58
 90
        2
176
     1
 90
        2
176
     1
 90
        0
176
     1
 90
        0
176
     1
 40
0.6
176
     1
 40
30.0
176
     1
 62
     7
420
 16777215
176
     1
 90
        1
176
     1
 90
        4
176
     1
 62
     7
176
     1
 62
   257
176
     1
 90
        1
176
     1
 90
        1
176
     1
 40
1.0
176
     1
 90
       12
176
     1
 62
     7
176
     1
 40
1.0
176
     1
 90
        1
176
     1
 90
        6
176
     1
 90
        2
176
     1
 62
     7
176
     1
 90
        5
176
     1
 90
        0
176
     1
 90
        0
176
     1
290
     0
176
     1
 90
        1
176
     1
 40
0.0
176
     1
 90
        0
176
     1
290
     0
176
     1
290
     1
176
     1
290
     1
176
     1
290
     0
176
     1
290
     0
176
     1
290
     0
176
     1
290
     0
176
     1
290
     0
176
     1
290
     0
176
     1
 90
       50
176
     1
 40
0.0
176
     1
 40
1.0
176
     1
 90
        0
176
     1
 62
    18
420
        0
176
     1
 90
       50
176
     1
 90
        3
176
     1
 62
     5
420
      255
176
     1
290
     0
176
     1
 90
       50
176
     1
 90
       50
176
     1
 90
       50
176
     1
290
     0
176
     1
 90
       50
176
     1
 62
   256
176
     0
 40
1.0
176
     0
 90
        2
176
     1
  1
strokes_ogs.tif
176
     1
290
     0
176
     1
 40
1.0
176
     1
 40
1.0
176
     1
1001
ACAD
1000
AcDbSavedByObjectVersion
1070
     0
  0
VISUALSTYLE
  5
30
102
{ACAD_REACTORS
330
29
102
}
330
29
100
AcDbVisualStyle
  2
Wireframe
 70
     5
177
     3
291
     0
 70
    58
 90
        0
176
     1
 90
        2
176
     1
 90
        0
176
     1
 90
        0
176
     1
 40
0.6
176
     1
 40
30.0
176
     1
 62
     7
420
 16777215
176
     1
 90
        1
176
     1
 90
        4
176
     1
 62
     7
176
     1
 62
   257
176
     1
 90
        1
176
     1
 90
        1
176
     1
 40
1.0
176
     1
 90
        0
176
     1
 62
   257
176
     1
 40
1.0
176
     1
 90
        1
176
     1
 90
        6
176
     1
 90
        2
176
     1
 62
     7
176
     1
 90
        3
176
     1
 90
        0
176
     1
 90
        0
176
     1
290
     0
176
     1
 90
        1
176
     1
 40
0.0
176
     1
 90
        0
176
     1
290
     0
176
     1
290
     1
176
     1
290
     1
176
     1
290
     0
176
     1
290
     0
176
     1
290
     0
176
     1
290
     0
176
     1
290
     0
176
     1
290
     0
176
     1
 90
       50
176
     1
 40
0.0
176
     1
 40
1.0
176
     1
 90
        0
176
     1
 62
    18
420
        0
176
     1
 90
       50
176
     1
 90
        3
176
     1
 62
     5
420
      255
176
     1
290
     0
176
     1
 90
       50
176
     1
 90
       50
176
     1
 90
       50
176
     1
290
     0
176
     1
 90
       50
176
     1
 62
   256
176
     0
 40
1.0
176
     0
 90
        2
176
     1
  1
strokes_ogs.tif
176
     1
290
     0
176
     1
 40
1.0
176
     1
 40
1.0
176
     1
1001
ACAD
1000
AcDbSavedByObjectVersion
1070
     0
  0
VISUALSTYLE
  5
3C
102
{ACAD_REACTORS
330
29
102
}
330
29
100
AcDbVisualStyle
  2
X-Ray
 70
    25
177
     3
291
     0
 70
    58
 90
        2
176
     1
 90
        2
176
     1
 90
        1
176
     1
 90
        1
176
     1
 40
0.5
176
     1
 40
30.0
176
     1
 62
     7
420
 16777215
176
     1
 90
        1
176
     1
 90
        0
176
     1
 62
     7
176
     1
 62
   257
176
     1
 90
        1
176
     1
 90
        1
176
     1
 40
1.0
176
     1
 90
        8
176
     1
 62
     7
176
     1
 40
1.0
176
     1
 90
        1
176
     1
 90
        6
176
     1
 90
        2
176
     1
 62
     7
176
     1
 90
        3
176
     1
 90
        0
176
     1
 90
        0
176
     1
290
     0
176
     1
 90
       13
176
     1
 40
0.0
176
     1
 90
        0
176
     1
290
     0
176
     1
290
     1
176
     1
290
     1
176
     1
290
     0
176
     1
290
     0
176
     1
290
     0
176
     1
290
     0
176
     1
290
     0
176
     1
290
     0
176
     1
 90
       50
176
     1
 40
0.0
176
     1
 40
1.0
176
     1
 90
        0
176
     1
 62
    18
420
        0
176
     1
 90
       50
176
     1
 90
        3
176
     1
 62
     5
420
      255
176
     1
290
     0
176
     1
 90
       50
176
     1
 90
       50
176
     1
 90
       50
176
     1
290
     0
176
     1
 90
       50
176
     1
 62
   256
176
     0
 40
1.0
176
     0
 90
        2
176
     1
  1
strokes_ogs.tif
176
     1
290
     0
176
     1
 40
1.0
176
     1
 40
1.0
176
     1
1001
ACAD
1000
AcDbSavedByObjectVersion
1070
     0
  0
DICTIONARYVAR
  5
2D0
102
{ACAD_REACTORS
330
2CB
102
}
330
2CB
100
DictionaryVariables
280
     0
  1
1:1
  0
DICTIONARYVAR
  5
2CD
102
{ACAD_REACTORS
330
2CB
102
}
330
2CB
100
DictionaryVariables
280
     0
  1
STANDARD
  0
DICTIONARYVAR
  5
2CC
102
{ACAD_REACTORS
330
2CB
102
}
330
2CB
100
DictionaryVariables
280
     0
  1
STANDARD
  0
DICTIONARYVAR
  5
2CE
102
{ACAD_REACTORS
330
2CB
102
}
330
2CB
100
DictionaryVariables
280
     0
  1
Imperial24
  0
DICTIONARYVAR
  5
2CF
102
{ACAD_REACTORS
330
2CB
102
}
330
2CB
100
DictionaryVariables
280
     0
  1
Imperial24
  0
DICTIONARY
  5
2EB
102
{ACAD_REACTORS
330
2E9
102
}
330
2E9
100
AcDbDictionary
281
     1
  0
DICTIONARY
  5
2EA
102
{ACAD_REACTORS
330
2E9
102
}
330
2E9
100
AcDbDictionary
281
     1
  3
456682347840
350
2E4
  3
456682347856
350
2E5
  3
456682347872
350
2E6
  3
456682347888
350
2E7
  3
456682347904
350
2E8
  0
DICTIONARY
  5
2EE
330
6B
100
AcDbDictionary
280
     1
281
     1
  3
ACAD_XREC_ROUNDTRIP
360
2EF
  0
DICTIONARY
  5
1A
330
19
100
AcDbDictionary
280
     1
281
     1
  3
BUMPTILE
360
1C
  3
DIFFUSETILE
360
1B
  3
OPACITYTILE
360
1F
  3
REFLECTIONTILE
360
1E
  3
REFRACTIONTILE
360
20
  3
SPECULARTILE
360
1D
  0
DICTIONARY
  5
12
330
11
100
AcDbDictionary
280
     1
281
     1
  3
BUMPTILE
360
14
  3
DIFFUSETILE
360
13
  3
OPACITYTILE
360
17
  3
REFLECTIONTILE
360
16
  3
REFRACTIONTILE
360
18
  3
SPECULARTILE
360
15
  0
DICTIONARY
  5
22
330
21
100
AcDbDictionary
280
     1
281
     1
  3
BUMPTILE
360
24
  3
DIFFUSETILE
360
23
  3
OPACITYTILE
360
27
  3
REFLECTIONTILE
360
26
  3
REFRACTIONTILE
360
28
  3
SPECULARTILE
360
25
  0
DICTIONARY
  5
2EC
330
69
100
AcDbDictionary
280
     1
281
     1
  3
ACAD_XREC_ROUNDTRIP
360
2ED
  0
DICTIONARY
  5
291
330
65
100
AcDbDictionary
280
     1
281
     1
  3
ACAD_ROUNDTRIP_2008_TABLESTYLE_CELLSTYLEMAP
360
2E2
  0
XRECORD
  5
2E4
102
{ACAD_REACTORS
330
2EA
102
}
330
2EA
100
AcDbXrecord
280
     1
  1
AcDb_Thumbnail_Schema
102
{ATTRRECORD
341
2E5
  2
AcDbDs::TreatedAsObjectData
280
     1
291
     1
102
ATTRRECORD}
102
{ATTRRECORD
341
2E6
  2
AcDbDs::Legacy
280
     1
291
     1
102
ATTRRECORD}
  2
AcDbDs::ID
280
    10
 91
        8
102
{ATTRRECORD
341
2E7
  2
AcDs:Indexable
280
     1
291
     1
102
ATTRRECORD}
102
{ATTRRECORD
341
2E8
  2
AcDbDs::HandleAttribute
280
     7
282
     1
102
ATTRRECORD}
  2
Thumbnail_Data
280
    15
 91
        0
  0
XRECORD
  5
2E5
102
{ACAD_REACTORS
330
2EA
102
}
330
2EA
100
AcDbXrecord
280
     1
  1
AcDbDs::TreatedAsObjectDataSchema
  2
AcDbDs::TreatedAsObjectData
280
     1
 91
        0
  0
XRECORD
  5
2E6
102
{ACAD_REACTORS
330
2EA
102
}
330
2EA
100
AcDbXrecord
280
     1
  1
AcDbDs::LegacySchema
  2
AcDbDs::Legacy
280
     1
 91
        0
  0
XRECORD
  5
2E7
102
{ACAD_REACTORS
330
2EA
102
}
330
2EA
100
AcDbXrecord
280
     1
  1
AcDbDs::IndexedPropertySchema
  2
AcDs:Indexable
280
     1
 91
        0
  0
XRECORD
  5
2E8
102
{ACAD_REACTORS
330
2EA
102
}
330
2EA
100
AcDbXrecord
280
     1
  1
AcDbDs::HandleAttributeSchema
  2
AcDbDs::HandleAttribute
280
     7
 91
        1
284
     1
  0
XRECORD
  5
2EF
102
{ACAD_REACTORS
330
2EE
102
}
330
2EE
100
AcDbXrecord
280
     1
102
DISPLAYNAME
  1
Imperial24
102
FLAGS
 90
        0
  0
XRECORD
  5
1C
102
{ACAD_REACTORS
330
1A
102
}
330
1A
100
AcDbXrecord
280
     1
270
     1
271
     1
  0
XRECORD
  5
1B
102
{ACAD_REACTORS
330
1A
102
}
330
1A
100
AcDbXrecord
280
     1
270
     1
271
     1
  0
XRECORD
  5
1F
102
{ACAD_REACTORS
330
1A
102
}
330
1A
100
AcDbXrecord
280
     1
270
     1
271
     1
  0
XRECORD
  5
1E
102
{ACAD_REACTORS
330
1A
102
}
330
1A
100
AcDbXrecord
280
     1
270
     1
271
     1
  0
XRECORD
  5
20
102
{ACAD_REACTORS
330
1A
102
}
330
1A
100
AcDbXrecord
280
     1
270
     1
271
     1
  0
XRECORD
  5
1D
102
{ACAD_REACTORS
330
1A
102
}
330
1A
100
AcDbXrecord
280
     1
270
     1
271
     1
  0
XRECORD
  5
14
102
{ACAD_REACTORS
330
12
102
}
330
12
100
AcDbXrecord
280
     1
270
     1
271
     1
  0
XRECORD
  5
13
102
{ACAD_REACTORS
330
12
102
}
330
12
100
AcDbXrecord
280
     1
270
     1
271
     1
  0
XRECORD
  5
17
102
{ACAD_REACTORS
330
12
102
}
330
12
100
AcDbXrecord
280
     1
270
     1
271
     1
  0
XRECORD
  5
16
102
{ACAD_REACTORS
330
12
102
}
330
12
100
AcDbXrecord
280
     1
270
     1
271
     1
  0
XRECORD
  5
18
102
{ACAD_REACTORS
330
12
102
}
330
12
100
AcDbXrecord
280
     1
270
     1
271
     1
  0
XRECORD
  5
15
102
{ACAD_REACTORS
330
12
102
}
330
12
100
AcDbXrecord
280
     1
270
     1
271
     1
  0
XRECORD
  5
24
102
{ACAD_REACTORS
330
22
102
}
330
22
100
AcDbXrecord
280
     1
270
     1
271
     1
  0
XRECORD
  5
23
102
{ACAD_REACTORS
330
22
102
}
330
22
100
AcDbXrecord
280
     1
270
     1
271
     1
  0
XRECORD
  5
27
102
{ACAD_REACTORS
330
22
102
}
330
22
100
AcDbXrecord
280
     1
270
     1
271
     1
  0
XRECORD
  5
26
102
{ACAD_REACTORS
330
22
102
}
330
22
100
AcDbXrecord
280
     1
270
     1
271
     1
  0
XRECORD
  5
28
102
{ACAD_REACTORS
330
22
102
}
330
22
100
AcDbXrecord
280
     1
270
     1
271
     1
  0
XRECORD
  5
25
102
{ACAD_REACTORS
330
22
102
}
330
22
100
AcDbXrecord
280
     1
270
     1
271
     1
  0
XRECORD
  5
2ED
102
{ACAD_REACTORS
330
2EC
102
}
330
2EC
100
AcDbXrecord
280
     1
102
DISPLAYNAME
  1
Imperial24
102
FLAGS
 90
        0
  0
CELLSTYLEMAP
  5
2E2
102
{ACAD_REACTORS
330
291
102
}
330
291
100
AcDbCellStyleMap
 90
        3
300
CELLSTYLE
  1
TABLEFORMAT_BEGIN
 90
        5
170
     1
 91
        0
 92
    32768
 62
   257
 93
        1
300
CONTENTFORMAT
  1
CONTENTFORMAT_BEGIN
 90
        0
 91
        0
 92
      512
 93
        0
300

 40
0.0
140
1.0
 94
        5
 62
     0
340
55
144
0.25
309
CONTENTFORMAT_END
171
     0
 94
        0
309
TABLEFORMAT_END
  1
CELLSTYLE_BEGIN
 90
        1
 91
        1
300
_TITLE
309
CELLSTYLE_END
300
CELLSTYLE
  1
TABLEFORMAT_BEGIN
 90
        5
170
     1
 91
        0
 92
        0
 62
   257
 93
        1
300
CONTENTFORMAT
  1
CONTENTFORMAT_BEGIN
 90
        0
 91
        0
 92
      512
 93
        0
300

 40
0.0
140
1.0
 94
        5
 62
     0
340
55
144
0.18
309
CONTENTFORMAT_END
171
     0
 94
        0
309
TABLEFORMAT_END
  1
CELLSTYLE_BEGIN
 90
        2
 91
        1
300
_HEADER
309
CELLSTYLE_END
300
CELLSTYLE
  1
TABLEFORMAT_BEGIN
 90
        5
170
     1
 91
        0
 92
        0
 62
   257
 93
        1
300
CONTENTFORMAT
  1
CONTENTFORMAT_BEGIN
 90
        0
 91
        0
 92
      512
 93
        0
300

 40
0.0
140
1.0
 94
        2
 62
     0
340
55
144
0.18
309
CONTENTFORMAT_END
171
     0
 94
        0
309
TABLEFORMAT_END
  1
CELLSTYLE_BEGIN
 90
        3
 91
        2
300
_DATA
309
CELLSTYLE_END
  0
ENDSEC
  0
SECTION
  2
ACDSDATA
 70
     2
 71
     8
  0
ACDSSCHEMA
 90
        0
  1
AcDb_Thumbnail_Schema
  2
AcDbDs::ID
280
    10
 91
        8
  2
Thumbnail_Data
280
    15
 91
        0
101
ACDSRECORD
 95
        0
 90
        1
  2
AcDbDs::TreatedAsObjectData
280
     1
291
     1
101
ACDSRECORD
 95
        0
 90
        2
  2
AcDbDs::Legacy
280
     1
291
     1
101
ACDSRECORD
  1
AcDbDs::ID
 90
        3
  2
AcDs:Indexable
280
     1
291
     1
101
ACDSRECORD
  1
AcDbDs::ID
 90
        4
  2
AcDbDs::HandleAttribute
280
     7
282
     1
  0
ACDSSCHEMA
 90
        1
  1
AcDbDs::TreatedAsObjectDataSchema
  2
AcDbDs::TreatedAsObjectData
280
     1
 91
        0
  0
ACDSSCHEMA
 90
        2
  1
AcDbDs::LegacySchema
  2
AcDbDs::Legacy
280
     1
 91
        0
  0
ACDSSCHEMA
 90
        3
  1
AcDbDs::IndexedPropertySchema
  2
AcDs:Indexable
280
     1
 91
        0
  0
ACDSSCHEMA
 90
        4
  1
AcDbDs::HandleAttributeSchema
  2
AcDbDs::HandleAttribute
280
     7
 91
        1
284
     1
  0
ACDSRECORD
 90
        0
  2
AcDbDs::ID
280
    10
320
73
  2
Thumbnail_Data
280
    15
 94
      889
310
89504E470D0A1A0A0000000D49484452000001000000007508030000009634CF9200000300504C5445212830FFFFFF2128300000000000000000000000000000000000000000000000000000330000660000990000CC0000FF0033000033330033660033990033CC0033FF0066000066330066660066990066CC0066FF0099
310
000099330099660099990099CC0099FF00CC0000CC3300CC6600CC9900CCCC00CCFF00FF0000FF3300FF6600FF9900FFCC00FFFF3300003300333300663300993300CC3300FF3333003333333333663333993333CC3333FF3366003366333366663366993366CC3366FF3399003399333399663399993399CC3399FF33CC00
310
33CC3333CC6633CC9933CCCC33CCFF33FF0033FF3333FF6633FF9933FFCC33FFFF6600006600336600666600996600CC6600FF6633006633336633666633996633CC6633FF6666006666336666666666996666CC6666FF6699006699336699666699996699CC6699FF66CC0066CC3366CC6666CC9966CCCC66CCFF66FF0066
310
FF3366FF6666FF9966FFCC66FFFF9900009900339900669900999900CC9900FF9933009933339933669933999933CC9933FF9966009966339966669966999966CC9966FF9999009999339999669999999999CC9999FF99CC0099CC3399CC6699CC9999CCCC99CCFF99FF0099FF3399FF6699FF9999FFCC99FFFFCC0000CC00
310
33CC0066CC0099CC00CCCC00FFCC3300CC3333CC3366CC3399CC33CCCC33FFCC6600CC6633CC6666CC6699CC66CCCC66FFCC9900CC9933CC9966CC9999CC99CCCC99FFCCCC00CCCC33CCCC66CCCC99CCCCCCCCCCFFCCFF00CCFF33CCFF66CCFF99CCFFCCCCFFFFFF0000FF0033FF0066FF0099FF00CCFF00FFFF3300FF3333
310
FF3366FF3399FF33CCFF33FFFF6600FF6633FF6666FF6699FF66CCFF66FFFF9900FF9933FF9966FF9999FF99CCFF99FFFFCC00FFCC33FFCC66FFCC99FFCCCCFFCCFFFFFF00FFFF33FFFF66FFFF99FFFFCCFFFFFF0000000D0D0D1A1A1A2828283535354343435050505D5D5D6B6B6B787878868686939393A1A1A1AEAEAEBB
310
BBBBC9C9C9D6D6D6E4E4E4F1F1F1FFFFFF0000000000000000000000000000000000000000000000000000000000002E4550F1000000344944415478DAEDC13101000000C2A0F54F6D0D0FA000000000000000000000000000000000000000000000000000000000008E0C757500019AC925960000000049454E44AE426082
  0
ENDSEC
  0
EOF
