  0
SECTION
  2
HEADER
  9
$ACADVER
  1
AC1027
  9
$ACADMAINTVER
 70
   125
  9
$DWGCODEPAGE
  3
ANSI_1252
  9
$REQUIREDVERSIONS
160
                 0
  9
$INSBASE
 10
0.0
 20
0.0
 30
0.0
  9
$EXTMIN
 10
-13.31559891524855
 20
-5.354744115978862
 30
-0.0000013783481583
  9
$EXTMAX
 10
13.31592816121723
 20
23.03268031400944
 30
0.0
  9
$LIMMIN
 10
0.0
 20
0.0
  9
$LIMMAX
 10
12.0
 20
9.0
  9
$ORTHOMODE
 70
     0
  9
$REGENMODE
 70
     1
  9
$FILLMODE
 70
     1
  9
$QTEXTMODE
 70
     0
  9
$MIRRTEXT
 70
     0
  9
$LTSCALE
 40
1.0
  9
$ATTMODE
 70
     1
  9
$TEXTSIZE
 40
0.2
  9
$TRACEWID
 40
0.05
  9
$TEXTSTYLE
  7
Standard
  9
$CLAYER
  8
0
  9
$CELTYPE
  6
ByLayer
  9
$CECOLOR
 62
   256
  9
$CELTSCALE
 40
1.0
  9
$DISPSILH
 70
     0
  9
$DIMSCALE
 40
1.0
  9
$DIMASZ
 40
0.18
  9
$DIMEXO
 40
0.0625
  9
$DIMDLI
 40
0.38
  9
$DIMRND
 40
0.0
  9
$DIMDLE
 40
0.0
  9
$DIMEXE
 40
0.18
  9
$DIMTP
 40
0.0
  9
$DIMTM
 40
0.0
  9
$DIMTXT
 40
0.18
  9
$DIMCEN
 40
0.09
  9
$DIMTSZ
 40
0.0
  9
$DIMTOL
 70
     0
  9
$DIMLIM
 70
     0
  9
$DIMTIH
 70
     1
  9
$DIMTOH
 70
     1
  9
$DIMSE1
 70
     0
  9
$DIMSE2
 70
     0
  9
$DIMTAD
 70
     0
  9
$DIMZIN
 70
     0
  9
$DIMBLK
  1

  9
$DIMASO
 70
     1
  9
$DIMSHO
 70
     1
  9
$DIMPOST
  1

  9
$DIMAPOST
  1

  9
$DIMALT
 70
     0
  9
$DIMALTD
 70
     2
  9
$DIMALTF
 40
25.4
  9
$DIMLFAC
 40
1.0
  9
$DIMTOFL
 70
     0
  9
$DIMTVP
 40
0.0
  9
$DIMTIX
 70
     0
  9
$DIMSOXD
 70
     0
  9
$DIMSAH
 70
     0
  9
$DIMBLK1
  1

  9
$DIMBLK2
  1

  9
$DIMSTYLE
  2
Standard
  9
$DIMCLRD
 70
     0
  9
$DIMCLRE
 70
     0
  9
$DIMCLRT
 70
     0
  9
$DIMTFAC
 40
1.0
  9
$DIMGAP
 40
0.09
  9
$DIMJUST
 70
     0
  9
$DIMSD1
 70
     0
  9
$DIMSD2
 70
     0
  9
$DIMTOLJ
 70
     1
  9
$DIMTZIN
 70
     0
  9
$DIMALTZ
 70
     0
  9
$DIMALTTZ
 70
     0
  9
$DIMUPT
 70
     0
  9
$DIMDEC
 70
     4
  9
$DIMTDEC
 70
     4
  9
$DIMALTU
 70
     2
  9
$DIMALTTD
 70
     2
  9
$DIMTXSTY
  7
Standard
  9
$DIMAUNIT
 70
     0
  9
$DIMADEC
 70
     0
  9
$DIMALTRND
 40
0.0
  9
$DIMAZIN
 70
     0
  9
$DIMDSEP
 70
    46
  9
$DIMATFIT
 70
     3
  9
$DIMFRAC
 70
     0
  9
$DIMLDRBLK
  1

  9
$DIMLUNIT
 70
     2
  9
$DIMLWD
 70
    -2
  9
$DIMLWE
 70
    -2
  9
$DIMTMOVE
 70
     0
  9
$DIMFXL
 40
1.0
  9
$DIMFXLON
 70
     0
  9
$DIMJOGANG
 40
0.7853981633974483
  9
$DIMTFILL
 70
     0
  9
$DIMTFILLCLR
 70
     0
  9
$DIMARCSYM
 70
     0
  9
$DIMLTYPE
  6

  9
$DIMLTEX1
  6

  9
$DIMLTEX2
  6

  9
$DIMTXTDIRECTION
 70
     0
  9
$LUNITS
 70
     2
  9
$LUPREC
 70
     4
  9
$SKETCHINC
 40
0.1
  9
$FILLETRAD
 40
0.0
  9
$AUNITS
 70
     0
  9
$AUPREC
 70
     0
  9
$MENU
  1
.
  9
$ELEVATION
 40
0.0
  9
$PELEVATION
 40
0.0
  9
$THICKNESS
 40
0.0
  9
$LIMCHECK
 70
     0
  9
$CHAMFERA
 40
0.0
  9
$CHAMFERB
 40
0.0
  9
$CHAMFERC
 40
0.0
  9
$CHAMFERD
 40
0.0
  9
$SKPOLY
 70
     0
  9
$TDCREATE
 40
2458010.285092593
  9
$TDUCREATE
 40
2458010.451759907
  9
$TDUPDATE
 40
2458010.285092593
  9
$TDUUPDATE
 40
2458010.451761308
  9
$TDINDWG
 40
0.0000129745
  9
$TDUSRTIMER
 40
0.0000129745
  9
$USRTIMER
 70
     1
  9
$ANGBASE
 50
0.0
  9
$ANGDIR
 70
     0
  9
$PDMODE
 70
     0
  9
$PDSIZE
 40
0.0
  9
$PLINEWID
 40
0.0
  9
$SPLFRAME
 70
     0
  9
$SPLINETYPE
 70
     6
  9
$SPLINESEGS
 70
     8
  9
$HANDSEED
  5
2D5
  9
$SURFTAB1
 70
     6
  9
$SURFTAB2
 70
     6
  9
$SURFTYPE
 70
     6
  9
$SURFU
 70
     6
  9
$SURFV
 70
     6
  9
$UCSBASE
  2

  9
$UCSNAME
  2

  9
$UCSORG
 10
0.0
 20
0.0
 30
0.0
  9
$UCSXDIR
 10
1.0
 20
0.0
 30
0.0
  9
$UCSYDIR
 10
0.0
 20
1.0
 30
0.0
  9
$UCSORTHOREF
  2

  9
$UCSORTHOVIEW
 70
     0
  9
$UCSORGTOP
 10
0.0
 20
0.0
 30
0.0
  9
$UCSORGBOTTOM
 10
0.0
 20
0.0
 30
0.0
  9
$UCSORGLEFT
 10
0.0
 20
0.0
 30
0.0
  9
$UCSORGRIGHT
 10
0.0
 20
0.0
 30
0.0
  9
$UCSORGFRONT
 10
0.0
 20
0.0
 30
0.0
  9
$UCSORGBACK
 10
0.0
 20
0.0
 30
0.0
  9
$PUCSBASE
  2

  9
$PUCSNAME
  2

  9
$PUCSORG
 10
0.0
 20
0.0
 30
0.0
  9
$PUCSXDIR
 10
1.0
 20
0.0
 30
0.0
  9
$PUCSYDIR
 10
0.0
 20
1.0
 30
0.0
  9
$PUCSORTHOREF
  2

  9
$PUCSORTHOVIEW
 70
     0
  9
$PUCSORGTOP
 10
0.0
 20
0.0
 30
0.0
  9
$PUCSORGBOTTOM
 10
0.0
 20
0.0
 30
0.0
  9
$PUCSORGLEFT
 10
0.0
 20
0.0
 30
0.0
  9
$PUCSORGRIGHT
 10
0.0
 20
0.0
 30
0.0
  9
$PUCSORGFRONT
 10
0.0
 20
0.0
 30
0.0
  9
$PUCSORGBACK
 10
0.0
 20
0.0
 30
0.0
  9
$USERI1
 70
     0
  9
$USERI2
 70
     0
  9
$USERI3
 70
     0
  9
$USERI4
 70
     0
  9
$USERI5
 70
     0
  9
$USERR1
 40
0.0
  9
$USERR2
 40
0.0
  9
$USERR3
 40
0.0
  9
$USERR4
 40
0.0
  9
$USERR5
 40
0.0
  9
$WORLDVIEW
 70
     1
  9
$SHADEDGE
 70
     3
  9
$SHADEDIF
 70
    70
  9
$TILEMODE
 70
     1
  9
$MAXACTVP
 70
    64
  9
$PINSBASE
 10
0.0
 20
0.0
 30
0.0
  9
$PLIMCHECK
 70
     0
  9
$PEXTMIN
 10
1.000000000000000E+20
 20
1.000000000000000E+20
 30
1.000000000000000E+20
  9
$PEXTMAX
 10
-1.000000000000000E+20
 20
-1.000000000000000E+20
 30
-1.000000000000000E+20
  9
$PLIMMIN
 10
0.0
 20
0.0
  9
$PLIMMAX
 10
12.0
 20
9.0
  9
$UNITMODE
 70
     0
  9
$VISRETAIN
 70
     1
  9
$PLINEGEN
 70
     0
  9
$PSLTSCALE
 70
     1
  9
$TREEDEPTH
 70
  3020
  9
$CMLSTYLE
  2
Standard
  9
$CMLJUST
 70
     0
  9
$CMLSCALE
 40
1.0
  9
$PROXYGRAPHICS
 70
     1
  9
$MEASUREMENT
 70
     0
  9
$CELWEIGHT
370
    -1
  9
$ENDCAPS
280
     0
  9
$JOINSTYLE
280
     0
  9
$LWDISPLAY
290
     0
  9
$INSUNITS
 70
     1
  9
$HYPERLINKBASE
  1

  9
$STYLESHEET
  1

  9
$XEDIT
290
     1
  9
$CEPSNTYPE
380
     0
  9
$PSTYLEMODE
290
     1
  9
$FINGERPRINTGUID
  2
{BEF703A0-5895-400B-BF24-E22479303864}
  9
$VERSIONGUID
  2
{3ECE9C5D-5078-4070-9EF1-3775DE3E4F9F}
  9
$EXTNAMES
290
     1
  9
$PSVPSCALE
 40
0.0
  9
$OLESTARTUP
290
     0
  9
$SORTENTS
280
   127
  9
$INDEXCTL
280
     0
  9
$HIDETEXT
280
     1
  9
$XCLIPFRAME
280
     2
  9
$HALOGAP
280
     0
  9
$OBSCOLOR
 70
   257
  9
$OBSLTYPE
280
     0
  9
$INTERSECTIONDISPLAY
280
     0
  9
$INTERSECTIONCOLOR
 70
   257
  9
$DIMASSOC
280
     2
  9
$PROJECTNAME
  1

  9
$CAMERADISPLAY
290
     0
  9
$LENSLENGTH
 40
50.0
  9
$CAMERAHEIGHT
 40
0.0
  9
$STEPSPERSEC
 40
2.0
  9
$STEPSIZE
 40
6.0
  9
$3DDWFPREC
 40
2.0
  9
$PSOLWIDTH
 40
0.25
  9
$PSOLHEIGHT
 40
4.0
  9
$LOFTANG1
 40
1.570796326794896
  9
$LOFTANG2
 40
1.570796326794896
  9
$LOFTMAG1
 40
0.0
  9
$LOFTMAG2
 40
0.0
  9
$LOFTPARAM
 70
     7
  9
$LOFTNORMALS
280
     1
  9
$LATITUDE
 40
37.795
  9
$LONGITUDE
 40
-122.394
  9
$NORTHDIRECTION
 40
0.0
  9
$TIMEZONE
 70
 -8000
  9
$LIGHTGLYPHDISPLAY
280
     1
  9
$TILEMODELIGHTSYNCH
280
     1
  9
$CMATERIAL
347
11
  9
$SOLIDHIST
280
     0
  9
$SHOWHIST
280
     1
  9
$DWFFRAME
280
     2
  9
$DGNFRAME
280
     0
  9
$REALWORLDSCALE
290
     1
  9
$INTERFERECOLOR
 62
     1
  9
$INTERFEREOBJVS
345
33
  9
$INTERFEREVPVS
346
30
  9
$CSHADOW
280
     0
  9
$SHADOWPLANELOCATION
 40
0.0
  0
ENDSEC
  0
SECTION
  2
CLASSES
  0
CLASS
  1
ACDBDICTIONARYWDFLT
  2
AcDbDictionaryWithDefault
  3
ObjectDBX Classes
 90
        0
 91
        1
280
     0
281
     0
  0
CLASS
  1
MATERIAL
  2
AcDbMaterial
  3
ObjectDBX Classes
 90
     1153
 91
        3
280
     0
281
     0
  0
CLASS
  1
VISUALSTYLE
  2
AcDbVisualStyle
  3
ObjectDBX Classes
 90
     4095
 91
       24
280
     0
281
     0
  0
CLASS
  1
SCALE
  2
AcDbScale
  3
ObjectDBX Classes
 90
     1153
 91
       17
280
     0
281
     0
  0
CLASS
  1
TABLESTYLE
  2
AcDbTableStyle
  3
ObjectDBX Classes
 90
     4095
 91
        1
280
     0
281
     0
  0
CLASS
  1
MLEADERSTYLE
  2
AcDbMLeaderStyle
  3
ACDB_MLEADERSTYLE_CLASS
 90
     4095
 91
        1
280
     0
281
     0
  0
CLASS
  1
ACDBSECTIONVIEWSTYLE
  2
AcDbSectionViewStyle
  3
ObjectDBX Classes
 90
     1025
 91
        1
280
     0
281
     0
  0
CLASS
  1
ACDBDETAILVIEWSTYLE
  2
AcDbDetailViewStyle
  3
ObjectDBX Classes
 90
     1025
 91
        1
280
     0
281
     0
  0
CLASS
  1
DICTIONARYVAR
  2
AcDbDictionaryVar
  3
ObjectDBX Classes
 90
        0
 91
        6
280
     0
281
     0
  0
CLASS
  1
CELLSTYLEMAP
  2
AcDbCellStyleMap
  3
ObjectDBX Classes
 90
     1152
 91
        2
280
     0
281
     0
  0
ENDSEC
  0
SECTION
  2
TABLES
  0
TABLE
  2
VPORT
  5
8
330
0
100
AcDbSymbolTable
 70
     1
1001
ACAD
1000
DbSaveVer
1071
       51
  0
VPORT
  5
57
330
8
100
AcDbSymbolTableRecord
100
AcDbViewportTableRecord
  2
*Active
 70
     0
 10
0.0
 20
0.0
 11
1.0
 21
1.0
 12
1970.212709629992
 22
1055.415094339622
 13
0.0
 23
0.0
 14
1.0
 24
1.0
 15
0.0
 25
0.0
 16
0.0
 26
0.0
 36
1.0
 17
0.0
 27
0.0
 37
0.0
 40
9.0
 41
2.184
 42
50.0
 43
0.0
 44
0.0
 50
0.0
 51
0.0
 71
     0
 72
   100
 73
     1
 74
     1
 75
     0
 76
     0
 77
     0
 78
     0
281
     0
 65
     1
110
0.0
120
0.0
130
0.0
111
1.0
121
0.0
131
0.0
112
0.0
122
1.0
132
0.0
 79
     0
146
0.0
348
2F
 60
     3
 61
     5
292
     1
282
     1
141
0.0
142
0.0
 63
   250
421
  3355443
1001
ACAD_NAV_VCDISPLAY
1070
     3
  0
ENDTAB
  0
TABLE
  2
LTYPE
  5
5
330
0
100
AcDbSymbolTable
 70
     1
  0
LTYPE
  5
5B
330
5
100
AcDbSymbolTableRecord
100
AcDbLinetypeTableRecord
  2
ByBlock
 70
     0
  3

 72
    65
 73
     0
 40
0.0
  0
LTYPE
  5
5C
330
5
100
AcDbSymbolTableRecord
100
AcDbLinetypeTableRecord
  2
ByLayer
 70
     0
  3

 72
    65
 73
     0
 40
0.0
  0
LTYPE
  5
5D
330
5
100
AcDbSymbolTableRecord
100
AcDbLinetypeTableRecord
  2
Continuous
 70
     0
  3
Solid line
 72
    65
 73
     0
 40
0.0
  0
ENDTAB
  0
TABLE
  2
LAYER
  5
2
102
{ACAD_XDICTIONARY
360
2C0
102
}
330
0
100
AcDbSymbolTable
 70
     3
  0
LAYER
  5
54
330
2
100
AcDbSymbolTableRecord
100
AcDbLayerTableRecord
  2
0
 70
     0
 62
     7
  6
Continuous
370
    -3
390
F
347
21
348
0
  0
LAYER
  5
79
330
2
100
AcDbSymbolTableRecord
100
AcDbLayerTableRecord
  2
A-FURN-P-SEAT-T
 70
     0
 62
     2
  6
Continuous
370
    -3
390
F
347
21
348
0
  0
LAYER
  5
7C
330
2
100
AcDbSymbolTableRecord
100
AcDbLayerTableRecord
  2
A-FURN-P-SEAT
 70
     0
 62
     2
  6
Continuous
370
    -3
390
F
347
21
348
0
  0
ENDTAB
  0
TABLE
  2
STYLE
  5
3
330
0
100
AcDbSymbolTable
 70
     3
  0
STYLE
  5
55
330
3
100
AcDbSymbolTableRecord
100
AcDbTextStyleTableRecord
  2
Standard
 70
     0
 40
0.0
 41
1.0
 50
0.0
 71
     0
 42
0.2
  3
txt
  4

  0
STYLE
  5
5A
330
3
100
AcDbSymbolTableRecord
100
AcDbTextStyleTableRecord
  2
Annotative
 70
     0
 40
0.0
 41
1.0
 50
0.0
 71
     0
 42
0.2
  3
txt
  4

1001
AcadAnnotative
1000
AnnotativeData
1002
{
1070
     1
1070
     1
1002
}
  0
STYLE
  5
7A
330
3
100
AcDbSymbolTableRecord
100
AcDbTextStyleTableRecord
  2
MONOTXT
 70
     0
 40
0.0
 41
1.0
 50
0.0
 71
     0
 42
0.2
  3
MONOTXT.SHX
  4

  0
ENDTAB
  0
TABLE
  2
VIEW
  5
6
330
0
100
AcDbSymbolTable
 70
     1
  0
ENDTAB
  0
TABLE
  2
UCS
  5
7
330
0
100
AcDbSymbolTable
 70
     0
  0
ENDTAB
  0
TABLE
  2
APPID
  5
9
330
0
100
AcDbSymbolTable
 70
     4
  0
APPID
  5
56
330
9
100
AcDbSymbolTableRecord
100
AcDbRegAppTableRecord
  2
ACAD
 70
     0
  0
APPID
  5
5E
330
9
100
AcDbSymbolTableRecord
100
AcDbRegAppTableRecord
  2
AcadAnnotative
 70
     0
  0
APPID
  5
2A9
330
9
100
AcDbSymbolTableRecord
100
AcDbRegAppTableRecord
  2
ACAD_MLEADERVER
 70
     0
  0
APPID
  5
2C6
330
9
100
AcDbSymbolTableRecord
100
AcDbRegAppTableRecord
  2
ACAD_NAV_VCDISPLAY
 70
     0
  0
ENDTAB
  0
TABLE
  2
DIMSTYLE
  5
A
330
0
100
AcDbSymbolTable
 70
     2
100
AcDbDimStyleTable
 71
     0
  0
DIMSTYLE
105
58
330
A
100
AcDbSymbolTableRecord
100
AcDbDimStyleTableRecord
  2
Standard
 70
     0
340
55
  0
DIMSTYLE
105
59
330
A
100
AcDbSymbolTableRecord
100
AcDbDimStyleTableRecord
  2
Annotative
 70
     0
340
55
1001
AcadAnnotative
1000
AnnotativeData
1002
{
1070
     1
1070
     1
1002
}
  0
ENDTAB
  0
TABLE
  2
BLOCK_RECORD
  5
1
330
0
100
AcDbSymbolTable
 70
     1
  0
BLOCK_RECORD
  5
70
102
{ACAD_XDICTIONARY
360
239
102
}
330
1
100
AcDbSymbolTableRecord
100
AcDbBlockTableRecord
  2
*Model_Space
340
73
 70
     0
280
     1
281
     0
  0
BLOCK_RECORD
  5
6C
330
1
100
AcDbSymbolTableRecord
100
AcDbBlockTableRecord
  2
*Paper_Space
340
6F
 70
     0
280
     1
281
     0
  0
BLOCK_RECORD
  5
74
330
1
100
AcDbSymbolTableRecord
100
AcDbBlockTableRecord
  2
*Paper_Space0
340
77
 70
     0
280
     1
281
     0
  0
ENDTAB
  0
ENDSEC
  0
SECTION
  2
BLOCKS
  0
BLOCK
  5
71
330
70
100
AcDbEntity
  8
0
100
AcDbBlockBegin
  2
*Model_Space
 70
     0
 10
0.0
 20
0.0
 30
0.0
  3
*Model_Space
  1

  0
ENDBLK
  5
72
330
70
100
AcDbEntity
  8
0
100
AcDbBlockEnd
  0
BLOCK
  5
6D
330
6C
100
AcDbEntity
 67
     1
  8
0
100
AcDbBlockBegin
  2
*Paper_Space
 70
     0
 10
0.0
 20
0.0
 30
0.0
  3
*Paper_Space
  1

  0
ENDBLK
  5
6E
330
6C
100
AcDbEntity
 67
     1
  8
0
100
AcDbBlockEnd
  0
BLOCK
  5
75
330
74
100
AcDbEntity
 67
     1
  8
0
100
AcDbBlockBegin
  2
*Paper_Space0
 70
     0
 10
0.0
 20
0.0
 30
0.0
  3
*Paper_Space0
  1

  0
ENDBLK
  5
76
330
74
100
AcDbEntity
 67
     1
  8
0
100
AcDbBlockEnd
  0
ENDSEC
  0
SECTION
  2
ENTITIES
  0
TEXT
  5
78
330
70
100
AcDbEntity
  8
A-FURN-P-SEAT-T
100
AcDbText
 10
-0.8331687524592261
 20
-5.35474411597886
 30
-0.0000013783481583
 40
2.5
  1
Q
  7
MONOTXT
 72
     1
 11
0.000164580874106
 21
-2.85474411597886
 31
-0.0000013783481583
100
AcDbText
 73
     3
  0
LWPOLYLINE
  5
7B
330
70
100
AcDbEntity
  8
A-FURN-P-SEAT
100
AcDbPolyline
 90
        2
 70
     0
 10
-0.5195105363406541
 20
-0.55198566160675
 40
0.0
 41
0.0
 10
-0.8070319038499107
 20
-0.7608845811770948
 40
0.1770592414725435
 41
0.1770592414725435
  0
LWPOLYLINE
  5
7D
330
70
100
AcDbEntity
  8
A-FURN-P-SEAT
100
AcDbPolyline
 90
        2
 70
     0
 10
-0.8070319038499107
 20
-1.93389125531894
 40
0.0
 41
0.0
 10
-0.3081234032498941
 20
-2.296371538001835
 40
0.1770592414725435
 41
0.1770592414725435
  0
LWPOLYLINE
  5
7E
330
70
100
AcDbEntity
  8
A-FURN-P-SEAT
100
AcDbPolyline
 90
        2
 70
     0
 10
-0.7827650495098979
 20
-1.91625987311238
 40
0.0
 41
0.0
 10
-0.2988564766697053
 20
-2.267841451245658
 40
0.1770592414725435
 41
0.1770592414725435
  0
LWPOLYLINE
  5
7F
330
70
100
AcDbEntity
  8
A-FURN-P-SEAT
100
AcDbPolyline
 90
        2
 70
     0
 10
-0.3081234032498941
 20
-2.296371538001835
 40
0.0
 41
0.0
 10
0.3085634883037329
 20
-2.296371538001835
 40
0.1770592414725435
 41
0.1770592414725435
  0
LWPOLYLINE
  5
80
330
70
100
AcDbEntity
  8
A-FURN-P-SEAT
100
AcDbPolyline
 90
        2
 70
     0
 10
-0.2988564766697053
 20
-2.267841451245658
 40
0.0
 41
0.0
 10
0.2992912499462861
 20
-2.267841451245658
 40
0.1770592414725435
 41
0.1770592414725435
  0
LWPOLYLINE
  5
81
330
70
100
AcDbEntity
  8
A-FURN-P-SEAT
100
AcDbPolyline
 90
        2
 70
     0
 10
-0.2094840539440241
 20
-1.992785762573021
 40
0.0
 41
0.0
 10
0.209923961938614
 20
-1.992785762573021
 40
0.1770592414725435
 41
0.1770592414725435
  0
LWPOLYLINE
  5
82
330
70
100
AcDbEntity
  8
A-FURN-P-SEAT
100
AcDbPolyline
 90
        2
 70
     0
 10
0.3085634883037329
 20
-2.296371538001835
 40
0.0
 41
0.0
 10
0.8074719889037353
 20
-1.93389125531894
 40
0.1770592414725435
 41
0.1770592414725435
  0
LWPOLYLINE
  5
83
330
70
100
AcDbEntity
  8
A-FURN-P-SEAT
100
AcDbPolyline
 90
        2
 70
     0
 10
0.8074719889037353
 20
-0.7608845811770948
 40
0.0
 41
0.0
 10
0.5199451325579929
 20
-0.5519803498294778
 40
0.1770592414725435
 41
0.1770592414725435
  0
LWPOLYLINE
  5
84
330
70
100
AcDbEntity
  8
A-FURN-P-SEAT
100
AcDbPolyline
 90
        2
 70
     0
 10
0.9980397881451921
 20
-1.347388006777634
 40
0.0
 41
0.0
 10
0.8074719889037353
 20
-0.7608845811770948
 40
0.1770592414725435
 41
0.1770592414725435
  0
LWPOLYLINE
  5
85
330
70
100
AcDbEntity
  8
A-FURN-P-SEAT
100
AcDbPolyline
 90
        2
 70
     0
 10
0.9980397881451921
 20
-1.347388006777634
 40
0.0
 41
0.0
 10
0.8074719889037353
 20
-1.93389125531894
 40
0.1770592414725435
 41
0.1770592414725435
  0
LWPOLYLINE
  5
86
330
70
100
AcDbEntity
  8
A-FURN-P-SEAT
100
AcDbPolyline
 90
        2
 70
     0
 10
0.5152010072419771
 20
-0.8445105462207607
 40
0.0
 41
0.0
 10
0.5105269973855897
 20
-1.133015300757165
 40
0.1770592414725435
 41
0.1770592414725435
  0
LWPOLYLINE
  5
87
330
70
100
AcDbEntity
  8
A-FURN-P-SEAT
100
AcDbPolyline
 90
        2
 70
     0
 10
0.5385491011779991
 20
-1.319935856683514
 40
0.0
 41
0.0
 10
0.4914313352520239
 20
-1.543858961129785
 40
0.1770592414725435
 41
0.1770592414725435
  0
LWPOLYLINE
  5
88
330
70
100
AcDbEntity
  8
A-FURN-P-SEAT
100
AcDbPolyline
 90
        2
 70
     0
 10
0.5385491011779991
 20
-1.319935856683514
 40
0.0
 41
0.0
 10
0.5106135793546756
 20
-1.134920104076968
 40
0.1770592414725435
 41
0.1770592414725435
  0
LWPOLYLINE
  5
89
330
70
100
AcDbEntity
  8
A-FURN-P-SEAT
100
AcDbPolyline
 90
        2
 70
     0
 10
0.4914313352520239
 20
-1.543858961129785
 40
0.0
 41
0.0
 10
0.2724361436144278
 20
-1.78507030697267
 40
0.1770592414725435
 41
0.1770592414725435
  0
LWPOLYLINE
  5
8A
330
70
100
AcDbEntity
  8
A-FURN-P-SEAT
100
AcDbPolyline
 90
        2
 70
     0
 10
0.4772690747635977
 20
-1.477575240551345
 40
0.0
 41
0.0
 10
0.4914205346382872
 20
-1.340541834146847
 40
0.1770592414725435
 41
0.1770592414725435
  0
LWPOLYLINE
  5
8B
330
70
100
AcDbEntity
  8
A-FURN-P-SEAT
100
AcDbPolyline
 90
        2
 70
     0
 10
0.5106135793546756
 20
-1.134920104076968
 40
0.0
 41
0.0
 10
0.4914205346382872
 20
-1.340541834146847
 40
0.1770592414725435
 41
0.1770592414725435
  0
LWPOLYLINE
  5
8C
330
70
100
AcDbEntity
  8
A-FURN-P-SEAT
100
AcDbPolyline
 90
        2
 70
     0
 10
0.5106135793546756
 20
-1.134920104076968
 40
0.0
 41
0.0
 10
0.5105269973855897
 20
-1.133015300757165
 40
0.1770592414725435
 41
0.1770592414725435
  0
LWPOLYLINE
  5
8D
330
70
100
AcDbEntity
  8
A-FURN-P-SEAT
100
AcDbPolyline
 90
        2
 70
     0
 10
0.209923961938614
 20
-1.992785762573021
 40
0.0
 41
0.0
 10
0.5492263046165107
 20
-1.746265649493068
 40
0.1770592414725435
 41
0.1770592414725435
  0
LWPOLYLINE
  5
8E
330
70
100
AcDbEntity
  8
A-FURN-P-SEAT
100
AcDbPolyline
 90
        2
 70
     0
 10
0.2992912499462861
 20
-2.267841451245658
 40
0.0
 41
0.0
 10
0.7832051345637226
 20
-1.91625987311238
 40
0.1770592414725435
 41
0.1770592414725435
  0
LWPOLYLINE
  5
8F
330
70
100
AcDbEntity
  8
A-FURN-P-SEAT
100
AcDbPolyline
 90
        2
 70
     0
 10
0.3390116578227875
 20
-1.711740513879817
 40
0.0
 41
0.0
 10
0.420360109843422
 20
-1.652637962017081
 40
0.1770592414725435
 41
0.1770592414725435
  0
LWPOLYLINE
  5
90
330
70
100
AcDbEntity
  8
A-FURN-P-SEAT
100
AcDbPolyline
 90
        2
 70
     0
 10
0.7832051345637226
 20
-0.7785159633837111
 40
0.0
 41
0.0
 10
0.5193778347483189
 20
-0.586834992691081
 40
0.1770592414725435
 41
0.1770592414725435
  0
LWPOLYLINE
  5
91
330
70
100
AcDbEntity
  8
A-FURN-P-SEAT
100
AcDbPolyline
 90
        2
 70
     0
 10
0.6788327840782174
 20
-1.347388006777634
 40
0.0
 41
0.0
 10
0.5492263046165107
 20
-1.746265649493068
 40
0.1770592414725435
 41
0.1770592414725435
  0
LWPOLYLINE
  5
92
330
70
100
AcDbEntity
  8
A-FURN-P-SEAT
100
AcDbPolyline
 90
        2
 70
     0
 10
0.9680454214620226
 20
-1.347388006777634
 40
0.0
 41
0.0
 10
0.7832051345637226
 20
-0.7785159633837111
 40
0.1770592414725435
 41
0.1770592414725435
  0
LWPOLYLINE
  5
93
330
70
100
AcDbEntity
  8
A-FURN-P-SEAT
100
AcDbPolyline
 90
        2
 70
     0
 10
0.9680454214620226
 20
-1.347388006777634
 40
0.0
 41
0.0
 10
0.7832051345637226
 20
-1.91625987311238
 40
0.1770592414725435
 41
0.1770592414725435
  0
POINT
  5
94
330
70
100
AcDbEntity
  8
A-FURN-P-SEAT
100
AcDbPoint
 10
0.0002227869451588
 20
0.0000005960464478
 30
0.0
  0
LWPOLYLINE
  5
95
330
70
100
AcDbEntity
  8
A-FURN-P-SEAT
100
AcDbPolyline
 90
        2
 70
     0
 10
-9.605954434624216
 20
7.524580668184626
 40
0.0
 41
0.0
 10
-9.092905097703997
 20
4.424638977334041
 40
0.1770592414725435
 41
0.1770592414725435
  0
LWPOLYLINE
  5
96
330
70
100
AcDbEntity
  8
A-FURN-P-SEAT
100
AcDbPolyline
 90
        2
 70
     0
 10
-8.770396647020518
 20
2.922883045424498
 40
0.0
 41
0.0
 10
-9.092905097703997
 20
4.424638977334041
 40
0.1770592414725435
 41
0.1770592414725435
  0
LWPOLYLINE
  5
97
330
70
100
AcDbEntity
  8
A-FURN-P-SEAT
100
AcDbPolyline
 90
        2
 70
     0
 10
-8.249528551056108
 20
1.621950361081758
 40
0.0
 41
0.0
 10
-8.770396647020518
 20
2.922883045424498
 40
0.1770592414725435
 41
0.1770592414725435
  0
LWPOLYLINE
  5
98
330
70
100
AcDbEntity
  8
A-FURN-P-SEAT
100
AcDbPolyline
 90
        2
 70
     0
 10
-7.144551047495099
 20
0.6491727236922884
 40
0.0
 41
0.0
 10
-8.249528551056108
 20
1.621950361081758
 40
0.1770592414725435
 41
0.1770592414725435
  0
LWPOLYLINE
  5
99
330
70
100
AcDbEntity
  8
A-FURN-P-SEAT
100
AcDbPolyline
 90
        2
 70
     0
 10
-6.188194415337513
 20
0.3444820985966999
 40
0.0
 41
0.0
 10
-7.144551047495099
 20
0.6491727236922884
 40
0.1770592414725435
 41
0.1770592414725435
  0
LWPOLYLINE
  5
9A
330
70
100
AcDbEntity
  8
A-FURN-P-SEAT
100
AcDbPolyline
 90
        2
 70
     0
 10
-4.417623601839537
 20
0.1601552834986251
 40
0.0
 41
0.0
 10
-6.188194415337513
 20
0.3444820985966999
 40
0.1770592414725435
 41
0.1770592414725435
  0
LWPOLYLINE
  5
9B
330
70
100
AcDbEntity
  8
A-FURN-P-SEAT
100
AcDbPolyline
 90
        2
 70
     0
 10
0.0002227869451588
 20
0.0000005960464478
 40
0.0
 41
0.0
 10
-4.417623601839537
 20
0.1601552834986251
 40
0.1770592414725435
 41
0.1770592414725435
  0
LWPOLYLINE
  5
9C
330
70
100
AcDbEntity
  8
A-FURN-P-SEAT
100
AcDbPolyline
 90
        2
 70
     0
 10
-0.9676053364081838
 20
-1.347388006777634
 40
0.0
 41
0.0
 10
-0.7827650495098979
 20
-1.91625987311238
 40
0.1770592414725435
 41
0.1770592414725435
  0
LWPOLYLINE
  5
9D
330
70
100
AcDbEntity
  8
A-FURN-P-SEAT
100
AcDbPolyline
 90
        2
 70
     0
 10
-0.6783926990243785
 20
-1.347388006777634
 40
0.0
 41
0.0
 10
-0.5487917083991718
 20
-1.746265649493068
 40
0.1770592414725435
 41
0.1770592414725435
  0
LWPOLYLINE
  5
9E
330
70
100
AcDbEntity
  8
A-FURN-P-SEAT
100
AcDbPolyline
 90
        2
 70
     0
 10
-0.5487917083991718
 20
-1.746265649493068
 40
0.0
 41
0.0
 10
-0.2094840539440241
 20
-1.992785762573021
 40
0.1770592414725435
 41
0.1770592414725435
  0
LWPOLYLINE
  5
9F
330
70
100
AcDbEntity
  8
A-FURN-P-SEAT
100
AcDbPolyline
 90
        2
 70
     0
 10
-0.5381145049606531
 20
-1.319935856683514
 40
0.0
 41
0.0
 10
-0.4909912501981851
 20
-1.543858961129785
 40
0.1770592414725435
 41
0.1770592414725435
  0
LWPOLYLINE
  5
A0
330
70
100
AcDbEntity
  8
A-FURN-P-SEAT
100
AcDbPolyline
 90
        2
 70
     0
 10
-0.5381145049606531
 20
-1.319935856683514
 40
0.0
 41
0.0
 10
-0.5101734943008438
 20
-1.134920104076968
 40
0.1770592414725435
 41
0.1770592414725435
  0
LWPOLYLINE
  5
A1
330
70
100
AcDbEntity
  8
A-FURN-P-SEAT
100
AcDbPolyline
 90
        2
 70
     0
 10
-0.4909804495844626
 20
-1.340541834146847
 40
0.0
 41
0.0
 10
-0.5101734943008438
 20
-1.134920104076968
 40
0.1770592414725435
 41
0.1770592414725435
  0
LWPOLYLINE
  5
A2
330
70
100
AcDbEntity
  8
A-FURN-P-SEAT
100
AcDbPolyline
 90
        2
 70
     0
 10
-0.4909912501981851
 20
-1.543858961129785
 40
0.0
 41
0.0
 10
-0.2720015473970747
 20
-1.78507030697267
 40
0.1770592414725435
 41
0.1770592414725435
  0
LWPOLYLINE
  5
A3
330
70
100
AcDbEntity
  8
A-FURN-P-SEAT
100
AcDbPolyline
 90
        2
 70
     0
 10
-0.4909804495844626
 20
-1.340541834146847
 40
0.0
 41
0.0
 10
-0.4768343014870098
 20
-1.477575240551345
 40
0.1770592414725435
 41
0.1770592414725435
  0
LWPOLYLINE
  5
A4
330
70
100
AcDbEntity
  8
A-FURN-P-SEAT
100
AcDbPolyline
 90
        2
 70
     0
 10
-0.4353523312170964
 20
-1.605144476380701
 40
0.0
 41
0.0
 10
-0.4199202018488251
 20
-1.652637962017081
 40
0.1770592414725435
 41
0.1770592414725435
  0
LWPOLYLINE
  5
A5
330
70
100
AcDbEntity
  8
A-FURN-P-SEAT
100
AcDbPolyline
 90
        2
 70
     0
 10
-0.4199202018488251
 20
-1.652637962017081
 40
0.0
 41
0.0
 10
-0.3385823733826996
 20
-1.711732369154731
 40
0.1770592414725435
 41
0.1770592414725435
  0
LWPOLYLINE
  5
A6
330
70
100
AcDbEntity
  8
A-FURN-P-SEAT
100
AcDbPolyline
 90
        2
 70
     0
 10
-0.2720015473970747
 20
-1.78507030697267
 40
0.0
 41
0.0
 10
0.0002172981086659
 20
-1.858924195420229
 40
0.1770592414725435
 41
0.1770592414725435
  0
LWPOLYLINE
  5
A7
330
70
100
AcDbEntity
  8
A-FURN-P-SEAT
100
AcDbPolyline
 90
        2
 70
     0
 10
-0.2171677167869674
 20
-1.799948595033583
 40
0.0
 41
0.0
 10
-0.1602587518667917
 20
-1.841292813213669
 40
0.1770592414725435
 41
0.1770592414725435
  0
LWPOLYLINE
  5
A8
330
70
100
AcDbEntity
  8
A-FURN-P-SEAT
100
AcDbPolyline
 90
        2
 70
     0
 10
-0.1602587518667917
 20
-1.841292813213669
 40
0.0
 41
0.0
 10
-0.0647696405851974
 20
-1.841292813213669
 40
0.1770592414725435
 41
0.1770592414725435
  0
LWPOLYLINE
  5
A9
330
70
100
AcDbEntity
  8
A-FURN-P-SEAT
100
AcDbPolyline
 90
        2
 70
     0
 10
0.2724361436144278
 20
-1.78507030697267
 40
0.0
 41
0.0
 10
0.0002172981086659
 20
-1.858924195420229
 40
0.1770592414725435
 41
0.1770592414725435
  0
LWPOLYLINE
  5
AA
330
70
100
AcDbEntity
  8
A-FURN-P-SEAT
100
AcDbPolyline
 90
        2
 70
     0
 10
0.0002172981086659
 20
-1.092894916054206
 40
0.0
 41
0.0
 10
0.1266248482546857
 20
-1.12676634894791
 40
0.1770592414725435
 41
0.1770592414725435
  0
LWPOLYLINE
  5
AB
330
70
100
AcDbEntity
  8
A-FURN-P-SEAT
100
AcDbPolyline
 90
        2
 70
     0
 10
0.0652042368025505
 20
-1.841292813213669
 40
0.0
 41
0.0
 10
0.1606988369206235
 20
-1.841292813213669
 40
0.1770592414725435
 41
0.1770592414725435
  0
LWPOLYLINE
  5
AC
330
70
100
AcDbEntity
  8
A-FURN-P-SEAT
100
AcDbPolyline
 90
        2
 70
     0
 10
0.1606988369206235
 20
-1.841292813213669
 40
0.0
 41
0.0
 10
0.2176076247815573
 20
-1.799945939145004
 40
0.1770592414725435
 41
0.1770592414725435
  0
LWPOLYLINE
  5
AD
330
70
100
AcDbEntity
  8
A-FURN-P-SEAT
100
AcDbPolyline
 90
        2
 70
     0
 10
0.4357924162709282
 20
-1.605141820492065
 40
0.0
 41
0.0
 10
0.420360109843422
 20
-1.652637962017081
 40
0.1770592414725435
 41
0.1770592414725435
  0
LWPOLYLINE
  5
AE
330
70
100
AcDbEntity
  8
A-FURN-P-SEAT
100
AcDbPolyline
 90
        2
 70
     0
 10
4.418063686893361
 20
0.1601552834986251
 40
0.0
 41
0.0
 10
6.188634500391337
 20
0.3444820985966999
 40
0.1770592414725435
 41
0.1770592414725435
  0
LWPOLYLINE
  5
AF
330
70
100
AcDbEntity
  8
A-FURN-P-SEAT
100
AcDbPolyline
 90
        2
 70
     0
 10
4.418063686893361
 20
0.1601552834986251
 40
0.0
 41
0.0
 10
0.0002227869451588
 20
0.0000005960464478
 40
0.1770592414725435
 41
0.1770592414725435
  0
LWPOLYLINE
  5
B0
330
70
100
AcDbEntity
  8
A-FURN-P-SEAT
100
AcDbPolyline
 90
        2
 70
     0
 10
6.188634500391337
 20
0.3444820985966999
 40
0.0
 41
0.0
 10
7.144996444326167
 20
0.649167411915073
 40
0.1770592414725435
 41
0.1770592414725435
  0
LWPOLYLINE
  5
B1
330
70
100
AcDbEntity
  8
A-FURN-P-SEAT
100
AcDbPolyline
 90
        2
 70
     0
 10
7.144996444326167
 20
0.649167411915073
 40
0.0
 41
0.0
 10
8.249974124946419
 20
1.621944872245251
 40
0.1770592414725435
 41
0.1770592414725435
  0
LWPOLYLINE
  5
B2
330
70
100
AcDbEntity
  8
A-FURN-P-SEAT
100
AcDbPolyline
 90
        2
 70
     0
 10
8.249974124946419
 20
1.621944872245251
 40
0.0
 41
0.0
 10
8.770842043851587
 20
2.922877556588048
 40
0.1770592414725435
 41
0.1770592414725435
  0
LWPOLYLINE
  5
B3
330
70
100
AcDbEntity
  8
A-FURN-P-SEAT
100
AcDbPolyline
 90
        2
 70
     0
 10
2.757668694638645
 20
17.57396780240856
 40
0.0
 41
0.0
 10
5.112651687036141
 20
16.93529440248585
 40
0.1770592414725435
 41
0.1770592414725435
  0
LWPOLYLINE
  5
B4
330
70
100
AcDbEntity
  8
A-FURN-P-SEAT
100
AcDbPolyline
 90
        2
 70
     0
 10
-0.7827650495098979
 20
-0.7785159633837111
 40
0.0
 41
0.0
 10
-0.9676053364081838
 20
-1.347388006777634
 40
0.1770592414725435
 41
0.1770592414725435
  0
LWPOLYLINE
  5
B5
330
70
100
AcDbEntity
  8
A-FURN-P-SEAT
100
AcDbPolyline
 90
        2
 70
     0
 10
-0.5487917083991718
 20
-0.9485101870029666
 40
0.0
 41
0.0
 10
-0.6783926990243785
 20
-1.347388006777634
 40
0.1770592414725435
 41
0.1770592414725435
  0
LWPOLYLINE
  5
B6
330
70
100
AcDbEntity
  8
A-FURN-P-SEAT
100
AcDbPolyline
 90
        2
 70
     0
 10
-0.5134965421448002
 20
-0.92286563470509
 40
0.0
 41
0.0
 10
-0.5487917083991718
 20
-0.9485101870029666
 40
0.1770592414725435
 41
0.1770592414725435
  0
LWPOLYLINE
  5
B7
330
70
100
AcDbEntity
  8
A-FURN-P-SEAT
100
AcDbPolyline
 90
        2
 70
     0
 10
-0.5287666623071133
 20
0.019177351312635
 40
0.0
 41
0.0
 10
-0.5147664110246382
 20
-0.8445105462207607
 40
0.1770592414725435
 41
0.1770592414725435
  0
LWPOLYLINE
  5
B8
330
70
100
AcDbEntity
  8
A-FURN-P-SEAT
100
AcDbPolyline
 90
        2
 70
     0
 10
2.757668694638645
 20
17.57396780240856
 40
0.0
 41
0.0
 10
0.0002227869451588
 20
17.81908312746668
 40
0.1770592414725435
 41
0.1770592414725435
  0
LWPOLYLINE
  5
B9
330
70
100
AcDbEntity
  8
A-FURN-P-SEAT
100
AcDbPolyline
 90
        2
 70
     0
 10
2.955995761019146
 20
22.22935934838222
 40
0.0
 41
0.0
 10
0.0002227869451588
 20
22.43652645151167
 40
0.1770592414725435
 41
0.1770592414725435
  0
LWPOLYLINE
  5
BA
330
70
100
AcDbEntity
  8
A-FURN-P-SEAT
100
AcDbPolyline
 90
        2
 70
     0
 10
0.5492263046165107
 20
-0.9485101870029666
 40
0.0
 41
0.0
 10
0.5139311383621461
 20
-0.92286563470509
 40
0.1770592414725435
 41
0.1770592414725435
  0
LWPOLYLINE
  5
BB
330
70
100
AcDbEntity
  8
A-FURN-P-SEAT
100
AcDbPolyline
 90
        2
 70
     0
 10
0.5292012585244521
 20
0.019177351312635
 40
0.0
 41
0.0
 10
0.5152010072419771
 20
-0.8445105462207607
 40
0.1770592414725435
 41
0.1770592414725435
  0
LWPOLYLINE
  5
BC
330
70
100
AcDbEntity
  8
A-FURN-P-SEAT
100
AcDbPolyline
 90
        2
 70
     0
 10
2.955995761019146
 20
22.22935934838222
 40
0.0
 41
0.0
 10
4.573720007256717
 20
21.89052178621318
 40
0.1770592414725435
 41
0.1770592414725435
  0
LWPOLYLINE
  5
BD
330
70
100
AcDbEntity
  8
A-FURN-P-SEAT
100
AcDbPolyline
 90
        2
 70
     0
 10
4.573720007256717
 20
21.89052178621318
 40
0.0
 41
0.0
 10
5.353898090608829
 20
21.58794099903895
 40
0.1770592414725435
 41
0.1770592414725435
  0
LWPOLYLINE
  5
BE
330
70
100
AcDbEntity
  8
A-FURN-P-SEAT
100
AcDbPolyline
 90
        2
 70
     0
 10
5.112651687036141
 20
16.93529440248585
 40
0.0
 41
0.0
 10
6.406716420461407
 20
16.42699485677735
 40
0.1770592414725435
 41
0.1770592414725435
  0
LWPOLYLINE
  5
BF
330
70
100
AcDbEntity
  8
A-FURN-P-SEAT
100
AcDbPolyline
 90
        2
 70
     0
 10
5.353898090608829
 20
21.58794099903895
 40
0.0
 41
0.0
 10
5.903339298725121
 20
21.31381469432477
 40
0.1770592414725435
 41
0.1770592414725435
  0
LWPOLYLINE
  5
C0
330
70
100
AcDbEntity
  8
A-FURN-P-SEAT
100
AcDbPolyline
 90
        2
 70
     0
 10
5.903339298725121
 20
21.31381469432477
 40
0.0
 41
0.0
 10
6.27520814768706
 20
20.99782822080095
 40
0.1770592414725435
 41
0.1770592414725435
  0
LWPOLYLINE
  5
C1
330
70
100
AcDbEntity
  8
A-FURN-P-SEAT
100
AcDbPolyline
 90
        2
 70
     0
 10
6.406716420461407
 20
16.42699485677735
 40
0.0
 41
0.0
 10
7.051857794475125
 20
16.36278609344975
 40
0.1770592414725435
 41
0.1770592414725435
  0
LWPOLYLINE
  5
C2
330
70
100
AcDbEntity
  8
A-FURN-P-SEAT
100
AcDbPolyline
 90
        2
 70
     0
 10
6.569251315296732
 20
20.47332368213517
 40
0.0
 41
0.0
 10
7.182528577037309
 20
18.81386338561617
 40
0.1770592414725435
 41
0.1770592414725435
  0
LWPOLYLINE
  5
C3
330
70
100
AcDbEntity
  8
A-FURN-P-SEAT
100
AcDbPolyline
 90
        2
 70
     0
 10
7.051857794475125
 20
16.36278609344975
 40
0.0
 41
0.0
 10
7.522560403790095
 20
16.43114459421974
 40
0.1770592414725435
 41
0.1770592414725435
  0
LWPOLYLINE
  5
C4
330
70
100
AcDbEntity
  8
A-FURN-P-SEAT
100
AcDbPolyline
 90
        2
 70
     0
 10
7.522560403790095
 20
16.43114459421974
 40
0.0
 41
0.0
 10
7.625630660613808
 20
16.82355709579201
 40
0.1770592414725435
 41
0.1770592414725435
  0
LWPOLYLINE
  5
C5
330
70
100
AcDbEntity
  8
A-FURN-P-SEAT
100
AcDbPolyline
 90
        2
 70
     0
 10
6.569251315296732
 20
20.47332368213517
 40
0.0
 41
0.0
 10
6.471530549335618
 20
20.70822658426363
 40
0.1770592414725435
 41
0.1770592414725435
  0
LWPOLYLINE
  5
C6
330
70
100
AcDbEntity
  8
A-FURN-P-SEAT
100
AcDbPolyline
 90
        2
 70
     0
 10
7.051982090062637
 20
16.36280220584075
 40
0.0
 41
0.0
 10
7.314944809601939
 20
16.04806382291002
 40
0.1770592414725435
 41
0.1770592414725435
  0
LWPOLYLINE
  5
C7
330
70
100
AcDbEntity
  8
A-FURN-P-SEAT
100
AcDbPolyline
 90
        2
 70
     0
 10
7.182528577037309
 20
18.81386338561617
 40
0.0
 41
0.0
 10
7.486249448667379
 20
17.78289097909499
 40
0.1770592414725435
 41
0.1770592414725435
  0
LWPOLYLINE
  5
C8
330
70
100
AcDbEntity
  8
A-FURN-P-SEAT
100
AcDbPolyline
 90
        2
 70
     0
 10
8.420143991333276
 20
14.53050269781044
 40
0.0
 41
0.0
 10
7.314944809601939
 20
16.04806382291002
 40
0.1770592414725435
 41
0.1770592414725435
  0
LWPOLYLINE
  5
C9
330
70
100
AcDbEntity
  8
A-FURN-P-SEAT
100
AcDbPolyline
 90
        2
 70
     0
 10
7.486249448667379
 20
17.78289097909499
 40
0.0
 41
0.0
 10
7.625630660613808
 20
16.82355709579201
 40
0.1770592414725435
 41
0.1770592414725435
  0
LWPOLYLINE
  5
CA
330
70
100
AcDbEntity
  8
A-FURN-P-SEAT
100
AcDbPolyline
 90
        2
 70
     0
 10
8.420143991333276
 20
14.53050269781044
 40
0.0
 41
0.0
 10
9.366871610761847
 20
12.74417555947309
 40
0.1770592414725435
 41
0.1770592414725435
  0
LWPOLYLINE
  5
CB
330
70
100
AcDbEntity
  8
A-FURN-P-SEAT
100
AcDbPolyline
 90
        2
 70
     0
 10
9.093345182757829
 20
4.424633665556768
 40
0.0
 41
0.0
 10
8.770842043851587
 20
2.922877556588048
 40
0.1770592414725435
 41
0.1770592414725435
  0
LWPOLYLINE
  5
CC
330
70
100
AcDbEntity
  8
A-FURN-P-SEAT
100
AcDbPolyline
 90
        2
 70
     0
 10
9.606394342618813
 20
7.524580668184626
 40
0.0
 41
0.0
 10
9.093345182757829
 20
4.424633665556768
 40
0.1770592414725435
 41
0.1770592414725435
  0
LWPOLYLINE
  5
CD
330
70
100
AcDbEntity
  8
A-FURN-P-SEAT
100
AcDbPolyline
 90
        2
 70
     0
 10
9.366871610761847
 20
12.74417555947309
 40
0.0
 41
0.0
 10
9.798696791248971
 20
10.06510634149134
 40
0.1770592414725435
 41
0.1770592414725435
  0
LWPOLYLINE
  5
CE
330
70
100
AcDbEntity
  8
A-FURN-P-SEAT
100
AcDbPolyline
 90
        2
 70
     0
 10
9.799361294582212
 20
10.06097271643995
 40
0.0
 41
0.0
 10
9.606394342618813
 20
7.524580668184626
 40
0.1770592414725435
 41
0.1770592414725435
  0
LWPOLYLINE
  5
CF
330
70
100
AcDbEntity
  8
A-FURN-P-SEAT
100
AcDbPolyline
 90
        2
 70
     0
 10
9.798761594931335
 20
10.06469556405113
 40
0.0
 41
0.0
 10
9.799361294582212
 20
10.06097271643995
 40
0.1770592414725435
 41
0.1770592414725435
  0
LWPOLYLINE
  5
D0
330
70
100
AcDbEntity
  8
A-FURN-P-SEAT
100
AcDbPolyline
 90
        2
 70
     0
 10
0.6788327840782174
 20
-1.347388006777634
 40
0.0
 41
0.0
 10
0.5492263046165107
 20
-0.9485101870029666
 40
0.1770592414725435
 41
0.1770592414725435
  0
LWPOLYLINE
  5
D1
330
70
100
AcDbEntity
  8
A-FURN-P-SEAT
100
AcDbPolyline
 90
        2
 70
     0
 10
6.27520814768706
 20
20.99782822080095
 40
0.0
 41
0.0
 10
6.471530549335618
 20
20.70822658426363
 40
0.1770592414725435
 41
0.1770592414725435
  0
LWPOLYLINE
  5
D2
330
70
100
AcDbEntity
  8
A-FURN-P-SEAT
100
AcDbPolyline
 90
        2
 70
     0
 10
8.474761809668791
 20
2.183387155748562
 40
0.0
 41
0.0
 10
8.607912838085525
 20
2.423871850464422
 40
0.1770592414725435
 41
0.1770592414725435
  0
LWPOLYLINE
  5
D3
330
70
100
AcDbEntity
  8
A-FURN-P-SEAT
100
AcDbPolyline
 90
        2
 70
     0
 10
8.607912838085525
 20
2.423871850464422
 40
0.0
 41
0.0
 10
8.913481499959601
 20
3.341448082258466
 40
0.1770592414725435
 41
0.1770592414725435
  0
LWPOLYLINE
  5
D4
330
70
100
AcDbEntity
  8
A-FURN-P-SEAT
100
AcDbPolyline
 90
        2
 70
     0
 10
9.175812118006831
 20
4.440795278999928
 40
0.0
 41
0.0
 10
8.913481499959601
 20
3.341448082258466
 40
0.1770592414725435
 41
0.1770592414725435
  0
LWPOLYLINE
  5
D5
330
70
100
AcDbEntity
  8
A-FURN-P-SEAT
100
AcDbPolyline
 90
        2
 70
     0
 10
9.175812118006831
 20
4.440795278999928
 40
0.0
 41
0.0
 10
9.7091890952628
 20
7.53615485374047
 40
0.1770592414725435
 41
0.1770592414725435
  0
LWPOLYLINE
  5
D6
330
70
100
AcDbEntity
  8
A-FURN-P-SEAT
100
AcDbPolyline
 90
        2
 70
     0
 10
11.39979464353453
 20
7.357501547916911
 40
0.0
 41
0.0
 10
11.51085115744486
 20
7.015708335830026
 40
0.1770592414725435
 41
0.1770592414725435
  0
LWPOLYLINE
  5
D7
330
70
100
AcDbEntity
  8
A-FURN-P-SEAT
100
AcDbPolyline
 90
        2
 70
     0
 10
11.51085115744486
 20
7.015708335830026
 40
0.0
 41
0.0
 10
12.00975965804488
 20
6.65323070903571
 40
0.1770592414725435
 41
0.1770592414725435
  0
LWPOLYLINE
  5
D8
330
70
100
AcDbEntity
  8
A-FURN-P-SEAT
100
AcDbPolyline
 90
        2
 70
     0
 10
11.53512332356211
 20
7.033345029813858
 40
0.0
 41
0.0
 10
12.01903189640232
 20
6.681760795791944
 40
0.1770592414725435
 41
0.1770592414725435
  0
LWPOLYLINE
  5
D9
330
70
100
AcDbEntity
  8
A-FURN-P-SEAT
100
AcDbPolyline
 90
        2
 70
     0
 10
11.959950945767
 20
7.185483714226847
 40
0.0
 41
0.0
 10
11.68412257056459
 20
7.270187615932627
 40
0.1770592414725435
 41
0.1770592414725435
  0
LWPOLYLINE
  5
DA
330
70
100
AcDbEntity
  8
A-FURN-P-SEAT
100
AcDbPolyline
 90
        2
 70
     0
 10
11.959950945767
 20
7.185483714226847
 40
0.0
 41
0.0
 10
11.96173410938787
 20
7.184813722057128
 40
0.1770592414725435
 41
0.1770592414725435
  0
LWPOLYLINE
  5
DB
330
70
100
AcDbEntity
  8
A-FURN-P-SEAT
100
AcDbPolyline
 90
        2
 70
     0
 10
-0.510086912331758
 20
-1.133015300757165
 40
0.0
 41
0.0
 10
-0.5101734943008438
 20
-1.134920104076968
 40
0.1770592414725435
 41
0.1770592414725435
  0
LWPOLYLINE
  5
DC
330
70
100
AcDbEntity
  8
A-FURN-P-SEAT
100
AcDbPolyline
 90
        2
 70
     0
 10
-0.510086912331758
 20
-1.133015300757165
 40
0.0
 41
0.0
 10
-0.5147664110246382
 20
-0.8445105462207607
 40
0.1770592414725435
 41
0.1770592414725435
  0
LWPOLYLINE
  5
DD
330
70
100
AcDbEntity
  8
A-FURN-P-SEAT
100
AcDbPolyline
 90
        2
 70
     0
 10
-0.5189432385309729
 20
-0.586837825638952
 40
0.0
 41
0.0
 10
-0.7827650495098979
 20
-0.7785159633837111
 40
0.1770592414725435
 41
0.1770592414725435
  0
LWPOLYLINE
  5
DE
330
70
100
AcDbEntity
  8
A-FURN-P-SEAT
100
AcDbPolyline
 90
        2
 70
     0
 10
-8.4743001233875
 20
2.183343953293615
 40
0.0
 41
0.0
 10
-8.607472753031693
 20
2.423871850464422
 40
0.1770592414725435
 41
0.1770592414725435
  0
LWPOLYLINE
  5
DF
330
70
100
AcDbEntity
  8
A-FURN-P-SEAT
100
AcDbPolyline
 90
        2
 70
     0
 10
-8.607472753031693
 20
2.423871850464422
 40
0.0
 41
0.0
 10
-8.913036103128526
 20
3.341448082258466
 40
0.1770592414725435
 41
0.1770592414725435
  0
LWPOLYLINE
  5
E0
330
70
100
AcDbEntity
  8
A-FURN-P-SEAT
100
AcDbPolyline
 90
        2
 70
     0
 10
-8.913036103128526
 20
3.341448082258466
 40
0.0
 41
0.0
 10
-9.175372032953006
 20
4.440795278999928
 40
0.1770592414725435
 41
0.1770592414725435
  0
LWPOLYLINE
  5
E1
330
70
100
AcDbEntity
  8
A-FURN-P-SEAT
100
AcDbPolyline
 90
        2
 70
     0
 10
-9.708749010208961
 20
7.53615485374047
 40
0.0
 41
0.0
 10
-9.175372032953006
 20
4.440795278999928
 40
0.1770592414725435
 41
0.1770592414725435
  0
LWPOLYLINE
  5
E2
330
70
100
AcDbEntity
  8
A-FURN-P-SEAT
100
AcDbPolyline
 90
        2
 70
     0
 10
-2.757223120748328
 20
17.57396780240856
 40
0.0
 41
0.0
 10
0.0002227869451588
 20
17.81908312746668
 40
0.1770592414725435
 41
0.1770592414725435
  0
LWPOLYLINE
  5
E3
330
70
100
AcDbEntity
  8
A-FURN-P-SEAT
100
AcDbPolyline
 90
        2
 70
     0
 10
-2.757223120748328
 20
17.57396780240856
 40
0.0
 41
0.0
 10
-5.11220611314583
 20
16.93529440248585
 40
0.1770592414725435
 41
0.1770592414725435
  0
LWPOLYLINE
  5
E4
330
70
100
AcDbEntity
  8
A-FURN-P-SEAT
100
AcDbPolyline
 90
        2
 70
     0
 10
-5.11220611314583
 20
16.93529440248585
 40
0.0
 41
0.0
 10
-6.406271023630345
 20
16.42699485677735
 40
0.1770592414725435
 41
0.1770592414725435
  0
LWPOLYLINE
  5
E5
330
70
100
AcDbEntity
  8
A-FURN-P-SEAT
100
AcDbPolyline
 90
        2
 70
     0
 10
-9.708749010208961
 20
7.53615485374047
 40
0.0
 41
0.0
 10
-9.909631926740118
 20
10.06630591785233
 40
0.1770592414725435
 41
0.1770592414725435
  0
LWPOLYLINE
  5
E6
330
70
100
AcDbEntity
  8
A-FURN-P-SEAT
100
AcDbPolyline
 90
        2
 70
     0
 10
-9.909631926740118
 20
10.06630591785233
 40
0.0
 41
0.0
 10
-9.814412830801771
 20
11.42248303318615
 40
0.1770592414725435
 41
0.1770592414725435
  0
LWPOLYLINE
  5
E7
330
70
100
AcDbEntity
  8
A-FURN-P-SEAT
100
AcDbPolyline
 90
        2
 70
     0
 10
-9.814412830801771
 20
11.42248303318615
 40
0.0
 41
0.0
 10
-9.472635731105803
 20
12.77172225920213
 40
0.1770592414725435
 41
0.1770592414725435
  0
LWPOLYLINE
  5
E8
330
70
100
AcDbEntity
  8
A-FURN-P-SEAT
100
AcDbPolyline
 90
        2
 70
     0
 10
-9.798316021041031
 20
10.06469556405113
 40
0.0
 41
0.0
 10
-9.798915897751129
 20
10.06097802821716
 40
0.1770592414725435
 41
0.1770592414725435
  0
LWPOLYLINE
  5
E9
330
70
100
AcDbEntity
  8
A-FURN-P-SEAT
100
AcDbPolyline
 90
        2
 70
     0
 10
-9.798915897751129
 20
10.06097802821716
 40
0.0
 41
0.0
 10
-9.605954434624216
 20
7.524580668184626
 40
0.1770592414725435
 41
0.1770592414725435
  0
LWPOLYLINE
  5
EA
330
70
100
AcDbEntity
  8
A-FURN-P-SEAT
100
AcDbPolyline
 90
        2
 70
     0
 10
-9.798235104967666
 20
10.06490644160772
 40
0.0
 41
0.0
 10
-9.798915897751129
 20
10.07385448449406
 40
0.1770592414725435
 41
0.1770592414725435
  0
LWPOLYLINE
  5
EB
330
70
100
AcDbEntity
  8
A-FURN-P-SEAT
100
AcDbPolyline
 90
        2
 70
     0
 10
-9.798915897751129
 20
10.07385448449406
 40
0.0
 41
0.0
 10
-9.704858487496082
 20
11.42160234051909
 40
0.1770592414725435
 41
0.1770592414725435
  0
LWPOLYLINE
  5
EC
330
70
100
AcDbEntity
  8
A-FURN-P-SEAT
100
AcDbPolyline
 90
        2
 70
     0
 10
-9.366426213930786
 20
12.74417555947309
 40
0.0
 41
0.0
 10
-9.79825121735864
 20
10.06510634149134
 40
0.1770592414725435
 41
0.1770592414725435
  0
LWPOLYLINE
  5
ED
330
70
100
AcDbEntity
  8
A-FURN-P-SEAT
100
AcDbPolyline
 90
        2
 70
     0
 10
-9.704858487496082
 20
11.42160234051909
 40
0.0
 41
0.0
 10
-9.366431525708023
 20
12.75705732752715
 40
0.1770592414725435
 41
0.1770592414725435
  0
LWPOLYLINE
  5
EE
330
70
100
AcDbEntity
  8
A-FURN-P-SEAT
100
AcDbPolyline
 90
        2
 70
     0
 10
9.814858404692103
 20
11.4224775443497
 40
0.0
 41
0.0
 10
9.473075816159635
 20
12.77172225920213
 40
0.1770592414725435
 41
0.1770592414725435
  0
LWPOLYLINE
  5
EF
330
70
100
AcDbEntity
  8
A-FURN-P-SEAT
100
AcDbPolyline
 90
        2
 70
     0
 10
9.7091890952628
 20
7.53615485374047
 40
0.0
 41
0.0
 10
9.910072011793957
 20
10.06630591785233
 40
0.1770592414725435
 41
0.1770592414725435
  0
LWPOLYLINE
  5
F0
330
70
100
AcDbEntity
  8
A-FURN-P-SEAT
100
AcDbPolyline
 90
        2
 70
     0
 10
9.910072011793957
 20
10.06630591785233
 40
0.0
 41
0.0
 10
9.814858404692103
 20
11.4224775443497
 40
0.1770592414725435
 41
0.1770592414725435
  0
LWPOLYLINE
  5
F1
330
70
100
AcDbEntity
  8
A-FURN-P-SEAT
100
AcDbPolyline
 90
        2
 70
     0
 10
12.00240019067308
 20
8.249746622270492
 40
0.0
 41
0.0
 10
12.27533771963998
 20
8.156143191910587
 40
0.1770592414725435
 41
0.1770592414725435
  0
LWPOLYLINE
  5
F2
330
70
100
AcDbEntity
  8
A-FURN-P-SEAT
100
AcDbPolyline
 90
        2
 70
     0
 10
12.27717488632949
 20
8.155635208946762
 40
0.0
 41
0.0
 10
12.27533771963998
 20
8.156143191910587
 40
0.1770592414725435
 41
0.1770592414725435
  0
LWPOLYLINE
  5
F3
330
70
100
AcDbEntity
  8
A-FURN-P-SEAT
100
AcDbPolyline
 90
        2
 70
     0
 10
12.46177189383
 20
8.125035653776251
 40
0.0
 41
0.0
 10
12.27717488632949
 20
8.155635208946762
 40
0.1770592414725435
 41
0.1770592414725435
  0
LWPOLYLINE
  5
F4
330
70
100
AcDbEntity
  8
A-FURN-P-SEAT
100
AcDbPolyline
 90
        2
 70
     0
 10
12.27717488632949
 20
8.155635208946762
 40
0.0
 41
0.0
 10
12.46680250099872
 20
8.073843577644765
 40
0.1770592414725435
 41
0.1770592414725435
  0
LWPOLYLINE
  5
F5
330
70
100
AcDbEntity
  8
A-FURN-P-SEAT
100
AcDbPolyline
 90
        2
 70
     0
 10
12.46177189383
 20
8.125035653776251
 40
0.0
 41
0.0
 10
12.6601745645066
 20
8.011028978784509
 40
0.1770592414725435
 41
0.1770592414725435
  0
LWPOLYLINE
  5
F6
330
70
100
AcDbEntity
  8
A-FURN-P-SEAT
100
AcDbPolyline
 90
        2
 70
     0
 10
12.59275624830883
 20
8.018042472398462
 40
0.0
 41
0.0
 10
12.46680250099872
 20
8.073843577644765
 40
0.1770592414725435
 41
0.1770592414725435
  0
LWPOLYLINE
  5
F7
330
70
100
AcDbEntity
  8
A-FURN-P-SEAT
100
AcDbPolyline
 90
        2
 70
     0
 10
12.6601745645066
 20
8.011028978784509
 40
0.0
 41
0.0
 10
12.82190437097094
 20
7.728213845913558
 40
0.1770592414725435
 41
0.1770592414725435
  0
LWPOLYLINE
  5
F8
330
70
100
AcDbEntity
  8
A-FURN-P-SEAT
100
AcDbPolyline
 90
        2
 70
     0
 10
12.82190437097094
 20
7.728213845913558
 40
0.0
 41
0.0
 10
12.80802292643949
 20
7.446495772102821
 40
0.1770592414725435
 41
0.1770592414725435
  0
LWPOLYLINE
  5
F9
330
70
100
AcDbEntity
  8
A-FURN-P-SEAT
100
AcDbPolyline
 90
        2
 70
     0
 10
-8.419703906279437
 20
14.53050269781044
 40
0.0
 41
0.0
 10
-9.366426213930786
 20
12.74417555947309
 40
0.1770592414725435
 41
0.1770592414725435
  0
LWPOLYLINE
  5
FA
330
70
100
AcDbEntity
  8
A-FURN-P-SEAT
100
AcDbPolyline
 90
        2
 70
     0
 10
-7.314499412770857
 20
16.04806382291002
 40
0.0
 41
0.0
 10
-8.419703906279437
 20
14.53050269781044
 40
0.1770592414725435
 41
0.1770592414725435
  0
LWPOLYLINE
  5
FB
330
70
100
AcDbEntity
  8
A-FURN-P-SEAT
100
AcDbPolyline
 90
        2
 70
     0
 10
-7.485803874777062
 20
17.78289097909499
 40
0.0
 41
0.0
 10
-7.625185086723483
 20
16.82356258462852
 40
0.1770592414725435
 41
0.1770592414725435
  0
LWPOLYLINE
  5
FC
330
70
100
AcDbEntity
  8
A-FURN-P-SEAT
100
AcDbPolyline
 90
        2
 70
     0
 10
-7.182083180206241
 20
18.81386887445268
 40
0.0
 41
0.0
 10
-7.485803874777062
 20
17.78289097909499
 40
0.1770592414725435
 41
0.1770592414725435
  0
LWPOLYLINE
  5
FD
330
70
100
AcDbEntity
  8
A-FURN-P-SEAT
100
AcDbPolyline
 90
        2
 70
     0
 10
-7.051536516172319
 20
16.36280220584075
 40
0.0
 41
0.0
 10
-7.314499412770857
 20
16.04806382291002
 40
0.1770592414725435
 41
0.1770592414725435
  0
LWPOLYLINE
  5
FE
330
70
100
AcDbEntity
  8
A-FURN-P-SEAT
100
AcDbPolyline
 90
        2
 70
     0
 10
-6.568805918465649
 20
20.47332917097168
 40
0.0
 41
0.0
 10
-7.182083180206241
 20
18.81386887445268
 40
0.1770592414725435
 41
0.1770592414725435
  0
LWPOLYLINE
  5
FF
330
70
100
AcDbEntity
  8
A-FURN-P-SEAT
100
AcDbPolyline
 90
        2
 70
     0
 10
-6.568805918465649
 20
20.47332917097168
 40
0.0
 41
0.0
 10
-6.4710849754453
 20
20.7082318960409
 40
0.1770592414725435
 41
0.1770592414725435
  0
LWPOLYLINE
  5
100
330
70
100
AcDbEntity
  8
A-FURN-P-SEAT
100
AcDbPolyline
 90
        2
 70
     0
 10
-6.274762573796756
 20
20.99782822080095
 40
0.0
 41
0.0
 10
-6.4710849754453
 20
20.7082318960409
 40
0.1770592414725435
 41
0.1770592414725435
  0
LWPOLYLINE
  5
101
330
70
100
AcDbEntity
  8
A-FURN-P-SEAT
100
AcDbPolyline
 90
        2
 70
     0
 10
-9.366431525708023
 20
12.75705732752715
 40
0.0
 41
0.0
 10
-8.419703906279437
 20
14.54337915408729
 40
0.1770592414725435
 41
0.1770592414725435
  0
LWPOLYLINE
  5
102
330
70
100
AcDbEntity
  8
A-FURN-P-SEAT
100
AcDbPolyline
 90
        2
 70
     0
 10
-9.472635731105803
 20
12.77172225920213
 40
0.0
 41
0.0
 10
-8.52560020565631
 20
14.57920921631017
 40
0.1770592414725435
 41
0.1770592414725435
  0
LWPOLYLINE
  5
103
330
70
100
AcDbEntity
  8
A-FURN-P-SEAT
100
AcDbPolyline
 90
        2
 70
     0
 10
-8.419703906279437
 20
14.54337915408729
 40
0.0
 41
0.0
 10
-7.314499412770857
 20
16.06094559096414
 40
0.1770592414725435
 41
0.1770592414725435
  0
LWPOLYLINE
  5
104
330
70
100
AcDbEntity
  8
A-FURN-P-SEAT
100
AcDbPolyline
 90
        2
 70
     0
 10
-8.52560020565631
 20
14.57920921631017
 40
0.0
 41
0.0
 10
-7.418909653934044
 20
16.13824699990243
 40
0.1770592414725435
 41
0.1770592414725435
  0
LWPOLYLINE
  5
105
330
70
100
AcDbEntity
  8
A-FURN-P-SEAT
100
AcDbPolyline
 90
        2
 70
     0
 10
-8.212806995552433
 20
15.01985796703684
 40
0.0
 41
0.0
 10
-7.415932402788691
 20
16.15555949841513
 40
0.1770592414725435
 41
0.1770592414725435
  0
LWPOLYLINE
  5
106
330
70
100
AcDbEntity
  8
A-FURN-P-SEAT
100
AcDbPolyline
 90
        2
 70
     0
 10
-7.748172383501973
 20
16.92951819885127
 40
0.0
 41
0.0
 10
-7.666267434285401
 20
16.84231776184077
 40
0.1770592414725435
 41
0.1770592414725435
  0
LWPOLYLINE
  5
107
330
70
100
AcDbEntity
  8
A-FURN-P-SEAT
100
AcDbPolyline
 90
        2
 70
     0
 10
-7.748172383501973
 20
16.92951819885127
 40
0.0
 41
0.0
 10
-7.812305542533479
 20
17.14231560880034
 40
0.1770592414725435
 41
0.1770592414725435
  0
LWPOLYLINE
  5
108
330
70
100
AcDbEntity
  8
A-FURN-P-SEAT
100
AcDbPolyline
 90
        2
 70
     0
 10
-7.601339810437409
 20
16.98769685559205
 40
0.0
 41
0.0
 10
-7.67110345334774
 20
16.98842085083043
 40
0.1770592414725435
 41
0.1770592414725435
  0
LWPOLYLINE
  5
109
330
70
100
AcDbEntity
  8
A-FURN-P-SEAT
100
AcDbPolyline
 90
        2
 70
     0
 10
-7.812305542533479
 20
17.14231560880034
 40
0.0
 41
0.0
 10
-7.760946145418763
 20
17.25948349948936
 40
0.1770592414725435
 41
0.1770592414725435
  0
LWPOLYLINE
  5
10A
330
70
100
AcDbEntity
  8
A-FURN-P-SEAT
100
AcDbPolyline
 90
        2
 70
     0
 10
-6.526983463274397
 20
20.87503551212888
 40
0.0
 41
0.0
 10
-6.544485061056988
 20
20.84092912162174
 40
0.1770592414725435
 41
0.1770592414725435
  0
LWPOLYLINE
  5
10B
330
70
100
AcDbEntity
  8
A-FURN-P-SEAT
100
AcDbPolyline
 90
        2
 70
     0
 10
6.527428860105466
 20
20.87503551212888
 40
0.0
 41
0.0
 10
6.328680392730255
 20
21.16581512379969
 40
0.1770592414725435
 41
0.1770592414725435
  0
LWPOLYLINE
  5
10C
330
70
100
AcDbEntity
  8
A-FURN-P-SEAT
100
AcDbPolyline
 90
        2
 70
     0
 10
6.527428860105466
 20
20.87503551212888
 40
0.0
 41
0.0
 10
6.544930634947299
 20
20.84092912162174
 40
0.1770592414725435
 41
0.1770592414725435
  0
LWPOLYLINE
  5
10D
330
70
100
AcDbEntity
  8
A-FURN-P-SEAT
100
AcDbPolyline
 90
        2
 70
     0
 10
7.696971901365657
 20
17.51444916132834
 40
0.0
 41
0.0
 10
7.180659008506609
 20
19.20760524797344
 40
0.1770592414725435
 41
0.1770592414725435
  0
LWPOLYLINE
  5
10E
330
70
100
AcDbEntity
  8
A-FURN-P-SEAT
100
AcDbPolyline
 90
        2
 70
     0
 10
8.526045602487386
 20
14.57920921631017
 40
0.0
 41
0.0
 10
7.419355050765119
 20
16.13824151106593
 40
0.1770592414725435
 41
0.1770592414725435
  0
LWPOLYLINE
  5
10F
330
70
100
AcDbEntity
  8
A-FURN-P-SEAT
100
AcDbPolyline
 90
        2
 70
     0
 10
7.601785384327726
 20
16.9876913667556
 40
0.0
 41
0.0
 10
7.671548850178808
 20
16.98842085083043
 40
0.1770592414725435
 41
0.1770592414725435
  0
LWPOLYLINE
  5
110
330
70
100
AcDbEntity
  8
A-FURN-P-SEAT
100
AcDbPolyline
 90
        2
 70
     0
 10
7.748617780333049
 20
16.92951819885127
 40
0.0
 41
0.0
 10
7.66671283111647
 20
16.84231776184077
 40
0.1770592414725435
 41
0.1770592414725435
  0
LWPOLYLINE
  5
111
330
70
100
AcDbEntity
  8
A-FURN-P-SEAT
100
AcDbPolyline
 90
        2
 70
     0
 10
7.733320747166033
 20
17.40648339353714
 40
0.0
 41
0.0
 10
7.696971901365657
 20
17.51444916132834
 40
0.1770592414725435
 41
0.1770592414725435
  0
LWPOLYLINE
  5
112
330
70
100
AcDbEntity
  8
A-FURN-P-SEAT
100
AcDbPolyline
 90
        2
 70
     0
 10
7.757447016468319
 20
17.29934449240363
 40
0.0
 41
0.0
 10
7.733320747166033
 20
17.40648339353714
 40
0.1770592414725435
 41
0.1770592414725435
  0
LWPOLYLINE
  5
113
330
70
100
AcDbEntity
  8
A-FURN-P-SEAT
100
AcDbPolyline
 90
        2
 70
     0
 10
7.748617780333049
 20
16.92951819885127
 40
0.0
 41
0.0
 10
7.812751116423783
 20
17.14231029702313
 40
0.1770592414725435
 41
0.1770592414725435
  0
LWPOLYLINE
  5
114
330
70
100
AcDbEntity
  8
A-FURN-P-SEAT
100
AcDbPolyline
 90
        2
 70
     0
 10
7.793239365072764
 20
17.18682901034356
 40
0.0
 41
0.0
 10
7.757447016468319
 20
17.29934449240363
 40
0.1770592414725435
 41
0.1770592414725435
  0
LWPOLYLINE
  5
115
330
70
100
AcDbEntity
  8
A-FURN-P-SEAT
100
AcDbPolyline
 90
        2
 70
     0
 10
9.473075816159635
 20
12.77172225920213
 40
0.0
 41
0.0
 10
8.526045602487386
 20
14.57920921631017
 40
0.1770592414725435
 41
0.1770592414725435
  0
LWPOLYLINE
  5
116
330
70
100
AcDbEntity
  8
A-FURN-P-SEAT
100
AcDbPolyline
 90
        2
 70
     0
 10
-1.302687472065592
 20
22.54540531381116
 40
0.0
 41
0.0
 10
0.0002227869451588
 20
22.59903956806033
 40
0.1770592414725435
 41
0.1770592414725435
  0
LWPOLYLINE
  5
117
330
70
100
AcDbEntity
  8
A-FURN-P-SEAT
100
AcDbPolyline
 90
        2
 70
     0
 10
-4.573274610425634
 20
21.90339257659429
 40
0.0
 41
0.0
 10
-2.955550187128828
 20
22.24224111643628
 40
0.1770592414725435
 41
0.1770592414725435
  0
LWPOLYLINE
  5
118
330
70
100
AcDbEntity
  8
A-FURN-P-SEAT
100
AcDbPolyline
 90
        2
 70
     0
 10
-2.955550187128828
 20
22.24224111643628
 40
0.0
 41
0.0
 10
-1.293582731750596
 20
22.40252275536466
 40
0.1770592414725435
 41
0.1770592414725435
  0
LWPOLYLINE
  5
119
330
70
100
AcDbEntity
  8
A-FURN-P-SEAT
100
AcDbPolyline
 90
        2
 70
     0
 10
-1.293582731750596
 20
22.40252275536466
 40
0.0
 41
0.0
 10
0.0002227869451588
 20
22.45575720984652
 40
0.1770592414725435
 41
0.1770592414725435
  0
LWPOLYLINE
  5
11A
330
70
100
AcDbEntity
  8
A-FURN-P-SEAT
100
AcDbPolyline
 90
        2
 70
     0
 10
1.304073230528132
 20
22.56815919693281
 40
0.0
 41
0.0
 10
0.7503849023866494
 20
22.56815919693281
 40
0.1770592414725435
 41
0.1770592414725435
  0
LWPOLYLINE
  5
11B
330
70
100
AcDbEntity
  8
A-FURN-P-SEAT
100
AcDbPolyline
 90
        2
 70
     0
 10
2.977009682974838
 20
22.40696428643696
 40
0.0
 41
0.0
 10
1.304073230528132
 20
22.56815919693281
 40
0.1770592414725435
 41
0.1770592414725435
  0
LWPOLYLINE
  5
11C
330
70
100
AcDbEntity
  8
A-FURN-P-SEAT
100
AcDbPolyline
 90
        2
 70
     0
 10
4.610198460421848
 20
22.06569516970478
 40
0.0
 41
0.0
 10
2.977009682974838
 20
22.40696428643696
 40
0.1770592414725435
 41
0.1770592414725435
  0
LWPOLYLINE
  5
11D
330
70
100
AcDbEntity
  8
A-FURN-P-SEAT
100
AcDbPolyline
 90
        2
 70
     0
 10
5.410742074787386
 20
21.75675459163608
 40
0.0
 41
0.0
 10
4.610198460421848
 20
22.06569516970478
 40
0.1770592414725435
 41
0.1770592414725435
  0
LWPOLYLINE
  5
11E
330
70
100
AcDbEntity
  8
A-FURN-P-SEAT
100
AcDbPolyline
 90
        2
 70
     0
 10
5.954001790665373
 20
21.48361185100833
 40
0.0
 41
0.0
 10
5.410742074787386
 20
21.75675459163608
 40
0.1770592414725435
 41
0.1770592414725435
  0
LWPOLYLINE
  5
11F
330
70
100
AcDbEntity
  8
A-FURN-P-SEAT
100
AcDbPolyline
 90
        2
 70
     0
 10
6.328680392730255
 20
21.16581512379969
 40
0.0
 41
0.0
 10
5.954001790665373
 20
21.48361185100833
 40
0.1770592414725435
 41
0.1770592414725435
  0
LWPOLYLINE
  5
120
330
70
100
AcDbEntity
  8
A-FURN-P-SEAT
100
AcDbPolyline
 90
        2
 70
     0
 10
7.416377799619752
 20
16.15555949841513
 40
0.0
 41
0.0
 10
7.228106458740214
 20
16.38838195445629
 40
0.1770592414725435
 41
0.1770592414725435
  0
LWPOLYLINE
  5
121
330
70
100
AcDbEntity
  8
A-FURN-P-SEAT
100
AcDbPolyline
 90
        2
 70
     0
 10
8.212841792002535
 20
15.020430753683
 40
0.0
 41
0.0
 10
7.416377799619752
 20
16.15555949841513
 40
0.1770592414725435
 41
0.1770592414725435
  0
LWPOLYLINE
  5
122
330
70
100
AcDbEntity
  8
A-FURN-P-SEAT
100
AcDbPolyline
 90
        2
 70
     0
 10
-7.314499412770857
 20
16.06094559096414
 40
0.0
 41
0.0
 10
-7.061132950000896
 20
16.36419637030809
 40
0.1770592414725435
 41
0.1770592414725435
  0
LWPOLYLINE
  5
123
330
70
100
AcDbEntity
  8
A-FURN-P-SEAT
100
AcDbPolyline
 90
        2
 70
     0
 10
-6.328234818839945
 20
21.16581512379969
 40
0.0
 41
0.0
 10
-5.953556393834297
 20
21.48361185100833
 40
0.1770592414725435
 41
0.1770592414725435
  0
LWPOLYLINE
  5
124
330
70
100
AcDbEntity
  8
A-FURN-P-SEAT
100
AcDbPolyline
 90
        2
 70
     0
 10
-5.953556393834297
 20
21.48361185100833
 40
0.0
 41
0.0
 10
-5.410291189119831
 20
21.75675459163608
 40
0.1770592414725435
 41
0.1770592414725435
  0
LWPOLYLINE
  5
125
330
70
100
AcDbEntity
  8
A-FURN-P-SEAT
100
AcDbPolyline
 90
        2
 70
     0
 10
-5.410291189119831
 20
21.75675459163608
 40
0.0
 41
0.0
 10
-4.609753063590773
 20
22.06569516970478
 40
0.1770592414725435
 41
0.1770592414725435
  0
LWPOLYLINE
  5
126
330
70
100
AcDbEntity
  8
A-FURN-P-SEAT
100
AcDbPolyline
 90
        2
 70
     0
 10
-4.609753063590773
 20
22.06569516970478
 40
0.0
 41
0.0
 10
-2.97656410908452
 20
22.40696428643696
 40
0.1770592414725435
 41
0.1770592414725435
  0
LWPOLYLINE
  5
127
330
70
100
AcDbEntity
  8
A-FURN-P-SEAT
100
AcDbPolyline
 90
        2
 70
     0
 10
-2.97656410908452
 20
22.40696428643696
 40
0.0
 41
0.0
 10
-1.303627656637814
 20
22.56815919693281
 40
0.1770592414725435
 41
0.1770592414725435
  0
LWPOLYLINE
  5
128
330
70
100
AcDbEntity
  8
A-FURN-P-SEAT
100
AcDbPolyline
 90
        2
 70
     0
 10
-1.303627656637814
 20
22.56815919693281
 40
0.0
 41
0.0
 10
-0.7499393284963319
 20
22.56815919693281
 40
0.1770592414725435
 41
0.1770592414725435
  0
LWPOLYLINE
  5
129
330
70
100
AcDbEntity
  8
A-FURN-P-SEAT
100
AcDbPolyline
 90
        2
 70
     0
 10
-7.415932402788691
 20
16.15555949841513
 40
0.0
 41
0.0
 10
-7.227661061909138
 20
16.38838195445629
 40
0.1770592414725435
 41
0.1770592414725435
  0
LWPOLYLINE
  5
12A
330
70
100
AcDbEntity
  8
A-FURN-P-SEAT
100
AcDbPolyline
 90
        2
 70
     0
 10
-7.666267434285401
 20
16.84231776184077
 40
0.0
 41
0.0
 10
-7.624855579475109
 20
16.83672534569882
 40
0.1770592414725435
 41
0.1770592414725435
  0
LWPOLYLINE
  5
12B
330
70
100
AcDbEntity
  8
A-FURN-P-SEAT
100
AcDbPolyline
 90
        2
 70
     0
 10
-7.624855579475109
 20
16.83672534569882
 40
0.0
 41
0.0
 10
-7.690301809841365
 20
17.05139781301511
 40
0.1770592414725435
 41
0.1770592414725435
  0
LWPOLYLINE
  5
12C
330
70
100
AcDbEntity
  8
A-FURN-P-SEAT
100
AcDbPolyline
 90
        2
 70
     0
 10
-7.623272315737864
 20
16.83672534569882
 40
0.0
 41
0.0
 10
-7.624855579475109
 20
16.83672534569882
 40
0.1770592414725435
 41
0.1770592414725435
  0
LWPOLYLINE
  5
12D
330
70
100
AcDbEntity
  8
A-FURN-P-SEAT
100
AcDbPolyline
 90
        2
 70
     0
 10
-7.60153439854379
 20
16.98634607063889
 40
0.0
 41
0.0
 10
-7.670590158606707
 20
16.98674587040614
 40
0.1770592414725435
 41
0.1770592414725435
  0
LWPOLYLINE
  5
12E
330
70
100
AcDbEntity
  8
A-FURN-P-SEAT
100
AcDbPolyline
 90
        2
 70
     0
 10
-7.792788479405196
 20
17.18684529979373
 40
0.0
 41
0.0
 10
-7.757001619637243
 20
17.29934449240363
 40
0.1770592414725435
 41
0.1770592414725435
  0
LWPOLYLINE
  5
12F
330
70
100
AcDbEntity
  8
A-FURN-P-SEAT
100
AcDbPolyline
 90
        2
 70
     0
 10
-7.757001619637243
 20
17.29934449240363
 40
0.0
 41
0.0
 10
-7.732875350334957
 20
17.40648339353714
 40
0.1770592414725435
 41
0.1770592414725435
  0
LWPOLYLINE
  5
130
330
70
100
AcDbEntity
  8
A-FURN-P-SEAT
100
AcDbPolyline
 90
        2
 70
     0
 10
-7.732875350334957
 20
17.40648339353714
 40
0.0
 41
0.0
 10
-7.696526504534574
 20
17.51445465016479
 40
0.1770592414725435
 41
0.1770592414725435
  0
LWPOLYLINE
  5
131
330
70
100
AcDbEntity
  8
A-FURN-P-SEAT
100
AcDbPolyline
 90
        2
 70
     0
 10
-7.180213611675526
 20
19.20760524797344
 40
0.0
 41
0.0
 10
-7.696526504534574
 20
17.51445465016479
 40
0.1770592414725435
 41
0.1770592414725435
  0
LWPOLYLINE
  5
132
330
70
100
AcDbEntity
  8
A-FURN-P-SEAT
100
AcDbPolyline
 90
        2
 70
     0
 10
-7.180213611675526
 20
19.20760524797344
 40
0.0
 41
0.0
 10
-6.544485061056988
 20
20.84092912162174
 40
0.1770592414725435
 41
0.1770592414725435
  0
LWPOLYLINE
  5
133
330
70
100
AcDbEntity
  8
A-FURN-P-SEAT
100
AcDbPolyline
 90
        2
 70
     0
 10
-6.526983463274397
 20
20.87503551212888
 40
0.0
 41
0.0
 10
-6.328234818839945
 20
21.16581512379969
 40
0.1770592414725435
 41
0.1770592414725435
  0
LWPOLYLINE
  5
134
330
70
100
AcDbEntity
  8
A-FURN-P-SEAT
100
AcDbPolyline
 90
        2
 70
     0
 10
-7.522115006959005
 20
16.43114459421974
 40
0.0
 41
0.0
 10
-7.625185086723483
 20
16.82356258462852
 40
0.1770592414725435
 41
0.1770592414725435
  0
LWPOLYLINE
  5
135
330
70
100
AcDbEntity
  8
A-FURN-P-SEAT
100
AcDbPolyline
 90
        2
 70
     0
 10
-7.051412220584808
 20
16.36278609344975
 40
0.0
 41
0.0
 10
-7.522115006959005
 20
16.43114459421974
 40
0.1770592414725435
 41
0.1770592414725435
  0
LWPOLYLINE
  5
136
330
70
100
AcDbEntity
  8
A-FURN-P-SEAT
100
AcDbPolyline
 90
        2
 70
     0
 10
-6.406271023630345
 20
16.42699485677735
 40
0.0
 41
0.0
 10
-7.051412220584808
 20
16.36278609344975
 40
0.1770592414725435
 41
0.1770592414725435
  0
LWPOLYLINE
  5
137
330
70
100
AcDbEntity
  8
A-FURN-P-SEAT
100
AcDbPolyline
 90
        2
 70
     0
 10
-5.902893901894039
 20
21.31381469432477
 40
0.0
 41
0.0
 10
-6.274762573796756
 20
20.99782822080095
 40
0.1770592414725435
 41
0.1770592414725435
  0
LWPOLYLINE
  5
138
330
70
100
AcDbEntity
  8
A-FURN-P-SEAT
100
AcDbPolyline
 90
        2
 70
     0
 10
-5.353452693777754
 20
21.58794099903895
 40
0.0
 41
0.0
 10
-5.902893901894039
 20
21.31381469432477
 40
0.1770592414725435
 41
0.1770592414725435
  0
LWPOLYLINE
  5
139
330
70
100
AcDbEntity
  8
A-FURN-P-SEAT
100
AcDbPolyline
 90
        2
 70
     0
 10
-4.573274610425634
 20
21.89052178621318
 40
0.0
 41
0.0
 10
-5.353452693777754
 20
21.58794099903895
 40
0.1770592414725435
 41
0.1770592414725435
  0
LWPOLYLINE
  5
13A
330
70
100
AcDbEntity
  8
A-FURN-P-SEAT
100
AcDbPolyline
 90
        2
 70
     0
 10
-2.955544875351591
 20
22.22935934838222
 40
0.0
 41
0.0
 10
-4.573274610425634
 20
21.89052178621318
 40
0.1770592414725435
 41
0.1770592414725435
  0
LWPOLYLINE
  5
13B
330
70
100
AcDbEntity
  8
A-FURN-P-SEAT
100
AcDbPolyline
 90
        2
 70
     0
 10
-2.955544875351591
 20
22.22935934838222
 40
0.0
 41
0.0
 10
0.0002227869451588
 20
22.43652645151167
 40
0.1770592414725435
 41
0.1770592414725435
  0
LWPOLYLINE
  5
13C
330
70
100
AcDbEntity
  8
A-FURN-P-SEAT
100
AcDbPolyline
 90
        2
 70
     0
 10
-7.690301809841365
 20
17.05139781301511
 40
0.0
 41
0.0
 10
-7.651461917572703
 20
17.16955440250848
 40
0.1770592414725435
 41
0.1770592414725435
  0
LWPOLYLINE
  5
13D
330
70
100
AcDbEntity
  8
A-FURN-P-SEAT
100
AcDbPolyline
 90
        2
 70
     0
 10
-7.651461917572703
 20
17.16955440250848
 40
0.0
 41
0.0
 10
-7.63705655474574
 20
17.26995531420778
 40
0.1770592414725435
 41
0.1770592414725435
  0
LWPOLYLINE
  5
13E
330
70
100
AcDbEntity
  8
A-FURN-P-SEAT
100
AcDbPolyline
 90
        2
 70
     0
 10
-7.63705655474574
 20
17.26995531420778
 40
0.0
 41
0.0
 10
-7.611606413494961
 20
17.3718151940568
 40
0.1770592414725435
 41
0.1770592414725435
  0
LWPOLYLINE
  5
13F
330
70
100
AcDbEntity
  8
A-FURN-P-SEAT
100
AcDbPolyline
 90
        2
 70
     0
 10
-7.611606413494961
 20
17.3718151940568
 40
0.0
 41
0.0
 10
-7.100675236280473
 20
19.09366868844131
 40
0.1770592414725435
 41
0.1770592414725435
  0
LWPOLYLINE
  5
140
330
70
100
AcDbEntity
  8
A-FURN-P-SEAT
100
AcDbPolyline
 90
        2
 70
     0
 10
-7.576111347356963
 20
17.49143057464067
 40
0.0
 41
0.0
 10
-7.521353121042956
 20
17.53822963393202
 40
0.1770592414725435
 41
0.1770592414725435
  0
LWPOLYLINE
  5
141
330
70
100
AcDbEntity
  8
A-FURN-P-SEAT
100
AcDbPolyline
 90
        2
 70
     0
 10
-6.608688512607344
 20
20.36541209447188
 40
0.0
 41
0.0
 10
-7.100675236280473
 20
19.09366868844131
 40
0.1770592414725435
 41
0.1770592414725435
  0
LWPOLYLINE
  5
142
330
70
100
AcDbEntity
  8
A-FURN-P-SEAT
100
AcDbPolyline
 90
        2
 70
     0
 10
-6.4710849754453
 20
20.72110286348124
 40
0.0
 41
0.0
 10
-6.542161689690381
 20
20.53737043625688
 40
0.1770592414725435
 41
0.1770592414725435
  0
LWPOLYLINE
  5
143
330
70
100
AcDbEntity
  8
A-FURN-P-SEAT
100
AcDbPolyline
 90
        2
 70
     0
 10
-6.4710849754453
 20
20.72110286348124
 40
0.0
 41
0.0
 10
-6.274768062633235
 20
21.01070450001856
 40
0.1770592414725435
 41
0.1770592414725435
  0
LWPOLYLINE
  5
144
330
70
100
AcDbEntity
  8
A-FURN-P-SEAT
100
AcDbPolyline
 90
        2
 70
     0
 10
-6.274768062633235
 20
21.01070450001856
 40
0.0
 41
0.0
 10
-5.902893901894039
 20
21.32668566176517
 40
0.1770592414725435
 41
0.1770592414725435
  0
LWPOLYLINE
  5
145
330
70
100
AcDbEntity
  8
A-FURN-P-SEAT
100
AcDbPolyline
 90
        2
 70
     0
 10
-5.902893901894039
 20
21.32668566176517
 40
0.0
 41
0.0
 10
-5.362108943034108
 20
21.5974618285714
 40
0.1770592414725435
 41
0.1770592414725435
  0
LWPOLYLINE
  5
146
330
70
100
AcDbEntity
  8
A-FURN-P-SEAT
100
AcDbPolyline
 90
        2
 70
     0
 10
-5.362108943034108
 20
21.5974618285714
 40
0.0
 41
0.0
 10
-4.573274610425634
 20
21.90339257659429
 40
0.1770592414725435
 41
0.1770592414725435
  0
LWPOLYLINE
  5
147
330
70
100
AcDbEntity
  8
A-FURN-P-SEAT
100
AcDbPolyline
 90
        2
 70
     0
 10
9.735579421085802
 20
7.868567821332646
 40
0.0
 41
0.0
 10
11.68412257056459
 20
7.270187615932627
 40
0.1770592414725435
 41
0.1770592414725435
  0
LWPOLYLINE
  5
148
330
70
100
AcDbEntity
  8
A-FURN-P-SEAT
100
AcDbPolyline
 90
        2
 70
     0
 10
9.825124830690398
 20
8.996412702989118
 40
0.0
 41
0.0
 10
12.00240019067308
 20
8.249746622270492
 40
0.1770592414725435
 41
0.1770592414725435
  0
LWPOLYLINE
  5
149
330
70
100
AcDbEntity
  8
A-FURN-P-SEAT
100
AcDbPolyline
 90
        2
 70
     0
 10
12.1290618208306
 20
7.10106611731453
 40
0.0
 41
0.0
 10
11.96173410938787
 20
7.184813722057128
 40
0.1770592414725435
 41
0.1770592414725435
  0
LWPOLYLINE
  5
14A
330
70
100
AcDbEntity
  8
A-FURN-P-SEAT
100
AcDbPolyline
 90
        2
 70
     0
 10
12.16322221440637
 20
7.13952214514768
 40
0.0
 41
0.0
 10
11.96173410938787
 20
7.184813722057128
 40
0.1770592414725435
 41
0.1770592414725435
  0
LWPOLYLINE
  5
14B
330
70
100
AcDbEntity
  8
A-FURN-P-SEAT
100
AcDbPolyline
 90
        2
 70
     0
 10
12.1290618208306
 20
7.10106611731453
 40
0.0
 41
0.0
 10
12.35658896613702
 20
7.076680456223471
 40
0.1770592414725435
 41
0.1770592414725435
  0
LWPOLYLINE
  5
14C
330
70
100
AcDbEntity
  8
A-FURN-P-SEAT
100
AcDbPolyline
 90
        2
 70
     0
 10
12.16322221440637
 20
7.13952214514768
 40
0.0
 41
0.0
 10
12.29792392765993
 20
7.110635461079141
 40
0.1770592414725435
 41
0.1770592414725435
  0
LWPOLYLINE
  5
14D
330
70
100
AcDbEntity
  8
A-FURN-P-SEAT
100
AcDbPolyline
 90
        2
 70
     0
 10
12.35658896613702
 20
7.076680456223471
 40
0.0
 41
0.0
 10
12.65366356501994
 20
7.210420560736565
 40
0.1770592414725435
 41
0.1770592414725435
  0
LWPOLYLINE
  5
14E
330
70
100
AcDbEntity
  8
A-FURN-P-SEAT
100
AcDbPolyline
 90
        2
 70
     0
 10
12.65366356501994
 20
7.210420560736565
 40
0.0
 41
0.0
 10
12.80802292643949
 20
7.446495772102821
 40
0.1770592414725435
 41
0.1770592414725435
  0
LWPOLYLINE
  5
14F
330
70
100
AcDbEntity
  8
A-FURN-P-SEAT
100
AcDbPolyline
 90
        2
 70
     0
 10
7.69074720667244
 20
17.05139232417866
 40
0.0
 41
0.0
 10
7.65190749146302
 20
17.16955440250848
 40
0.1770592414725435
 41
0.1770592414725435
  0
LWPOLYLINE
  5
150
330
70
100
AcDbEntity
  8
A-FURN-P-SEAT
100
AcDbPolyline
 90
        2
 70
     0
 10
7.65190749146302
 20
17.16955440250848
 40
0.0
 41
0.0
 10
7.637501951576808
 20
17.26994982537133
 40
0.1770592414725435
 41
0.1770592414725435
  0
LWPOLYLINE
  5
151
330
70
100
AcDbEntity
  8
A-FURN-P-SEAT
100
AcDbPolyline
 90
        2
 70
     0
 10
7.637501951576808
 20
17.26994982537133
 40
0.0
 41
0.0
 10
7.612051810326036
 20
17.3718097052203
 40
0.1770592414725435
 41
0.1770592414725435
  0
LWPOLYLINE
  5
152
330
70
100
AcDbEntity
  8
A-FURN-P-SEAT
100
AcDbPolyline
 90
        2
 70
     0
 10
7.622053532758343
 20
17.33177572542718
 40
0.0
 41
0.0
 10
7.541731670219775
 20
17.40100429530975
 40
0.1770592414725435
 41
0.1770592414725435
  0
LWPOLYLINE
  5
153
330
70
100
AcDbEntity
  8
A-FURN-P-SEAT
100
AcDbPolyline
 90
        2
 70
     0
 10
7.612051810326036
 20
17.3718097052203
 40
0.0
 41
0.0
 10
7.101120633111541
 20
19.09366868844131
 40
0.1770592414725435
 41
0.1770592414725435
  0
LWPOLYLINE
  5
154
330
70
100
AcDbEntity
  8
A-FURN-P-SEAT
100
AcDbPolyline
 90
        2
 70
     0
 10
6.60911230821096
 20
20.36547140931777
 40
0.0
 41
0.0
 10
7.101120633111541
 20
19.09366868844131
 40
0.1770592414725435
 41
0.1770592414725435
  0
LWPOLYLINE
  5
155
330
70
100
AcDbEntity
  8
A-FURN-P-SEAT
100
AcDbPolyline
 90
        2
 70
     0
 10
6.471530549335618
 20
20.72110286348124
 40
0.0
 41
0.0
 10
6.542623375971665
 20
20.53733254557915
 40
0.1770592414725435
 41
0.1770592414725435
  0
LWPOLYLINE
  5
156
330
70
100
AcDbEntity
  8
A-FURN-P-SEAT
100
AcDbPolyline
 90
        2
 70
     0
 10
7.314944809601939
 20
16.06094027918686
 40
0.0
 41
0.0
 10
7.061573035054721
 20
16.36419637030809
 40
0.1770592414725435
 41
0.1770592414725435
  0
LWPOLYLINE
  5
157
330
70
100
AcDbEntity
  8
A-FURN-P-SEAT
100
AcDbPolyline
 90
        2
 70
     0
 10
7.66671283111647
 20
16.84231776184077
 40
0.0
 41
0.0
 10
7.625300976306192
 20
16.83672534569882
 40
0.1770592414725435
 41
0.1770592414725435
  0
LWPOLYLINE
  5
158
330
70
100
AcDbEntity
  8
A-FURN-P-SEAT
100
AcDbPolyline
 90
        2
 70
     0
 10
7.623717889628181
 20
16.83672534569882
 40
0.0
 41
0.0
 10
7.625300976306192
 20
16.83672534569882
 40
0.1770592414725435
 41
0.1770592414725435
  0
LWPOLYLINE
  5
159
330
70
100
AcDbEntity
  8
A-FURN-P-SEAT
100
AcDbPolyline
 90
        2
 70
     0
 10
7.625300976306192
 20
16.83672534569882
 40
0.0
 41
0.0
 10
7.69074720667244
 20
17.05139232417866
 40
0.1770592414725435
 41
0.1770592414725435
  0
LWPOLYLINE
  5
15A
330
70
100
AcDbEntity
  8
A-FURN-P-SEAT
100
AcDbPolyline
 90
        2
 70
     0
 10
7.608512573148246
 20
16.94138417803708
 40
0.0
 41
0.0
 10
7.655414326799629
 20
16.93549979120598
 40
0.1770592414725435
 41
0.1770592414725435
  0
LWPOLYLINE
  5
15B
330
70
100
AcDbEntity
  8
A-FURN-P-SEAT
100
AcDbPolyline
 90
        2
 70
     0
 10
7.658985965818601
 20
16.9828769489207
 40
0.0
 41
0.0
 10
7.669814377849348
 20
16.98272574032847
 40
0.1770592414725435
 41
0.1770592414725435
  0
LWPOLYLINE
  5
15C
330
70
100
AcDbEntity
  8
A-FURN-P-SEAT
100
AcDbPolyline
 90
        2
 70
     0
 10
7.625409159502723
 20
16.98462771070035
 40
0.0
 41
0.0
 10
7.658980476982122
 20
16.9828769489207
 40
0.1770592414725435
 41
0.1770592414725435
  0
LWPOLYLINE
  5
15D
330
70
100
AcDbEntity
  8
A-FURN-P-SEAT
100
AcDbPolyline
 90
        2
 70
     0
 10
7.62540367066623
 20
16.98462771070035
 40
0.0
 41
0.0
 10
7.602212274158915
 20
16.98473571683769
 40
0.1770592414725435
 41
0.1770592414725435
  0
LWPOLYLINE
  5
15E
330
70
100
AcDbEntity
  8
A-FURN-P-SEAT
100
AcDbPolyline
 90
        2
 70
     0
 10
7.601979795374873
 20
16.98634607063889
 40
0.0
 41
0.0
 10
7.671035555437782
 20
16.98674587040614
 40
0.1770592414725435
 41
0.1770592414725435
  0
LWPOLYLINE
  5
15F
330
70
100
AcDbEntity
  8
A-FURN-P-SEAT
100
AcDbPolyline
 90
        2
 70
     0
 10
7.812751116423783
 20
17.14231029702313
 40
0.0
 41
0.0
 10
7.761391542249839
 20
17.25947801065291
 40
0.1770592414725435
 41
0.1770592414725435
  0
LWPOLYLINE
  5
160
330
70
100
AcDbEntity
  8
A-FURN-P-SEAT
100
AcDbPolyline
 90
        2
 70
     0
 10
6.544930634947299
 20
20.84092912162174
 40
0.0
 41
0.0
 10
7.180659008506609
 20
19.20760524797344
 40
0.1770592414725435
 41
0.1770592414725435
  0
LWPOLYLINE
  5
161
330
70
100
AcDbEntity
  8
A-FURN-P-SEAT
100
AcDbPolyline
 90
        2
 70
     0
 10
-9.798316021041031
 20
10.06469556405113
 40
0.0
 41
0.0
 10
-9.798235104967666
 20
10.06489015215754
 40
0.1770592414725435
 41
0.1770592414725435
  0
LWPOLYLINE
  5
162
330
70
100
AcDbEntity
  8
A-FURN-P-SEAT
100
AcDbPolyline
 90
        2
 70
     0
 10
-8.034159178565396
 20
21.75049749510169
 40
0.0
 41
0.0
 10
-8.127654425728763
 20
21.95935037926927
 40
0.1770592414725435
 41
0.1770592414725435
  0
LWPOLYLINE
  5
163
330
70
100
AcDbEntity
  8
A-FURN-P-SEAT
100
AcDbPolyline
 90
        2
 70
     0
 10
-8.034159178565396
 20
21.75049749510169
 40
0.0
 41
0.0
 10
-7.902802114383263
 20
21.6172384605477
 40
0.1770592414725435
 41
0.1770592414725435
  0
LWPOLYLINE
  5
164
330
70
100
AcDbEntity
  8
A-FURN-P-SEAT
100
AcDbPolyline
 90
        2
 70
     0
 10
-8.127654425728763
 20
21.95935037926927
 40
0.0
 41
0.0
 10
-8.09226754278729
 20
22.28321528080164
 40
0.1770592414725435
 41
0.1770592414725435
  0
LWPOLYLINE
  5
165
330
70
100
AcDbEntity
  8
A-FURN-P-SEAT
100
AcDbPolyline
 90
        2
 70
     0
 10
-8.077240524963521
 20
21.91404817880533
 40
0.0
 41
0.0
 10
-8.008136250668449
 20
21.79487031160716
 40
0.1770592414725435
 41
0.1770592414725435
  0
LWPOLYLINE
  5
166
330
70
100
AcDbEntity
  8
A-FURN-P-SEAT
100
AcDbPolyline
 90
        2
 70
     0
 10
-12.35615153697182
 20
7.076680456223471
 40
0.0
 41
0.0
 10
-12.65322879174336
 20
7.210415071900115
 40
0.1770592414725435
 41
0.1770592414725435
  0
LWPOLYLINE
  5
167
330
70
100
AcDbEntity
  8
A-FURN-P-SEAT
100
AcDbPolyline
 90
        2
 70
     0
 10
-12.12862704755402
 20
7.101060628478023
 40
0.0
 41
0.0
 10
-12.35615153697182
 20
7.076680456223471
 40
0.1770592414725435
 41
0.1770592414725435
  0
LWPOLYLINE
  5
168
330
70
100
AcDbEntity
  8
A-FURN-P-SEAT
100
AcDbPolyline
 90
        2
 70
     0
 10
-12.12862704755402
 20
7.101060628478023
 40
0.0
 41
0.0
 10
-11.96129933611129
 20
7.184802921443406
 40
0.1770592414725435
 41
0.1770592414725435
  0
LWPOLYLINE
  5
169
330
70
100
AcDbEntity
  8
A-FURN-P-SEAT
100
AcDbPolyline
 90
        2
 70
     0
 10
-11.68368531845862
 20
7.270182304155355
 40
0.0
 41
0.0
 10
-11.95951351660179
 20
7.185472913613125
 40
0.1770592414725435
 41
0.1770592414725435
  0
LWPOLYLINE
  5
16A
330
70
100
AcDbEntity
  8
A-FURN-P-SEAT
100
AcDbPolyline
 90
        2
 70
     0
 10
-9.735139336031963
 20
7.868562332496196
 40
0.0
 41
0.0
 10
-11.68368531845862
 20
7.270182304155355
 40
0.1770592414725435
 41
0.1770592414725435
  0
LWPOLYLINE
  5
16B
330
70
100
AcDbEntity
  8
A-FURN-P-SEAT
100
AcDbPolyline
 90
        2
 70
     0
 10
-12.8214697747536
 20
7.728203045299835
 40
0.0
 41
0.0
 10
-12.80758833022215
 20
7.446490460325549
 40
0.1770592414725435
 41
0.1770592414725435
  0
LWPOLYLINE
  5
16C
330
70
100
AcDbEntity
  8
A-FURN-P-SEAT
100
AcDbPolyline
 90
        2
 70
     0
 10
-12.65973731240064
 20
8.011018001111551
 40
0.0
 41
0.0
 10
-12.8214697747536
 20
7.728203045299835
 40
0.1770592414725435
 41
0.1770592414725435
  0
LWPOLYLINE
  5
16D
330
70
100
AcDbEntity
  8
A-FURN-P-SEAT
100
AcDbPolyline
 90
        2
 70
     0
 10
7.902042446016864
 20
21.61574709055674
 40
0.0
 41
0.0
 10
7.736249484079223
 20
21.37959592077596
 40
0.1770592414725435
 41
0.1770592414725435
  0
LWPOLYLINE
  5
16E
330
70
100
AcDbEntity
  8
A-FURN-P-SEAT
100
AcDbPolyline
 90
        2
 70
     0
 10
7.902042446016864
 20
21.61574709055674
 40
0.0
 41
0.0
 10
7.90323122176413
 20
21.6172384605477
 40
0.1770592414725435
 41
0.1770592414725435
  0
LWPOLYLINE
  5
16F
330
70
100
AcDbEntity
  8
A-FURN-P-SEAT
100
AcDbPolyline
 90
        2
 70
     0
 10
8.034582974169012
 20
21.75049749510169
 40
0.0
 41
0.0
 10
7.90323122176413
 20
21.6172384605477
 40
0.1770592414725435
 41
0.1770592414725435
  0
LWPOLYLINE
  5
170
330
70
100
AcDbEntity
  8
A-FURN-P-SEAT
100
AcDbPolyline
 90
        2
 70
     0
 10
8.008565535108544
 20
21.79487031160716
 40
0.0
 41
0.0
 10
7.90323122176413
 20
21.6172384605477
 40
0.1770592414725435
 41
0.1770592414725435
  0
LWPOLYLINE
  5
171
330
70
100
AcDbEntity
  8
A-FURN-P-SEAT
100
AcDbPolyline
 90
        2
 70
     0
 10
8.09269133839092
 20
22.28322059257891
 40
0.0
 41
0.0
 10
7.915875199256916
 20
22.50297218129606
 40
0.1770592414725435
 41
0.1770592414725435
  0
LWPOLYLINE
  5
172
330
70
100
AcDbEntity
  8
A-FURN-P-SEAT
100
AcDbPolyline
 90
        2
 70
     0
 10
8.008565535108544
 20
21.79487031160716
 40
0.0
 41
0.0
 10
8.077664497626386
 20
21.91405366764184
 40
0.1770592414725435
 41
0.1770592414725435
  0
LWPOLYLINE
  5
173
330
70
100
AcDbEntity
  8
A-FURN-P-SEAT
100
AcDbPolyline
 90
        2
 70
     0
 10
8.034582974169012
 20
21.75049749510169
 40
0.0
 41
0.0
 10
8.128083710168851
 20
21.95935037926927
 40
0.1770592414725435
 41
0.1770592414725435
  0
LWPOLYLINE
  5
174
330
70
100
AcDbEntity
  8
A-FURN-P-SEAT
100
AcDbPolyline
 90
        2
 70
     0
 10
8.128083710168851
 20
21.95935037926927
 40
0.0
 41
0.0
 10
8.09269133839092
 20
22.28322059257891
 40
0.1770592414725435
 41
0.1770592414725435
  0
LWPOLYLINE
  5
175
330
70
100
AcDbEntity
  8
A-FURN-P-SEAT
100
AcDbPolyline
 90
        2
 70
     0
 10
-7.569881163827261
 20
17.51243369598262
 40
0.0
 41
0.0
 10
-7.518721666596185
 20
17.55633110842473
 40
0.1770592414725435
 41
0.1770592414725435
  0
LWPOLYLINE
  5
176
330
70
100
AcDbEntity
  8
A-FURN-P-SEAT
100
AcDbPolyline
 90
        2
 70
     0
 10
-7.608067176317163
 20
16.9413949786508
 40
0.0
 41
0.0
 10
-7.654974241745797
 20
16.9355105918197
 40
0.1770592414725435
 41
0.1770592414725435
  0
LWPOLYLINE
  5
177
330
70
100
AcDbEntity
  8
A-FURN-P-SEAT
100
AcDbPolyline
 90
        2
 70
     0
 10
-7.62160813592726
 20
17.33179201487735
 40
0.0
 41
0.0
 10
-7.541286273388692
 20
17.40102058475997
 40
0.1770592414725435
 41
0.1770592414725435
  0
LWPOLYLINE
  5
178
330
70
100
AcDbEntity
  8
A-FURN-P-SEAT
100
AcDbPolyline
 90
        2
 70
     0
 10
-7.658529591314568
 20
16.98288243775715
 40
0.0
 41
0.0
 10
-7.669368981018273
 20
16.98273105210569
 40
0.1770592414725435
 41
0.1770592414725435
  0
LWPOLYLINE
  5
179
330
70
100
AcDbEntity
  8
A-FURN-P-SEAT
100
AcDbPolyline
 90
        2
 70
     0
 10
-7.624941984384946
 20
16.98463302247762
 40
0.0
 41
0.0
 10
-7.658529591314568
 20
16.98288243775715
 40
0.1770592414725435
 41
0.1770592414725435
  0
LWPOLYLINE
  5
17A
330
70
100
AcDbEntity
  8
A-FURN-P-SEAT
100
AcDbPolyline
 90
        2
 70
     0
 10
-7.624931183771224
 20
16.98463302247762
 40
0.0
 41
0.0
 10
-7.601766700268612
 20
16.98473571683769
 40
0.1770592414725435
 41
0.1770592414725435
  0
LWPOLYLINE
  5
17B
330
70
100
AcDbEntity
  8
A-FURN-P-SEAT
100
AcDbPolyline
 90
        2
 70
     0
 10
-7.163117125437423
 20
22.38334600009847
 40
0.0
 41
0.0
 10
-7.332854790215833
 20
22.53680306762351
 40
0.1770592414725435
 41
0.1770592414725435
  0
LWPOLYLINE
  5
17C
330
70
100
AcDbEntity
  8
A-FURN-P-SEAT
100
AcDbPolyline
 90
        2
 70
     0
 10
-7.163117125437423
 20
22.38334600009847
 40
0.0
 41
0.0
 10
-7.076970367972883
 20
22.21723946624416
 40
0.1770592414725435
 41
0.1770592414725435
  0
LWPOLYLINE
  5
17D
330
70
100
AcDbEntity
  8
A-FURN-P-SEAT
100
AcDbPolyline
 90
        2
 70
     0
 10
-7.332854790215833
 20
22.53680306762351
 40
0.0
 41
0.0
 10
-7.651807714271306
 20
22.60322737323964
 40
0.1770592414725435
 41
0.1770592414725435
  0
LWPOLYLINE
  5
17E
330
70
100
AcDbEntity
  8
A-FURN-P-SEAT
100
AcDbPolyline
 90
        2
 70
     0
 10
-12.46133446466479
 20
8.125030164939744
 40
0.0
 41
0.0
 10
-12.65973731240064
 20
8.011018001111551
 40
0.1770592414725435
 41
0.1770592414725435
  0
LWPOLYLINE
  5
17F
330
70
100
AcDbEntity
  8
A-FURN-P-SEAT
100
AcDbPolyline
 90
        2
 70
     0
 10
-12.46636772772213
 20
8.073838265867493
 40
0.0
 41
0.0
 10
-12.59232147503224
 20
8.018037160621247
 40
0.1770592414725435
 41
0.1770592414725435
  0
LWPOLYLINE
  5
180
330
70
100
AcDbEntity
  8
A-FURN-P-SEAT
100
AcDbPolyline
 90
        2
 70
     0
 10
-12.46636772772213
 20
8.073838265867493
 40
0.0
 41
0.0
 10
-12.27674029011214
 20
8.155635208946762
 40
0.1770592414725435
 41
0.1770592414725435
  0
LWPOLYLINE
  5
181
330
70
100
AcDbEntity
  8
A-FURN-P-SEAT
100
AcDbPolyline
 90
        2
 70
     0
 10
-12.46133446466479
 20
8.125030164939744
 40
0.0
 41
0.0
 10
-12.27674029011214
 20
8.155635208946762
 40
0.1770592414725435
 41
0.1770592414725435
  0
LWPOLYLINE
  5
182
330
70
100
AcDbEntity
  8
A-FURN-P-SEAT
100
AcDbPolyline
 90
        2
 70
     0
 10
-12.27490312342262
 20
8.15613770307408
 40
0.0
 41
0.0
 10
-12.27674029011214
 20
8.155635208946762
 40
0.1770592414725435
 41
0.1770592414725435
  0
LWPOLYLINE
  5
183
330
70
100
AcDbEntity
  8
A-FURN-P-SEAT
100
AcDbPolyline
 90
        2
 70
     0
 10
-12.27490312342262
 20
8.15613770307408
 40
0.0
 41
0.0
 10
-12.00196010561924
 20
8.249741133433985
 40
0.1770592414725435
 41
0.1770592414725435
  0
LWPOLYLINE
  5
184
330
70
100
AcDbEntity
  8
A-FURN-P-SEAT
100
AcDbPolyline
 90
        2
 70
     0
 10
-6.302968465081818
 20
21.18725044675011
 40
0.0
 41
0.0
 10
-6.902558870397321
 20
21.98499510862644
 40
0.1770592414725435
 41
0.1770592414725435
  0
LWPOLYLINE
  5
185
330
70
100
AcDbEntity
  8
A-FURN-P-SEAT
100
AcDbPolyline
 90
        2
 70
     0
 10
-9.82468474563656
 20
8.996407214152611
 40
0.0
 41
0.0
 10
-12.00196010561924
 20
8.249741133433985
 40
0.1770592414725435
 41
0.1770592414725435
  0
LWPOLYLINE
  5
186
330
70
100
AcDbEntity
  8
A-FURN-P-SEAT
100
AcDbPolyline
 90
        2
 70
     0
 10
-8.09226754278729
 20
22.28321528080164
 40
0.0
 41
0.0
 10
-7.915446091876049
 20
22.50296686951879
 40
0.1770592414725435
 41
0.1770592414725435
  0
LWPOLYLINE
  5
187
330
70
100
AcDbEntity
  8
A-FURN-P-SEAT
100
AcDbPolyline
 90
        2
 70
     0
 10
-7.902802114383263
 20
21.6172384605477
 40
0.0
 41
0.0
 10
-8.008136250668449
 20
21.79487031160716
 40
0.1770592414725435
 41
0.1770592414725435
  0
LWPOLYLINE
  5
188
330
70
100
AcDbEntity
  8
A-FURN-P-SEAT
100
AcDbPolyline
 90
        2
 70
     0
 10
-7.651807714271306
 20
22.60322737323964
 40
0.0
 41
0.0
 10
-7.915446091876049
 20
22.50296686951879
 40
0.1770592414725435
 41
0.1770592414725435
  0
LWPOLYLINE
  5
189
330
70
100
AcDbEntity
  8
A-FURN-P-SEAT
100
AcDbPolyline
 90
        2
 70
     0
 10
-7.902802114383263
 20
21.6172384605477
 40
0.0
 41
0.0
 10
-7.901613338636011
 20
21.61574709055674
 40
0.1770592414725435
 41
0.1770592414725435
  0
LWPOLYLINE
  5
18A
330
70
100
AcDbEntity
  8
A-FURN-P-SEAT
100
AcDbPolyline
 90
        2
 70
     0
 10
-7.735820199639128
 20
21.37959592077596
 40
0.0
 41
0.0
 10
-7.901613338636011
 20
21.61574709055674
 40
0.1770592414725435
 41
0.1770592414725435
  0
LWPOLYLINE
  5
18B
330
70
100
AcDbEntity
  8
A-FURN-P-SEAT
100
AcDbPolyline
 90
        2
 70
     0
 10
-6.834513587425504
 20
20.09579230157169
 40
0.0
 41
0.0
 10
-7.735820199639128
 20
21.37959592077596
 40
0.1770592414725435
 41
0.1770592414725435
  0
LWPOLYLINE
  5
18C
330
70
100
AcDbEntity
  8
A-FURN-P-SEAT
100
AcDbPolyline
 90
        2
 70
     0
 10
-7.213358216382985
 20
22.37231219934762
 40
0.0
 41
0.0
 10
-7.305351292941701
 20
22.4748581837573
 40
0.1770592414725435
 41
0.1770592414725435
  0
LWPOLYLINE
  5
18D
330
70
100
AcDbEntity
  8
A-FURN-P-SEAT
100
AcDbPolyline
 90
        2
 70
     0
 10
-7.213358216382985
 20
22.37231219934762
 40
0.0
 41
0.0
 10
-7.076970367972883
 20
22.21723946624416
 40
0.1770592414725435
 41
0.1770592414725435
  0
LWPOLYLINE
  5
18E
330
70
100
AcDbEntity
  8
A-FURN-P-SEAT
100
AcDbPolyline
 90
        2
 70
     0
 10
-7.075922177263372
 20
22.21565089072965
 40
0.0
 41
0.0
 10
-7.076970367972883
 20
22.21723946624416
 40
0.1770592414725435
 41
0.1770592414725435
  0
LWPOLYLINE
  5
18F
330
70
100
AcDbEntity
  8
A-FURN-P-SEAT
100
AcDbPolyline
 90
        2
 70
     0
 10
-7.075922177263372
 20
22.21565089072965
 40
0.0
 41
0.0
 10
-6.902558870397321
 20
21.98499510862644
 40
0.1770592414725435
 41
0.1770592414725435
  0
LWPOLYLINE
  5
190
330
70
100
AcDbEntity
  8
A-FURN-P-SEAT
100
AcDbPolyline
 90
        2
 70
     0
 10
9.798761594931335
 20
10.06469025227392
 40
0.0
 41
0.0
 10
9.798680501798742
 20
10.06489015215754
 40
0.1770592414725435
 41
0.1770592414725435
  0
LWPOLYLINE
  5
191
330
70
100
AcDbEntity
  8
A-FURN-P-SEAT
100
AcDbPolyline
 90
        2
 70
     0
 10
9.798680501798742
 20
10.06490095277126
 40
0.0
 41
0.0
 10
9.799361294582212
 20
10.07384899565755
 40
0.1770592414725435
 41
0.1770592414725435
  0
LWPOLYLINE
  5
192
330
70
100
AcDbEntity
  8
A-FURN-P-SEAT
100
AcDbPolyline
 90
        2
 70
     0
 10
9.799361294582212
 20
10.07384899565755
 40
0.0
 41
0.0
 10
9.705304061386399
 20
11.42160234051909
 40
0.1770592414725435
 41
0.1770592414725435
  0
LWPOLYLINE
  5
193
330
70
100
AcDbEntity
  8
A-FURN-P-SEAT
100
AcDbPolyline
 90
        2
 70
     0
 10
9.705304061386399
 20
11.42160234051909
 40
0.0
 41
0.0
 10
9.366871610761847
 20
12.75705732752715
 40
0.1770592414725435
 41
0.1770592414725435
  0
LWPOLYLINE
  5
194
330
70
100
AcDbEntity
  8
A-FURN-P-SEAT
100
AcDbPolyline
 90
        2
 70
     0
 10
9.366871610761847
 20
12.75705732752715
 40
0.0
 41
0.0
 10
8.420143991333276
 20
14.54337915408729
 40
0.1770592414725435
 41
0.1770592414725435
  0
LWPOLYLINE
  5
195
330
70
100
AcDbEntity
  8
A-FURN-P-SEAT
100
AcDbPolyline
 90
        2
 70
     0
 10
8.420143991333276
 20
14.54337915408729
 40
0.0
 41
0.0
 10
7.314944809601939
 20
16.06094027918686
 40
0.1770592414725435
 41
0.1770592414725435
  0
LWPOLYLINE
  5
196
330
70
100
AcDbEntity
  8
A-FURN-P-SEAT
100
AcDbPolyline
 90
        2
 70
     0
 10
1.30313304595591
 20
22.54540531381116
 40
0.0
 41
0.0
 10
0.0002227869451588
 20
22.59903956806033
 40
0.1770592414725435
 41
0.1770592414725435
  0
LWPOLYLINE
  5
197
330
70
100
AcDbEntity
  8
A-FURN-P-SEAT
100
AcDbPolyline
 90
        2
 70
     0
 10
6.471530549335618
 20
20.72110286348124
 40
0.0
 41
0.0
 10
6.27521345946431
 20
21.01070450001856
 40
0.1770592414725435
 41
0.1770592414725435
  0
LWPOLYLINE
  5
198
330
70
100
AcDbEntity
  8
A-FURN-P-SEAT
100
AcDbPolyline
 90
        2
 70
     0
 10
1.294028305640914
 20
22.40252275536466
 40
0.0
 41
0.0
 10
0.0002227869451588
 20
22.45575720984652
 40
0.1770592414725435
 41
0.1770592414725435
  0
LWPOLYLINE
  5
199
330
70
100
AcDbEntity
  8
A-FURN-P-SEAT
100
AcDbPolyline
 90
        2
 70
     0
 10
2.955995761019146
 20
22.24224111643628
 40
0.0
 41
0.0
 10
1.294028305640914
 20
22.40252275536466
 40
0.1770592414725435
 41
0.1770592414725435
  0
LWPOLYLINE
  5
19A
330
70
100
AcDbEntity
  8
A-FURN-P-SEAT
100
AcDbPolyline
 90
        2
 70
     0
 10
4.573720007256717
 20
21.90339257659429
 40
0.0
 41
0.0
 10
2.955995761019146
 20
22.24224111643628
 40
0.1770592414725435
 41
0.1770592414725435
  0
LWPOLYLINE
  5
19B
330
70
100
AcDbEntity
  8
A-FURN-P-SEAT
100
AcDbPolyline
 90
        2
 70
     0
 10
5.362554339865191
 20
21.5974618285714
 40
0.0
 41
0.0
 10
4.573720007256717
 20
21.90339257659429
 40
0.1770592414725435
 41
0.1770592414725435
  0
LWPOLYLINE
  5
19C
330
70
100
AcDbEntity
  8
A-FURN-P-SEAT
100
AcDbPolyline
 90
        2
 70
     0
 10
5.903339298725121
 20
21.32668566176517
 40
0.0
 41
0.0
 10
5.362554339865191
 20
21.5974618285714
 40
0.1770592414725435
 41
0.1770592414725435
  0
LWPOLYLINE
  5
19D
330
70
100
AcDbEntity
  8
A-FURN-P-SEAT
100
AcDbPolyline
 90
        2
 70
     0
 10
6.27521345946431
 20
21.01070450001856
 40
0.0
 41
0.0
 10
5.903339298725121
 20
21.32668566176517
 40
0.1770592414725435
 41
0.1770592414725435
  0
LWPOLYLINE
  5
19E
330
70
100
AcDbEntity
  8
A-FURN-P-SEAT
100
AcDbPolyline
 90
        2
 70
     0
 10
6.30340306129915
 20
21.18725593558656
 40
0.0
 41
0.0
 10
6.90298815483743
 20
21.98499510862644
 40
0.1770592414725435
 41
0.1770592414725435
  0
LWPOLYLINE
  5
19F
330
70
100
AcDbEntity
  8
A-FURN-P-SEAT
100
AcDbPolyline
 90
        2
 70
     0
 10
6.834948360702085
 20
20.09580841396269
 40
0.0
 41
0.0
 10
7.736249484079223
 20
21.37959592077596
 40
0.1770592414725435
 41
0.1770592414725435
  0
LWPOLYLINE
  5
1A0
330
70
100
AcDbEntity
  8
A-FURN-P-SEAT
100
AcDbPolyline
 90
        2
 70
     0
 10
6.90298815483743
 20
21.98499510862644
 40
0.0
 41
0.0
 10
7.076351461703467
 20
22.21565089072965
 40
0.1770592414725435
 41
0.1770592414725435
  0
LWPOLYLINE
  5
1A1
330
70
100
AcDbEntity
  8
A-FURN-P-SEAT
100
AcDbPolyline
 90
        2
 70
     0
 10
7.077399652412985
 20
22.21724477802138
 40
0.0
 41
0.0
 10
7.076351461703467
 20
22.21565089072965
 40
0.1770592414725435
 41
0.1770592414725435
  0
LWPOLYLINE
  5
1A2
330
70
100
AcDbEntity
  8
A-FURN-P-SEAT
100
AcDbPolyline
 90
        2
 70
     0
 10
7.163546409877525
 20
22.38334600009847
 40
0.0
 41
0.0
 10
7.077399652412985
 20
22.21724477802138
 40
0.1770592414725435
 41
0.1770592414725435
  0
LWPOLYLINE
  5
1A3
330
70
100
AcDbEntity
  8
A-FURN-P-SEAT
100
AcDbPolyline
 90
        2
 70
     0
 10
7.077399652412985
 20
22.21724477802138
 40
0.0
 41
0.0
 10
7.213787323763845
 20
22.37231219934762
 40
0.1770592414725435
 41
0.1770592414725435
  0
LWPOLYLINE
  5
1A4
330
70
100
AcDbEntity
  8
A-FURN-P-SEAT
100
AcDbPolyline
 90
        2
 70
     0
 10
7.163546409877525
 20
22.38334600009847
 40
0.0
 41
0.0
 10
7.333284074655935
 20
22.53680855645996
 40
0.1770592414725435
 41
0.1770592414725435
  0
LWPOLYLINE
  5
1A5
330
70
100
AcDbEntity
  8
A-FURN-P-SEAT
100
AcDbPolyline
 90
        2
 70
     0
 10
7.305780577381803
 20
22.4748581837573
 40
0.0
 41
0.0
 10
7.213787323763845
 20
22.37231219934762
 40
0.1770592414725435
 41
0.1770592414725435
  0
LWPOLYLINE
  5
1A6
330
70
100
AcDbEntity
  8
A-FURN-P-SEAT
100
AcDbPolyline
 90
        2
 70
     0
 10
7.333284074655935
 20
22.53680855645996
 40
0.0
 41
0.0
 10
7.652236998711401
 20
22.60323268501685
 40
0.1770592414725435
 41
0.1770592414725435
  0
LWPOLYLINE
  5
1A7
330
70
100
AcDbEntity
  8
A-FURN-P-SEAT
100
AcDbPolyline
 90
        2
 70
     0
 10
7.570321248881086
 20
17.51243369598262
 40
0.0
 41
0.0
 10
7.519167063427261
 20
17.55632561958822
 40
0.1770592414725435
 41
0.1770592414725435
  0
LWPOLYLINE
  5
1A8
330
70
100
AcDbEntity
  8
A-FURN-P-SEAT
100
AcDbPolyline
 90
        2
 70
     0
 10
7.576556744188039
 20
17.49142526286346
 40
0.0
 41
0.0
 10
7.521798517874017
 20
17.53822414509551
 40
0.1770592414725435
 41
0.1770592414725435
  0
LWPOLYLINE
  5
1A9
330
70
100
AcDbEntity
  8
A-FURN-P-SEAT
100
AcDbPolyline
 90
        2
 70
     0
 10
7.652236998711401
 20
22.60323268501685
 40
0.0
 41
0.0
 10
7.915875199256916
 20
22.50297218129606
 40
0.1770592414725435
 41
0.1770592414725435
  0
LWPOLYLINE
  5
1AA
330
70
100
AcDbEntity
  8
A-FURN-P-SEAT
100
AcDbPolyline
 90
        2
 70
     0
 10
12.00975965804488
 20
6.65323070903571
 40
0.0
 41
0.0
 10
12.62645186137575
 20
6.65323070903571
 40
0.1770592414725435
 41
0.1770592414725435
  0
LWPOLYLINE
  5
1AB
330
70
100
AcDbEntity
  8
A-FURN-P-SEAT
100
AcDbPolyline
 90
        2
 70
     0
 10
12.01903189640232
 20
6.681760795791944
 40
0.0
 41
0.0
 10
12.61717962301831
 20
6.681760795791944
 40
0.1770592414725435
 41
0.1770592414725435
  0
LWPOLYLINE
  5
1AC
330
70
100
AcDbEntity
  8
A-FURN-P-SEAT
100
AcDbPolyline
 90
        2
 70
     0
 10
12.10840449618725
 20
6.956816307405347
 40
0.0
 41
0.0
 10
12.52780702323339
 20
6.956816307405347
 40
0.1770592414725435
 41
0.1770592414725435
  0
LWPOLYLINE
  5
1AD
330
70
100
AcDbEntity
  8
A-FURN-P-SEAT
100
AcDbPolyline
 90
        2
 70
     0
 10
12.42683332488795
 20
7.108306600876062
 40
0.0
 41
0.0
 10
12.47858189821541
 20
7.108306600876062
 40
0.1770592414725435
 41
0.1770592414725435
  0
LWPOLYLINE
  5
1AE
330
70
100
AcDbEntity
  8
A-FURN-P-SEAT
100
AcDbPolyline
 90
        2
 70
     0
 10
12.47858189821541
 20
7.108306600876062
 40
0.0
 41
0.0
 10
12.5628751995402
 20
7.169549090731266
 40
0.1770592414725435
 41
0.1770592414725435
  0
LWPOLYLINE
  5
1AF
330
70
100
AcDbEntity
  8
A-FURN-P-SEAT
100
AcDbPolyline
 90
        2
 70
     0
 10
12.61717962301831
 20
6.681760795791944
 40
0.0
 41
0.0
 10
13.10108819585851
 20
7.033345029813858
 40
0.1770592414725435
 41
0.1770592414725435
  0
LWPOLYLINE
  5
1B0
330
70
100
AcDbEntity
  8
A-FURN-P-SEAT
100
AcDbPolyline
 90
        2
 70
     0
 10
12.62645186137575
 20
6.65323070903571
 40
0.0
 41
0.0
 10
13.12536036197576
 20
7.015708335830026
 40
0.1770592414725435
 41
0.1770592414725435
  0
LWPOLYLINE
  5
1B1
330
70
100
AcDbEntity
  8
A-FURN-P-SEAT
100
AcDbPolyline
 90
        2
 70
     0
 10
12.76590336584104
 20
7.382081620055146
 40
0.0
 41
0.0
 10
12.73824865997468
 20
7.296967117968392
 40
0.1770592414725435
 41
0.1770592414725435
  0
LWPOLYLINE
  5
1B2
330
70
100
AcDbEntity
  8
A-FURN-P-SEAT
100
AcDbPolyline
 90
        2
 70
     0
 10
13.31592816121723
 20
7.602217073207782
 40
0.0
 41
0.0
 10
13.12536036197576
 20
8.188715009971872
 40
0.1770592414725435
 41
0.1770592414725435
  0
LWPOLYLINE
  5
1B3
330
70
100
AcDbEntity
  8
A-FURN-P-SEAT
100
AcDbPolyline
 90
        2
 70
     0
 10
13.31592816121723
 20
7.602217073207782
 40
0.0
 41
0.0
 10
13.12536036197576
 20
7.015708335830026
 40
0.1770592414725435
 41
0.1770592414725435
  0
LWPOLYLINE
  5
1B4
330
70
100
AcDbEntity
  8
A-FURN-P-SEAT
100
AcDbPolyline
 90
        2
 70
     0
 10
12.86711485474778
 20
8.001092060034579
 40
0.0
 41
0.0
 10
12.52780702323339
 20
8.247612173114532
 40
0.1770592414725435
 41
0.1770592414725435
  0
LWPOLYLINE
  5
1B5
330
70
100
AcDbEntity
  8
A-FURN-P-SEAT
100
AcDbPolyline
 90
        2
 70
     0
 10
13.10108819585851
 20
8.171088939542528
 40
0.0
 41
0.0
 10
12.61717962301831
 20
8.522667861787169
 40
0.1770592414725435
 41
0.1770592414725435
  0
LWPOLYLINE
  5
1B6
330
70
100
AcDbEntity
  8
A-FURN-P-SEAT
100
AcDbPolyline
 90
        2
 70
     0
 10
12.10840449618725
 20
8.247612173114532
 40
0.0
 41
0.0
 10
12.07641077654935
 20
8.224366773538577
 40
0.1770592414725435
 41
0.1770592414725435
  0
LWPOLYLINE
  5
1B7
330
70
100
AcDbEntity
  8
A-FURN-P-SEAT
100
AcDbPolyline
 90
        2
 70
     0
 10
12.52780702323339
 20
8.247612173114532
 40
0.0
 41
0.0
 10
12.10840449618725
 20
8.247612173114532
 40
0.1770592414725435
 41
0.1770592414725435
  0
LWPOLYLINE
  5
1B8
330
70
100
AcDbEntity
  8
A-FURN-P-SEAT
100
AcDbPolyline
 90
        2
 70
     0
 10
12.01903189640232
 20
8.522667861787169
 40
0.0
 41
0.0
 10
11.75850604320341
 20
8.333386043816517
 40
0.1770592414725435
 41
0.1770592414725435
  0
LWPOLYLINE
  5
1B9
330
70
100
AcDbEntity
  8
A-FURN-P-SEAT
100
AcDbPolyline
 90
        2
 70
     0
 10
12.61717962301831
 20
8.522667861787169
 40
0.0
 41
0.0
 10
12.01903189640232
 20
8.522667861787169
 40
0.1770592414725435
 41
0.1770592414725435
  0
LWPOLYLINE
  5
1BA
330
70
100
AcDbEntity
  8
A-FURN-P-SEAT
100
AcDbPolyline
 90
        2
 70
     0
 10
-12.01870530632227
 20
8.523154243523492
 40
0.0
 41
0.0
 10
-12.61685303293826
 20
8.523154243523492
 40
0.1770592414725435
 41
0.1770592414725435
  0
LWPOLYLINE
  5
1BB
330
70
100
AcDbEntity
  8
A-FURN-P-SEAT
100
AcDbPolyline
 90
        2
 70
     0
 10
-12.61685303293826
 20
6.682247000469033
 40
0.0
 41
0.0
 10
-12.01870530632227
 20
6.682247000469033
 40
0.1770592414725435
 41
0.1770592414725435
  0
LWPOLYLINE
  5
1BC
330
70
100
AcDbEntity
  8
A-FURN-P-SEAT
100
AcDbPolyline
 90
        2
 70
     0
 10
-12.56095188922056
 20
7.168873609725039
 40
0.0
 41
0.0
 10
-12.47825796402398
 20
7.108792982612385
 40
0.1770592414725435
 41
0.1770592414725435
  0
LWPOLYLINE
  5
1BD
330
70
100
AcDbEntity
  8
A-FURN-P-SEAT
100
AcDbPolyline
 90
        2
 70
     0
 10
-12.52748043315334
 20
6.95730268914167
 40
0.0
 41
0.0
 10
-12.1080779061072
 20
6.95730268914167
 40
0.1770592414725435
 41
0.1770592414725435
  0
LWPOLYLINE
  5
1BE
330
70
100
AcDbEntity
  8
A-FURN-P-SEAT
100
AcDbPolyline
 90
        2
 70
     0
 10
-12.47825796402398
 20
7.108792982612385
 40
0.0
 41
0.0
 10
-12.42749029889427
 20
7.108792982612385
 40
0.1770592414725435
 41
0.1770592414725435
  0
LWPOLYLINE
  5
1BF
330
70
100
AcDbEntity
  8
A-FURN-P-SEAT
100
AcDbPolyline
 90
        2
 70
     0
 10
-12.1080779061072
 20
6.95730268914167
 40
0.0
 41
0.0
 10
-11.76877025165204
 20
7.203822979280857
 40
0.1770592414725435
 41
0.1770592414725435
  0
LWPOLYLINE
  5
1C0
330
70
100
AcDbEntity
  8
A-FURN-P-SEAT
100
AcDbPolyline
 90
        2
 70
     0
 10
-11.75768244783255
 20
8.333510339404028
 40
0.0
 41
0.0
 10
-12.01870530632227
 20
8.523154243523492
 40
0.1770592414725435
 41
0.1770592414725435
  0
LWPOLYLINE
  5
1C1
330
70
100
AcDbEntity
  8
A-FURN-P-SEAT
100
AcDbPolyline
 90
        2
 70
     0
 10
-12.01870530632227
 20
6.682247000469033
 40
0.0
 41
0.0
 10
-11.53479407759346
 20
7.033831411550181
 40
0.1770592414725435
 41
0.1770592414725435
  0
LWPOLYLINE
  5
1C2
330
70
100
AcDbEntity
  8
A-FURN-P-SEAT
100
AcDbPolyline
 90
        2
 70
     0
 10
-11.75425121679205
 20
7.248509190643687
 40
0.0
 41
0.0
 10
-11.76877025165204
 20
7.203822979280857
 40
0.1770592414725435
 41
0.1770592414725435
  0
LWPOLYLINE
  5
1C3
330
70
100
AcDbEntity
  8
A-FURN-P-SEAT
100
AcDbPolyline
 90
        2
 70
     0
 10
-11.43298271197661
 20
7.347170141177002
 40
0.0
 41
0.0
 10
-11.53479407759346
 20
7.033831411550181
 40
0.1770592414725435
 41
0.1770592414725435
  0
LWPOLYLINE
  5
1C4
330
70
100
AcDbEntity
  8
A-FURN-P-SEAT
100
AcDbPolyline
 90
        2
 70
     0
 10
12.83742839408553
 20
7.602217073207782
 40
0.0
 41
0.0
 10
12.81181075479232
 20
7.523370291209914
 40
0.1770592414725435
 41
0.1770592414725435
  0
LWPOLYLINE
  5
1C5
330
70
100
AcDbEntity
  8
A-FURN-P-SEAT
100
AcDbPolyline
 90
        2
 70
     0
 10
12.83742839408553
 20
7.602217073207782
 40
0.0
 41
0.0
 10
12.81855972189952
 20
7.660293035588495
 40
0.1770592414725435
 41
0.1770592414725435
  0
LWPOLYLINE
  5
1C6
330
70
100
AcDbEntity
  8
A-FURN-P-SEAT
100
AcDbPolyline
 90
        2
 70
     0
 10
12.7630504102832
 20
7.83112740530862
 40
0.0
 41
0.0
 10
12.73824865997468
 20
7.907467028447229
 40
0.1770592414725435
 41
0.1770592414725435
  0
LWPOLYLINE
  5
1C7
330
70
100
AcDbEntity
  8
A-FURN-P-SEAT
100
AcDbPolyline
 90
        2
 70
     0
 10
13.12536036197576
 20
8.188715009971872
 40
0.0
 41
0.0
 10
12.62644654959851
 20
8.551197948543347
 40
0.1770592414725435
 41
0.1770592414725435
  0
LWPOLYLINE
  5
1C8
330
70
100
AcDbEntity
  8
A-FURN-P-SEAT
100
AcDbPolyline
 90
        2
 70
     0
 10
12.00975965804488
 20
8.551197948543347
 40
0.0
 41
0.0
 10
11.72553442537487
 20
8.344695348747109
 40
0.1770592414725435
 41
0.1770592414725435
  0
LWPOLYLINE
  5
1C9
330
70
100
AcDbEntity
  8
A-FURN-P-SEAT
100
AcDbPolyline
 90
        2
 70
     0
 10
12.62644654959851
 20
8.551197948543347
 40
0.0
 41
0.0
 10
12.00975965804488
 20
8.551197948543347
 40
0.1770592414725435
 41
0.1770592414725435
  0
LWPOLYLINE
  5
1CA
330
70
100
AcDbEntity
  8
A-FURN-P-SEAT
100
AcDbPolyline
 90
        2
 70
     0
 10
-12.62612261540708
 20
6.653716913712798
 40
0.0
 41
0.0
 10
-12.00943572385346
 20
6.653716913712798
 40
0.1770592414725435
 41
0.1770592414725435
  0
LWPOLYLINE
  5
1CB
330
70
100
AcDbEntity
  8
A-FURN-P-SEAT
100
AcDbPolyline
 90
        2
 70
     0
 10
-12.29748933144258
 20
7.110624660465418
 40
0.0
 41
0.0
 10
-12.16278744112979
 20
7.139516833370407
 40
0.1770592414725435
 41
0.1770592414725435
  0
LWPOLYLINE
  5
1CC
330
70
100
AcDbEntity
  8
A-FURN-P-SEAT
100
AcDbPolyline
 90
        2
 70
     0
 10
-11.96129933611129
 20
7.184802921443406
 40
0.0
 41
0.0
 10
-12.16278744112979
 20
7.139516833370407
 40
0.1770592414725435
 41
0.1770592414725435
  0
LWPOLYLINE
  5
1CD
330
70
100
AcDbEntity
  8
A-FURN-P-SEAT
100
AcDbPolyline
 90
        2
 70
     0
 10
-11.72470799705616
 20
8.34481964433462
 40
0.0
 41
0.0
 10
-12.00943572385346
 20
8.551684153220435
 40
0.1770592414725435
 41
0.1770592414725435
  0
LWPOLYLINE
  5
1CE
330
70
100
AcDbEntity
  8
A-FURN-P-SEAT
100
AcDbPolyline
 90
        2
 70
     0
 10
-12.00943572385346
 20
6.653716913712798
 40
0.0
 41
0.0
 10
-11.51052456736482
 20
7.016194540507058
 40
0.1770592414725435
 41
0.1770592414725435
  0
LWPOLYLINE
  5
1CF
330
70
100
AcDbEntity
  8
A-FURN-P-SEAT
100
AcDbPolyline
 90
        2
 70
     0
 10
-11.96129933611129
 20
7.184802921443406
 40
0.0
 41
0.0
 10
-11.95951351660179
 20
7.185472913613125
 40
0.1770592414725435
 41
0.1770592414725435
  0
LWPOLYLINE
  5
1D0
330
70
100
AcDbEntity
  8
A-FURN-P-SEAT
100
AcDbPolyline
 90
        2
 70
     0
 10
-11.39965998567223
 20
7.357404342393351
 40
0.0
 41
0.0
 10
-11.51052456736482
 20
7.016194540507058
 40
0.1770592414725435
 41
0.1770592414725435
  0
LWPOLYLINE
  5
1D1
330
70
100
AcDbEntity
  8
A-FURN-P-SEAT
100
AcDbPolyline
 90
        2
 70
     0
 10
-13.12503377189572
 20
8.18920121464896
 40
0.0
 41
0.0
 10
-13.31559891524855
 20
7.60270327788487
 40
0.1770592414725435
 41
0.1770592414725435
  0
LWPOLYLINE
  5
1D2
330
70
100
AcDbEntity
  8
A-FURN-P-SEAT
100
AcDbPolyline
 90
        2
 70
     0
 10
-12.81815735046413
 20
7.66100623021316
 40
0.0
 41
0.0
 10
-12.83710180400548
 20
7.60270327788487
 40
0.1770592414725435
 41
0.1770592414725435
  0
LWPOLYLINE
  5
1D3
330
70
100
AcDbEntity
  8
A-FURN-P-SEAT
100
AcDbPolyline
 90
        2
 70
     0
 10
-12.73792206989464
 20
7.907953233124317
 40
0.0
 41
0.0
 10
-12.7632397708328
 20
7.830030523307698
 40
0.1770592414725435
 41
0.1770592414725435
  0
LWPOLYLINE
  5
1D4
330
70
100
AcDbEntity
  8
A-FURN-P-SEAT
100
AcDbPolyline
 90
        2
 70
     0
 10
-12.70500179924613
 20
7.931868801929226
 40
0.0
 41
0.0
 10
-12.73792206989464
 20
7.907953233124317
 40
0.1770592414725435
 41
0.1770592414725435
  0
LWPOLYLINE
  5
1D5
330
70
100
AcDbEntity
  8
A-FURN-P-SEAT
100
AcDbPolyline
 90
        2
 70
     0
 10
-12.62612261540708
 20
8.551684153220435
 40
0.0
 41
0.0
 10
-13.12503377189572
 20
8.18920121464896
 40
0.1770592414725435
 41
0.1770592414725435
  0
LWPOLYLINE
  5
1D6
330
70
100
AcDbEntity
  8
A-FURN-P-SEAT
100
AcDbPolyline
 90
        2
 70
     0
 10
-12.00943572385346
 20
8.551684153220435
 40
0.0
 41
0.0
 10
-12.62612261540708
 20
8.551684153220435
 40
0.1770592414725435
 41
0.1770592414725435
  0
LWPOLYLINE
  5
1D7
330
70
100
AcDbEntity
  8
A-FURN-P-SEAT
100
AcDbPolyline
 90
        2
 70
     0
 10
-13.10076443872632
 20
8.171575321278851
 40
0.0
 41
0.0
 10
-13.28560189267675
 20
7.60270327788487
 40
0.1770592414725435
 41
0.1770592414725435
  0
LWPOLYLINE
  5
1D8
330
70
100
AcDbEntity
  8
A-FURN-P-SEAT
100
AcDbPolyline
 90
        2
 70
     0
 10
-12.86678826466774
 20
8.001578264711667
 40
0.0
 41
0.0
 10
-12.99638925529295
 20
7.60270327788487
 40
0.1770592414725435
 41
0.1770592414725435
  0
LWPOLYLINE
  5
1D9
330
70
100
AcDbEntity
  8
A-FURN-P-SEAT
100
AcDbPolyline
 90
        2
 70
     0
 10
-12.52748043315334
 20
8.248098554850855
 40
0.0
 41
0.0
 10
-12.86678826466774
 20
8.001578264711667
 40
0.1770592414725435
 41
0.1770592414725435
  0
LWPOLYLINE
  5
1DA
330
70
100
AcDbEntity
  8
A-FURN-P-SEAT
100
AcDbPolyline
 90
        2
 70
     0
 10
-12.61685303293826
 20
8.523154243523492
 40
0.0
 41
0.0
 10
-13.10076443872632
 20
8.171575321278851
 40
0.1770592414725435
 41
0.1770592414725435
  0
LWPOLYLINE
  5
1DB
330
70
100
AcDbEntity
  8
A-FURN-P-SEAT
100
AcDbPolyline
 90
        2
 70
     0
 10
-12.07558434823063
 20
8.224490892066853
 40
0.0
 41
0.0
 10
-12.1080779061072
 20
8.248098554850855
 40
0.1770592414725435
 41
0.1770592414725435
  0
LWPOLYLINE
  5
1DC
330
70
100
AcDbEntity
  8
A-FURN-P-SEAT
100
AcDbPolyline
 90
        2
 70
     0
 10
-12.1080779061072
 20
8.248098554850855
 40
0.0
 41
0.0
 10
-12.52748043315334
 20
8.248098554850855
 40
0.1770592414725435
 41
0.1770592414725435
  0
LWPOLYLINE
  5
1DD
330
70
100
AcDbEntity
  8
A-FURN-P-SEAT
100
AcDbPolyline
 90
        2
 70
     0
 10
-8.610768887870946
 20
22.08326706000622
 40
0.0
 41
0.0
 10
-8.420201088629497
 20
21.49676381146492
 40
0.1770592414725435
 41
0.1770592414725435
  0
LWPOLYLINE
  5
1DE
330
70
100
AcDbEntity
  8
A-FURN-P-SEAT
100
AcDbPolyline
 90
        2
 70
     0
 10
-8.580774521187777
 20
22.08326706000622
 40
0.0
 41
0.0
 10
-8.395934234289477
 20
21.5143950166123
 40
0.1770592414725435
 41
0.1770592414725435
  0
LWPOLYLINE
  5
1DF
330
70
100
AcDbEntity
  8
A-FURN-P-SEAT
100
AcDbPolyline
 90
        2
 70
     0
 10
-6.829963873156614
 20
22.65214441517742
 40
0.0
 41
0.0
 10
-7.313877934833293
 20
23.00372333742211
 40
0.1770592414725435
 41
0.1770592414725435
  0
LWPOLYLINE
  5
1E0
330
70
100
AcDbEntity
  8
A-FURN-P-SEAT
100
AcDbPolyline
 90
        2
 70
     0
 10
-6.934336400701369
 20
22.08326706000622
 40
0.0
 41
0.0
 10
-6.947039870099303
 20
22.04417326478528
 40
0.1770592414725435
 41
0.1770592414725435
  0
LWPOLYLINE
  5
1E1
330
70
100
AcDbEntity
  8
A-FURN-P-SEAT
100
AcDbPolyline
 90
        2
 70
     0
 10
-6.645123763317563
 20
22.08326706000622
 40
0.0
 41
0.0
 10
-6.829963873156614
 20
22.65214441517742
 40
0.1770592414725435
 41
0.1770592414725435
  0
LWPOLYLINE
  5
1E2
330
70
100
AcDbEntity
  8
A-FURN-P-SEAT
100
AcDbPolyline
 90
        2
 70
     0
 10
-6.645123763317563
 20
22.08326706000622
 40
0.0
 41
0.0
 10
-6.745119386413122
 20
21.7755207465213
 40
0.1770592414725435
 41
0.1770592414725435
  0
LWPOLYLINE
  5
1E3
330
70
100
AcDbEntity
  8
A-FURN-P-SEAT
100
AcDbPolyline
 90
        2
 70
     0
 10
-0.9975997030913674
 20
-1.347388006777634
 40
0.0
 41
0.0
 10
-0.8070319038499107
 20
-1.93389125531894
 40
0.1770592414725435
 41
0.1770592414725435
  0
LWPOLYLINE
  5
1E4
330
70
100
AcDbEntity
  8
A-FURN-P-SEAT
100
AcDbPolyline
 90
        2
 70
     0
 10
-0.8070319038499107
 20
-0.7608845811770948
 40
0.0
 41
0.0
 10
-0.9975997030913674
 20
-1.347388006777634
 40
0.1770592414725435
 41
0.1770592414725435
  0
LWPOLYLINE
  5
1E5
330
70
100
AcDbEntity
  8
A-FURN-P-SEAT
100
AcDbPolyline
 90
        2
 70
     0
 10
-8.420201088629497
 20
21.49676381146492
 40
0.0
 41
0.0
 10
-7.92129258802948
 20
21.13428069583421
 40
0.1770592414725435
 41
0.1770592414725435
  0
LWPOLYLINE
  5
1E6
330
70
100
AcDbEntity
  8
A-FURN-P-SEAT
100
AcDbPolyline
 90
        2
 70
     0
 10
-8.395934234289477
 20
21.5143950166123
 40
0.0
 41
0.0
 10
-7.912025661449284
 20
21.16281078259039
 40
0.1770592414725435
 41
0.1770592414725435
  0
LWPOLYLINE
  5
1E7
330
70
100
AcDbEntity
  8
A-FURN-P-SEAT
100
AcDbPolyline
 90
        2
 70
     0
 10
-8.291561883803971
 20
22.08326706000622
 40
0.0
 41
0.0
 10
-8.161960893178751
 20
21.68439207317943
 40
0.1770592414725435
 41
0.1770592414725435
  0
LWPOLYLINE
  5
1E8
330
70
100
AcDbEntity
  8
A-FURN-P-SEAT
100
AcDbPolyline
 90
        2
 70
     0
 10
-8.161960893178751
 20
21.68439207317943
 40
0.0
 41
0.0
 10
-7.822653061664368
 20
21.43786647126302
 40
0.1770592414725435
 41
0.1770592414725435
  0
LWPOLYLINE
  5
1E9
330
70
100
AcDbEntity
  8
A-FURN-P-SEAT
100
AcDbPolyline
 90
        2
 70
     0
 10
-7.92129258802948
 20
21.13428069583421
 40
0.0
 41
0.0
 10
-7.563596977228918
 20
21.13428069583421
 40
0.1770592414725435
 41
0.1770592414725435
  0
LWPOLYLINE
  5
1EA
330
70
100
AcDbEntity
  8
A-FURN-P-SEAT
100
AcDbPolyline
 90
        2
 70
     0
 10
-7.912025661449284
 20
21.16281078259039
 40
0.0
 41
0.0
 10
-7.583627512157463
 20
21.16281078259039
 40
0.1770592414725435
 41
0.1770592414725435
  0
LWPOLYLINE
  5
1EB
330
70
100
AcDbEntity
  8
A-FURN-P-SEAT
100
AcDbPolyline
 90
        2
 70
     0
 10
-7.822653061664368
 20
21.43786647126302
 40
0.0
 41
0.0
 10
-7.77673487209936
 20
21.43786647126302
 40
0.1770592414725435
 41
0.1770592414725435
  0
LWPOLYLINE
  5
1EC
330
70
100
AcDbEntity
  8
A-FURN-P-SEAT
100
AcDbPolyline
 90
        2
 70
     0
 10
7.92127869318817
 20
23.03268031400944
 40
0.0
 41
0.0
 10
7.304591801634551
 20
23.03268031400944
 40
0.1770592414725435
 41
0.1770592414725435
  0
LWPOLYLINE
  5
1ED
330
70
100
AcDbEntity
  8
A-FURN-P-SEAT
100
AcDbPolyline
 90
        2
 70
     0
 10
8.420192682624673
 20
22.67020268721524
 40
0.0
 41
0.0
 10
7.92127869318817
 20
23.03268031400944
 40
0.1770592414725435
 41
0.1770592414725435
  0
LWPOLYLINE
  5
1EE
330
70
100
AcDbEntity
  8
A-FURN-P-SEAT
100
AcDbPolyline
 90
        2
 70
     0
 10
8.61075499302963
 20
22.08369394983742
 40
0.0
 41
0.0
 10
8.420192682624673
 20
22.67020268721524
 40
0.1770592414725435
 41
0.1770592414725435
  0
LWPOLYLINE
  5
1EF
330
70
100
AcDbEntity
  8
A-FURN-P-SEAT
100
AcDbPolyline
 90
        2
 70
     0
 10
8.61075499302963
 20
22.08369394983742
 40
0.0
 41
0.0
 10
8.420192682624673
 20
21.49719052423689
 40
0.1770592414725435
 41
0.1770592414725435
  0
LWPOLYLINE
  5
1F0
330
70
100
AcDbEntity
  8
A-FURN-P-SEAT
100
AcDbPolyline
 90
        2
 70
     0
 10
6.805683301034534
 20
22.67020268721524
 40
0.0
 41
0.0
 10
6.615115501793077
 20
22.08369394983742
 40
0.1770592414725435
 41
0.1770592414725435
  0
LWPOLYLINE
  5
1F1
330
70
100
AcDbEntity
  8
A-FURN-P-SEAT
100
AcDbPolyline
 90
        2
 70
     0
 10
6.615115501793077
 20
22.08369394983742
 40
0.0
 41
0.0
 10
6.724394340919047
 20
21.74737434714137
 40
0.1770592414725435
 41
0.1770592414725435
  0
LWPOLYLINE
  5
1F2
330
70
100
AcDbEntity
  8
A-FURN-P-SEAT
100
AcDbPolyline
 90
        2
 70
     0
 10
7.304591801634551
 20
23.03268031400944
 40
0.0
 41
0.0
 10
6.805683301034534
 20
22.67020268721524
 40
0.1770592414725435
 41
0.1770592414725435
  0
LWPOLYLINE
  5
1F3
330
70
100
AcDbEntity
  8
A-FURN-P-SEAT
100
AcDbPolyline
 90
        2
 70
     0
 10
7.564328855912691
 20
21.13471307450186
 40
0.0
 41
0.0
 10
7.92127869318817
 20
21.13471307450186
 40
0.1770592414725435
 41
0.1770592414725435
  0
LWPOLYLINE
  5
1F4
330
70
100
AcDbEntity
  8
A-FURN-P-SEAT
100
AcDbPolyline
 90
        2
 70
     0
 10
7.92127869318817
 20
21.13471307450186
 40
0.0
 41
0.0
 10
8.420192682624673
 20
21.49719052423689
 40
0.1770592414725435
 41
0.1770592414725435
  0
LWPOLYLINE
  5
1F5
330
70
100
AcDbEntity
  8
A-FURN-P-SEAT
100
AcDbPolyline
 90
        2
 70
     0
 10
8.050317697780954
 20
22.33588226041462
 40
0.0
 41
0.0
 10
8.033075491787101
 20
22.38894390507687
 40
0.1770592414725435
 41
0.1770592414725435
  0
LWPOLYLINE
  5
1F6
330
70
100
AcDbEntity
  8
A-FURN-P-SEAT
100
AcDbPolyline
 90
        2
 70
     0
 10
8.132260537675193
 20
22.08369394983742
 40
0.0
 41
0.0
 10
8.105492013312414
 20
22.16607448017658
 40
0.1770592414725435
 41
0.1770592414725435
  0
LWPOLYLINE
  5
1F7
330
70
100
AcDbEntity
  8
A-FURN-P-SEAT
100
AcDbPolyline
 90
        2
 70
     0
 10
8.132260537675193
 20
22.08369394983742
 40
0.0
 41
0.0
 10
8.118968169240133
 20
22.04278458915445
 40
0.1770592414725435
 41
0.1770592414725435
  0
LWPOLYLINE
  5
1F8
330
70
100
AcDbEntity
  8
A-FURN-P-SEAT
100
AcDbPolyline
 90
        2
 70
     0
 10
-13.31559891524855
 20
7.60270327788487
 40
0.0
 41
0.0
 10
-13.12503377189572
 20
7.016194540507058
 40
0.1770592414725435
 41
0.1770592414725435
  0
LWPOLYLINE
  5
1F9
330
70
100
AcDbEntity
  8
A-FURN-P-SEAT
100
AcDbPolyline
 90
        2
 70
     0
 10
-13.28560189267675
 20
7.60270327788487
 40
0.0
 41
0.0
 10
-13.10076443872632
 20
7.033831411550181
 40
0.1770592414725435
 41
0.1770592414725435
  0
LWPOLYLINE
  5
1FA
330
70
100
AcDbEntity
  8
A-FURN-P-SEAT
100
AcDbPolyline
 90
        2
 70
     0
 10
-13.12503377189572
 20
7.016194540507058
 40
0.0
 41
0.0
 10
-12.62612261540708
 20
6.653716913712798
 40
0.1770592414725435
 41
0.1770592414725435
  0
LWPOLYLINE
  5
1FB
330
70
100
AcDbEntity
  8
A-FURN-P-SEAT
100
AcDbPolyline
 90
        2
 70
     0
 10
-13.10076443872632
 20
7.033831411550181
 40
0.0
 41
0.0
 10
-12.61685303293826
 20
6.682247000469033
 40
0.1770592414725435
 41
0.1770592414725435
  0
LWPOLYLINE
  5
1FC
330
70
100
AcDbEntity
  8
A-FURN-P-SEAT
100
AcDbPolyline
 90
        2
 70
     0
 10
-12.99638925529295
 20
7.60270327788487
 40
0.0
 41
0.0
 10
-12.86678826466774
 20
7.203822979280857
 40
0.1770592414725435
 41
0.1770592414725435
  0
LWPOLYLINE
  5
1FD
330
70
100
AcDbEntity
  8
A-FURN-P-SEAT
100
AcDbPolyline
 90
        2
 70
     0
 10
-12.86678826466774
 20
7.203822979280857
 40
0.0
 41
0.0
 10
-12.52748043315334
 20
6.95730268914167
 40
0.1770592414725435
 41
0.1770592414725435
  0
LWPOLYLINE
  5
1FE
330
70
100
AcDbEntity
  8
A-FURN-P-SEAT
100
AcDbPolyline
 90
        2
 70
     0
 10
-12.83710180400548
 20
7.60270327788487
 40
0.0
 41
0.0
 10
-12.81138695918871
 20
7.523554078702602
 40
0.1770592414725435
 41
0.1770592414725435
  0
LWPOLYLINE
  5
1FF
330
70
100
AcDbEntity
  8
A-FURN-P-SEAT
100
AcDbPolyline
 90
        2
 70
     0
 10
-12.65322879174336
 20
7.210415071900115
 40
0.0
 41
0.0
 10
-12.80758833022215
 20
7.446490460325549
 40
0.1770592414725435
 41
0.1770592414725435
  0
LWPOLYLINE
  5
200
330
70
100
AcDbEntity
  8
A-FURN-P-SEAT
100
AcDbPolyline
 90
        2
 70
     0
 10
-12.76536607526365
 20
7.381908810235415
 40
0.0
 41
0.0
 10
-12.73792206989464
 20
7.297453322645424
 40
0.1770592414725435
 41
0.1770592414725435
  0
LWPOLYLINE
  5
201
330
70
100
AcDbEntity
  8
A-FURN-P-SEAT
100
AcDbPolyline
 90
        2
 70
     0
 10
-12.73792206989464
 20
7.297453322645424
 40
0.0
 41
0.0
 10
-12.68499552143367
 20
7.258997294812331
 40
0.1770592414725435
 41
0.1770592414725435
  0
LWPOLYLINE
  5
202
330
70
100
AcDbEntity
  8
A-FURN-P-SEAT
100
AcDbPolyline
 90
        2
 70
     0
 10
11.76909684173208
 20
7.203336597544534
 40
0.0
 41
0.0
 10
12.10840449618725
 20
6.956816307405347
 40
0.1770592414725435
 41
0.1770592414725435
  0
LWPOLYLINE
  5
203
330
70
100
AcDbEntity
  8
A-FURN-P-SEAT
100
AcDbPolyline
 90
        2
 70
     0
 10
12.52780702323339
 20
6.956816307405347
 40
0.0
 41
0.0
 10
12.86711485474778
 20
7.203336597544534
 40
0.1770592414725435
 41
0.1770592414725435
  0
LWPOLYLINE
  5
204
330
70
100
AcDbEntity
  8
A-FURN-P-SEAT
100
AcDbPolyline
 90
        2
 70
     0
 10
11.7543887076022
 20
7.248606396167247
 40
0.0
 41
0.0
 10
11.76909684173208
 20
7.203336597544534
 40
0.1770592414725435
 41
0.1770592414725435
  0
LWPOLYLINE
  5
205
330
70
100
AcDbEntity
  8
A-FURN-P-SEAT
100
AcDbPolyline
 90
        2
 70
     0
 10
12.68491151113274
 20
7.258213630609532
 40
0.0
 41
0.0
 10
12.73824865997468
 20
7.296967117968392
 40
0.1770592414725435
 41
0.1770592414725435
  0
LWPOLYLINE
  5
206
330
70
100
AcDbEntity
  8
A-FURN-P-SEAT
100
AcDbPolyline
 90
        2
 70
     0
 10
11.43312303573464
 20
7.347267523759796
 40
0.0
 41
0.0
 10
11.53512332356211
 20
7.033345029813858
 40
0.1770592414725435
 41
0.1770592414725435
  0
LWPOLYLINE
  5
207
330
70
100
AcDbEntity
  8
A-FURN-P-SEAT
100
AcDbPolyline
 90
        2
 70
     0
 10
13.2859284827568
 20
7.602217073207782
 40
0.0
 41
0.0
 10
13.10108819585851
 20
7.033345029813858
 40
0.1770592414725435
 41
0.1770592414725435
  0
LWPOLYLINE
  5
208
330
70
100
AcDbEntity
  8
A-FURN-P-SEAT
100
AcDbPolyline
 90
        2
 70
     0
 10
12.996715845373
 20
7.602217073207782
 40
0.0
 41
0.0
 10
12.86711485474778
 20
7.203336597544534
 40
0.1770592414725435
 41
0.1770592414725435
  0
LWPOLYLINE
  5
209
330
70
100
AcDbEntity
  8
A-FURN-P-SEAT
100
AcDbPolyline
 90
        2
 70
     0
 10
12.73824865997468
 20
7.907467028447229
 40
0.0
 41
0.0
 10
12.70599554854806
 20
7.930896215515815
 40
0.1770592414725435
 41
0.1770592414725435
  0
LWPOLYLINE
  5
20A
330
70
100
AcDbEntity
  8
A-FURN-P-SEAT
100
AcDbPolyline
 90
        2
 70
     0
 10
12.996715845373
 20
7.602217073207782
 40
0.0
 41
0.0
 10
12.86711485474778
 20
8.001092060034579
 40
0.1770592414725435
 41
0.1770592414725435
  0
LWPOLYLINE
  5
20B
330
70
100
AcDbEntity
  8
A-FURN-P-SEAT
100
AcDbPolyline
 90
        2
 70
     0
 10
13.2859284827568
 20
7.602217073207782
 40
0.0
 41
0.0
 10
13.10108819585851
 20
8.171088939542528
 40
0.1770592414725435
 41
0.1770592414725435
  0
LWPOLYLINE
  5
20C
330
70
100
AcDbEntity
  8
A-FURN-P-SEAT
100
AcDbPolyline
 90
        2
 70
     0
 10
6.829950155374554
 20
22.65256599323141
 40
0.0
 41
0.0
 10
6.645115357312739
 20
22.08369394983742
 40
0.1770592414725435
 41
0.1770592414725435
  0
LWPOLYLINE
  5
20D
330
70
100
AcDbEntity
  8
A-FURN-P-SEAT
100
AcDbPolyline
 90
        2
 70
     0
 10
6.645115357312739
 20
22.08369394983742
 40
0.0
 41
0.0
 10
6.745337970355855
 20
21.77524524234156
 40
0.1770592414725435
 41
0.1770592414725435
  0
LWPOLYLINE
  5
20E
330
70
100
AcDbEntity
  8
A-FURN-P-SEAT
100
AcDbPolyline
 90
        2
 70
     0
 10
7.313864217051225
 20
23.00415022725326
 40
0.0
 41
0.0
 10
6.829950155374554
 20
22.65256599323141
 40
0.1770592414725435
 41
0.1770592414725435
  0
LWPOLYLINE
  5
20F
330
70
100
AcDbEntity
  8
A-FURN-P-SEAT
100
AcDbPolyline
 90
        2
 70
     0
 10
7.912011766607989
 20
23.00415022725326
 40
0.0
 41
0.0
 10
7.313864217051225
 20
23.00415022725326
 40
0.1770592414725435
 41
0.1770592414725435
  0
LWPOLYLINE
  5
210
330
70
100
AcDbEntity
  8
A-FURN-P-SEAT
100
AcDbPolyline
 90
        2
 70
     0
 10
7.584353902004764
 20
21.16324316125804
 40
0.0
 41
0.0
 10
7.912011766607989
 20
21.16324316125804
 40
0.1770592414725435
 41
0.1770592414725435
  0
LWPOLYLINE
  5
211
330
70
100
AcDbEntity
  8
A-FURN-P-SEAT
100
AcDbPolyline
 90
        2
 70
     0
 10
7.912011766607989
 20
21.16324316125804
 40
0.0
 41
0.0
 10
8.395920516507416
 20
21.51482190644344
 40
0.1770592414725435
 41
0.1770592414725435
  0
LWPOLYLINE
  5
212
330
70
100
AcDbEntity
  8
A-FURN-P-SEAT
100
AcDbPolyline
 90
        2
 70
     0
 10
8.291547988962662
 20
22.08369394983742
 40
0.0
 41
0.0
 10
8.161941509500962
 20
22.48257442550073
 40
0.1770592414725435
 41
0.1770592414725435
  0
LWPOLYLINE
  5
213
330
70
100
AcDbEntity
  8
A-FURN-P-SEAT
100
AcDbPolyline
 90
        2
 70
     0
 10
8.291547988962662
 20
22.08369394983742
 40
0.0
 41
0.0
 10
8.161946998337455
 20
21.68481896301063
 40
0.1770592414725435
 41
0.1770592414725435
  0
LWPOLYLINE
  5
214
330
70
100
AcDbEntity
  8
A-FURN-P-SEAT
100
AcDbPolyline
 90
        2
 70
     0
 10
-6.615129396634387
 20
22.08326706000622
 40
0.0
 41
0.0
 10
-6.724175756976286
 20
21.74766065193484
 40
0.1770592414725435
 41
0.1770592414725435
  0
LWPOLYLINE
  5
215
330
70
100
AcDbEntity
  8
A-FURN-P-SEAT
100
AcDbPolyline
 90
        2
 70
     0
 10
7.063928985321759
 20
22.48257442550073
 40
0.0
 41
0.0
 10
6.934322505860066
 20
22.08369394983742
 40
0.1770592414725435
 41
0.1770592414725435
  0
LWPOLYLINE
  5
216
330
70
100
AcDbEntity
  8
A-FURN-P-SEAT
100
AcDbPolyline
 90
        2
 70
     0
 10
6.934322505860066
 20
22.08369394983742
 40
0.0
 41
0.0
 10
6.947258276982807
 20
22.0438922717691
 40
0.1770592414725435
 41
0.1770592414725435
  0
LWPOLYLINE
  5
217
330
70
100
AcDbEntity
  8
A-FURN-P-SEAT
100
AcDbPolyline
 90
        2
 70
     0
 10
7.403236639776906
 20
22.72909453858062
 40
0.0
 41
0.0
 10
7.063928985321759
 20
22.48257442550073
 40
0.1770592414725435
 41
0.1770592414725435
  0
LWPOLYLINE
  5
218
330
70
100
AcDbEntity
  8
A-FURN-P-SEAT
100
AcDbPolyline
 90
        2
 70
     0
 10
7.8226393438823
 20
22.72909453858062
 40
0.0
 41
0.0
 10
7.403236639776906
 20
22.72909453858062
 40
0.1770592414725435
 41
0.1770592414725435
  0
LWPOLYLINE
  5
219
330
70
100
AcDbEntity
  8
A-FURN-P-SEAT
100
AcDbPolyline
 90
        2
 70
     0
 10
7.777461261946655
 20
21.43829867287144
 40
0.0
 41
0.0
 10
7.8226393438823
 20
21.43829867287144
 40
0.1770592414725435
 41
0.1770592414725435
  0
LWPOLYLINE
  5
21A
330
70
100
AcDbEntity
  8
A-FURN-P-SEAT
100
AcDbPolyline
 90
        2
 70
     0
 10
8.161941509500962
 20
22.48257442550073
 40
0.0
 41
0.0
 10
7.8226393438823
 20
22.72909453858062
 40
0.1770592414725435
 41
0.1770592414725435
  0
LWPOLYLINE
  5
21B
330
70
100
AcDbEntity
  8
A-FURN-P-SEAT
100
AcDbPolyline
 90
        2
 70
     0
 10
7.8226393438823
 20
21.43829867287144
 40
0.0
 41
0.0
 10
8.161946998337455
 20
21.68481896301063
 40
0.1770592414725435
 41
0.1770592414725435
  0
LWPOLYLINE
  5
21C
330
70
100
AcDbEntity
  8
A-FURN-P-SEAT
100
AcDbPolyline
 90
        2
 70
     0
 10
7.45245645301766
 20
22.5775989333327
 40
0.0
 41
0.0
 10
7.421635396736036
 20
22.55520713635986
 40
0.1770592414725435
 41
0.1770592414725435
  0
LWPOLYLINE
  5
21D
330
70
100
AcDbEntity
  8
A-FURN-P-SEAT
100
AcDbPolyline
 90
        2
 70
     0
 10
7.529168785859567
 20
22.5775989333327
 40
0.0
 41
0.0
 10
7.45245645301766
 20
22.5775989333327
 40
0.1770592414725435
 41
0.1770592414725435
  0
LWPOLYLINE
  5
21E
330
70
100
AcDbEntity
  8
A-FURN-P-SEAT
100
AcDbPolyline
 90
        2
 70
     0
 10
7.773414218864317
 20
22.5775989333327
 40
0.0
 41
0.0
 10
7.719628578963721
 20
22.5775989333327
 40
0.1770592414725435
 41
0.1770592414725435
  0
LWPOLYLINE
  5
21F
330
70
100
AcDbEntity
  8
A-FURN-P-SEAT
100
AcDbPolyline
 90
        2
 70
     0
 10
7.8324843688859
 20
22.53468490791772
 40
0.0
 41
0.0
 10
7.773414218864317
 20
22.5775989333327
 40
0.1770592414725435
 41
0.1770592414725435
  0
LWPOLYLINE
  5
220
330
70
100
AcDbEntity
  8
A-FURN-P-SEAT
100
AcDbPolyline
 90
        2
 70
     0
 10
8.395920516507416
 20
22.65256599323141
 40
0.0
 41
0.0
 10
7.912011766607989
 20
23.00415022725326
 40
0.1770592414725435
 41
0.1770592414725435
  0
LWPOLYLINE
  5
221
330
70
100
AcDbEntity
  8
A-FURN-P-SEAT
100
AcDbPolyline
 90
        2
 70
     0
 10
8.033075491787101
 20
22.38894390507687
 40
0.0
 41
0.0
 10
7.971800600090702
 20
22.43346261839724
 40
0.1770592414725435
 41
0.1770592414725435
  0
LWPOLYLINE
  5
222
330
70
100
AcDbEntity
  8
A-FURN-P-SEAT
100
AcDbPolyline
 90
        2
 70
     0
 10
8.58076062634646
 20
22.08369394983742
 40
0.0
 41
0.0
 10
8.395920516507416
 20
22.65256599323141
 40
0.1770592414725435
 41
0.1770592414725435
  0
LWPOLYLINE
  5
223
330
70
100
AcDbEntity
  8
A-FURN-P-SEAT
100
AcDbPolyline
 90
        2
 70
     0
 10
8.58076062634646
 20
22.08369394983742
 40
0.0
 41
0.0
 10
8.395920516507416
 20
21.51482190644344
 40
0.1770592414725435
 41
0.1770592414725435
  0
LWPOLYLINE
  5
224
330
70
100
AcDbEntity
  8
A-FURN-P-SEAT
100
AcDbPolyline
 90
        2
 70
     0
 10
-8.132274432516496
 20
22.08326706000622
 40
0.0
 41
0.0
 10
-8.118684781614994
 20
22.04144460481495
 40
0.1770592414725435
 41
0.1770592414725435
  0
LWPOLYLINE
  5
225
330
70
100
AcDbEntity
  8
A-FURN-P-SEAT
100
AcDbPolyline
 90
        2
 70
     0
 10
-6.615129396634387
 20
22.08326706000622
 40
0.0
 41
0.0
 10
-6.805697195875843
 20
22.66977048560682
 40
0.1770592414725435
 41
0.1770592414725435
  0
LWPOLYLINE
  5
226
330
70
100
AcDbEntity
  8
A-FURN-P-SEAT
100
AcDbPolyline
 90
        2
 70
     0
 10
-8.420201088629497
 20
22.66977048560682
 40
0.0
 41
0.0
 10
-8.610768887870946
 20
22.08326706000622
 40
0.1770592414725435
 41
0.1770592414725435
  0
LWPOLYLINE
  5
227
330
70
100
AcDbEntity
  8
A-FURN-P-SEAT
100
AcDbPolyline
 90
        2
 70
     0
 10
-6.805697195875843
 20
22.66977048560682
 40
0.0
 41
0.0
 10
-7.30460569647586
 20
23.03225342417829
 40
0.1770592414725435
 41
0.1770592414725435
  0
LWPOLYLINE
  5
228
330
70
100
AcDbEntity
  8
A-FURN-P-SEAT
100
AcDbPolyline
 90
        2
 70
     0
 10
-7.92129258802948
 20
23.03225342417829
 40
0.0
 41
0.0
 10
-8.420201088629497
 20
22.66977048560682
 40
0.1770592414725435
 41
0.1770592414725435
  0
LWPOLYLINE
  5
229
330
70
100
AcDbEntity
  8
A-FURN-P-SEAT
100
AcDbPolyline
 90
        2
 70
     0
 10
-7.30460569647586
 20
23.03225342417829
 40
0.0
 41
0.0
 10
-7.92129258802948
 20
23.03225342417829
 40
0.1770592414725435
 41
0.1770592414725435
  0
LWPOLYLINE
  5
22A
330
70
100
AcDbEntity
  8
A-FURN-P-SEAT
100
AcDbPolyline
 90
        2
 70
     0
 10
-8.104917009116583
 20
22.16746864464392
 40
0.0
 41
0.0
 10
-8.132274432516496
 20
22.08326706000622
 40
0.1770592414725435
 41
0.1770592414725435
  0
LWPOLYLINE
  5
22B
330
70
100
AcDbEntity
  8
A-FURN-P-SEAT
100
AcDbPolyline
 90
        2
 70
     0
 10
-8.033089209569176
 20
22.38852250408218
 40
0.0
 41
0.0
 10
-8.050396396304641
 20
22.33525015892258
 40
0.1770592414725435
 41
0.1770592414725435
  0
LWPOLYLINE
  5
22C
330
70
100
AcDbEntity
  8
A-FURN-P-SEAT
100
AcDbPolyline
 90
        2
 70
     0
 10
-7.971576704370718
 20
22.43321420428145
 40
0.0
 41
0.0
 10
-8.033089209569176
 20
22.38852250408218
 40
0.1770592414725435
 41
0.1770592414725435
  0
LWPOLYLINE
  5
22D
330
70
100
AcDbEntity
  8
A-FURN-P-SEAT
100
AcDbPolyline
 90
        2
 70
     0
 10
-7.773427936646378
 20
22.57717735527876
 40
0.0
 41
0.0
 10
-7.831757801979371
 20
22.53479291405506
 40
0.1770592414725435
 41
0.1770592414725435
  0
LWPOLYLINE
  5
22E
330
70
100
AcDbEntity
  8
A-FURN-P-SEAT
100
AcDbPolyline
 90
        2
 70
     0
 10
-7.422643302158974
 20
22.55550424176704
 40
0.0
 41
0.0
 10
-7.452470347858955
 20
22.57717735527876
 40
0.1770592414725435
 41
0.1770592414725435
  0
LWPOLYLINE
  5
22F
330
70
100
AcDbEntity
  8
A-FURN-P-SEAT
100
AcDbPolyline
 90
        2
 70
     0
 10
-7.452470347858955
 20
22.57717735527876
 40
0.0
 41
0.0
 10
-7.526702434846328
 20
22.57717735527876
 40
0.1770592414725435
 41
0.1770592414725435
  0
LWPOLYLINE
  5
230
330
70
100
AcDbEntity
  8
A-FURN-P-SEAT
100
AcDbPolyline
 90
        2
 70
     0
 10
-7.720317777752001
 20
22.57717735527876
 40
0.0
 41
0.0
 10
-7.773427936646378
 20
22.57717735527876
 40
0.1770592414725435
 41
0.1770592414725435
  0
LWPOLYLINE
  5
231
330
70
100
AcDbEntity
  8
A-FURN-P-SEAT
100
AcDbPolyline
 90
        2
 70
     0
 10
-8.395934234289477
 20
22.65214441517742
 40
0.0
 41
0.0
 10
-8.580774521187777
 20
22.08326706000622
 40
0.1770592414725435
 41
0.1770592414725435
  0
LWPOLYLINE
  5
232
330
70
100
AcDbEntity
  8
A-FURN-P-SEAT
100
AcDbPolyline
 90
        2
 70
     0
 10
-6.934336400701369
 20
22.08326706000622
 40
0.0
 41
0.0
 10
-7.063942880163061
 20
22.48214753566953
 40
0.1770592414725435
 41
0.1770592414725435
  0
LWPOLYLINE
  5
233
330
70
100
AcDbEntity
  8
A-FURN-P-SEAT
100
AcDbPolyline
 90
        2
 70
     0
 10
-8.161960893178751
 20
22.48214753566953
 40
0.0
 41
0.0
 10
-8.291561883803971
 20
22.08326706000622
 40
0.1770592414725435
 41
0.1770592414725435
  0
LWPOLYLINE
  5
234
330
70
100
AcDbEntity
  8
A-FURN-P-SEAT
100
AcDbPolyline
 90
        2
 70
     0
 10
-7.063942880163061
 20
22.48214753566953
 40
0.0
 41
0.0
 10
-7.40324504578173
 20
22.72866764874948
 40
0.1770592414725435
 41
0.1770592414725435
  0
LWPOLYLINE
  5
235
330
70
100
AcDbEntity
  8
A-FURN-P-SEAT
100
AcDbPolyline
 90
        2
 70
     0
 10
-7.822653061664368
 20
22.72866764874948
 40
0.0
 41
0.0
 10
-8.161960893178751
 20
22.48214753566953
 40
0.1770592414725435
 41
0.1770592414725435
  0
LWPOLYLINE
  5
236
330
70
100
AcDbEntity
  8
A-FURN-P-SEAT
100
AcDbPolyline
 90
        2
 70
     0
 10
-7.91202034967204
 20
23.00372333742211
 40
0.0
 41
0.0
 10
-8.395934234289477
 20
22.65214441517742
 40
0.1770592414725435
 41
0.1770592414725435
  0
LWPOLYLINE
  5
237
330
70
100
AcDbEntity
  8
A-FURN-P-SEAT
100
AcDbPolyline
 90
        2
 70
     0
 10
-7.40324504578173
 20
22.72866764874948
 40
0.0
 41
0.0
 10
-7.822653061664368
 20
22.72866764874948
 40
0.1770592414725435
 41
0.1770592414725435
  0
LWPOLYLINE
  5
238
330
70
100
AcDbEntity
  8
A-FURN-P-SEAT
100
AcDbPolyline
 90
        2
 70
     0
 10
-7.313877934833293
 20
23.00372333742211
 40
0.0
 41
0.0
 10
-7.91202034967204
 20
23.00372333742211
 40
0.1770592414725435
 41
0.1770592414725435
  0
ENDSEC
  0
SECTION
  2
OBJECTS
  0
DICTIONARY
  5
C
330
0
100
AcDbDictionary
281
     1
  3
ACAD_CIP_PREVIOUS_PRODUCT_INFO
350
2BC
  3
ACAD_COLOR
350
63
  3
ACAD_DETAILVIEWSTYLE
350
6A
  3
ACAD_GROUP
350
D
  3
ACAD_LAYOUT
350
62
  3
ACAD_MATERIAL
350
10
  3
ACAD_MLEADERSTYLE
350
66
  3
ACAD_MLINESTYLE
350
5F
  3
ACAD_PLOTSETTINGS
350
61
  3
ACAD_PLOTSTYLENAME
350
E
  3
ACAD_SCALELIST
350
42
  3
ACAD_SECTIONVIEWSTYLE
350
68
  3
ACAD_TABLESTYLE
350
64
  3
ACAD_VISUALSTYLE
350
29
  3
ACDB_RECOMPOSE_DATA
350
2C8
  3
AcDbVariableDictionary
350
2B0
  3
AcDsDecomposeData
350
2CE
  0
DICTIONARY
  5
2C0
330
2
100
AcDbDictionary
280
     1
281
     1
  3
ACAD_LAYERSTATES
360
2C1
  0
DICTIONARY
  5
239
330
70
100
AcDbDictionary
280
     1
281
     1
  0
XRECORD
  5
2BC
102
{ACAD_REACTORS
330
C
102
}
330
C
100
AcDbXrecord
280
     1
300
ACD
300
2018
300
ACD_F_S
  0
DICTIONARY
  5
63
102
{ACAD_REACTORS
330
C
102
}
330
C
100
AcDbDictionary
281
     1
  0
DICTIONARY
  5
6A
102
{ACAD_REACTORS
330
C
102
}
330
C
100
AcDbDictionary
281
     1
  3
Imperial24
350
6B
  0
DICTIONARY
  5
D
102
{ACAD_REACTORS
330
C
102
}
330
C
100
AcDbDictionary
281
     1
  0
DICTIONARY
  5
62
102
{ACAD_REACTORS
330
C
102
}
330
C
100
AcDbDictionary
281
     1
  3
Layout1
350
6F
  3
Layout2
350
77
  3
Model
350
73
  0
DICTIONARY
  5
10
102
{ACAD_REACTORS
330
C
102
}
330
C
100
AcDbDictionary
281
     1
  3
ByBlock
350
19
  3
ByLayer
350
11
  3
Global
350
21
  0
DICTIONARY
  5
66
102
{ACAD_REACTORS
330
C
102
}
330
C
100
AcDbDictionary
281
     1
  3
Standard
350
67
  0
DICTIONARY
  5
5F
102
{ACAD_REACTORS
330
C
102
}
330
C
100
AcDbDictionary
281
     1
  3
Standard
350
60
  0
DICTIONARY
  5
61
102
{ACAD_REACTORS
330
C
102
}
330
C
100
AcDbDictionary
281
     1
  0
ACDBDICTIONARYWDFLT
  5
E
102
{ACAD_REACTORS
330
C
102
}
330
C
100
AcDbDictionary
281
     1
  3
Normal
350
F
100
AcDbDictionaryWithDefault
340
F
  0
DICTIONARY
  5
42
102
{ACAD_REACTORS
330
C
102
}
330
C
100
AcDbDictionary
281
     1
  3
A0
350
43
  3
A1
350
44
  3
A2
350
45
  3
A3
350
46
  3
A4
350
47
  3
A5
350
48
  3
A6
350
49
  3
A7
350
4A
  3
A8
350
4B
  3
A9
350
4C
  3
B0
350
4D
  3
B1
350
4E
  3
B2
350
4F
  3
B3
350
50
  3
B4
350
51
  3
B5
350
52
  3
B6
350
53
  0
DICTIONARY
  5
68
102
{ACAD_REACTORS
330
C
102
}
330
C
100
AcDbDictionary
281
     1
  3
Imperial24
350
69
  0
DICTIONARY
  5
64
102
{ACAD_REACTORS
330
C
102
}
330
C
100
AcDbDictionary
281
     1
  3
Standard
350
65
  0
DICTIONARY
  5
29
102
{ACAD_REACTORS
330
C
102
}
330
C
100
AcDbDictionary
281
     1
  3
2dWireframe
350
2F
  3
Basic
350
2E
  3
Brighten
350
35
  3
ColorChange
350
39
  3
Conceptual
350
32
  3
Dim
350
34
  3
EdgeColorOff
350
41
  3
Facepattern
350
38
  3
Flat
350
2A
  3
FlatWithEdges
350
2B
  3
Gouraud
350
2C
  3
GouraudWithEdges
350
2D
  3
Hidden
350
31
  3
JitterOff
350
3F
  3
Linepattern
350
37
  3
OverhangOff
350
40
  3
Realistic
350
33
  3
Shaded
350
3E
  3
Shaded with edges
350
3D
  3
Shades of Gray
350
3A
  3
Sketchy
350
3B
  3
Thicken
350
36
  3
Wireframe
350
30
  3
X-Ray
350
3C
  0
XRECORD
  5
2C8
102
{ACAD_REACTORS
330
C
102
}
330
C
100
AcDbXrecord
280
     1
 90
        1
330
65
  0
DICTIONARY
  5
2B0
102
{ACAD_REACTORS
330
C
102
}
330
C
100
AcDbDictionary
281
     1
  3
CANNOSCALE
350
2B5
  3
CMLEADERSTYLE
350
2B2
  3
CTABLESTYLE
350
2B1
  3
CVIEWDETAILSTYLE
350
2B3
  3
CVIEWSECTIONSTYLE
350
2B4
  0
DICTIONARY
  5
2CE
102
{ACAD_REACTORS
330
C
102
}
330
C
100
AcDbDictionary
281
     1
  3
AcDsRecords
350
2D0
  3
AcDsSchemas
350
2CF
1001
ACAD
1070
     2
  0
DICTIONARY
  5
2C1
102
{ACAD_REACTORS
330
2C0
102
}
330
2C0
100
AcDbDictionary
281
     1
  0
ACDBDETAILVIEWSTYLE
  5
6B
102
{ACAD_XDICTIONARY
360
2D3
102
}
102
{ACAD_REACTORS
330
6A
102
}
330
6A
100
AcDbModelDocViewStyle
 70
     0
  3
Imperial24
290
     0
100
AcDbDetailViewStyle
 70
     0
 71
     0
 90
        3
 71
     1
340
55
 62
   256
 40
0.24
340
0
 62
   256
 40
0.24
300

 40
0.36
280
     3
 71
     2
340
5D
 90
       25
 62
   256
 71
     3
340
55
 62
   256
 40
0.24
 90
        1
 40
0.75
 90
        1
300
%<\AcVar ViewType \f "%tc1">% %<\AcVar ViewDetailId>%\PSCALE %<\AcVar ViewScale \f "%sn">%
 71
     4
340
5D
 90
       25
 62
   256
340
5D
 90
       25
 62
   256
280
     0
  0
LAYOUT
  5
6F
102
{ACAD_REACTORS
330
62
102
}
330
62
100
AcDbPlotSettings
  1

  2
Send To OneNote 2010
  4

  6

 40
0.0
 41
0.0
 42
0.0
 43
0.0
 44
0.0
 45
0.0
 46
0.0
 47
0.0
 48
0.0
 49
0.0
140
0.0
141
0.0
142
1.0
143
1.0
 70
   688
 72
     0
 73
     0
 74
     5
  7

 75
    16
147
1.0
 76
     0
 77
     2
 78
   300
148
0.0
149
0.0
100
AcDbLayout
  1
Layout1
 70
     1
 71
     1
 10
0.0
 20
0.0
 11
12.0
 21
9.0
 12
0.0
 22
0.0
 32
0.0
 14
1.000000000000000E+20
 24
1.000000000000000E+20
 34
1.000000000000000E+20
 15
-1.000000000000000E+20
 25
-1.000000000000000E+20
 35
-1.000000000000000E+20
146
0.0
 13
0.0
 23
0.0
 33
0.0
 16
1.0
 26
0.0
 36
0.0
 17
0.0
 27
1.0
 37
0.0
 76
     0
330
6C
  0
LAYOUT
  5
77
102
{ACAD_REACTORS
330
62
102
}
330
62
100
AcDbPlotSettings
  1

  2
Send To OneNote 2010
  4

  6

 40
0.0
 41
0.0
 42
0.0
 43
0.0
 44
0.0
 45
0.0
 46
0.0
 47
0.0
 48
0.0
 49
0.0
140
0.0
141
0.0
142
1.0
143
1.0
 70
   688
 72
     0
 73
     0
 74
     5
  7

 75
    16
147
1.0
 76
     0
 77
     2
 78
   300
148
0.0
149
0.0
100
AcDbLayout
  1
Layout2
 70
     1
 71
     2
 10
0.0
 20
0.0
 11
12.0
 21
9.0
 12
0.0
 22
0.0
 32
0.0
 14
0.0
 24
0.0
 34
0.0
 15
0.0
 25
0.0
 35
0.0
146
0.0
 13
0.0
 23
0.0
 33
0.0
 16
1.0
 26
0.0
 36
0.0
 17
0.0
 27
1.0
 37
0.0
 76
     0
330
74
  0
LAYOUT
  5
73
102
{ACAD_REACTORS
330
62
102
}
330
62
100
AcDbPlotSettings
  1

  2
Send To OneNote 2010
  4

  6

 40
0.0
 41
0.0
 42
0.0
 43
0.0
 44
0.0
 45
0.0
 46
0.0
 47
0.0
 48
0.0
 49
0.0
140
0.0
141
0.0
142
1.0
143
1.0
 70
  1712
 72
     0
 73
     0
 74
     0
  7

 75
     0
147
1.0
 76
     0
 77
     2
 78
   300
148
0.0
149
0.0
100
AcDbLayout
  1
Model
 70
     1
 71
     0
 10
0.0
 20
0.0
 11
12.0
 21
9.0
 12
0.0
 22
0.0
 32
0.0
 14
0.0
 24
0.0
 34
0.0
 15
0.0
 25
0.0
 35
0.0
146
0.0
 13
0.0
 23
0.0
 33
0.0
 16
1.0
 26
0.0
 36
0.0
 17
0.0
 27
1.0
 37
0.0
 76
     0
330
70
  0
MATERIAL
  5
19
102
{ACAD_XDICTIONARY
360
1A
102
}
102
{ACAD_REACTORS
330
10
102
}
330
10
100
AcDbMaterial
  1
ByBlock
 72
     0
 43
0.0208333333333333
 43
0.0
 43
0.0
 43
0.0
 43
0.0
 43
0.0208333333333333
 43
0.0
 43
0.0
 43
0.0
 43
0.0
 43
1.0
 43
0.0
 43
0.0
 43
0.0
 43
0.0
 43
1.0
 77
     0
 47
0.0208333333333333
 47
0.0
 47
0.0
 47
0.0
 47
0.0
 47
0.0208333333333333
 47
0.0
 47
0.0
 47
0.0
 47
0.0
 47
1.0
 47
0.0
 47
0.0
 47
0.0
 47
0.0
 47
1.0
171
     0
 49
0.0208333333333333
 49
0.0
 49
0.0
 49
0.0
 49
0.0
 49
0.0208333333333333
 49
0.0
 49
0.0
 49
0.0
 49
0.0
 49
1.0
 49
0.0
 49
0.0
 49
0.0
 49
0.0
 49
1.0
175
     0
142
0.0208333333333333
142
0.0
142
0.0
142
0.0
142
0.0
142
0.0208333333333333
142
0.0
142
0.0
142
0.0
142
0.0
142
1.0
142
0.0
142
0.0
142
0.0
142
0.0
142
1.0
179
     0
144
0.0208333333333333
144
0.0
144
0.0
144
0.0
144
0.0
144
0.0208333333333333
144
0.0
144
0.0
144
0.0
144
0.0
144
1.0
144
0.0
144
0.0
144
0.0
144
0.0
144
1.0
147
0.0208333333333333
147
0.0
147
0.0
147
0.0
147
0.0
147
0.0208333333333333
147
0.0
147
0.0
147
0.0
147
0.0
147
1.0
147
0.0
147
0.0
147
0.0
147
0.0
147
1.0
  0
MATERIAL
  5
11
102
{ACAD_XDICTIONARY
360
12
102
}
102
{ACAD_REACTORS
330
10
102
}
330
10
100
AcDbMaterial
  1
ByLayer
 72
     0
 43
0.0208333333333333
 43
0.0
 43
0.0
 43
0.0
 43
0.0
 43
0.0208333333333333
 43
0.0
 43
0.0
 43
0.0
 43
0.0
 43
1.0
 43
0.0
 43
0.0
 43
0.0
 43
0.0
 43
1.0
 77
     0
 47
0.0208333333333333
 47
0.0
 47
0.0
 47
0.0
 47
0.0
 47
0.0208333333333333
 47
0.0
 47
0.0
 47
0.0
 47
0.0
 47
1.0
 47
0.0
 47
0.0
 47
0.0
 47
0.0
 47
1.0
171
     0
 49
0.0208333333333333
 49
0.0
 49
0.0
 49
0.0
 49
0.0
 49
0.0208333333333333
 49
0.0
 49
0.0
 49
0.0
 49
0.0
 49
1.0
 49
0.0
 49
0.0
 49
0.0
 49
0.0
 49
1.0
175
     0
142
0.0208333333333333
142
0.0
142
0.0
142
0.0
142
0.0
142
0.0208333333333333
142
0.0
142
0.0
142
0.0
142
0.0
142
1.0
142
0.0
142
0.0
142
0.0
142
0.0
142
1.0
179
     0
144
0.0208333333333333
144
0.0
144
0.0
144
0.0
144
0.0
144
0.0208333333333333
144
0.0
144
0.0
144
0.0
144
0.0
144
1.0
144
0.0
144
0.0
144
0.0
144
0.0
144
1.0
147
0.0208333333333333
147
0.0
147
0.0
147
0.0
147
0.0
147
0.0208333333333333
147
0.0
147
0.0
147
0.0
147
0.0
147
1.0
147
0.0
147
0.0
147
0.0
147
0.0
147
1.0
  0
MATERIAL
  5
21
102
{ACAD_XDICTIONARY
360
22
102
}
102
{ACAD_REACTORS
330
10
102
}
330
10
100
AcDbMaterial
  1
Global
 72
     0
 43
0.0208333333333333
 43
0.0
 43
0.0
 43
0.0
 43
0.0
 43
0.0208333333333333
 43
0.0
 43
0.0
 43
0.0
 43
0.0
 43
1.0
 43
0.0
 43
0.0
 43
0.0
 43
0.0
 43
1.0
 77
     0
 47
0.0208333333333333
 47
0.0
 47
0.0
 47
0.0
 47
0.0
 47
0.0208333333333333
 47
0.0
 47
0.0
 47
0.0
 47
0.0
 47
1.0
 47
0.0
 47
0.0
 47
0.0
 47
0.0
 47
1.0
171
     0
 49
0.0208333333333333
 49
0.0
 49
0.0
 49
0.0
 49
0.0
 49
0.0208333333333333
 49
0.0
 49
0.0
 49
0.0
 49
0.0
 49
1.0
 49
0.0
 49
0.0
 49
0.0
 49
0.0
 49
1.0
175
     0
142
0.0208333333333333
142
0.0
142
0.0
142
0.0
142
0.0
142
0.0208333333333333
142
0.0
142
0.0
142
0.0
142
0.0
142
1.0
142
0.0
142
0.0
142
0.0
142
0.0
142
1.0
179
     0
144
0.0208333333333333
144
0.0
144
0.0
144
0.0
144
0.0
144
0.0208333333333333
144
0.0
144
0.0
144
0.0
144
0.0
144
1.0
144
0.0
144
0.0
144
0.0
144
0.0
144
1.0
147
0.0208333333333333
147
0.0
147
0.0
147
0.0
147
0.0
147
0.0208333333333333
147
0.0
147
0.0
147
0.0
147
0.0
147
1.0
147
0.0
147
0.0
147
0.0
147
0.0
147
1.0
  0
MLEADERSTYLE
  5
67
102
{ACAD_REACTORS
330
66
102
}
330
66
100
AcDbMLeaderStyle
179
     2
170
     2
171
     1
172
     0
 90
        2
 40
0.0
 41
0.0
173
     1
 91
-1056964608
340
5B
 92
       -2
290
     1
 42
0.09
291
     1
 43
0.36
  3
Standard
 44
0.18
300

342
55
174
     1
178
     6
175
     1
176
     0
 93
-1056964608
 45
0.18
292
     0
297
     0
 46
0.18
 94
-1056964608
 47
1.0
 49
1.0
140
1.0
293
     1
141
0.0
294
     1
177
     0
142
1.0
295
     0
296
     0
143
0.125
271
     0
272
     9
273
     9
298
     1
  0
MLINESTYLE
  5
60
102
{ACAD_REACTORS
330
5F
102
}
330
5F
100
AcDbMlineStyle
  2
STANDARD
 70
     0
  3

 62
   256
 51
90.0
 52
90.0
 71
     2
 49
0.5
 62
   256
  6
BYLAYER
 49
-0.5
 62
   256
  6
BYLAYER
  0
ACDBPLACEHOLDER
  5
F
102
{ACAD_REACTORS
330
E
102
}
330
E
  0
SCALE
  5
43
102
{ACAD_REACTORS
330
42
102
}
330
42
100
AcDbScale
 70
     0
300
1:1
140
1.0
141
1.0
290
     1
  0
SCALE
  5
44
102
{ACAD_REACTORS
330
42
102
}
330
42
100
AcDbScale
 70
     0
300
1/128" = 1'-0"
140
0.0078125
141
12.0
290
     0
  0
SCALE
  5
45
102
{ACAD_REACTORS
330
42
102
}
330
42
100
AcDbScale
 70
     0
300
1/64" = 1'-0"
140
0.015625
141
12.0
290
     0
  0
SCALE
  5
46
102
{ACAD_REACTORS
330
42
102
}
330
42
100
AcDbScale
 70
     0
300
1/32" = 1'-0"
140
0.03125
141
12.0
290
     0
  0
SCALE
  5
47
102
{ACAD_REACTORS
330
42
102
}
330
42
100
AcDbScale
 70
     0
300
1/16" = 1'-0"
140
0.0625
141
12.0
290
     0
  0
SCALE
  5
48
102
{ACAD_REACTORS
330
42
102
}
330
42
100
AcDbScale
 70
     0
300
3/32" = 1'-0"
140
0.09375
141
12.0
290
     0
  0
SCALE
  5
49
102
{ACAD_REACTORS
330
42
102
}
330
42
100
AcDbScale
 70
     0
300
1/8" = 1'-0"
140
0.125
141
12.0
290
     0
  0
SCALE
  5
4A
102
{ACAD_REACTORS
330
42
102
}
330
42
100
AcDbScale
 70
     0
300
3/16" = 1'-0"
140
0.1875
141
12.0
290
     0
  0
SCALE
  5
4B
102
{ACAD_REACTORS
330
42
102
}
330
42
100
AcDbScale
 70
     0
300
1/4" = 1'-0"
140
0.25
141
12.0
290
     0
  0
SCALE
  5
4C
102
{ACAD_REACTORS
330
42
102
}
330
42
100
AcDbScale
 70
     0
300
3/8" = 1'-0"
140
0.375
141
12.0
290
     0
  0
SCALE
  5
4D
102
{ACAD_REACTORS
330
42
102
}
330
42
100
AcDbScale
 70
     0
300
1/2" = 1'-0"
140
0.5
141
12.0
290
     0
  0
SCALE
  5
4E
102
{ACAD_REACTORS
330
42
102
}
330
42
100
AcDbScale
 70
     0
300
3/4" = 1'-0"
140
0.75
141
12.0
290
     0
  0
SCALE
  5
4F
102
{ACAD_REACTORS
330
42
102
}
330
42
100
AcDbScale
 70
     0
300
1" = 1'-0"
140
1.0
141
12.0
290
     0
  0
SCALE
  5
50
102
{ACAD_REACTORS
330
42
102
}
330
42
100
AcDbScale
 70
     0
300
1-1/2" = 1'-0"
140
1.5
141
12.0
290
     0
  0
SCALE
  5
51
102
{ACAD_REACTORS
330
42
102
}
330
42
100
AcDbScale
 70
     0
300
3" = 1'-0"
140
3.0
141
12.0
290
     0
  0
SCALE
  5
52
102
{ACAD_REACTORS
330
42
102
}
330
42
100
AcDbScale
 70
     0
300
6" = 1'-0"
140
6.0
141
12.0
290
     0
  0
SCALE
  5
53
102
{ACAD_REACTORS
330
42
102
}
330
42
100
AcDbScale
 70
     0
300
1'-0" = 1'-0"
140
12.0
141
12.0
290
     0
  0
ACDBSECTIONVIEWSTYLE
  5
69
102
{ACAD_XDICTIONARY
360
2D1
102
}
102
{ACAD_REACTORS
330
68
102
}
330
68
100
AcDbModelDocViewStyle
 70
     0
  3
Imperial24
290
     0
100
AcDbSectionViewStyle
 70
     0
 71
     0
 90
       78
 71
     1
340
55
 62
   256
 40
0.24
340
0
340
0
 62
   256
 40
0.24
300
I, O, Q, S, X, Z
 40
0.48
 90
        3
 40
0.18
 90
        1
 71
     2
340
5D
 90
       25
 62
   256
340
5D
 90
       50
 62
   256
 40
0.24
 40
0.0
 40
0.24
 71
     3
340
55
 62
   256
 40
0.24
 90
        1
 40
0.75
 90
        1
300
%<\AcVar ViewType \f "%tc1">% %<\AcVar ViewSectionStartId>%-%<\AcVar ViewSectionEndId>%\PSCALE %<\AcVar ViewScale \f "%sn">%
 71
     4
 62
   256
 62
   257
300
ANSI31
 40
1.0
 90
        0
290
     0
290
     0
 90
        6
 40
0.0
 40
1.570796326794896
 40
0.2617993877991494
 40
1.308996938995747
 40
-0.2617993877991494
 40
1.832595714594046
  0
TABLESTYLE
  5
65
102
{ACAD_XDICTIONARY
360
276
102
}
102
{ACAD_REACTORS
330
64
102
}
330
64
100
AcDbTableStyle
280
     0
  3
Standard
 70
     0
 71
     0
 40
0.06
 41
0.06
280
     0
281
     0
  7
Standard
140
0.18
170
     2
 62
     0
 63
     7
283
     0
 90
      512
 91
        0
  1

274
    -2
284
     1
 64
     0
275
    -2
285
     1
 65
     0
276
    -2
286
     1
 66
     0
277
    -2
287
     1
 67
     0
278
    -2
288
     1
 68
     0
279
    -2
289
     1
 69
     0
  7
Standard
140
0.25
170
     5
 62
     0
 63
     7
283
     0
 90
      512
 91
        0
  1

274
    -2
284
     1
 64
     0
275
    -2
285
     1
 65
     0
276
    -2
286
     1
 66
     0
277
    -2
287
     1
 67
     0
278
    -2
288
     1
 68
     0
279
    -2
289
     1
 69
     0
  7
Standard
140
0.18
170
     5
 62
     0
 63
     7
283
     0
 90
      512
 91
        0
  1

274
    -2
284
     1
 64
     0
275
    -2
285
     1
 65
     0
276
    -2
286
     1
 66
     0
277
    -2
287
     1
 67
     0
278
    -2
288
     1
 68
     0
279
    -2
289
     1
 69
     0
  0
VISUALSTYLE
  5
2F
102
{ACAD_REACTORS
330
29
102
}
330
29
100
AcDbVisualStyle
  2
2dWireframe
 70
     4
177
     3
291
     0
 70
    58
 90
        0
176
     1
 90
        2
176
     1
 90
        0
176
     1
 90
        0
176
     1
 40
0.6
176
     1
 40
30.0
176
     1
 62
     7
420
 16777215
176
     1
 90
        1
176
     1
 90
        4
176
     1
 62
     7
176
     1
 62
   257
176
     1
 90
        1
176
     1
 90
        1
176
     1
 40
1.0
176
     1
 90
        0
176
     1
 62
   257
176
     1
 40
1.0
176
     1
 90
        1
176
     1
 90
        6
176
     1
 90
        2
176
     1
 62
     7
176
     1
 90
        5
176
     1
 90
        0
176
     1
 90
        0
176
     1
290
     0
176
     1
 90
        1
176
     1
 40
0.0
176
     1
 90
        0
176
     1
290
     1
176
     1
290
     1
176
     1
290
     0
176
     1
290
     0
176
     1
290
     0
176
     1
290
     0
176
     1
290
     0
176
     1
290
     0
176
     1
290
     0
176
     1
 90
       50
176
     1
 40
0.0
176
     1
 40
1.0
176
     1
 90
        0
176
     1
 62
    18
420
        0
176
     1
 90
       50
176
     1
 90
        3
176
     1
 62
     5
420
      255
176
     1
290
     0
176
     1
 90
       50
176
     1
 90
       50
176
     1
 90
       50
176
     1
290
     0
176
     1
 90
       50
176
     1
 62
   256
176
     0
 40
1.0
176
     0
 90
        2
176
     1
  1
strokes_ogs.tif
176
     1
290
     0
176
     1
 40
1.0
176
     1
 40
1.0
176
     1
1001
ACAD
1000
AcDbSavedByObjectVersion
1070
     0
  0
VISUALSTYLE
  5
2E
102
{ACAD_REACTORS
330
29
102
}
330
29
100
AcDbVisualStyle
  2
Basic
 70
     7
177
     3
291
     1
 70
    58
 90
        1
176
     1
 90
        0
176
     1
 90
        1
176
     1
 90
        0
176
     1
 40
0.6
176
     1
 40
30.0
176
     1
 62
     7
420
 16777215
176
     1
 90
        0
176
     1
 90
        4
176
     1
 62
     7
176
     1
 62
   257
176
     1
 90
        1
176
     1
 90
        1
176
     1
 40
1.0
176
     1
 90
        8
176
     1
 62
     7
176
     1
 40
1.0
176
     1
 90
        1
176
     1
 90
        6
176
     1
 90
        2
176
     1
 62
     7
176
     1
 90
        5
176
     1
 90
        0
176
     1
 90
        0
176
     1
290
     0
176
     1
 90
        1
176
     1
 40
0.0
176
     1
 90
        0
176
     1
290
     0
176
     1
290
     1
176
     1
290
     1
176
     1
290
     0
176
     1
290
     0
176
     1
290
     0
176
     1
290
     0
176
     1
290
     0
176
     1
290
     0
176
     1
 90
       50
176
     1
 40
0.0
176
     1
 40
1.0
176
     1
 90
        0
176
     1
 62
    18
420
        0
176
     1
 90
       50
176
     1
 90
        3
176
     1
 62
     5
420
      255
176
     1
290
     0
176
     1
 90
       50
176
     1
 90
       50
176
     1
 90
       50
176
     1
290
     0
176
     1
 90
       50
176
     1
 62
   256
176
     0
 40
1.0
176
     0
 90
        2
176
     1
  1
strokes_ogs.tif
176
     1
290
     0
176
     1
 40
1.0
176
     1
 40
1.0
176
     1
1001
ACAD
1000
AcDbSavedByObjectVersion
1070
     0
  0
VISUALSTYLE
  5
35
102
{ACAD_REACTORS
330
29
102
}
330
29
100
AcDbVisualStyle
  2
Brighten
 70
    12
177
     3
291
     1
 70
    58
 90
        2
176
     1
 90
        2
176
     1
 90
        0
176
     1
 90
        0
176
     1
 40
0.6
176
     1
 40
30.0
176
     1
 62
     7
420
 16777215
176
     1
 90
        1
176
     1
 90
        4
176
     1
 62
     7
176
     1
 62
   257
176
     1
 90
        1
176
     1
 90
        1
176
     1
 40
1.0
176
     1
 90
        8
176
     1
 62
     7
176
     1
 40
1.0
176
     1
 90
        1
176
     1
 90
        6
176
     1
 90
        2
176
     1
 62
     7
176
     1
 90
        5
176
     1
 90
        0
176
     1
 90
        0
176
     1
290
     0
176
     1
 90
        1
176
     1
 40
50.0
176
     1
 90
        0
176
     1
290
     0
176
     1
290
     1
176
     1
290
     1
176
     1
290
     0
176
     1
290
     0
176
     1
290
     0
176
     1
290
     0
176
     1
290
     0
176
     1
290
     0
176
     1
 90
       50
176
     1
 40
0.0
176
     1
 40
1.0
176
     1
 90
        0
176
     1
 62
    18
420
        0
176
     1
 90
       50
176
     1
 90
        3
176
     1
 62
     5
420
      255
176
     1
290
     0
176
     1
 90
       50
176
     1
 90
       50
176
     1
 90
       50
176
     1
290
     0
176
     1
 90
       50
176
     1
 62
   256
176
     0
 40
1.0
176
     0
 90
        2
176
     1
  1
strokes_ogs.tif
176
     1
290
     0
176
     1
 40
1.0
176
     1
 40
1.0
176
     1
1001
ACAD
1000
AcDbSavedByObjectVersion
1070
     0
  0
VISUALSTYLE
  5
39
102
{ACAD_REACTORS
330
29
102
}
330
29
100
AcDbVisualStyle
  2
ColorChange
 70
    16
177
     3
291
     1
 70
    58
 90
        2
176
     1
 90
        2
176
     1
 90
        3
176
     1
 90
        0
176
     1
 40
0.6
176
     1
 40
30.0
176
     1
 62
     8
420
  8421504
176
     1
 90
        1
176
     1
 90
        4
176
     1
 62
     7
176
     1
 62
   257
176
     1
 90
        1
176
     1
 90
        1
176
     1
 40
1.0
176
     1
 90
        8
176
     1
 62
     8
420
  8421504
176
     1
 40
1.0
176
     1
 90
        1
176
     1
 90
        6
176
     1
 90
        2
176
     1
 62
     7
176
     1
 90
        5
176
     1
 90
        0
176
     1
 90
        0
176
     1
290
     0
176
     1
 90
        1
176
     1
 40
0.0
176
     1
 90
        0
176
     1
290
     0
176
     1
290
     1
176
     1
290
     1
176
     1
290
     0
176
     1
290
     0
176
     1
290
     0
176
     1
290
     0
176
     1
290
     0
176
     1
290
     0
176
     1
 90
       50
176
     1
 40
0.0
176
     1
 40
1.0
176
     1
 90
        0
176
     1
 62
    18
420
        0
176
     1
 90
       50
176
     1
 90
        3
176
     1
 62
     5
420
      255
176
     1
290
     0
176
     1
 90
       50
176
     1
 90
       50
176
     1
 90
       50
176
     1
290
     0
176
     1
 90
       50
176
     1
 62
   256
176
     0
 40
1.0
176
     0
 90
        2
176
     1
  1
strokes_ogs.tif
176
     1
290
     0
176
     1
 40
1.0
176
     1
 40
1.0
176
     1
1001
ACAD
1000
AcDbSavedByObjectVersion
1070
     0
  0
VISUALSTYLE
  5
32
102
{ACAD_REACTORS
330
29
102
}
330
29
100
AcDbVisualStyle
  2
Conceptual
 70
     9
177
     3
291
     0
 70
    58
 90
        3
176
     1
 90
        2
176
     1
 90
        0
176
     1
 90
        0
176
     1
 40
0.6
176
     1
 40
30.0
176
     1
 62
     7
420
 16777215
176
     1
 90
        2
176
     1
 90
        2
176
     1
 62
     7
176
     1
 62
   257
176
     1
 90
        1
176
     1
 90
        1
176
     1
 40
179.0
176
     1
 90
        8
176
     1
 62
     7
176
     1
 40
1.0
176
     1
 90
        1
176
     1
 90
        6
176
     1
 90
        2
176
     1
 62
     7
176
     1
 90
        3
176
     1
 90
        0
176
     1
 90
        0
176
     1
290
     0
176
     1
 90
        1
176
     1
 40
0.0
176
     1
 90
        0
176
     1
290
     0
176
     1
290
     1
176
     1
290
     1
176
     1
290
     0
176
     1
290
     0
176
     1
290
     0
176
     1
290
     0
176
     1
290
     0
176
     1
290
     0
176
     1
 90
       50
176
     1
 40
0.0
176
     1
 40
1.0
176
     1
 90
        0
176
     1
 62
    18
420
        0
176
     1
 90
       50
176
     1
 90
        3
176
     1
 62
     5
420
      255
176
     1
290
     0
176
     1
 90
       50
176
     1
 90
       50
176
     1
 90
       50
176
     1
290
     0
176
     1
 90
       50
176
     1
 62
   256
176
     0
 40
1.0
176
     0
 90
        2
176
     1
  1
strokes_ogs.tif
176
     1
290
     0
176
     1
 40
1.0
176
     1
 40
1.0
176
     1
1001
ACAD
1000
AcDbSavedByObjectVersion
1070
     0
  0
VISUALSTYLE
  5
34
102
{ACAD_REACTORS
330
29
102
}
330
29
100
AcDbVisualStyle
  2
Dim
 70
    11
177
     3
291
     1
 70
    58
 90
        2
176
     1
 90
        2
176
     1
 90
        0
176
     1
 90
        0
176
     1
 40
0.6
176
     1
 40
30.0
176
     1
 62
     7
420
 16777215
176
     1
 90
        1
176
     1
 90
        4
176
     1
 62
     7
176
     1
 62
   257
176
     1
 90
        1
176
     1
 90
        1
176
     1
 40
1.0
176
     1
 90
        8
176
     1
 62
     7
176
     1
 40
1.0
176
     1
 90
        1
176
     1
 90
        6
176
     1
 90
        2
176
     1
 62
     7
176
     1
 90
        5
176
     1
 90
        0
176
     1
 90
        0
176
     1
290
     0
176
     1
 90
        1
176
     1
 40
-50.0
176
     1
 90
        0
176
     1
290
     0
176
     1
290
     1
176
     1
290
     1
176
     1
290
     0
176
     1
290
     0
176
     1
290
     0
176
     1
290
     0
176
     1
290
     0
176
     1
290
     0
176
     1
 90
       50
176
     1
 40
0.0
176
     1
 40
1.0
176
     1
 90
        0
176
     1
 62
    18
420
        0
176
     1
 90
       50
176
     1
 90
        3
176
     1
 62
     5
420
      255
176
     1
290
     0
176
     1
 90
       50
176
     1
 90
       50
176
     1
 90
       50
176
     1
290
     0
176
     1
 90
       50
176
     1
 62
   256
176
     0
 40
1.0
176
     0
 90
        2
176
     1
  1
strokes_ogs.tif
176
     1
290
     0
176
     1
 40
1.0
176
     1
 40
1.0
176
     1
1001
ACAD
1000
AcDbSavedByObjectVersion
1070
     0
  0
VISUALSTYLE
  5
41
102
{ACAD_REACTORS
330
29
102
}
330
29
100
AcDbVisualStyle
  2
EdgeColorOff
 70
    22
177
     3
291
     1
 70
    58
 90
        2
176
     0
 90
        2
176
     0
 90
        0
176
     0
 90
        0
176
     0
 40
0.6
176
     0
 40
30.0
176
     0
 62
     7
420
 16777215
176
     0
 90
        1
176
     0
 90
        4
176
     0
 62
     7
176
     0
 62
   257
176
     0
 90
        1
176
     0
 90
        1
176
     0
 40
1.0
176
     0
 90
        8
176
     2
 62
     7
176
     0
 40
1.0
176
     0
 90
        1
176
     0
 90
        6
176
     0
 90
        2
176
     0
 62
     7
176
     0
 90
        5
176
     0
 90
        0
176
     0
 90
        0
176
     0
290
     0
176
     0
 90
        1
176
     0
 40
0.0
176
     0
 90
        0
176
     0
290
     0
176
     0
290
     1
176
     0
290
     1
176
     0
290
     0
176
     0
290
     0
176
     0
290
     0
176
     0
290
     0
176
     0
290
     0
176
     0
290
     0
176
     0
 90
       50
176
     0
 40
0.0
176
     0
 40
1.0
176
     0
 90
        0
176
     0
 62
    18
420
        0
176
     0
 90
       50
176
     0
 90
        3
176
     0
 62
     5
420
      255
176
     0
290
     0
176
     0
 90
       50
176
     0
 90
       50
176
     0
 90
       50
176
     0
290
     0
176
     0
 90
       50
176
     0
 62
   256
176
     0
 40
1.0
176
     0
 90
        2
176
     0
  1
strokes_ogs.tif
176
     0
290
     0
176
     0
 40
1.0
176
     0
 40
1.0
176
     0
1001
ACAD
1000
AcDbSavedByObjectVersion
1070
     0
  0
VISUALSTYLE
  5
38
102
{ACAD_REACTORS
330
29
102
}
330
29
100
AcDbVisualStyle
  2
Facepattern
 70
    15
177
     3
291
     1
 70
    58
 90
        2
176
     1
 90
        2
176
     1
 90
        0
176
     1
 90
        0
176
     1
 40
0.6
176
     1
 40
30.0
176
     1
 62
     7
420
 16777215
176
     1
 90
        1
176
     1
 90
        4
176
     1
 62
     7
176
     1
 62
   257
176
     1
 90
        1
176
     1
 90
        1
176
     1
 40
1.0
176
     1
 90
        8
176
     1
 62
     7
176
     1
 40
1.0
176
     1
 90
        1
176
     1
 90
        6
176
     1
 90
        2
176
     1
 62
     7
176
     1
 90
        5
176
     1
 90
        0
176
     1
 90
        0
176
     1
290
     0
176
     1
 90
        1
176
     1
 40
0.0
176
     1
 90
        0
176
     1
290
     0
176
     1
290
     1
176
     1
290
     1
176
     1
290
     0
176
     1
290
     0
176
     1
290
     0
176
     1
290
     0
176
     1
290
     0
176
     1
290
     0
176
     1
 90
       50
176
     1
 40
0.0
176
     1
 40
1.0
176
     1
 90
        0
176
     1
 62
    18
420
        0
176
     1
 90
       50
176
     1
 90
        3
176
     1
 62
     5
420
      255
176
     1
290
     0
176
     1
 90
       50
176
     1
 90
       50
176
     1
 90
       50
176
     1
290
     0
176
     1
 90
       50
176
     1
 62
   256
176
     0
 40
1.0
176
     0
 90
        2
176
     1
  1
strokes_ogs.tif
176
     1
290
     0
176
     1
 40
1.0
176
     1
 40
1.0
176
     1
1001
ACAD
1000
AcDbSavedByObjectVersion
1070
     0
  0
VISUALSTYLE
  5
2A
102
{ACAD_REACTORS
330
29
102
}
330
29
100
AcDbVisualStyle
  2
Flat
 70
     0
177
     3
291
     1
 70
    58
 90
        2
176
     1
 90
        1
176
     1
 90
        1
176
     1
 90
        2
176
     1
 40
0.6
176
     1
 40
30.0
176
     1
 62
     7
420
 16777215
176
     1
 90
        0
176
     1
 90
        0
176
     1
 62
     7
176
     1
 62
   257
176
     1
 90
        1
176
     1
 90
        1
176
     1
 40
1.0
176
     1
 90
        8
176
     1
 62
     7
176
     1
 40
1.0
176
     1
 90
        1
176
     1
 90
        6
176
     1
 90
        2
176
     1
 62
     7
176
     1
 90
        5
176
     1
 90
        0
176
     1
 90
        0
176
     1
290
     0
176
     1
 90
       13
176
     1
 40
0.0
176
     1
 90
        0
176
     1
290
     0
176
     1
290
     1
176
     1
290
     1
176
     1
290
     0
176
     1
290
     0
176
     1
290
     0
176
     1
290
     0
176
     1
290
     0
176
     1
290
     0
176
     1
 90
       50
176
     1
 40
0.0
176
     1
 40
1.0
176
     1
 90
        0
176
     1
 62
    18
420
        0
176
     1
 90
       50
176
     1
 90
        3
176
     1
 62
     5
420
      255
176
     1
290
     0
176
     1
 90
       50
176
     1
 90
       50
176
     1
 90
       50
176
     1
290
     0
176
     1
 90
       50
176
     1
 62
   256
176
     0
 40
1.0
176
     0
 90
        2
176
     1
  1
strokes_ogs.tif
176
     1
290
     0
176
     1
 40
1.0
176
     1
 40
1.0
176
     1
1001
ACAD
1000
AcDbSavedByObjectVersion
1070
     0
  0
VISUALSTYLE
  5
2B
102
{ACAD_REACTORS
330
29
102
}
330
29
100
AcDbVisualStyle
  2
FlatWithEdges
 70
     1
177
     3
291
     1
 70
    58
 90
        2
176
     1
 90
        1
176
     1
 90
        1
176
     1
 90
        2
176
     1
 40
0.6
176
     1
 40
30.0
176
     1
 62
     7
420
 16777215
176
     1
 90
        1
176
     1
 90
        0
176
     1
 62
     7
176
     1
 62
   257
176
     1
 90
        1
176
     1
 90
        1
176
     1
 40
1.0
176
     1
 90
        0
176
     1
 62
   257
176
     1
 40
1.0
176
     1
 90
        1
176
     1
 90
        6
176
     1
 90
        2
176
     1
 62
     7
176
     1
 90
        5
176
     1
 90
        0
176
     1
 90
        0
176
     1
290
     0
176
     1
 90
       13
176
     1
 40
0.0
176
     1
 90
        0
176
     1
290
     0
176
     1
290
     1
176
     1
290
     1
176
     1
290
     0
176
     1
290
     0
176
     1
290
     0
176
     1
290
     0
176
     1
290
     0
176
     1
290
     0
176
     1
 90
       50
176
     1
 40
0.0
176
     1
 40
1.0
176
     1
 90
        0
176
     1
 62
    18
420
        0
176
     1
 90
       50
176
     1
 90
        3
176
     1
 62
     5
420
      255
176
     1
290
     0
176
     1
 90
       50
176
     1
 90
       50
176
     1
 90
       50
176
     1
290
     0
176
     1
 90
       50
176
     1
 62
   256
176
     0
 40
1.0
176
     0
 90
        2
176
     1
  1
strokes_ogs.tif
176
     1
290
     0
176
     1
 40
1.0
176
     1
 40
1.0
176
     1
1001
ACAD
1000
AcDbSavedByObjectVersion
1070
     0
  0
VISUALSTYLE
  5
2C
102
{ACAD_REACTORS
330
29
102
}
330
29
100
AcDbVisualStyle
  2
Gouraud
 70
     2
177
     3
291
     1
 70
    58
 90
        2
176
     1
 90
        2
176
     1
 90
        1
176
     1
 90
        2
176
     1
 40
0.6
176
     1
 40
30.0
176
     1
 62
     7
420
 16777215
176
     1
 90
        0
176
     1
 90
        0
176
     1
 62
     7
176
     1
 62
   257
176
     1
 90
        1
176
     1
 90
        1
176
     1
 40
1.0
176
     1
 90
        0
176
     1
 62
     7
176
     1
 40
1.0
176
     1
 90
        1
176
     1
 90
        6
176
     1
 90
        2
176
     1
 62
     7
176
     1
 90
        5
176
     1
 90
        0
176
     1
 90
        0
176
     1
290
     0
176
     1
 90
       13
176
     1
 40
0.0
176
     1
 90
        0
176
     1
290
     0
176
     1
290
     1
176
     1
290
     1
176
     1
290
     0
176
     1
290
     0
176
     1
290
     0
176
     1
290
     0
176
     1
290
     0
176
     1
290
     0
176
     1
 90
       50
176
     1
 40
0.0
176
     1
 40
1.0
176
     1
 90
        0
176
     1
 62
    18
420
        0
176
     1
 90
       50
176
     1
 90
        3
176
     1
 62
     5
420
      255
176
     1
290
     0
176
     1
 90
       50
176
     1
 90
       50
176
     1
 90
       50
176
     1
290
     0
176
     1
 90
       50
176
     1
 62
   256
176
     0
 40
1.0
176
     0
 90
        2
176
     1
  1
strokes_ogs.tif
176
     1
290
     0
176
     1
 40
1.0
176
     1
 40
1.0
176
     1
1001
ACAD
1000
AcDbSavedByObjectVersion
1070
     0
  0
VISUALSTYLE
  5
2D
102
{ACAD_REACTORS
330
29
102
}
330
29
100
AcDbVisualStyle
  2
GouraudWithEdges
 70
     3
177
     3
291
     1
 70
    58
 90
        2
176
     1
 90
        2
176
     1
 90
        1
176
     1
 90
        2
176
     1
 40
0.6
176
     1
 40
30.0
176
     1
 62
     7
420
 16777215
176
     1
 90
        1
176
     1
 90
        0
176
     1
 62
     7
176
     1
 62
   257
176
     1
 90
        1
176
     1
 90
        1
176
     1
 40
1.0
176
     1
 90
        0
176
     1
 62
   257
176
     1
 40
1.0
176
     1
 90
        1
176
     1
 90
        6
176
     1
 90
        2
176
     1
 62
     7
176
     1
 90
        5
176
     1
 90
        0
176
     1
 90
        0
176
     1
290
     0
176
     1
 90
       13
176
     1
 40
0.0
176
     1
 90
        0
176
     1
290
     0
176
     1
290
     1
176
     1
290
     1
176
     1
290
     0
176
     1
290
     0
176
     1
290
     0
176
     1
290
     0
176
     1
290
     0
176
     1
290
     0
176
     1
 90
       50
176
     1
 40
0.0
176
     1
 40
1.0
176
     1
 90
        0
176
     1
 62
    18
420
        0
176
     1
 90
       50
176
     1
 90
        3
176
     1
 62
     5
420
      255
176
     1
290
     0
176
     1
 90
       50
176
     1
 90
       50
176
     1
 90
       50
176
     1
290
     0
176
     1
 90
       50
176
     1
 62
   256
176
     0
 40
1.0
176
     0
 90
        2
176
     1
  1
strokes_ogs.tif
176
     1
290
     0
176
     1
 40
1.0
176
     1
 40
1.0
176
     1
1001
ACAD
1000
AcDbSavedByObjectVersion
1070
     0
  0
VISUALSTYLE
  5
31
102
{ACAD_REACTORS
330
29
102
}
330
29
100
AcDbVisualStyle
  2
Hidden
 70
     6
177
     3
291
     0
 70
    58
 90
        1
176
     1
 90
        2
176
     1
 90
        2
176
     1
 90
        0
176
     1
 40
0.6
176
     1
 40
30.0
176
     1
 62
     7
420
 16777215
176
     1
 90
        2
176
     1
 90
        2
176
     1
 62
     7
176
     1
 62
   257
176
     1
 90
        2
176
     1
 90
        1
176
     1
 40
40.0
176
     1
 90
        0
176
     1
 62
   257
176
     1
 40
1.0
176
     1
 90
        1
176
     1
 90
        6
176
     1
 90
        2
176
     1
 62
     7
176
     1
 90
        3
176
     1
 90
        0
176
     1
 90
        0
176
     1
290
     0
176
     1
 90
        1
176
     1
 40
0.0
176
     1
 90
        0
176
     1
290
     0
176
     1
290
     1
176
     1
290
     1
176
     1
290
     0
176
     1
290
     0
176
     1
290
     0
176
     1
290
     0
176
     1
290
     0
176
     1
290
     0
176
     1
 90
       50
176
     1
 40
0.0
176
     1
 40
1.0
176
     1
 90
        0
176
     1
 62
    18
420
        0
176
     1
 90
       50
176
     1
 90
        3
176
     1
 62
     5
420
      255
176
     1
290
     0
176
     1
 90
       50
176
     1
 90
       50
176
     1
 90
       50
176
     1
290
     0
176
     1
 90
       50
176
     1
 62
   256
176
     0
 40
1.0
176
     0
 90
        2
176
     1
  1
strokes_ogs.tif
176
     1
290
     0
176
     1
 40
1.0
176
     1
 40
1.0
176
     1
1001
ACAD
1000
AcDbSavedByObjectVersion
1070
     0
  0
VISUALSTYLE
  5
3F
102
{ACAD_REACTORS
330
29
102
}
330
29
100
AcDbVisualStyle
  2
JitterOff
 70
    20
177
     3
291
     1
 70
    58
 90
        2
176
     0
 90
        2
176
     0
 90
        0
176
     0
 90
        0
176
     0
 40
0.6
176
     0
 40
30.0
176
     0
 62
     7
420
 16777215
176
     0
 90
        1
176
     0
 90
        4
176
     0
 62
     7
176
     0
 62
   257
176
     0
 90
        1
176
     0
 90
        1
176
     0
 40
1.0
176
     0
 90
       10
176
     2
 62
     7
176
     0
 40
1.0
176
     0
 90
        1
176
     0
 90
        6
176
     0
 90
        2
176
     0
 62
     7
176
     0
 90
        5
176
     0
 90
        0
176
     0
 90
        0
176
     0
290
     0
176
     0
 90
        1
176
     0
 40
0.0
176
     0
 90
        0
176
     0
290
     0
176
     0
290
     1
176
     0
290
     1
176
     0
290
     0
176
     0
290
     0
176
     0
290
     0
176
     0
290
     0
176
     0
290
     0
176
     0
290
     0
176
     0
 90
       50
176
     0
 40
0.0
176
     0
 40
1.0
176
     0
 90
        0
176
     0
 62
    18
420
        0
176
     0
 90
       50
176
     0
 90
        3
176
     0
 62
     5
420
      255
176
     0
290
     0
176
     0
 90
       50
176
     0
 90
       50
176
     0
 90
       50
176
     0
290
     0
176
     0
 90
       50
176
     0
 62
   256
176
     0
 40
1.0
176
     0
 90
        2
176
     0
  1
strokes_ogs.tif
176
     0
290
     0
176
     0
 40
1.0
176
     0
 40
1.0
176
     0
1001
ACAD
1000
AcDbSavedByObjectVersion
1070
     0
  0
VISUALSTYLE
  5
37
102
{ACAD_REACTORS
330
29
102
}
330
29
100
AcDbVisualStyle
  2
Linepattern
 70
    14
177
     3
291
     1
 70
    58
 90
        2
176
     1
 90
        2
176
     1
 90
        0
176
     1
 90
        0
176
     1
 40
0.6
176
     1
 40
30.0
176
     1
 62
     7
420
 16777215
176
     1
 90
        1
176
     1
 90
        4
176
     1
 62
     7
176
     1
 62
   257
176
     1
 90
        7
176
     1
 90
        7
176
     1
 40
1.0
176
     1
 90
        8
176
     1
 62
     7
176
     1
 40
1.0
176
     1
 90
        1
176
     1
 90
        6
176
     1
 90
        2
176
     1
 62
     7
176
     1
 90
        5
176
     1
 90
        0
176
     1
 90
        0
176
     1
290
     0
176
     1
 90
        1
176
     1
 40
0.0
176
     1
 90
        0
176
     1
290
     0
176
     1
290
     1
176
     1
290
     1
176
     1
290
     0
176
     1
290
     0
176
     1
290
     0
176
     1
290
     0
176
     1
290
     0
176
     1
290
     0
176
     1
 90
       50
176
     1
 40
0.0
176
     1
 40
1.0
176
     1
 90
        0
176
     1
 62
    18
420
        0
176
     1
 90
       50
176
     1
 90
        3
176
     1
 62
     5
420
      255
176
     1
290
     0
176
     1
 90
       50
176
     1
 90
       50
176
     1
 90
       50
176
     1
290
     0
176
     1
 90
       50
176
     1
 62
   256
176
     0
 40
1.0
176
     0
 90
        2
176
     1
  1
strokes_ogs.tif
176
     1
290
     0
176
     1
 40
1.0
176
     1
 40
1.0
176
     1
1001
ACAD
1000
AcDbSavedByObjectVersion
1070
     0
  0
VISUALSTYLE
  5
40
102
{ACAD_REACTORS
330
29
102
}
330
29
100
AcDbVisualStyle
  2
OverhangOff
 70
    21
177
     3
291
     1
 70
    58
 90
        2
176
     0
 90
        2
176
     0
 90
        0
176
     0
 90
        0
176
     0
 40
0.6
176
     0
 40
30.0
176
     0
 62
     7
420
 16777215
176
     0
 90
        1
176
     0
 90
        4
176
     0
 62
     7
176
     0
 62
   257
176
     0
 90
        1
176
     0
 90
        1
176
     0
 40
1.0
176
     0
 90
        9
176
     2
 62
     7
176
     0
 40
1.0
176
     0
 90
        1
176
     0
 90
        6
176
     0
 90
        2
176
     0
 62
     7
176
     0
 90
        5
176
     0
 90
        0
176
     0
 90
        0
176
     0
290
     0
176
     0
 90
        1
176
     0
 40
0.0
176
     0
 90
        0
176
     0
290
     0
176
     0
290
     1
176
     0
290
     1
176
     0
290
     0
176
     0
290
     0
176
     0
290
     0
176
     0
290
     0
176
     0
290
     0
176
     0
290
     0
176
     0
 90
       50
176
     0
 40
0.0
176
     0
 40
1.0
176
     0
 90
        0
176
     0
 62
    18
420
        0
176
     0
 90
       50
176
     0
 90
        3
176
     0
 62
     5
420
      255
176
     0
290
     0
176
     0
 90
       50
176
     0
 90
       50
176
     0
 90
       50
176
     0
290
     0
176
     0
 90
       50
176
     0
 62
   256
176
     0
 40
1.0
176
     0
 90
        2
176
     0
  1
strokes_ogs.tif
176
     0
290
     0
176
     0
 40
1.0
176
     0
 40
1.0
176
     0
1001
ACAD
1000
AcDbSavedByObjectVersion
1070
     0
  0
VISUALSTYLE
  5
33
102
{ACAD_REACTORS
330
29
102
}
330
29
100
AcDbVisualStyle
  2
Realistic
 70
     8
177
     3
291
     0
 70
    58
 90
        2
176
     1
 90
        2
176
     1
 90
        0
176
     1
 90
        2
176
     1
 40
0.6
176
     1
 40
30.0
176
     1
 62
     7
420
 16777215
176
     1
 90
        0
176
     1
 90
        0
176
     1
 62
     7
176
     1
 62
   257
176
     1
 90
        1
176
     1
 90
        1
176
     1
 40
1.0
176
     1
 90
        8
176
     1
 62
   257
176
     1
 40
1.0
176
     1
 90
        1
176
     1
 90
        6
176
     1
 90
        2
176
     1
 62
     7
176
     1
 90
        3
176
     1
 90
        0
176
     1
 90
        0
176
     1
290
     0
176
     1
 90
       13
176
     1
 40
0.0
176
     1
 90
        0
176
     1
290
     0
176
     1
290
     1
176
     1
290
     1
176
     1
290
     0
176
     1
290
     0
176
     1
290
     0
176
     1
290
     0
176
     1
290
     0
176
     1
290
     0
176
     1
 90
       50
176
     1
 40
0.0
176
     1
 40
1.0
176
     1
 90
        0
176
     1
 62
    18
420
        0
176
     1
 90
       50
176
     1
 90
        3
176
     1
 62
     5
420
      255
176
     1
290
     0
176
     1
 90
       50
176
     1
 90
       50
176
     1
 90
       50
176
     1
290
     0
176
     1
 90
       50
176
     1
 62
   256
176
     0
 40
1.0
176
     0
 90
        2
176
     1
  1
strokes_ogs.tif
176
     1
290
     0
176
     1
 40
1.0
176
     1
 40
1.0
176
     1
1001
ACAD
1000
AcDbSavedByObjectVersion
1070
     0
  0
VISUALSTYLE
  5
3E
102
{ACAD_REACTORS
330
29
102
}
330
29
100
AcDbVisualStyle
  2
Shaded
 70
    27
177
     3
291
     0
 70
    58
 90
        2
176
     1
 90
        2
176
     1
 90
        1
176
     1
 90
        2
176
     1
 40
0.6
176
     1
 40
30.0
176
     1
 62
     7
420
 16777215
176
     1
 90
        0
176
     1
 90
        4
176
     1
 62
     7
176
     1
 62
   257
176
     1
 90
        1
176
     1
 90
        1
176
     1
 40
1.0
176
     1
 90
        8
176
     1
 62
   257
176
     1
 40
1.0
176
     1
 90
        1
176
     1
 90
        6
176
     1
 90
        2
176
     1
 62
     8
420
  7895160
176
     1
 90
        3
176
     1
 90
        0
176
     1
 90
        0
176
     1
290
     0
176
     1
 90
        5
176
     1
 40
0.0
176
     1
 90
        0
176
     1
290
     0
176
     1
290
     1
176
     1
290
     1
176
     1
290
     0
176
     1
290
     0
176
     1
290
     0
176
     1
290
     0
176
     1
290
     0
176
     1
290
     0
176
     1
 90
       50
176
     1
 40
0.0
176
     1
 40
1.0
176
     1
 90
        0
176
     1
 62
    18
420
        0
176
     1
 90
       50
176
     1
 90
        3
176
     1
 62
     5
420
      255
176
     1
290
     0
176
     1
 90
       50
176
     1
 90
       50
176
     1
 90
       50
176
     1
290
     0
176
     1
 90
       50
176
     1
 62
   256
176
     0
 40
1.0
176
     0
 90
        2
176
     1
  1
strokes_ogs.tif
176
     1
290
     0
176
     1
 40
1.0
176
     1
 40
1.0
176
     1
1001
ACAD
1000
AcDbSavedByObjectVersion
1070
     0
  0
VISUALSTYLE
  5
3D
102
{ACAD_REACTORS
330
29
102
}
330
29
100
AcDbVisualStyle
  2
Shaded with edges
 70
    26
177
     3
291
     0
 70
    58
 90
        2
176
     1
 90
        2
176
     1
 90
        1
176
     1
 90
        2
176
     1
 40
0.6
176
     1
 40
30.0
176
     1
 62
     7
420
 16777215
176
     1
 90
        1
176
     1
 90
        2
176
     1
 62
     7
176
     1
 62
   257
176
     1
 90
        2
176
     1
 90
        1
176
     1
 40
1.0
176
     1
 90
        8
176
     1
 62
   257
176
     1
 40
1.0
176
     1
 90
        1
176
     1
 90
        6
176
     1
 90
        2
176
     1
 62
     7
176
     1
 90
        3
176
     1
 90
        0
176
     1
 90
        0
176
     1
290
     0
176
     1
 90
        5
176
     1
 40
0.0
176
     1
 90
        0
176
     1
290
     0
176
     1
290
     1
176
     1
290
     1
176
     1
290
     0
176
     1
290
     0
176
     1
290
     0
176
     1
290
     0
176
     1
290
     0
176
     1
290
     0
176
     1
 90
       50
176
     1
 40
0.0
176
     1
 40
1.0
176
     1
 90
        0
176
     1
 62
    18
420
        0
176
     1
 90
       50
176
     1
 90
        3
176
     1
 62
     5
420
      255
176
     1
290
     0
176
     1
 90
       50
176
     1
 90
       50
176
     1
 90
       50
176
     1
290
     0
176
     1
 90
       50
176
     1
 62
   256
176
     0
 40
1.0
176
     0
 90
        2
176
     1
  1
strokes_ogs.tif
176
     1
290
     0
176
     1
 40
1.0
176
     1
 40
1.0
176
     1
1001
ACAD
1000
AcDbSavedByObjectVersion
1070
     0
  0
VISUALSTYLE
  5
3A
102
{ACAD_REACTORS
330
29
102
}
330
29
100
AcDbVisualStyle
  2
Shades of Gray
 70
    23
177
     3
291
     0
 70
    58
 90
        2
176
     1
 90
        2
176
     1
 90
        3
176
     1
 90
        0
176
     1
 40
0.6
176
     1
 40
30.0
176
     1
 62
     7
420
 16777215
176
     1
 90
        2
176
     1
 90
        2
176
     1
 62
     7
176
     1
 62
     7
176
     1
 90
        1
176
     1
 90
        1
176
     1
 40
40.0
176
     1
 90
        8
176
     1
 62
     7
176
     1
 40
1.0
176
     1
 90
        1
176
     1
 90
        6
176
     1
 90
        2
176
     1
 62
     7
176
     1
 90
        3
176
     1
 90
        0
176
     1
 90
        0
176
     1
290
     0
176
     1
 90
        1
176
     1
 40
0.0
176
     1
 90
        0
176
     1
290
     0
176
     1
290
     1
176
     1
290
     1
176
     1
290
     0
176
     1
290
     0
176
     1
290
     0
176
     1
290
     0
176
     1
290
     0
176
     1
290
     0
176
     1
 90
       50
176
     1
 40
0.0
176
     1
 40
1.0
176
     1
 90
        0
176
     1
 62
    18
420
        0
176
     1
 90
       50
176
     1
 90
        3
176
     1
 62
     5
420
      255
176
     1
290
     0
176
     1
 90
       50
176
     1
 90
       50
176
     1
 90
       50
176
     1
290
     0
176
     1
 90
       50
176
     1
 62
   256
176
     0
 40
1.0
176
     0
 90
        2
176
     1
  1
strokes_ogs.tif
176
     1
290
     0
176
     1
 40
1.0
176
     1
 40
1.0
176
     1
1001
ACAD
1000
AcDbSavedByObjectVersion
1070
     0
  0
VISUALSTYLE
  5
3B
102
{ACAD_REACTORS
330
29
102
}
330
29
100
AcDbVisualStyle
  2
Sketchy
 70
    24
177
     3
291
     0
 70
    58
 90
        1
176
     1
 90
        2
176
     1
 90
        2
176
     1
 90
        0
176
     1
 40
0.6
176
     1
 40
30.0
176
     1
 62
     7
420
 16777215
176
     1
 90
        2
176
     1
 90
        2
176
     1
 62
     7
176
     1
 62
     7
176
     1
 90
        1
176
     1
 90
        1
176
     1
 40
40.0
176
     1
 90
       11
176
     1
 62
     7
176
     1
 40
1.0
176
     1
 90
        1
176
     1
 90
        6
176
     1
 90
        2
176
     1
 62
     7
176
     1
 90
        6
176
     1
 90
        0
176
     1
 90
        0
176
     1
290
     0
176
     1
 90
        1
176
     1
 40
0.0
176
     1
 90
        0
176
     1
290
     0
176
     1
290
     1
176
     1
290
     1
176
     1
290
     0
176
     1
290
     0
176
     1
290
     0
176
     1
290
     0
176
     1
290
     0
176
     1
290
     0
176
     1
 90
       50
176
     1
 40
0.0
176
     1
 40
1.0
176
     1
 90
        0
176
     1
 62
    18
420
        0
176
     1
 90
       50
176
     1
 90
        3
176
     1
 62
     5
420
      255
176
     1
290
     0
176
     1
 90
       50
176
     1
 90
       50
176
     1
 90
       50
176
     1
290
     0
176
     1
 90
       50
176
     1
 62
   256
176
     0
 40
1.0
176
     0
 90
        2
176
     1
  1
strokes_ogs.tif
176
     1
290
     0
176
     1
 40
1.0
176
     1
 40
1.0
176
     1
1001
ACAD
1000
AcDbSavedByObjectVersion
1070
     0
  0
VISUALSTYLE
  5
36
102
{ACAD_REACTORS
330
29
102
}
330
29
100
AcDbVisualStyle
  2
Thicken
 70
    13
177
     3
291
     1
 70
    58
 90
        2
176
     1
 90
        2
176
     1
 90
        0
176
     1
 90
        0
176
     1
 40
0.6
176
     1
 40
30.0
176
     1
 62
     7
420
 16777215
176
     1
 90
        1
176
     1
 90
        4
176
     1
 62
     7
176
     1
 62
   257
176
     1
 90
        1
176
     1
 90
        1
176
     1
 40
1.0
176
     1
 90
       12
176
     1
 62
     7
176
     1
 40
1.0
176
     1
 90
        1
176
     1
 90
        6
176
     1
 90
        2
176
     1
 62
     7
176
     1
 90
        5
176
     1
 90
        0
176
     1
 90
        0
176
     1
290
     0
176
     1
 90
        1
176
     1
 40
0.0
176
     1
 90
        0
176
     1
290
     0
176
     1
290
     1
176
     1
290
     1
176
     1
290
     0
176
     1
290
     0
176
     1
290
     0
176
     1
290
     0
176
     1
290
     0
176
     1
290
     0
176
     1
 90
       50
176
     1
 40
0.0
176
     1
 40
1.0
176
     1
 90
        0
176
     1
 62
    18
420
        0
176
     1
 90
       50
176
     1
 90
        3
176
     1
 62
     5
420
      255
176
     1
290
     0
176
     1
 90
       50
176
     1
 90
       50
176
     1
 90
       50
176
     1
290
     0
176
     1
 90
       50
176
     1
 62
   256
176
     0
 40
1.0
176
     0
 90
        2
176
     1
  1
strokes_ogs.tif
176
     1
290
     0
176
     1
 40
1.0
176
     1
 40
1.0
176
     1
1001
ACAD
1000
AcDbSavedByObjectVersion
1070
     0
  0
VISUALSTYLE
  5
30
102
{ACAD_REACTORS
330
29
102
}
330
29
100
AcDbVisualStyle
  2
Wireframe
 70
     5
177
     3
291
     0
 70
    58
 90
        0
176
     1
 90
        2
176
     1
 90
        0
176
     1
 90
        0
176
     1
 40
0.6
176
     1
 40
30.0
176
     1
 62
     7
420
 16777215
176
     1
 90
        1
176
     1
 90
        4
176
     1
 62
     7
176
     1
 62
   257
176
     1
 90
        1
176
     1
 90
        1
176
     1
 40
1.0
176
     1
 90
        0
176
     1
 62
   257
176
     1
 40
1.0
176
     1
 90
        1
176
     1
 90
        6
176
     1
 90
        2
176
     1
 62
     7
176
     1
 90
        3
176
     1
 90
        0
176
     1
 90
        0
176
     1
290
     0
176
     1
 90
        1
176
     1
 40
0.0
176
     1
 90
        0
176
     1
290
     0
176
     1
290
     1
176
     1
290
     1
176
     1
290
     0
176
     1
290
     0
176
     1
290
     0
176
     1
290
     0
176
     1
290
     0
176
     1
290
     0
176
     1
 90
       50
176
     1
 40
0.0
176
     1
 40
1.0
176
     1
 90
        0
176
     1
 62
    18
420
        0
176
     1
 90
       50
176
     1
 90
        3
176
     1
 62
     5
420
      255
176
     1
290
     0
176
     1
 90
       50
176
     1
 90
       50
176
     1
 90
       50
176
     1
290
     0
176
     1
 90
       50
176
     1
 62
   256
176
     0
 40
1.0
176
     0
 90
        2
176
     1
  1
strokes_ogs.tif
176
     1
290
     0
176
     1
 40
1.0
176
     1
 40
1.0
176
     1
1001
ACAD
1000
AcDbSavedByObjectVersion
1070
     0
  0
VISUALSTYLE
  5
3C
102
{ACAD_REACTORS
330
29
102
}
330
29
100
AcDbVisualStyle
  2
X-Ray
 70
    25
177
     3
291
     0
 70
    58
 90
        2
176
     1
 90
        2
176
     1
 90
        1
176
     1
 90
        1
176
     1
 40
0.5
176
     1
 40
30.0
176
     1
 62
     7
420
 16777215
176
     1
 90
        1
176
     1
 90
        0
176
     1
 62
     7
176
     1
 62
   257
176
     1
 90
        1
176
     1
 90
        1
176
     1
 40
1.0
176
     1
 90
        8
176
     1
 62
     7
176
     1
 40
1.0
176
     1
 90
        1
176
     1
 90
        6
176
     1
 90
        2
176
     1
 62
     7
176
     1
 90
        3
176
     1
 90
        0
176
     1
 90
        0
176
     1
290
     0
176
     1
 90
       13
176
     1
 40
0.0
176
     1
 90
        0
176
     1
290
     0
176
     1
290
     1
176
     1
290
     1
176
     1
290
     0
176
     1
290
     0
176
     1
290
     0
176
     1
290
     0
176
     1
290
     0
176
     1
290
     0
176
     1
 90
       50
176
     1
 40
0.0
176
     1
 40
1.0
176
     1
 90
        0
176
     1
 62
    18
420
        0
176
     1
 90
       50
176
     1
 90
        3
176
     1
 62
     5
420
      255
176
     1
290
     0
176
     1
 90
       50
176
     1
 90
       50
176
     1
 90
       50
176
     1
290
     0
176
     1
 90
       50
176
     1
 62
   256
176
     0
 40
1.0
176
     0
 90
        2
176
     1
  1
strokes_ogs.tif
176
     1
290
     0
176
     1
 40
1.0
176
     1
 40
1.0
176
     1
1001
ACAD
1000
AcDbSavedByObjectVersion
1070
     0
  0
DICTIONARYVAR
  5
2B5
102
{ACAD_REACTORS
330
2B0
102
}
330
2B0
100
DictionaryVariables
280
     0
  1
1:1
  0
DICTIONARYVAR
  5
2B2
102
{ACAD_REACTORS
330
2B0
102
}
330
2B0
100
DictionaryVariables
280
     0
  1
STANDARD
  0
DICTIONARYVAR
  5
2B1
102
{ACAD_REACTORS
330
2B0
102
}
330
2B0
100
DictionaryVariables
280
     0
  1
STANDARD
  0
DICTIONARYVAR
  5
2B3
102
{ACAD_REACTORS
330
2B0
102
}
330
2B0
100
DictionaryVariables
280
     0
  1
Imperial24
  0
DICTIONARYVAR
  5
2B4
102
{ACAD_REACTORS
330
2B0
102
}
330
2B0
100
DictionaryVariables
280
     0
  1
Imperial24
  0
DICTIONARY
  5
2D0
102
{ACAD_REACTORS
330
2CE
102
}
330
2CE
100
AcDbDictionary
281
     1
  0
DICTIONARY
  5
2CF
102
{ACAD_REACTORS
330
2CE
102
}
330
2CE
100
AcDbDictionary
281
     1
  3
456388092944
350
2C9
  3
456388092960
350
2CA
  3
456388092976
350
2CB
  3
456388092992
350
2CC
  3
456388093008
350
2CD
  0
DICTIONARY
  5
2D3
330
6B
100
AcDbDictionary
280
     1
281
     1
  3
ACAD_XREC_ROUNDTRIP
360
2D4
  0
DICTIONARY
  5
1A
330
19
100
AcDbDictionary
280
     1
281
     1
  3
BUMPTILE
360
1C
  3
DIFFUSETILE
360
1B
  3
OPACITYTILE
360
1F
  3
REFLECTIONTILE
360
1E
  3
REFRACTIONTILE
360
20
  3
SPECULARTILE
360
1D
  0
DICTIONARY
  5
12
330
11
100
AcDbDictionary
280
     1
281
     1
  3
BUMPTILE
360
14
  3
DIFFUSETILE
360
13
  3
OPACITYTILE
360
17
  3
REFLECTIONTILE
360
16
  3
REFRACTIONTILE
360
18
  3
SPECULARTILE
360
15
  0
DICTIONARY
  5
22
330
21
100
AcDbDictionary
280
     1
281
     1
  3
BUMPTILE
360
24
  3
DIFFUSETILE
360
23
  3
OPACITYTILE
360
27
  3
REFLECTIONTILE
360
26
  3
REFRACTIONTILE
360
28
  3
SPECULARTILE
360
25
  0
DICTIONARY
  5
2D1
330
69
100
AcDbDictionary
280
     1
281
     1
  3
ACAD_XREC_ROUNDTRIP
360
2D2
  0
DICTIONARY
  5
276
330
65
100
AcDbDictionary
280
     1
281
     1
  3
ACAD_ROUNDTRIP_2008_TABLESTYLE_CELLSTYLEMAP
360
2C7
  0
XRECORD
  5
2C9
102
{ACAD_REACTORS
330
2CF
102
}
330
2CF
100
AcDbXrecord
280
     1
  1
AcDb_Thumbnail_Schema
102
{ATTRRECORD
341
2CA
  2
AcDbDs::TreatedAsObjectData
280
     1
291
     1
102
ATTRRECORD}
102
{ATTRRECORD
341
2CB
  2
AcDbDs::Legacy
280
     1
291
     1
102
ATTRRECORD}
  2
AcDbDs::ID
280
    10
 91
        8
102
{ATTRRECORD
341
2CC
  2
AcDs:Indexable
280
     1
291
     1
102
ATTRRECORD}
102
{ATTRRECORD
341
2CD
  2
AcDbDs::HandleAttribute
280
     7
282
     1
102
ATTRRECORD}
  2
Thumbnail_Data
280
    15
 91
        0
  0
XRECORD
  5
2CA
102
{ACAD_REACTORS
330
2CF
102
}
330
2CF
100
AcDbXrecord
280
     1
  1
AcDbDs::TreatedAsObjectDataSchema
  2
AcDbDs::TreatedAsObjectData
280
     1
 91
        0
  0
XRECORD
  5
2CB
102
{ACAD_REACTORS
330
2CF
102
}
330
2CF
100
AcDbXrecord
280
     1
  1
AcDbDs::LegacySchema
  2
AcDbDs::Legacy
280
     1
 91
        0
  0
XRECORD
  5
2CC
102
{ACAD_REACTORS
330
2CF
102
}
330
2CF
100
AcDbXrecord
280
     1
  1
AcDbDs::IndexedPropertySchema
  2
AcDs:Indexable
280
     1
 91
        0
  0
XRECORD
  5
2CD
102
{ACAD_REACTORS
330
2CF
102
}
330
2CF
100
AcDbXrecord
280
     1
  1
AcDbDs::HandleAttributeSchema
  2
AcDbDs::HandleAttribute
280
     7
 91
        1
284
     1
  0
XRECORD
  5
2D4
102
{ACAD_REACTORS
330
2D3
102
}
330
2D3
100
AcDbXrecord
280
     1
102
DISPLAYNAME
  1
Imperial24
102
FLAGS
 90
        0
  0
XRECORD
  5
1C
102
{ACAD_REACTORS
330
1A
102
}
330
1A
100
AcDbXrecord
280
     1
270
     1
271
     1
  0
XRECORD
  5
1B
102
{ACAD_REACTORS
330
1A
102
}
330
1A
100
AcDbXrecord
280
     1
270
     1
271
     1
  0
XRECORD
  5
1F
102
{ACAD_REACTORS
330
1A
102
}
330
1A
100
AcDbXrecord
280
     1
270
     1
271
     1
  0
XRECORD
  5
1E
102
{ACAD_REACTORS
330
1A
102
}
330
1A
100
AcDbXrecord
280
     1
270
     1
271
     1
  0
XRECORD
  5
20
102
{ACAD_REACTORS
330
1A
102
}
330
1A
100
AcDbXrecord
280
     1
270
     1
271
     1
  0
XRECORD
  5
1D
102
{ACAD_REACTORS
330
1A
102
}
330
1A
100
AcDbXrecord
280
     1
270
     1
271
     1
  0
XRECORD
  5
14
102
{ACAD_REACTORS
330
12
102
}
330
12
100
AcDbXrecord
280
     1
270
     1
271
     1
  0
XRECORD
  5
13
102
{ACAD_REACTORS
330
12
102
}
330
12
100
AcDbXrecord
280
     1
270
     1
271
     1
  0
XRECORD
  5
17
102
{ACAD_REACTORS
330
12
102
}
330
12
100
AcDbXrecord
280
     1
270
     1
271
     1
  0
XRECORD
  5
16
102
{ACAD_REACTORS
330
12
102
}
330
12
100
AcDbXrecord
280
     1
270
     1
271
     1
  0
XRECORD
  5
18
102
{ACAD_REACTORS
330
12
102
}
330
12
100
AcDbXrecord
280
     1
270
     1
271
     1
  0
XRECORD
  5
15
102
{ACAD_REACTORS
330
12
102
}
330
12
100
AcDbXrecord
280
     1
270
     1
271
     1
  0
XRECORD
  5
24
102
{ACAD_REACTORS
330
22
102
}
330
22
100
AcDbXrecord
280
     1
270
     1
271
     1
  0
XRECORD
  5
23
102
{ACAD_REACTORS
330
22
102
}
330
22
100
AcDbXrecord
280
     1
270
     1
271
     1
  0
XRECORD
  5
27
102
{ACAD_REACTORS
330
22
102
}
330
22
100
AcDbXrecord
280
     1
270
     1
271
     1
  0
XRECORD
  5
26
102
{ACAD_REACTORS
330
22
102
}
330
22
100
AcDbXrecord
280
     1
270
     1
271
     1
  0
XRECORD
  5
28
102
{ACAD_REACTORS
330
22
102
}
330
22
100
AcDbXrecord
280
     1
270
     1
271
     1
  0
XRECORD
  5
25
102
{ACAD_REACTORS
330
22
102
}
330
22
100
AcDbXrecord
280
     1
270
     1
271
     1
  0
XRECORD
  5
2D2
102
{ACAD_REACTORS
330
2D1
102
}
330
2D1
100
AcDbXrecord
280
     1
102
DISPLAYNAME
  1
Imperial24
102
FLAGS
 90
        0
  0
CELLSTYLEMAP
  5
2C7
102
{ACAD_REACTORS
330
276
102
}
330
276
100
AcDbCellStyleMap
 90
        3
300
CELLSTYLE
  1
TABLEFORMAT_BEGIN
 90
        5
170
     1
 91
        0
 92
    32768
 62
   257
 93
        1
300
CONTENTFORMAT
  1
CONTENTFORMAT_BEGIN
 90
        0
 91
        0
 92
      512
 93
        0
300

 40
0.0
140
1.0
 94
        5
 62
     0
340
55
144
0.25
309
CONTENTFORMAT_END
171
     0
 94
        0
309
TABLEFORMAT_END
  1
CELLSTYLE_BEGIN
 90
        1
 91
        1
300
_TITLE
309
CELLSTYLE_END
300
CELLSTYLE
  1
TABLEFORMAT_BEGIN
 90
        5
170
     1
 91
        0
 92
        0
 62
   257
 93
        1
300
CONTENTFORMAT
  1
CONTENTFORMAT_BEGIN
 90
        0
 91
        0
 92
      512
 93
        0
300

 40
0.0
140
1.0
 94
        5
 62
     0
340
55
144
0.18
309
CONTENTFORMAT_END
171
     0
 94
        0
309
TABLEFORMAT_END
  1
CELLSTYLE_BEGIN
 90
        2
 91
        1
300
_HEADER
309
CELLSTYLE_END
300
CELLSTYLE
  1
TABLEFORMAT_BEGIN
 90
        5
170
     1
 91
        0
 92
        0
 62
   257
 93
        1
300
CONTENTFORMAT
  1
CONTENTFORMAT_BEGIN
 90
        0
 91
        0
 92
      512
 93
        0
300

 40
0.0
140
1.0
 94
        2
 62
     0
340
55
144
0.18
309
CONTENTFORMAT_END
171
     0
 94
        0
309
TABLEFORMAT_END
  1
CELLSTYLE_BEGIN
 90
        3
 91
        2
300
_DATA
309
CELLSTYLE_END
  0
ENDSEC
  0
SECTION
  2
ACDSDATA
 70
     2
 71
     8
  0
ACDSSCHEMA
 90
        0
  1
AcDb_Thumbnail_Schema
  2
AcDbDs::ID
280
    10
 91
        8
  2
Thumbnail_Data
280
    15
 91
        0
101
ACDSRECORD
 95
        0
 90
        1
  2
AcDbDs::TreatedAsObjectData
280
     1
291
     1
101
ACDSRECORD
 95
        0
 90
        2
  2
AcDbDs::Legacy
280
     1
291
     1
101
ACDSRECORD
  1
AcDbDs::ID
 90
        3
  2
AcDs:Indexable
280
     1
291
     1
101
ACDSRECORD
  1
AcDbDs::ID
 90
        4
  2
AcDbDs::HandleAttribute
280
     7
282
     1
  0
ACDSSCHEMA
 90
        1
  1
AcDbDs::TreatedAsObjectDataSchema
  2
AcDbDs::TreatedAsObjectData
280
     1
 91
        0
  0
ACDSSCHEMA
 90
        2
  1
AcDbDs::LegacySchema
  2
AcDbDs::Legacy
280
     1
 91
        0
  0
ACDSSCHEMA
 90
        3
  1
AcDbDs::IndexedPropertySchema
  2
AcDs:Indexable
280
     1
 91
        0
  0
ACDSSCHEMA
 90
        4
  1
AcDbDs::HandleAttributeSchema
  2
AcDbDs::HandleAttribute
280
     7
 91
        1
284
     1
  0
ACDSRECORD
 90
        0
  2
AcDbDs::ID
280
    10
320
73
  2
Thumbnail_Data
280
    15
 94
      889
310
89504E470D0A1A0A0000000D49484452000001000000007508030000009634CF9200000300504C5445212830FFFFFF2128300000000000000000000000000000000000000000000000000000330000660000990000CC0000FF0033000033330033660033990033CC0033FF0066000066330066660066990066CC0066FF0099
310
000099330099660099990099CC0099FF00CC0000CC3300CC6600CC9900CCCC00CCFF00FF0000FF3300FF6600FF9900FFCC00FFFF3300003300333300663300993300CC3300FF3333003333333333663333993333CC3333FF3366003366333366663366993366CC3366FF3399003399333399663399993399CC3399FF33CC00
310
33CC3333CC6633CC9933CCCC33CCFF33FF0033FF3333FF6633FF9933FFCC33FFFF6600006600336600666600996600CC6600FF6633006633336633666633996633CC6633FF6666006666336666666666996666CC6666FF6699006699336699666699996699CC6699FF66CC0066CC3366CC6666CC9966CCCC66CCFF66FF0066
310
FF3366FF6666FF9966FFCC66FFFF9900009900339900669900999900CC9900FF9933009933339933669933999933CC9933FF9966009966339966669966999966CC9966FF9999009999339999669999999999CC9999FF99CC0099CC3399CC6699CC9999CCCC99CCFF99FF0099FF3399FF6699FF9999FFCC99FFFFCC0000CC00
310
33CC0066CC0099CC00CCCC00FFCC3300CC3333CC3366CC3399CC33CCCC33FFCC6600CC6633CC6666CC6699CC66CCCC66FFCC9900CC9933CC9966CC9999CC99CCCC99FFCCCC00CCCC33CCCC66CCCC99CCCCCCCCCCFFCCFF00CCFF33CCFF66CCFF99CCFFCCCCFFFFFF0000FF0033FF0066FF0099FF00CCFF00FFFF3300FF3333
310
FF3366FF3399FF33CCFF33FFFF6600FF6633FF6666FF6699FF66CCFF66FFFF9900FF9933FF9966FF9999FF99CCFF99FFFFCC00FFCC33FFCC66FFCC99FFCCCCFFCCFFFFFF00FFFF33FFFF66FFFF99FFFFCCFFFFFF0000000D0D0D1A1A1A2828283535354343435050505D5D5D6B6B6B787878868686939393A1A1A1AEAEAEBB
310
BBBBC9C9C9D6D6D6E4E4E4F1F1F1FFFFFF0000000000000000000000000000000000000000000000000000000000002E4550F1000000344944415478DAEDC13101000000C2A0F54F6D0D0FA000000000000000000000000000000000000000000000000000000000008E0C757500019AC925960000000049454E44AE426082
  0
ENDSEC
  0
EOF
