  0
SECTION
  2
HEADER
  9
$ACADVER
  1
AC1027
  9
$ACADMAINTVER
 70
   125
  9
$DWGCODEPAGE
  3
ANSI_1252
  9
$REQUIREDVERSIONS
160
                 0
  9
$INSBASE
 10
0.0
 20
0.0
 30
0.0
  9
$EXTMIN
 10
-13.31557135146909
 20
-5.354744115978748
 30
-0.0000013783481583
  9
$EXTMAX
 10
13.31596886827389
 20
23.03269536757353
 30
0.0
  9
$LIMMIN
 10
0.0
 20
0.0
  9
$LIMMAX
 10
12.0
 20
9.0
  9
$ORTHOMODE
 70
     0
  9
$REGENMODE
 70
     1
  9
$FILLMODE
 70
     1
  9
$QTEXTMODE
 70
     0
  9
$MIRRTEXT
 70
     0
  9
$LTSCALE
 40
1.0
  9
$ATTMODE
 70
     1
  9
$TEXTSIZE
 40
0.2
  9
$TRACEWID
 40
0.05
  9
$TEXTSTYLE
  7
Standard
  9
$CLAYER
  8
0
  9
$CELTYPE
  6
ByLayer
  9
$CECOLOR
 62
   256
  9
$CELTSCALE
 40
1.0
  9
$DISPSILH
 70
     0
  9
$DIMSCALE
 40
1.0
  9
$DIMASZ
 40
0.18
  9
$DIMEXO
 40
0.0625
  9
$DIMDLI
 40
0.38
  9
$DIMRND
 40
0.0
  9
$DIMDLE
 40
0.0
  9
$DIMEXE
 40
0.18
  9
$DIMTP
 40
0.0
  9
$DIMTM
 40
0.0
  9
$DIMTXT
 40
0.18
  9
$DIMCEN
 40
0.09
  9
$DIMTSZ
 40
0.0
  9
$DIMTOL
 70
     0
  9
$DIMLIM
 70
     0
  9
$DIMTIH
 70
     1
  9
$DIMTOH
 70
     1
  9
$DIMSE1
 70
     0
  9
$DIMSE2
 70
     0
  9
$DIMTAD
 70
     0
  9
$DIMZIN
 70
     0
  9
$DIMBLK
  1

  9
$DIMASO
 70
     1
  9
$DIMSHO
 70
     1
  9
$DIMPOST
  1

  9
$DIMAPOST
  1

  9
$DIMALT
 70
     0
  9
$DIMALTD
 70
     2
  9
$DIMALTF
 40
25.4
  9
$DIMLFAC
 40
1.0
  9
$DIMTOFL
 70
     0
  9
$DIMTVP
 40
0.0
  9
$DIMTIX
 70
     0
  9
$DIMSOXD
 70
     0
  9
$DIMSAH
 70
     0
  9
$DIMBLK1
  1

  9
$DIMBLK2
  1

  9
$DIMSTYLE
  2
Standard
  9
$DIMCLRD
 70
     0
  9
$DIMCLRE
 70
     0
  9
$DIMCLRT
 70
     0
  9
$DIMTFAC
 40
1.0
  9
$DIMGAP
 40
0.09
  9
$DIMJUST
 70
     0
  9
$DIMSD1
 70
     0
  9
$DIMSD2
 70
     0
  9
$DIMTOLJ
 70
     1
  9
$DIMTZIN
 70
     0
  9
$DIMALTZ
 70
     0
  9
$DIMALTTZ
 70
     0
  9
$DIMUPT
 70
     0
  9
$DIMDEC
 70
     4
  9
$DIMTDEC
 70
     4
  9
$DIMALTU
 70
     2
  9
$DIMALTTD
 70
     2
  9
$DIMTXSTY
  7
Standard
  9
$DIMAUNIT
 70
     0
  9
$DIMADEC
 70
     0
  9
$DIMALTRND
 40
0.0
  9
$DIMAZIN
 70
     0
  9
$DIMDSEP
 70
    46
  9
$DIMATFIT
 70
     3
  9
$DIMFRAC
 70
     0
  9
$DIMLDRBLK
  1

  9
$DIMLUNIT
 70
     2
  9
$DIMLWD
 70
    -2
  9
$DIMLWE
 70
    -2
  9
$DIMTMOVE
 70
     0
  9
$DIMFXL
 40
1.0
  9
$DIMFXLON
 70
     0
  9
$DIMJOGANG
 40
0.7853981633974483
  9
$DIMTFILL
 70
     0
  9
$DIMTFILLCLR
 70
     0
  9
$DIMARCSYM
 70
     0
  9
$DIMLTYPE
  6

  9
$DIMLTEX1
  6

  9
$DIMLTEX2
  6

  9
$DIMTXTDIRECTION
 70
     0
  9
$LUNITS
 70
     2
  9
$LUPREC
 70
     4
  9
$SKETCHINC
 40
0.1
  9
$FILLETRAD
 40
0.0
  9
$AUNITS
 70
     0
  9
$AUPREC
 70
     0
  9
$MENU
  1
.
  9
$ELEVATION
 40
0.0
  9
$PELEVATION
 40
0.0
  9
$THICKNESS
 40
0.0
  9
$LIMCHECK
 70
     0
  9
$CHAMFERA
 40
0.0
  9
$CHAMFERB
 40
0.0
  9
$CHAMFERC
 40
0.0
  9
$CHAMFERD
 40
0.0
  9
$SKPOLY
 70
     0
  9
$TDCREATE
 40
2458010.285046297
  9
$TDUCREATE
 40
2458010.451716273
  9
$TDUPDATE
 40
2458010.285046297
  9
$TDUUPDATE
 40
2458010.451717338
  9
$TDINDWG
 40
0.0000126389
  9
$TDUSRTIMER
 40
0.0000126389
  9
$USRTIMER
 70
     1
  9
$ANGBASE
 50
0.0
  9
$ANGDIR
 70
     0
  9
$PDMODE
 70
     0
  9
$PDSIZE
 40
0.0
  9
$PLINEWID
 40
0.0
  9
$SPLFRAME
 70
     0
  9
$SPLINETYPE
 70
     6
  9
$SPLINESEGS
 70
     8
  9
$HANDSEED
  5
2E8
  9
$SURFTAB1
 70
     6
  9
$SURFTAB2
 70
     6
  9
$SURFTYPE
 70
     6
  9
$SURFU
 70
     6
  9
$SURFV
 70
     6
  9
$UCSBASE
  2

  9
$UCSNAME
  2

  9
$UCSORG
 10
0.0
 20
0.0
 30
0.0
  9
$UCSXDIR
 10
1.0
 20
0.0
 30
0.0
  9
$UCSYDIR
 10
0.0
 20
1.0
 30
0.0
  9
$UCSORTHOREF
  2

  9
$UCSORTHOVIEW
 70
     0
  9
$UCSORGTOP
 10
0.0
 20
0.0
 30
0.0
  9
$UCSORGBOTTOM
 10
0.0
 20
0.0
 30
0.0
  9
$UCSORGLEFT
 10
0.0
 20
0.0
 30
0.0
  9
$UCSORGRIGHT
 10
0.0
 20
0.0
 30
0.0
  9
$UCSORGFRONT
 10
0.0
 20
0.0
 30
0.0
  9
$UCSORGBACK
 10
0.0
 20
0.0
 30
0.0
  9
$PUCSBASE
  2

  9
$PUCSNAME
  2

  9
$PUCSORG
 10
0.0
 20
0.0
 30
0.0
  9
$PUCSXDIR
 10
1.0
 20
0.0
 30
0.0
  9
$PUCSYDIR
 10
0.0
 20
1.0
 30
0.0
  9
$PUCSORTHOREF
  2

  9
$PUCSORTHOVIEW
 70
     0
  9
$PUCSORGTOP
 10
0.0
 20
0.0
 30
0.0
  9
$PUCSORGBOTTOM
 10
0.0
 20
0.0
 30
0.0
  9
$PUCSORGLEFT
 10
0.0
 20
0.0
 30
0.0
  9
$PUCSORGRIGHT
 10
0.0
 20
0.0
 30
0.0
  9
$PUCSORGFRONT
 10
0.0
 20
0.0
 30
0.0
  9
$PUCSORGBACK
 10
0.0
 20
0.0
 30
0.0
  9
$USERI1
 70
     0
  9
$USERI2
 70
     0
  9
$USERI3
 70
     0
  9
$USERI4
 70
     0
  9
$USERI5
 70
     0
  9
$USERR1
 40
0.0
  9
$USERR2
 40
0.0
  9
$USERR3
 40
0.0
  9
$USERR4
 40
0.0
  9
$USERR5
 40
0.0
  9
$WORLDVIEW
 70
     1
  9
$SHADEDGE
 70
     3
  9
$SHADEDIF
 70
    70
  9
$TILEMODE
 70
     1
  9
$MAXACTVP
 70
    64
  9
$PINSBASE
 10
0.0
 20
0.0
 30
0.0
  9
$PLIMCHECK
 70
     0
  9
$PEXTMIN
 10
1.000000000000000E+20
 20
1.000000000000000E+20
 30
1.000000000000000E+20
  9
$PEXTMAX
 10
-1.000000000000000E+20
 20
-1.000000000000000E+20
 30
-1.000000000000000E+20
  9
$PLIMMIN
 10
0.0
 20
0.0
  9
$PLIMMAX
 10
12.0
 20
9.0
  9
$UNITMODE
 70
     0
  9
$VISRETAIN
 70
     1
  9
$PLINEGEN
 70
     0
  9
$PSLTSCALE
 70
     1
  9
$TREEDEPTH
 70
  3020
  9
$CMLSTYLE
  2
Standard
  9
$CMLJUST
 70
     0
  9
$CMLSCALE
 40
1.0
  9
$PROXYGRAPHICS
 70
     1
  9
$MEASUREMENT
 70
     0
  9
$CELWEIGHT
370
    -1
  9
$ENDCAPS
280
     0
  9
$JOINSTYLE
280
     0
  9
$LWDISPLAY
290
     0
  9
$INSUNITS
 70
     1
  9
$HYPERLINKBASE
  1

  9
$STYLESHEET
  1

  9
$XEDIT
290
     1
  9
$CEPSNTYPE
380
     0
  9
$PSTYLEMODE
290
     1
  9
$FINGERPRINTGUID
  2
{41787F34-D0ED-4DEA-BC0D-23A3A2FA2C1C}
  9
$VERSIONGUID
  2
{08936013-D2DF-4326-AD59-DA92A847F2FF}
  9
$EXTNAMES
290
     1
  9
$PSVPSCALE
 40
0.0
  9
$OLESTARTUP
290
     0
  9
$SORTENTS
280
   127
  9
$INDEXCTL
280
     0
  9
$HIDETEXT
280
     1
  9
$XCLIPFRAME
280
     2
  9
$HALOGAP
280
     0
  9
$OBSCOLOR
 70
   257
  9
$OBSLTYPE
280
     0
  9
$INTERSECTIONDISPLAY
280
     0
  9
$INTERSECTIONCOLOR
 70
   257
  9
$DIMASSOC
280
     2
  9
$PROJECTNAME
  1

  9
$CAMERADISPLAY
290
     0
  9
$LENSLENGTH
 40
50.0
  9
$CAMERAHEIGHT
 40
0.0
  9
$STEPSPERSEC
 40
2.0
  9
$STEPSIZE
 40
6.0
  9
$3DDWFPREC
 40
2.0
  9
$PSOLWIDTH
 40
0.25
  9
$PSOLHEIGHT
 40
4.0
  9
$LOFTANG1
 40
1.570796326794896
  9
$LOFTANG2
 40
1.570796326794896
  9
$LOFTMAG1
 40
0.0
  9
$LOFTMAG2
 40
0.0
  9
$LOFTPARAM
 70
     7
  9
$LOFTNORMALS
280
     1
  9
$LATITUDE
 40
37.795
  9
$LONGITUDE
 40
-122.394
  9
$NORTHDIRECTION
 40
0.0
  9
$TIMEZONE
 70
 -8000
  9
$LIGHTGLYPHDISPLAY
280
     1
  9
$TILEMODELIGHTSYNCH
280
     1
  9
$CMATERIAL
347
11
  9
$SOLIDHIST
280
     0
  9
$SHOWHIST
280
     1
  9
$DWFFRAME
280
     2
  9
$DGNFRAME
280
     0
  9
$REALWORLDSCALE
290
     1
  9
$INTERFERECOLOR
 62
     1
  9
$INTERFEREOBJVS
345
33
  9
$INTERFEREVPVS
346
30
  9
$CSHADOW
280
     0
  9
$SHADOWPLANELOCATION
 40
0.0
  0
ENDSEC
  0
SECTION
  2
CLASSES
  0
CLASS
  1
ACDBDICTIONARYWDFLT
  2
AcDbDictionaryWithDefault
  3
ObjectDBX Classes
 90
        0
 91
        1
280
     0
281
     0
  0
CLASS
  1
MATERIAL
  2
AcDbMaterial
  3
ObjectDBX Classes
 90
     1153
 91
        3
280
     0
281
     0
  0
CLASS
  1
VISUALSTYLE
  2
AcDbVisualStyle
  3
ObjectDBX Classes
 90
     4095
 91
       24
280
     0
281
     0
  0
CLASS
  1
SCALE
  2
AcDbScale
  3
ObjectDBX Classes
 90
     1153
 91
       17
280
     0
281
     0
  0
CLASS
  1
TABLESTYLE
  2
AcDbTableStyle
  3
ObjectDBX Classes
 90
     4095
 91
        1
280
     0
281
     0
  0
CLASS
  1
MLEADERSTYLE
  2
AcDbMLeaderStyle
  3
ACDB_MLEADERSTYLE_CLASS
 90
     4095
 91
        1
280
     0
281
     0
  0
CLASS
  1
ACDBSECTIONVIEWSTYLE
  2
AcDbSectionViewStyle
  3
ObjectDBX Classes
 90
     1025
 91
        1
280
     0
281
     0
  0
CLASS
  1
ACDBDETAILVIEWSTYLE
  2
AcDbDetailViewStyle
  3
ObjectDBX Classes
 90
     1025
 91
        1
280
     0
281
     0
  0
CLASS
  1
DICTIONARYVAR
  2
AcDbDictionaryVar
  3
ObjectDBX Classes
 90
        0
 91
        6
280
     0
281
     0
  0
CLASS
  1
CELLSTYLEMAP
  2
AcDbCellStyleMap
  3
ObjectDBX Classes
 90
     1152
 91
        2
280
     0
281
     0
  0
ENDSEC
  0
SECTION
  2
TABLES
  0
TABLE
  2
VPORT
  5
8
330
0
100
AcDbSymbolTable
 70
     1
1001
ACAD
1000
DbSaveVer
1071
       51
  0
VPORT
  5
57
330
8
100
AcDbSymbolTableRecord
100
AcDbViewportTableRecord
  2
*Active
 70
     0
 10
0.0
 20
0.0
 11
1.0
 21
1.0
 12
1970.212709629992
 22
1055.415094339622
 13
0.0
 23
0.0
 14
1.0
 24
1.0
 15
0.0
 25
0.0
 16
0.0
 26
0.0
 36
1.0
 17
0.0
 27
0.0
 37
0.0
 40
9.0
 41
2.184
 42
50.0
 43
0.0
 44
0.0
 50
0.0
 51
0.0
 71
     0
 72
   100
 73
     1
 74
     1
 75
     0
 76
     0
 77
     0
 78
     0
281
     0
 65
     1
110
0.0
120
0.0
130
0.0
111
1.0
121
0.0
131
0.0
112
0.0
122
1.0
132
0.0
 79
     0
146
0.0
348
2F
 60
     3
 61
     5
292
     1
282
     1
141
0.0
142
0.0
 63
   250
421
  3355443
1001
ACAD_NAV_VCDISPLAY
1070
     3
  0
ENDTAB
  0
TABLE
  2
LTYPE
  5
5
330
0
100
AcDbSymbolTable
 70
     1
  0
LTYPE
  5
5B
330
5
100
AcDbSymbolTableRecord
100
AcDbLinetypeTableRecord
  2
ByBlock
 70
     0
  3

 72
    65
 73
     0
 40
0.0
  0
LTYPE
  5
5C
330
5
100
AcDbSymbolTableRecord
100
AcDbLinetypeTableRecord
  2
ByLayer
 70
     0
  3

 72
    65
 73
     0
 40
0.0
  0
LTYPE
  5
5D
330
5
100
AcDbSymbolTableRecord
100
AcDbLinetypeTableRecord
  2
Continuous
 70
     0
  3
Solid line
 72
    65
 73
     0
 40
0.0
  0
ENDTAB
  0
TABLE
  2
LAYER
  5
2
102
{ACAD_XDICTIONARY
360
2D3
102
}
330
0
100
AcDbSymbolTable
 70
     3
  0
LAYER
  5
54
330
2
100
AcDbSymbolTableRecord
100
AcDbLayerTableRecord
  2
0
 70
     0
 62
     7
  6
Continuous
370
    -3
390
F
347
21
348
0
  0
LAYER
  5
79
330
2
100
AcDbSymbolTableRecord
100
AcDbLayerTableRecord
  2
A-FURN-P-SEAT-T
 70
     0
 62
     2
  6
Continuous
370
    -3
390
F
347
21
348
0
  0
LAYER
  5
7C
330
2
100
AcDbSymbolTableRecord
100
AcDbLayerTableRecord
  2
A-FURN-P-SEAT
 70
     0
 62
     2
  6
Continuous
370
    -3
390
F
347
21
348
0
  0
ENDTAB
  0
TABLE
  2
STYLE
  5
3
330
0
100
AcDbSymbolTable
 70
     3
  0
STYLE
  5
55
330
3
100
AcDbSymbolTableRecord
100
AcDbTextStyleTableRecord
  2
Standard
 70
     0
 40
0.0
 41
1.0
 50
0.0
 71
     0
 42
0.2
  3
txt
  4

  0
STYLE
  5
5A
330
3
100
AcDbSymbolTableRecord
100
AcDbTextStyleTableRecord
  2
Annotative
 70
     0
 40
0.0
 41
1.0
 50
0.0
 71
     0
 42
0.2
  3
txt
  4

1001
AcadAnnotative
1000
AnnotativeData
1002
{
1070
     1
1070
     1
1002
}
  0
STYLE
  5
7A
330
3
100
AcDbSymbolTableRecord
100
AcDbTextStyleTableRecord
  2
MONOTXT
 70
     0
 40
0.0
 41
1.0
 50
0.0
 71
     0
 42
0.2
  3
MONOTXT.SHX
  4

  0
ENDTAB
  0
TABLE
  2
VIEW
  5
6
330
0
100
AcDbSymbolTable
 70
     1
  0
ENDTAB
  0
TABLE
  2
UCS
  5
7
330
0
100
AcDbSymbolTable
 70
     0
  0
ENDTAB
  0
TABLE
  2
APPID
  5
9
330
0
100
AcDbSymbolTable
 70
     4
  0
APPID
  5
56
330
9
100
AcDbSymbolTableRecord
100
AcDbRegAppTableRecord
  2
ACAD
 70
     0
  0
APPID
  5
5E
330
9
100
AcDbSymbolTableRecord
100
AcDbRegAppTableRecord
  2
AcadAnnotative
 70
     0
  0
APPID
  5
2BC
330
9
100
AcDbSymbolTableRecord
100
AcDbRegAppTableRecord
  2
ACAD_MLEADERVER
 70
     0
  0
APPID
  5
2D9
330
9
100
AcDbSymbolTableRecord
100
AcDbRegAppTableRecord
  2
ACAD_NAV_VCDISPLAY
 70
     0
  0
ENDTAB
  0
TABLE
  2
DIMSTYLE
  5
A
330
0
100
AcDbSymbolTable
 70
     2
100
AcDbDimStyleTable
 71
     0
  0
DIMSTYLE
105
58
330
A
100
AcDbSymbolTableRecord
100
AcDbDimStyleTableRecord
  2
Standard
 70
     0
340
55
  0
DIMSTYLE
105
59
330
A
100
AcDbSymbolTableRecord
100
AcDbDimStyleTableRecord
  2
Annotative
 70
     0
340
55
1001
AcadAnnotative
1000
AnnotativeData
1002
{
1070
     1
1070
     1
1002
}
  0
ENDTAB
  0
TABLE
  2
BLOCK_RECORD
  5
1
330
0
100
AcDbSymbolTable
 70
     1
  0
BLOCK_RECORD
  5
70
102
{ACAD_XDICTIONARY
360
24C
102
}
330
1
100
AcDbSymbolTableRecord
100
AcDbBlockTableRecord
  2
*Model_Space
340
73
 70
     0
280
     1
281
     0
  0
BLOCK_RECORD
  5
6C
330
1
100
AcDbSymbolTableRecord
100
AcDbBlockTableRecord
  2
*Paper_Space
340
6F
 70
     0
280
     1
281
     0
  0
BLOCK_RECORD
  5
74
330
1
100
AcDbSymbolTableRecord
100
AcDbBlockTableRecord
  2
*Paper_Space0
340
77
 70
     0
280
     1
281
     0
  0
ENDTAB
  0
ENDSEC
  0
SECTION
  2
BLOCKS
  0
BLOCK
  5
71
330
70
100
AcDbEntity
  8
0
100
AcDbBlockBegin
  2
*Model_Space
 70
     0
 10
0.0
 20
0.0
 30
0.0
  3
*Model_Space
  1

  0
ENDBLK
  5
72
330
70
100
AcDbEntity
  8
0
100
AcDbBlockEnd
  0
BLOCK
  5
6D
330
6C
100
AcDbEntity
 67
     1
  8
0
100
AcDbBlockBegin
  2
*Paper_Space
 70
     0
 10
0.0
 20
0.0
 30
0.0
  3
*Paper_Space
  1

  0
ENDBLK
  5
6E
330
6C
100
AcDbEntity
 67
     1
  8
0
100
AcDbBlockEnd
  0
BLOCK
  5
75
330
74
100
AcDbEntity
 67
     1
  8
0
100
AcDbBlockBegin
  2
*Paper_Space0
 70
     0
 10
0.0
 20
0.0
 30
0.0
  3
*Paper_Space0
  1

  0
ENDBLK
  5
76
330
74
100
AcDbEntity
 67
     1
  8
0
100
AcDbBlockEnd
  0
ENDSEC
  0
SECTION
  2
ENTITIES
  0
TEXT
  5
78
330
70
100
AcDbEntity
  8
A-FURN-P-SEAT-T
100
AcDbText
 10
-0.8331687524592261
 20
-5.354744115978746
 30
-0.0000013783481583
 40
2.5
  1
Q
  7
MONOTXT
 72
     1
 11
0.000164580874106
 21
-2.854744115978746
 31
-0.0000013783481583
100
AcDbText
 73
     3
  0
LWPOLYLINE
  5
7B
330
70
100
AcDbEntity
  8
A-FURN-P-SEAT
100
AcDbPolyline
 90
        2
 70
     0
 10
-0.2719670306644204
 20
-1.785071770243121
 40
0.0
 41
0.0
 10
0.0002529211012359
 20
-1.85892408727409
 40
0.1969552685041935
 41
0.1969552685041935
  0
LWPOLYLINE
  5
7D
330
70
100
AcDbEntity
  8
A-FURN-P-SEAT
100
AcDbPolyline
 90
        2
 70
     0
 10
0.2724728728668992
 20
-1.785071770243121
 40
0.0
 41
0.0
 10
0.0002529211012359
 20
-1.85892408727409
 40
0.1969552685041935
 41
0.1969552685041935
  0
LWPOLYLINE
  5
7E
330
70
100
AcDbEntity
  8
A-FURN-P-SEAT
100
AcDbPolyline
 90
        2
 70
     0
 10
-0.8070005475272381
 20
-1.933891171124741
 40
0.0
 41
0.0
 10
-0.3080907934160351
 20
-2.296372374206384
 40
0.1969552685041935
 41
0.1969552685041935
  0
LWPOLYLINE
  5
7F
330
70
100
AcDbEntity
  8
A-FURN-P-SEAT
100
AcDbPolyline
 90
        2
 70
     0
 10
-0.4353172003906281
 20
-1.605144663387818
 40
0.0
 41
0.0
 10
-0.4198879216112701
 20
-1.652637275103415
 40
0.1969552685041935
 41
0.1969552685041935
  0
LWPOLYLINE
  5
80
330
70
100
AcDbEntity
  8
A-FURN-P-SEAT
100
AcDbPolyline
 90
        2
 70
     0
 10
-0.4198879216112701
 20
-1.652637275103415
 40
0.0
 41
0.0
 10
-0.3385465774506571
 20
-1.711733506462906
 40
0.1969552685041935
 41
0.1969552685041935
  0
LWPOLYLINE
  5
81
330
70
100
AcDbEntity
  8
A-FURN-P-SEAT
100
AcDbPolyline
 90
        2
 70
     0
 10
-0.3080907934160351
 20
-2.296372374206384
 40
0.0
 41
0.0
 10
0.3085964386632369
 20
-2.296372374206384
 40
0.1969552685041935
 41
0.1969552685041935
  0
LWPOLYLINE
  5
82
330
70
100
AcDbEntity
  8
A-FURN-P-SEAT
100
AcDbPolyline
 90
        2
 70
     0
 10
-0.2171325174048988
 20
-1.79994799862834
 40
0.0
 41
0.0
 10
-0.1602240651680304
 20
-1.84129501510074
 40
0.1969552685041935
 41
0.1969552685041935
  0
LWPOLYLINE
  5
83
330
70
100
AcDbEntity
  8
A-FURN-P-SEAT
100
AcDbPolyline
 90
        2
 70
     0
 10
-0.1602240651680304
 20
-1.84129501510074
 40
0.0
 41
0.0
 10
-0.064727742815272
 20
-1.84129501510074
 40
0.1969552685041935
 41
0.1969552685041935
  0
LWPOLYLINE
  5
84
330
70
100
AcDbEntity
  8
A-FURN-P-SEAT
100
AcDbPolyline
 90
        2
 70
     0
 10
0.0652333880624809
 20
-1.84129501510074
 40
0.0
 41
0.0
 10
0.1607358160285557
 20
-1.84129501510074
 40
0.1969552685041935
 41
0.1969552685041935
  0
LWPOLYLINE
  5
85
330
70
100
AcDbEntity
  8
A-FURN-P-SEAT
100
AcDbPolyline
 90
        2
 70
     0
 10
0.1607358160285557
 20
-1.84129501510074
 40
0.0
 41
0.0
 10
0.2176440713101613
 20
-1.79994504429942
 40
0.1969552685041935
 41
0.1969552685041935
  0
LWPOLYLINE
  5
86
330
70
100
AcDbEntity
  8
A-FURN-P-SEAT
100
AcDbPolyline
 90
        2
 70
     0
 10
0.3085964386632369
 20
-2.296372374206384
 40
0.0
 41
0.0
 10
0.8075061927744329
 20
-1.933891171124741
 40
0.1969552685041935
 41
0.1969552685041935
  0
LWPOLYLINE
  5
87
330
70
100
AcDbEntity
  8
A-FURN-P-SEAT
100
AcDbPolyline
 90
        2
 70
     0
 10
0.4358228456378228
 20
-1.605150572045886
 40
0.0
 41
0.0
 10
0.420393566858472
 20
-1.652637275103415
 40
0.1969552685041935
 41
0.1969552685041935
  0
LWPOLYLINE
  5
88
330
70
100
AcDbEntity
  8
A-FURN-P-SEAT
100
AcDbPolyline
 90
        2
 70
     0
 10
-0.538080384330101
 20
-1.319938662948743
 40
0.0
 41
0.0
 10
-0.4909572606983233
 20
-1.543860652906005
 40
0.1969552685041935
 41
0.1969552685041935
  0
LWPOLYLINE
  5
89
330
70
100
AcDbEntity
  8
A-FURN-P-SEAT
100
AcDbPolyline
 90
        2
 70
     0
 10
-0.538080384330101
 20
-1.319938662948743
 40
0.0
 41
0.0
 10
-0.5101430673138552
 20
-1.134920459357999
 40
0.1969552685041935
 41
0.1969552685041935
  0
LWPOLYLINE
  5
8A
330
70
100
AcDbEntity
  8
A-FURN-P-SEAT
100
AcDbPolyline
 90
        2
 70
     0
 10
-0.4909572606983233
 20
-1.543860652906005
 40
0.0
 41
0.0
 10
-0.2719670306644204
 20
-1.785071770243121
 40
0.1969552685041935
 41
0.1969552685041935
  0
LWPOLYLINE
  5
8B
330
70
100
AcDbEntity
  8
A-FURN-P-SEAT
100
AcDbPolyline
 90
        2
 70
     0
 10
-0.5100528618008724
 20
-1.13301511409054
 40
0.0
 41
0.0
 10
-0.5101430673138552
 20
-1.134920459357999
 40
0.1969552685041935
 41
0.1969552685041935
  0
LWPOLYLINE
  5
8C
330
70
100
AcDbEntity
  8
A-FURN-P-SEAT
100
AcDbPolyline
 90
        2
 70
     0
 10
-0.5100528618008724
 20
-1.13301511409054
 40
0.0
 41
0.0
 10
-0.5147291707409707
 20
-0.8445095220381517
 40
0.1969552685041935
 41
0.1969552685041935
  0
LWPOLYLINE
  5
8D
330
70
100
AcDbEntity
  8
A-FURN-P-SEAT
100
AcDbPolyline
 90
        2
 70
     0
 10
-0.4909452464269535
 20
-1.340543138363273
 40
0.0
 41
0.0
 10
-0.5101430673138552
 20
-1.134920459357999
 40
0.1969552685041935
 41
0.1969552685041935
  0
LWPOLYLINE
  5
8E
330
70
100
AcDbEntity
  8
A-FURN-P-SEAT
100
AcDbPolyline
 90
        2
 70
     0
 10
-0.4909452464269535
 20
-1.340543138363273
 40
0.0
 41
0.0
 10
-0.4767961768928757
 20
-1.477575751201356
 40
0.1969552685041935
 41
0.1969552685041935
  0
LWPOLYLINE
  5
8F
330
70
100
AcDbEntity
  8
A-FURN-P-SEAT
100
AcDbPolyline
 90
        2
 70
     0
 10
0.5152409216015031
 20
-0.8445095220381517
 40
0.0
 41
0.0
 10
0.5105646126614048
 20
-1.13301511409054
 40
0.1969552685041935
 41
0.1969552685041935
  0
LWPOLYLINE
  5
90
330
70
100
AcDbEntity
  8
A-FURN-P-SEAT
100
AcDbPolyline
 90
        2
 70
     0
 10
-0.7827297497894535
 20
-0.77851611413098
 40
0.0
 41
0.0
 10
-0.9675675423542031
 20
-1.347389106541186
 40
0.1969552685041935
 41
0.1969552685041935
  0
LWPOLYLINE
  5
91
330
70
100
AcDbEntity
  8
A-FURN-P-SEAT
100
AcDbPolyline
 90
        2
 70
     0
 10
-0.9675675423542031
 20
-1.347389106541186
 40
0.0
 41
0.0
 10
-0.7827297497894535
 20
-1.916259144622472
 40
0.1969552685041935
 41
0.1969552685041935
  0
LWPOLYLINE
  5
92
330
70
100
AcDbEntity
  8
A-FURN-P-SEAT
100
AcDbPolyline
 90
        2
 70
     0
 10
-0.5189065919859459
 20
-0.5868380650908876
 40
0.0
 41
0.0
 10
-0.7827297497894535
 20
-0.77851611413098
 40
0.1969552685041935
 41
0.1969552685041935
  0
LWPOLYLINE
  5
93
330
70
100
AcDbEntity
  8
A-FURN-P-SEAT
100
AcDbPolyline
 90
        2
 70
     0
 10
-0.7827297497894535
 20
-1.916259144622472
 40
0.0
 41
0.0
 10
-0.2988163667774515
 20
-2.267843009653006
 40
0.1969552685041935
 41
0.1969552685041935
  0
LWPOLYLINE
  5
94
330
70
100
AcDbEntity
  8
A-FURN-P-SEAT
100
AcDbPolyline
 90
        2
 70
     0
 10
-0.2988163667774515
 20
-2.267843009653006
 40
0.0
 41
0.0
 10
0.2993281176379767
 20
-2.267843009653006
 40
0.1969552685041935
 41
0.1969552685041935
  0
LWPOLYLINE
  5
95
330
70
100
AcDbEntity
  8
A-FURN-P-SEAT
100
AcDbPolyline
 90
        2
 70
     0
 10
0.0002529211012359
 20
-1.092897492404063
 40
0.0
 41
0.0
 10
0.1266617667562571
 20
-1.126767102107805
 40
0.1969552685041935
 41
0.1969552685041935
  0
LWPOLYLINE
  5
96
330
70
100
AcDbEntity
  8
A-FURN-P-SEAT
100
AcDbPolyline
 90
        2
 70
     0
 10
4.418072252063886
 20
0.1601559543623807
 40
0.0
 41
0.0
 10
6.188638075006998
 20
0.344479890631419
 40
0.1969552685041935
 41
0.1969552685041935
  0
LWPOLYLINE
  5
97
330
70
100
AcDbEntity
  8
A-FURN-P-SEAT
100
AcDbPolyline
 90
        2
 70
     0
 10
4.418072252063886
 20
0.1601559543623807
 40
0.0
 41
0.0
 10
0.0002227869451588
 20
0.0000005960464478
 40
0.1969552685041935
 41
0.1969552685041935
  0
LWPOLYLINE
  5
98
330
70
100
AcDbEntity
  8
A-FURN-P-SEAT
100
AcDbPolyline
 90
        2
 70
     0
 10
6.188638075006998
 20
0.344479890631419
 40
0.0
 41
0.0
 10
7.145002438314627
 20
0.6491691001417621
 40
0.1969552685041935
 41
0.1969552685041935
  0
LWPOLYLINE
  5
99
330
70
100
AcDbEntity
  8
A-FURN-P-SEAT
100
AcDbPolyline
 90
        2
 70
     0
 10
7.145002438314627
 20
0.6491691001417621
 40
0.0
 41
0.0
 10
8.249984717264347
 20
1.621948306392141
 40
0.1969552685041935
 41
0.1969552685041935
  0
LWPOLYLINE
  5
9A
330
70
100
AcDbEntity
  8
A-FURN-P-SEAT
100
AcDbPolyline
 90
        2
 70
     0
 10
8.249984717264347
 20
1.621948306392141
 40
0.0
 41
0.0
 10
8.7708510447084
 20
2.922882169797958
 40
0.1969552685041935
 41
0.1969552685041935
  0
LWPOLYLINE
  5
9B
330
70
100
AcDbEntity
  8
A-FURN-P-SEAT
100
AcDbPolyline
 90
        2
 70
     0
 10
0.4914690115588556
 20
-1.543860652906005
 40
0.0
 41
0.0
 10
0.2724728728668992
 20
-1.785071770243121
 40
0.1969552685041935
 41
0.1969552685041935
  0
LWPOLYLINE
  5
9C
330
70
100
AcDbEntity
  8
A-FURN-P-SEAT
100
AcDbPolyline
 90
        2
 70
     0
 10
0.2993281176379767
 20
-2.267843009653006
 40
0.0
 41
0.0
 10
0.78324150065
 20
-1.916259144622472
 40
0.1969552685041935
 41
0.1969552685041935
  0
LWPOLYLINE
  5
9D
330
70
100
AcDbEntity
  8
A-FURN-P-SEAT
100
AcDbPolyline
 90
        2
 70
     0
 10
0.3390583283111752
 20
-1.711733506462906
 40
0.0
 41
0.0
 10
0.420393566858472
 20
-1.652637275103415
 40
0.1969552685041935
 41
0.1969552685041935
  0
LWPOLYLINE
  5
9E
330
70
100
AcDbEntity
  8
A-FURN-P-SEAT
100
AcDbPolyline
 90
        2
 70
     0
 10
0.4773079277534081
 20
-1.477575751201356
 40
0.0
 41
0.0
 10
0.4914569972874716
 20
-1.340543138363273
 40
0.1969552685041935
 41
0.1969552685041935
  0
LWPOLYLINE
  5
9F
330
70
100
AcDbEntity
  8
A-FURN-P-SEAT
100
AcDbPolyline
 90
        2
 70
     0
 10
0.5106487125610571
 20
-1.134920459357999
 40
0.0
 41
0.0
 10
0.4914569972874716
 20
-1.340543138363273
 40
0.1969552685041935
 41
0.1969552685041935
  0
LWPOLYLINE
  5
A0
330
70
100
AcDbEntity
  8
A-FURN-P-SEAT
100
AcDbPolyline
 90
        2
 70
     0
 10
0.5385860295773029
 20
-1.319938662948743
 40
0.0
 41
0.0
 10
0.4914690115588556
 20
-1.543860652906005
 40
0.1969552685041935
 41
0.1969552685041935
  0
LWPOLYLINE
  5
A1
330
70
100
AcDbEntity
  8
A-FURN-P-SEAT
100
AcDbPolyline
 90
        2
 70
     0
 10
0.5106487125610571
 20
-1.134920459357999
 40
0.0
 41
0.0
 10
0.5105646126614048
 20
-1.13301511409054
 40
0.1969552685041935
 41
0.1969552685041935
  0
LWPOLYLINE
  5
A2
330
70
100
AcDbEntity
  8
A-FURN-P-SEAT
100
AcDbPolyline
 90
        2
 70
     0
 10
0.5385860295773029
 20
-1.319938662948743
 40
0.0
 41
0.0
 10
0.5106487125610571
 20
-1.134920459357999
 40
0.1969552685041935
 41
0.1969552685041935
  0
LWPOLYLINE
  5
A3
330
70
100
AcDbEntity
  8
A-FURN-P-SEAT
100
AcDbPolyline
 90
        2
 70
     0
 10
0.78324150065
 20
-0.77851611413098
 40
0.0
 41
0.0
 10
0.5194181458912013
 20
-0.5868380650908876
 40
0.1969552685041935
 41
0.1969552685041935
  0
POINT
  5
A4
330
70
100
AcDbEntity
  8
A-FURN-P-SEAT
100
AcDbPoint
 10
0.0002227869451588
 20
0.0000005960464478
 30
0.0
  0
LWPOLYLINE
  5
A5
330
70
100
AcDbEntity
  8
A-FURN-P-SEAT
100
AcDbPolyline
 90
        2
 70
     0
 10
0.0002227869451588
 20
0.0000005960464478
 40
0.0
 41
0.0
 10
-4.417620769515515
 20
0.1601559543623807
 40
0.1969552685041935
 41
0.1969552685041935
  0
LWPOLYLINE
  5
A6
330
70
100
AcDbEntity
  8
A-FURN-P-SEAT
100
AcDbPolyline
 90
        2
 70
     0
 10
-4.417620769515515
 20
0.1601559543623807
 40
0.0
 41
0.0
 10
-6.188192501116688
 20
0.3444828449605666
 40
0.1969552685041935
 41
0.1969552685041935
  0
LWPOLYLINE
  5
A7
330
70
100
AcDbEntity
  8
A-FURN-P-SEAT
100
AcDbPolyline
 90
        2
 70
     0
 10
-6.188192501116688
 20
0.3444828449605666
 40
0.0
 41
0.0
 10
-7.144550758810986
 20
0.6491691001417621
 40
0.1969552685041935
 41
0.1969552685041935
  0
LWPOLYLINE
  5
A8
330
70
100
AcDbEntity
  8
A-FURN-P-SEAT
100
AcDbPolyline
 90
        2
 70
     0
 10
-7.144550758810986
 20
0.6491691001417621
 40
0.0
 41
0.0
 10
-8.249533037760713
 20
1.621948306392141
 40
0.1969552685041935
 41
0.1969552685041935
  0
LWPOLYLINE
  5
A9
330
70
100
AcDbEntity
  8
A-FURN-P-SEAT
100
AcDbPolyline
 90
        2
 70
     0
 10
-8.249533037760713
 20
1.621948306392141
 40
0.0
 41
0.0
 10
-8.770399365204752
 20
2.922882169797958
 40
0.1969552685041935
 41
0.1969552685041935
  0
LWPOLYLINE
  5
AA
330
70
100
AcDbEntity
  8
A-FURN-P-SEAT
100
AcDbPolyline
 90
        2
 70
     0
 10
-8.770399365204752
 20
2.922882169797958
 40
0.0
 41
0.0
 10
-9.092903966572208
 20
4.424642063599549
 40
0.1969552685041935
 41
0.1969552685041935
  0
LWPOLYLINE
  5
AB
330
70
100
AcDbEntity
  8
A-FURN-P-SEAT
100
AcDbPolyline
 90
        2
 70
     0
 10
-11.39963323875356
 20
7.357405080127136
 40
0.0
 41
0.0
 10
-11.51049266291544
 20
7.016201348612639
 40
0.1969552685041935
 41
0.1969552685041935
  0
LWPOLYLINE
  5
AC
330
70
100
AcDbEntity
  8
A-FURN-P-SEAT
100
AcDbPolyline
 90
        2
 70
     0
 10
-9.708750002699723
 20
7.536160106179295
 40
0.0
 41
0.0
 10
-9.175375440063518
 20
4.440798501230347
 40
0.1969552685041935
 41
0.1969552685041935
  0
LWPOLYLINE
  5
AD
330
70
100
AcDbEntity
  8
A-FURN-P-SEAT
100
AcDbPolyline
 90
        2
 70
     0
 10
-9.605956684604151
 20
7.524583863317729
 40
0.0
 41
0.0
 10
-9.092903966572208
 20
4.424642063599549
 40
0.1969552685041935
 41
0.1969552685041935
  0
LWPOLYLINE
  5
AE
330
70
100
AcDbEntity
  8
A-FURN-P-SEAT
100
AcDbPolyline
 90
        2
 70
     0
 10
-8.913036931073982
 20
3.341448158183311
 40
0.0
 41
0.0
 10
-9.175375440063518
 20
4.440798501230347
 40
0.1969552685041935
 41
0.1969552685041935
  0
LWPOLYLINE
  5
AF
330
70
100
AcDbEntity
  8
A-FURN-P-SEAT
100
AcDbPolyline
 90
        2
 70
     0
 10
-8.607470088887353
 20
2.42387630151552
 40
0.0
 41
0.0
 10
-8.913036931073982
 20
3.341448158183311
 40
0.1969552685041935
 41
0.1969552685041935
  0
LWPOLYLINE
  5
B0
330
70
100
AcDbEntity
  8
A-FURN-P-SEAT
100
AcDbPolyline
 90
        2
 70
     0
 10
-8.474323403496796
 20
2.18338623741647
 40
0.0
 41
0.0
 10
-8.607470088887353
 20
2.42387630151552
 40
0.1969552685041935
 41
0.1969552685041935
  0
LWPOLYLINE
  5
B1
330
70
100
AcDbEntity
  8
A-FURN-P-SEAT
100
AcDbPolyline
 90
        2
 70
     0
 10
-0.5487551629277548
 20
-0.9485107667953798
 40
0.0
 41
0.0
 10
-0.678355668708889
 20
-1.347389106541186
 40
0.1969552685041935
 41
0.1969552685041935
  0
LWPOLYLINE
  5
B2
330
70
100
AcDbEntity
  8
A-FURN-P-SEAT
100
AcDbPolyline
 90
        2
 70
     0
 10
-0.678355668708889
 20
-1.347389106541186
 40
0.0
 41
0.0
 10
-0.5487551629277548
 20
-1.746267446286992
 40
0.1969552685041935
 41
0.1969552685041935
  0
LWPOLYLINE
  5
B3
330
70
100
AcDbEntity
  8
A-FURN-P-SEAT
100
AcDbPolyline
 90
        2
 70
     0
 10
-0.5134609757670745
 20
-0.922866599970348
 40
0.0
 41
0.0
 10
-0.5487551629277548
 20
-0.9485107667953798
 40
0.1969552685041935
 41
0.1969552685041935
  0
LWPOLYLINE
  5
B4
330
70
100
AcDbEntity
  8
A-FURN-P-SEAT
100
AcDbPolyline
 90
        2
 70
     0
 10
-0.5487551629277548
 20
-1.746267446286992
 40
0.0
 41
0.0
 10
-0.2094449593646388
 20
-1.992786114199816
 40
0.1969552685041935
 41
0.1969552685041935
  0
LWPOLYLINE
  5
B5
330
70
100
AcDbEntity
  8
A-FURN-P-SEAT
100
AcDbPolyline
 90
        2
 70
     0
 10
-0.5287277664499115
 20
0.0191773427195585
 40
0.0
 41
0.0
 10
-0.5147291707409707
 20
-0.8445095220381517
 40
0.1969552685041935
 41
0.1969552685041935
  0
LWPOLYLINE
  5
B6
330
70
100
AcDbEntity
  8
A-FURN-P-SEAT
100
AcDbPolyline
 90
        2
 70
     0
 10
-0.2094449593646388
 20
-1.992786114199816
 40
0.0
 41
0.0
 10
0.2099565132699013
 20
-1.992786114199816
 40
0.1969552685041935
 41
0.1969552685041935
  0
LWPOLYLINE
  5
B7
330
70
100
AcDbEntity
  8
A-FURN-P-SEAT
100
AcDbPolyline
 90
        2
 70
     0
 10
0.2099565132699013
 20
-1.992786114199816
 40
0.0
 41
0.0
 10
0.5492669137882871
 20
-1.746267446286992
 40
0.1969552685041935
 41
0.1969552685041935
  0
LWPOLYLINE
  5
B8
330
70
100
AcDbEntity
  8
A-FURN-P-SEAT
100
AcDbPolyline
 90
        2
 70
     0
 10
0.5492669137882871
 20
-0.9485107667953798
 40
0.0
 41
0.0
 10
0.5139727266275927
 20
-0.922866599970348
 40
0.1969552685041935
 41
0.1969552685041935
  0
LWPOLYLINE
  5
B9
330
70
100
AcDbEntity
  8
A-FURN-P-SEAT
100
AcDbPolyline
 90
        2
 70
     0
 10
0.5292395173104439
 20
0.0191773427195585
 40
0.0
 41
0.0
 10
0.5152409216015031
 20
-0.8445095220381517
 40
0.1969552685041935
 41
0.1969552685041935
  0
LWPOLYLINE
  5
BA
330
70
100
AcDbEntity
  8
A-FURN-P-SEAT
100
AcDbPolyline
 90
        2
 70
     0
 10
0.6788674195694071
 20
-1.347389106541186
 40
0.0
 41
0.0
 10
0.5492669137882871
 20
-0.9485107667953798
 40
0.1969552685041935
 41
0.1969552685041935
  0
LWPOLYLINE
  5
BB
330
70
100
AcDbEntity
  8
A-FURN-P-SEAT
100
AcDbPolyline
 90
        2
 70
     0
 10
0.6788674195694071
 20
-1.347389106541186
 40
0.0
 41
0.0
 10
0.5492669137882871
 20
-1.746267446286992
 40
0.1969552685041935
 41
0.1969552685041935
  0
LWPOLYLINE
  5
BC
330
70
100
AcDbEntity
  8
A-FURN-P-SEAT
100
AcDbPolyline
 90
        2
 70
     0
 10
0.9680792932147355
 20
-1.347389106541186
 40
0.0
 41
0.0
 10
0.78324150065
 20
-0.77851611413098
 40
0.1969552685041935
 41
0.1969552685041935
  0
LWPOLYLINE
  5
BD
330
70
100
AcDbEntity
  8
A-FURN-P-SEAT
100
AcDbPolyline
 90
        2
 70
     0
 10
0.9680792932147355
 20
-1.347389106541186
 40
0.0
 41
0.0
 10
0.78324150065
 20
-1.916259144622472
 40
0.1969552685041935
 41
0.1969552685041935
  0
LWPOLYLINE
  5
BE
330
70
100
AcDbEntity
  8
A-FURN-P-SEAT
100
AcDbPolyline
 90
        2
 70
     0
 10
8.420150721012397
 20
14.53051261081032
 40
0.0
 41
0.0
 10
9.366880032584809
 20
12.74418091253392
 40
0.1969552685041935
 41
0.1969552685041935
  0
LWPOLYLINE
  5
BF
330
70
100
AcDbEntity
  8
A-FURN-P-SEAT
100
AcDbPolyline
 90
        2
 70
     0
 10
9.093355646075842
 20
4.424635957986311
 40
0.0
 41
0.0
 10
8.7708510447084
 20
2.922882169797958
 40
0.1969552685041935
 41
0.1969552685041935
  0
LWPOLYLINE
  5
C0
330
70
100
AcDbEntity
  8
A-FURN-P-SEAT
100
AcDbPolyline
 90
        2
 70
     0
 10
9.606408364107799
 20
7.524583863317729
 40
0.0
 41
0.0
 10
9.093355646075842
 20
4.424635957986311
 40
0.1969552685041935
 41
0.1969552685041935
  0
LWPOLYLINE
  5
C1
330
70
100
AcDbEntity
  8
A-FURN-P-SEAT
100
AcDbPolyline
 90
        2
 70
     0
 10
9.366880032584809
 20
12.74418091253392
 40
0.0
 41
0.0
 10
9.798699337943268
 20
10.06510711437954
 40
0.1969552685041935
 41
0.1969552685041935
  0
LWPOLYLINE
  5
C2
330
70
100
AcDbEntity
  8
A-FURN-P-SEAT
100
AcDbPolyline
 90
        2
 70
     0
 10
9.799366425437689
 20
10.06098385583345
 40
0.0
 41
0.0
 10
9.606408364107799
 20
7.524583863317729
 40
0.1969552685041935
 41
0.1969552685041935
  0
LWPOLYLINE
  5
C3
330
70
100
AcDbEntity
  8
A-FURN-P-SEAT
100
AcDbPolyline
 90
        2
 70
     0
 10
9.798771423571544
 20
10.06467440365463
 40
0.0
 41
0.0
 10
9.799366425437689
 20
10.06098385583345
 40
0.1969552685041935
 41
0.1969552685041935
  0
LWPOLYLINE
  5
C4
330
70
100
AcDbEntity
  8
A-FURN-P-SEAT
100
AcDbPolyline
 90
        2
 70
     0
 10
-7.522112432891383
 20
16.43115970734493
 40
0.0
 41
0.0
 10
-7.625188184841981
 20
16.8235676726099
 40
0.1969552685041935
 41
0.1969552685041935
  0
LWPOLYLINE
  5
C5
330
70
100
AcDbEntity
  8
A-FURN-P-SEAT
100
AcDbPolyline
 90
        2
 70
     0
 10
-7.485802350455749
 20
17.78290113659022
 40
0.0
 41
0.0
 10
-7.625188184841981
 20
16.8235676726099
 40
0.1969552685041935
 41
0.1969552685041935
  0
LWPOLYLINE
  5
C6
330
70
100
AcDbEntity
  8
A-FURN-P-SEAT
100
AcDbPolyline
 90
        2
 70
     0
 10
-8.419699041508764
 20
14.53051261081032
 40
0.0
 41
0.0
 10
-9.366428353081175
 20
12.74418682119199
 40
0.1969552685041935
 41
0.1969552685041935
  0
LWPOLYLINE
  5
C7
330
70
100
AcDbEntity
  8
A-FURN-P-SEAT
100
AcDbPolyline
 90
        2
 70
     0
 10
-12.83707364747513
 20
7.602703610151365
 40
0.0
 41
0.0
 10
-12.81135444069278
 20
7.523550045113324
 40
0.1969552685041935
 41
0.1969552685041935
  0
LWPOLYLINE
  5
C8
330
70
100
AcDbEntity
  8
A-FURN-P-SEAT
100
AcDbPolyline
 90
        2
 70
     0
 10
-12.81812832324245
 20
7.661012414347396
 40
0.0
 41
0.0
 10
-12.83707364747513
 20
7.602703610151365
 40
0.1969552685041935
 41
0.1969552685041935
  0
LWPOLYLINE
  5
C9
330
70
100
AcDbEntity
  8
A-FURN-P-SEAT
100
AcDbPolyline
 90
        2
 70
     0
 10
-12.76533722089365
 20
7.381916163292316
 40
0.0
 41
0.0
 10
-12.73789288291448
 20
7.297455244633965
 40
0.1969552685041935
 41
0.1969552685041935
  0
LWPOLYLINE
  5
CA
330
70
100
AcDbEntity
  8
A-FURN-P-SEAT
100
AcDbPolyline
 90
        2
 70
     0
 10
-12.73789288291448
 20
7.907951778713595
 40
0.0
 41
0.0
 10
-12.76320951312801
 20
7.830030365835227
 40
0.1969552685041935
 41
0.1969552685041935
  0
LWPOLYLINE
  5
CB
330
70
100
AcDbEntity
  8
A-FURN-P-SEAT
100
AcDbPolyline
 90
        2
 70
     0
 10
-12.70496984023131
 20
7.931873965626209
 40
0.0
 41
0.0
 10
-12.73789288291448
 20
7.907951778713595
 40
0.1969552685041935
 41
0.1969552685041935
  0
LWPOLYLINE
  5
CC
330
70
100
AcDbEntity
  8
A-FURN-P-SEAT
100
AcDbPolyline
 90
        2
 70
     0
 10
-11.7576545867351
 20
8.333514012146906
 40
0.0
 41
0.0
 10
-12.01867664670995
 20
8.523160467592333
 40
0.1969552685041935
 41
0.1969552685041935
  0
LWPOLYLINE
  5
CD
330
70
100
AcDbEntity
  8
A-FURN-P-SEAT
100
AcDbPolyline
 90
        2
 70
     0
 10
-9.708750002699723
 20
7.536160106179295
 40
0.0
 41
0.0
 10
-9.909630195794669
 20
10.06630932933854
 40
0.1969552685041935
 41
0.1969552685041935
  0
LWPOLYLINE
  5
CE
330
70
100
AcDbEntity
  8
A-FURN-P-SEAT
100
AcDbPolyline
 90
        2
 70
     0
 10
-9.909630195794669
 20
10.06630932933854
 40
0.0
 41
0.0
 10
-9.814416307296951
 20
11.42249249379915
 40
0.1969552685041935
 41
0.1969552685041935
  0
LWPOLYLINE
  5
CF
330
70
100
AcDbEntity
  8
A-FURN-P-SEAT
100
AcDbPolyline
 90
        2
 70
     0
 10
-9.814416307296951
 20
11.42249249379915
 40
0.0
 41
0.0
 10
-9.472635693800988
 20
12.77173357591073
 40
0.1969552685041935
 41
0.1969552685041935
  0
LWPOLYLINE
  5
D0
330
70
100
AcDbEntity
  8
A-FURN-P-SEAT
100
AcDbPolyline
 90
        2
 70
     0
 10
-9.79831974406791
 20
10.06467440365463
 40
0.0
 41
0.0
 10
-9.798914942889325
 20
10.06098385583345
 40
0.1969552685041935
 41
0.1969552685041935
  0
LWPOLYLINE
  5
D1
330
70
100
AcDbEntity
  8
A-FURN-P-SEAT
100
AcDbPolyline
 90
        2
 70
     0
 10
-9.798914942889325
 20
10.06098385583345
 40
0.0
 41
0.0
 10
-9.605956684604151
 20
7.524583863317729
 40
0.1969552685041935
 41
0.1969552685041935
  0
LWPOLYLINE
  5
D2
330
70
100
AcDbEntity
  8
A-FURN-P-SEAT
100
AcDbPolyline
 90
        2
 70
     0
 10
-9.366428353081175
 20
12.74418682119199
 40
0.0
 41
0.0
 10
-9.798247658439628
 20
10.06510711437954
 40
0.1969552685041935
 41
0.1969552685041935
  0
LWPOLYLINE
  5
D3
330
70
100
AcDbEntity
  8
A-FURN-P-SEAT
100
AcDbPolyline
 90
        2
 70
     0
 10
-9.472635693800988
 20
12.77173357591073
 40
0.0
 41
0.0
 10
-8.525605828488842
 20
14.57922240608513
 40
0.1969552685041935
 41
0.1969552685041935
  0
LWPOLYLINE
  5
D4
330
70
100
AcDbEntity
  8
A-FURN-P-SEAT
100
AcDbPolyline
 90
        2
 70
     0
 10
-7.74817099360137
 20
16.9295284253335
 40
0.0
 41
0.0
 10
-7.812304158997513
 20
17.14232756345723
 40
0.1969552685041935
 41
0.1969552685041935
  0
LWPOLYLINE
  5
D5
330
70
100
AcDbEntity
  8
A-FURN-P-SEAT
100
AcDbPolyline
 90
        2
 70
     0
 10
-7.812304158997513
 20
17.14232756345723
 40
0.0
 41
0.0
 10
-7.760949648377192
 20
17.25949231358504
 40
0.1969552685041935
 41
0.1969552685041935
  0
LWPOLYLINE
  5
D6
330
70
100
AcDbEntity
  8
A-FURN-P-SEAT
100
AcDbPolyline
 90
        2
 70
     0
 10
-7.74817099360137
 20
16.9295284253335
 40
0.0
 41
0.0
 10
-7.666264584775412
 20
16.84232667715855
 40
0.1969552685041935
 41
0.1969552685041935
  0
LWPOLYLINE
  5
D7
330
70
100
AcDbEntity
  8
A-FURN-P-SEAT
100
AcDbPolyline
 90
        2
 70
     0
 10
-7.601338083557742
 20
16.98770507254426
 40
0.0
 41
0.0
 10
-7.671103184856747
 20
16.98842632273749
 40
0.1969552685041935
 41
0.1969552685041935
  0
LWPOLYLINE
  5
D8
330
70
100
AcDbEntity
  8
A-FURN-P-SEAT
100
AcDbPolyline
 90
        2
 70
     0
 10
-9.798313835409857
 20
10.06470453781071
 40
0.0
 41
0.0
 10
-9.798235644168258
 20
10.06489676615274
 40
0.1969552685041935
 41
0.1969552685041935
  0
LWPOLYLINE
  5
D9
330
70
100
AcDbEntity
  8
A-FURN-P-SEAT
100
AcDbPolyline
 90
        2
 70
     0
 10
-7.601536417513116
 20
16.98635868632868
 40
0.0
 41
0.0
 10
-7.670592282890254
 20
16.98675535423945
 40
0.1969552685041935
 41
0.1969552685041935
  0
LWPOLYLINE
  5
DA
330
70
100
AcDbEntity
  8
A-FURN-P-SEAT
100
AcDbPolyline
 90
        2
 70
     0
 10
-7.658552998192398
 20
16.98289050100561
 40
0.0
 41
0.0
 10
-7.669366039388549
 20
16.98274022413579
 40
0.1969552685041935
 41
0.1969552685041935
  0
LWPOLYLINE
  5
DB
330
70
100
AcDbEntity
  8
A-FURN-P-SEAT
100
AcDbPolyline
 90
        2
 70
     0
 10
-7.624929779529708
 20
16.98463966074519
 40
0.0
 41
0.0
 10
-7.658540983921028
 20
16.98289050100561
 40
0.1969552685041935
 41
0.1969552685041935
  0
LWPOLYLINE
  5
DC
330
70
100
AcDbEntity
  8
A-FURN-P-SEAT
100
AcDbPolyline
 90
        2
 70
     0
 10
-7.608070014635217
 20
16.9414054188901
 40
0.0
 41
0.0
 10
-7.654976684426891
 20
16.9355209863329
 40
0.1969552685041935
 41
0.1969552685041935
  0
LWPOLYLINE
  5
DD
330
70
100
AcDbEntity
  8
A-FURN-P-SEAT
100
AcDbPolyline
 90
        2
 70
     0
 10
-7.651460442018297
 20
17.16956175016503
 40
0.0
 41
0.0
 10
-7.63705907278527
 20
17.26996265261391
 40
0.1969552685041935
 41
0.1969552685041935
  0
LWPOLYLINE
  5
DE
330
70
100
AcDbEntity
  8
A-FURN-P-SEAT
100
AcDbPolyline
 90
        2
 70
     0
 10
-7.63705907278527
 20
17.26996265261391
 40
0.0
 41
0.0
 10
-7.611604179973241
 20
17.37182437228944
 40
0.1969552685041935
 41
0.1969552685041935
  0
LWPOLYLINE
  5
DF
330
70
100
AcDbEntity
  8
A-FURN-P-SEAT
100
AcDbPolyline
 90
        2
 70
     0
 10
-7.624929779529708
 20
16.98463966074519
 40
0.0
 41
0.0
 10
-7.601770991237906
 20
16.98474778918762
 40
0.1969552685041935
 41
0.1969552685041935
  0
LWPOLYLINE
  5
E0
330
70
100
AcDbEntity
  8
A-FURN-P-SEAT
100
AcDbPolyline
 90
        2
 70
     0
 10
-7.621605962418428
 20
17.33179971349
 40
0.0
 41
0.0
 10
-7.541286225235538
 20
17.40102968732435
 40
0.1969552685041935
 41
0.1969552685041935
  0
LWPOLYLINE
  5
E1
330
70
100
AcDbEntity
  8
A-FURN-P-SEAT
100
AcDbPolyline
 90
        2
 70
     0
 10
-7.576111658857172
 20
17.49144121551012
 40
0.0
 41
0.0
 10
-7.521349034270663
 20
17.53823975685941
 40
0.1969552685041935
 41
0.1969552685041935
  0
LWPOLYLINE
  5
E2
330
70
100
AcDbEntity
  8
A-FURN-P-SEAT
100
AcDbPolyline
 90
        2
 70
     0
 10
-7.569878615474827
 20
17.51244826749348
 40
0.0
 41
0.0
 10
-7.518722438809895
 20
17.55634368818505
 40
0.1969552685041935
 41
0.1969552685041935
  0
LWPOLYLINE
  5
E3
330
70
100
AcDbEntity
  8
A-FURN-P-SEAT
100
AcDbPolyline
 90
        2
 70
     0
 10
-9.798235644168258
 20
10.06492690030882
 40
0.0
 41
0.0
 10
-9.798914942889325
 20
10.07385862478031
 40
0.1969552685041935
 41
0.1969552685041935
  0
LWPOLYLINE
  5
E4
330
70
100
AcDbEntity
  8
A-FURN-P-SEAT
100
AcDbPolyline
 90
        2
 70
     0
 10
-9.798914942889325
 20
10.07385862478031
 40
0.0
 41
0.0
 10
-9.704861120923105
 20
11.42160895246457
 40
0.1969552685041935
 41
0.1969552685041935
  0
LWPOLYLINE
  5
E5
330
70
100
AcDbEntity
  8
A-FURN-P-SEAT
100
AcDbPolyline
 90
        2
 70
     0
 10
-9.704861120923105
 20
11.42160895246457
 40
0.0
 41
0.0
 10
-9.366428353081175
 20
12.75706159013884
 40
0.1969552685041935
 41
0.1969552685041935
  0
LWPOLYLINE
  5
E6
330
70
100
AcDbEntity
  8
A-FURN-P-SEAT
100
AcDbPolyline
 90
        2
 70
     0
 10
-9.366428353081175
 20
12.75706159013884
 40
0.0
 41
0.0
 10
-8.419705147122094
 20
14.54338718280178
 40
0.1969552685041935
 41
0.1969552685041935
  0
LWPOLYLINE
  5
E7
330
70
100
AcDbEntity
  8
A-FURN-P-SEAT
100
AcDbPolyline
 90
        2
 70
     0
 10
-7.792787664486162
 20
17.18686013444244
 40
0.0
 41
0.0
 10
-7.757006603901743
 20
17.29935448428818
 40
0.1969552685041935
 41
0.1969552685041935
  0
LWPOLYLINE
  5
E8
330
70
100
AcDbEntity
  8
A-FURN-P-SEAT
100
AcDbPolyline
 90
        2
 70
     0
 10
-7.757006603901743
 20
17.29935448428818
 40
0.0
 41
0.0
 10
-7.732874068762448
 20
17.40649342342794
 40
0.1969552685041935
 41
0.1969552685041935
  0
LWPOLYLINE
  5
E9
330
70
100
AcDbEntity
  8
A-FURN-P-SEAT
100
AcDbPolyline
 90
        2
 70
     0
 10
-7.732874068762448
 20
17.40649342342794
 40
0.0
 41
0.0
 10
-7.696527943512691
 20
17.51446174120338
 40
0.1969552685041935
 41
0.1969552685041935
  0
LWPOLYLINE
  5
EA
330
70
100
AcDbEntity
  8
A-FURN-P-SEAT
100
AcDbPolyline
 90
        2
 70
     0
 10
-7.624857693901425
 20
16.83673078406991
 40
0.0
 41
0.0
 10
-7.690301005743656
 20
17.05140533026019
 40
0.1969552685041935
 41
0.1969552685041935
  0
LWPOLYLINE
  5
EB
330
70
100
AcDbEntity
  8
A-FURN-P-SEAT
100
AcDbPolyline
 90
        2
 70
     0
 10
-7.690301005743656
 20
17.05140533026019
 40
0.0
 41
0.0
 10
-7.651460442018297
 20
17.16956175016503
 40
0.1969552685041935
 41
0.1969552685041935
  0
LWPOLYLINE
  5
EC
330
70
100
AcDbEntity
  8
A-FURN-P-SEAT
100
AcDbPolyline
 90
        2
 70
     0
 10
-7.666264584775412
 20
16.84232667715855
 40
0.0
 41
0.0
 10
-7.624857693901425
 20
16.83673078406991
 40
0.1969552685041935
 41
0.1969552685041935
  0
LWPOLYLINE
  5
ED
330
70
100
AcDbEntity
  8
A-FURN-P-SEAT
100
AcDbPolyline
 90
        2
 70
     0
 10
-7.623276930916418
 20
16.83673078406991
 40
0.0
 41
0.0
 10
-7.624857693901425
 20
16.83673078406991
 40
0.1969552685041935
 41
0.1969552685041935
  0
LWPOLYLINE
  5
EE
330
70
100
AcDbEntity
  8
A-FURN-P-SEAT
100
AcDbPolyline
 90
        2
 70
     0
 10
2.757674737245459
 20
17.5739727603584
 40
0.0
 41
0.0
 10
5.11265686847873
 20
16.93530453249286
 40
0.1969552685041935
 41
0.1969552685041935
  0
LWPOLYLINE
  5
EF
330
70
100
AcDbEntity
  8
A-FURN-P-SEAT
100
AcDbPolyline
 90
        2
 70
     0
 10
2.757674737245459
 20
17.5739727603584
 40
0.0
 41
0.0
 10
0.0002288925584679
 20
17.81909087935673
 40
0.1969552685041935
 41
0.1969552685041935
  0
LWPOLYLINE
  5
F0
330
70
100
AcDbEntity
  8
A-FURN-P-SEAT
100
AcDbPolyline
 90
        2
 70
     0
 10
5.11265686847873
 20
16.93530453249286
 40
0.0
 41
0.0
 10
6.406720735163638
 20
16.4270004059847
 40
0.1969552685041935
 41
0.1969552685041935
  0
LWPOLYLINE
  5
F1
330
70
100
AcDbEntity
  8
A-FURN-P-SEAT
100
AcDbPolyline
 90
        2
 70
     0
 10
6.406720735163638
 20
16.4270004059847
 40
0.0
 41
0.0
 10
7.051862094883738
 20
16.36279515496017
 40
0.1969552685041935
 41
0.1969552685041935
  0
LWPOLYLINE
  5
F2
330
70
100
AcDbEntity
  8
A-FURN-P-SEAT
100
AcDbPolyline
 90
        2
 70
     0
 10
-9.907496382415693
 20
10.09673497921699
 40
0.0
 41
0.0
 10
-10.03974751220035
 20
11.60845431008124
 40
0.1969552685041935
 41
0.1969552685041935
  0
LWPOLYLINE
  5
F3
330
70
100
AcDbEntity
  8
A-FURN-P-SEAT
100
AcDbPolyline
 90
        2
 70
     0
 10
-10.03974751220035
 20
11.60845431008124
 40
0.0
 41
0.0
 10
-9.887222594896933
 20
13.35188245439826
 40
0.1969552685041935
 41
0.1969552685041935
  0
LWPOLYLINE
  5
F4
330
70
100
AcDbEntity
  8
A-FURN-P-SEAT
100
AcDbPolyline
 90
        2
 70
     0
 10
-10.01474935865598
 20
11.60845431008124
 40
0.0
 41
0.0
 10
-9.986205025502222
 20
11.46495132276209
 40
0.1969552685041935
 41
0.1969552685041935
  0
LWPOLYLINE
  5
F5
330
70
100
AcDbEntity
  8
A-FURN-P-SEAT
100
AcDbPolyline
 90
        2
 70
     0
 10
-10.01474935865598
 20
11.60845431008124
 40
0.0
 41
0.0
 10
-9.986205025502222
 20
11.46495742837555
 40
0.1969552685041935
 41
0.1969552685041935
  0
LWPOLYLINE
  5
F6
330
70
100
AcDbEntity
  8
A-FURN-P-SEAT
100
AcDbPolyline
 90
        2
 70
     0
 10
-10.01474935865598
 20
11.60845431008124
 40
0.0
 41
0.0
 10
-9.986205025502222
 20
11.46495132276209
 40
0.1969552685041935
 41
0.1969552685041935
  0
LWPOLYLINE
  5
F7
330
70
100
AcDbEntity
  8
A-FURN-P-SEAT
100
AcDbPolyline
 90
        2
 70
     0
 10
-9.887222594896933
 20
13.35188245439826
 40
0.0
 41
0.0
 10
-9.434263883614647
 20
15.04233297972723
 40
0.1969552685041935
 41
0.1969552685041935
  0
LWPOLYLINE
  5
F8
330
70
100
AcDbEntity
  8
A-FURN-P-SEAT
100
AcDbPolyline
 90
        2
 70
     0
 10
-8.525605828488842
 20
14.57922240608513
 40
0.0
 41
0.0
 10
-7.418910432613685
 20
16.13825728587835
 40
0.1969552685041935
 41
0.1969552685041935
  0
LWPOLYLINE
  5
F9
330
70
100
AcDbEntity
  8
A-FURN-P-SEAT
100
AcDbPolyline
 90
        2
 70
     0
 10
-7.314500308718969
 20
16.04807422580416
 40
0.0
 41
0.0
 10
-8.419699041508764
 20
14.53051261081032
 40
0.1969552685041935
 41
0.1969552685041935
  0
LWPOLYLINE
  5
FA
330
70
100
AcDbEntity
  8
A-FURN-P-SEAT
100
AcDbPolyline
 90
        2
 70
     0
 10
-7.051410612335352
 20
16.36279515496017
 40
0.0
 41
0.0
 10
-7.522112432891383
 20
16.43115970734493
 40
0.1969552685041935
 41
0.1969552685041935
  0
LWPOLYLINE
  5
FB
330
70
100
AcDbEntity
  8
A-FURN-P-SEAT
100
AcDbPolyline
 90
        2
 70
     0
 10
-7.182080979135001
 20
18.81387491298096
 40
0.0
 41
0.0
 10
-7.485802350455749
 20
17.78290113659022
 40
0.1969552685041935
 41
0.1969552685041935
  0
LWPOLYLINE
  5
FC
330
70
100
AcDbEntity
  8
A-FURN-P-SEAT
100
AcDbPolyline
 90
        2
 70
     0
 10
-7.051536663707203
 20
16.36281327484494
 40
0.0
 41
0.0
 10
-7.314500308718969
 20
16.04807422580416
 40
0.1969552685041935
 41
0.1969552685041935
  0
LWPOLYLINE
  5
FD
330
70
100
AcDbEntity
  8
A-FURN-P-SEAT
100
AcDbPolyline
 90
        2
 70
     0
 10
-6.568801664066647
 20
20.47334082937937
 40
0.0
 41
0.0
 10
-7.182080979135001
 20
18.81387491298096
 40
0.1969552685041935
 41
0.1969552685041935
  0
LWPOLYLINE
  5
FE
330
70
100
AcDbEntity
  8
A-FURN-P-SEAT
100
AcDbPolyline
 90
        2
 70
     0
 10
-6.406269055660011
 20
16.42700631464277
 40
0.0
 41
0.0
 10
-7.051410612335352
 20
16.36279515496017
 40
0.1969552685041935
 41
0.1969552685041935
  0
LWPOLYLINE
  5
FF
330
70
100
AcDbEntity
  8
A-FURN-P-SEAT
100
AcDbPolyline
 90
        2
 70
     0
 10
-6.568801664066647
 20
20.47334082937937
 40
0.0
 41
0.0
 10
-6.471081322821952
 20
20.70824090904785
 40
0.1969552685041935
 41
0.1969552685041935
  0
LWPOLYLINE
  5
100
330
70
100
AcDbEntity
  8
A-FURN-P-SEAT
100
AcDbPolyline
 90
        2
 70
     0
 10
-6.526985894055258
 20
20.87504705287051
 40
0.0
 41
0.0
 10
-6.544488717901415
 20
20.84094306639736
 40
0.1969552685041935
 41
0.1969552685041935
  0
LWPOLYLINE
  5
101
330
70
100
AcDbEntity
  8
A-FURN-P-SEAT
100
AcDbPolyline
 90
        2
 70
     0
 10
-6.526985894055258
 20
20.87504705287051
 40
0.0
 41
0.0
 10
-6.328233408725957
 20
21.16582787218454
 40
0.1969552685041935
 41
0.1969552685041935
  0
LWPOLYLINE
  5
102
330
70
100
AcDbEntity
  8
A-FURN-P-SEAT
100
AcDbPolyline
 90
        2
 70
     0
 10
-6.27476320461136
 20
20.99783763328765
 40
0.0
 41
0.0
 10
-6.471081322821952
 20
20.70824090904785
 40
0.1969552685041935
 41
0.1969552685041935
  0
LWPOLYLINE
  5
103
330
70
100
AcDbEntity
  8
A-FURN-P-SEAT
100
AcDbPolyline
 90
        2
 70
     0
 10
8.420150721012397
 20
14.53051261081032
 40
0.0
 41
0.0
 10
7.31495198822261
 20
16.04807422580416
 40
0.1969552685041935
 41
0.1969552685041935
  0
LWPOLYLINE
  5
104
330
70
100
AcDbEntity
  8
A-FURN-P-SEAT
100
AcDbPolyline
 90
        2
 70
     0
 10
-5.362107942311261
 20
21.59747287213054
 40
0.0
 41
0.0
 10
-4.57327707863287
 20
21.90340624807186
 40
0.1969552685041935
 41
0.1969552685041935
  0
LWPOLYLINE
  5
105
330
70
100
AcDbEntity
  8
A-FURN-P-SEAT
100
AcDbPolyline
 90
        2
 70
     0
 10
-4.57327707863287
 20
21.90340624807186
 40
0.0
 41
0.0
 10
-2.955542832346225
 20
22.24224769809598
 40
0.1969552685041935
 41
0.1969552685041935
  0
LWPOLYLINE
  5
106
330
70
100
AcDbEntity
  8
A-FURN-P-SEAT
100
AcDbPolyline
 90
        2
 70
     0
 10
-2.955542832346225
 20
22.24224769809598
 40
0.0
 41
0.0
 10
-1.29357637185889
 20
22.40253225906781
 40
0.1969552685041935
 41
0.1969552685041935
  0
LWPOLYLINE
  5
107
330
70
100
AcDbEntity
  8
A-FURN-P-SEAT
100
AcDbPolyline
 90
        2
 70
     0
 10
-1.29357637185889
 20
22.40253225906781
 40
0.0
 41
0.0
 10
0.0002288925584679
 20
22.45576828336812
 40
0.1969552685041935
 41
0.1969552685041935
  0
LWPOLYLINE
  5
108
330
70
100
AcDbEntity
  8
A-FURN-P-SEAT
100
AcDbPolyline
 90
        2
 70
     0
 10
6.527437573558891
 20
20.87504705287051
 40
0.0
 41
0.0
 10
6.328685088229597
 20
21.16582787218454
 40
0.1969552685041935
 41
0.1969552685041935
  0
LWPOLYLINE
  5
109
330
70
100
AcDbEntity
  8
A-FURN-P-SEAT
100
AcDbPolyline
 90
        2
 70
     0
 10
7.696979623016325
 20
17.51446174120338
 40
0.0
 41
0.0
 10
7.180669264843324
 20
19.2076170532348
 40
0.1969552685041935
 41
0.1969552685041935
  0
LWPOLYLINE
  5
10A
330
70
100
AcDbEntity
  8
A-FURN-P-SEAT
100
AcDbPolyline
 90
        2
 70
     0
 10
8.212779079222833
 20
15.02053259192212
 40
0.0
 41
0.0
 10
7.416380800217957
 20
16.15556177576923
 40
0.1969552685041935
 41
0.1969552685041935
  0
LWPOLYLINE
  5
10B
330
70
100
AcDbEntity
  8
A-FURN-P-SEAT
100
AcDbPolyline
 90
        2
 70
     0
 10
7.601789763061368
 20
16.98770507254426
 40
0.0
 41
0.0
 10
7.671554864360381
 20
16.98842632273749
 40
0.1969552685041935
 41
0.1969552685041935
  0
LWPOLYLINE
  5
10C
330
70
100
AcDbEntity
  8
A-FURN-P-SEAT
100
AcDbPolyline
 90
        2
 70
     0
 10
7.733325748266089
 20
17.40648731781471
 40
0.0
 41
0.0
 10
7.696979623016325
 20
17.51446174120338
 40
0.1969552685041935
 41
0.1969552685041935
  0
LWPOLYLINE
  5
10D
330
70
100
AcDbEntity
  8
A-FURN-P-SEAT
100
AcDbPolyline
 90
        2
 70
     0
 10
7.757458283405377
 20
17.29935448428818
 40
0.0
 41
0.0
 10
7.733325748266089
 20
17.40648731781471
 40
0.1969552685041935
 41
0.1969552685041935
  0
LWPOLYLINE
  5
10E
330
70
100
AcDbEntity
  8
A-FURN-P-SEAT
100
AcDbPolyline
 90
        2
 70
     0
 10
7.79325135826118
 20
17.18681818297023
 40
0.0
 41
0.0
 10
7.757458283405377
 20
17.29935448428818
 40
0.1969552685041935
 41
0.1969552685041935
  0
LWPOLYLINE
  5
10F
330
70
100
AcDbEntity
  8
A-FURN-P-SEAT
100
AcDbPolyline
 90
        2
 70
     0
 10
-8.419705147122094
 20
14.54338718280178
 40
0.0
 41
0.0
 10
-7.314500308718969
 20
16.06094899475079
 40
0.1969552685041935
 41
0.1969552685041935
  0
LWPOLYLINE
  5
110
330
70
100
AcDbEntity
  8
A-FURN-P-SEAT
100
AcDbPolyline
 90
        2
 70
     0
 10
-8.212549762217342
 20
15.02023203818248
 40
0.0
 41
0.0
 10
-7.415929317669608
 20
16.15556788138247
 40
0.1969552685041935
 41
0.1969552685041935
  0
LWPOLYLINE
  5
111
330
70
100
AcDbEntity
  8
A-FURN-P-SEAT
100
AcDbPolyline
 90
        2
 70
     0
 10
-7.180217585339683
 20
19.2076170532348
 40
0.0
 41
0.0
 10
-7.696527943512691
 20
17.51446174120338
 40
0.1969552685041935
 41
0.1969552685041935
  0
LWPOLYLINE
  5
112
330
70
100
AcDbEntity
  8
A-FURN-P-SEAT
100
AcDbPolyline
 90
        2
 70
     0
 10
-7.611604179973241
 20
17.37182437228944
 40
0.0
 41
0.0
 10
-7.100673458004166
 20
19.09368020300258
 40
0.1969552685041935
 41
0.1969552685041935
  0
LWPOLYLINE
  5
113
330
70
100
AcDbEntity
  8
A-FURN-P-SEAT
100
AcDbPolyline
 90
        2
 70
     0
 10
-7.415929317669608
 20
16.15556788138247
 40
0.0
 41
0.0
 10
-7.227659382595902
 20
16.38838831037083
 40
0.1969552685041935
 41
0.1969552685041935
  0
LWPOLYLINE
  5
114
330
70
100
AcDbEntity
  8
A-FURN-P-SEAT
100
AcDbPolyline
 90
        2
 70
     0
 10
-7.314500308718969
 20
16.06094899475079
 40
0.0
 41
0.0
 10
-7.061129763970235
 20
16.36420771814596
 40
0.1969552685041935
 41
0.1969552685041935
  0
LWPOLYLINE
  5
115
330
70
100
AcDbEntity
  8
A-FURN-P-SEAT
100
AcDbPolyline
 90
        2
 70
     0
 10
-7.180217585339683
 20
19.2076170532348
 40
0.0
 41
0.0
 10
-6.544488717901415
 20
20.84094306639736
 40
0.1969552685041935
 41
0.1969552685041935
  0
LWPOLYLINE
  5
116
330
70
100
AcDbEntity
  8
A-FURN-P-SEAT
100
AcDbPolyline
 90
        2
 70
     0
 10
-6.60856161498539
 20
20.36574515097186
 40
0.0
 41
0.0
 10
-7.100673458004166
 20
19.09368020300258
 40
0.1969552685041935
 41
0.1969552685041935
  0
LWPOLYLINE
  5
117
330
70
100
AcDbEntity
  8
A-FURN-P-SEAT
100
AcDbPolyline
 90
        2
 70
     0
 10
-6.471087231480005
 20
20.72111567799471
 40
0.0
 41
0.0
 10
-6.54225288169335
 20
20.53716142676444
 40
0.1969552685041935
 41
0.1969552685041935
  0
LWPOLYLINE
  5
118
330
70
100
AcDbEntity
  8
A-FURN-P-SEAT
100
AcDbPolyline
 90
        2
 70
     0
 10
-6.471087231480005
 20
20.72111567799471
 40
0.0
 41
0.0
 10
-6.27476320461136
 20
21.01071831089257
 40
0.1969552685041935
 41
0.1969552685041935
  0
LWPOLYLINE
  5
119
330
70
100
AcDbEntity
  8
A-FURN-P-SEAT
100
AcDbPolyline
 90
        2
 70
     0
 10
7.416380800217957
 20
16.15556177576923
 40
0.0
 41
0.0
 10
7.228110865144266
 20
16.38838831037083
 40
0.1969552685041935
 41
0.1969552685041935
  0
LWPOLYLINE
  5
11A
330
70
100
AcDbEntity
  8
A-FURN-P-SEAT
100
AcDbPolyline
 90
        2
 70
     0
 10
2.956000420507912
 20
22.22937312610429
 40
0.0
 41
0.0
 10
4.573728758136503
 20
21.89053167608017
 40
0.1969552685041935
 41
0.1969552685041935
  0
LWPOLYLINE
  5
11B
330
70
100
AcDbEntity
  8
A-FURN-P-SEAT
100
AcDbPolyline
 90
        2
 70
     0
 10
2.956000420507912
 20
22.22937312610429
 40
0.0
 41
0.0
 10
0.0002288925584679
 20
22.43654032832524
 40
0.1969552685041935
 41
0.1969552685041935
  0
LWPOLYLINE
  5
11C
330
70
100
AcDbEntity
  8
A-FURN-P-SEAT
100
AcDbPolyline
 90
        2
 70
     0
 10
4.573728758136503
 20
21.89053167608017
 40
0.0
 41
0.0
 10
5.353904422540487
 20
21.58795205445108
 40
0.1969552685041935
 41
0.1969552685041935
  0
LWPOLYLINE
  5
11D
330
70
100
AcDbEntity
  8
A-FURN-P-SEAT
100
AcDbPolyline
 90
        2
 70
     0
 10
5.353904422540487
 20
21.58795205445108
 40
0.0
 41
0.0
 10
5.903345020339109
 20
21.31382084875986
 40
0.1969552685041935
 41
0.1969552685041935
  0
LWPOLYLINE
  5
11E
330
70
100
AcDbEntity
  8
A-FURN-P-SEAT
100
AcDbPolyline
 90
        2
 70
     0
 10
5.903345020339109
 20
21.31382084875986
 40
0.0
 41
0.0
 10
6.275214687159724
 20
20.99783763328765
 40
0.1969552685041935
 41
0.1969552685041935
  0
LWPOLYLINE
  5
11F
330
70
100
AcDbEntity
  8
A-FURN-P-SEAT
100
AcDbPolyline
 90
        2
 70
     0
 10
-2.955542832346225
 20
22.22937312610429
 40
0.0
 41
0.0
 10
0.0002288925584679
 20
22.43654032832524
 40
0.1969552685041935
 41
0.1969552685041935
  0
LWPOLYLINE
  5
120
330
70
100
AcDbEntity
  8
A-FURN-P-SEAT
100
AcDbPolyline
 90
        2
 70
     0
 10
-2.955542832346225
 20
22.22937312610429
 40
0.0
 41
0.0
 10
-4.57327707863287
 20
21.89053167608017
 40
0.1969552685041935
 41
0.1969552685041935
  0
LWPOLYLINE
  5
121
330
70
100
AcDbEntity
  8
A-FURN-P-SEAT
100
AcDbPolyline
 90
        2
 70
     0
 10
-9.434263883614647
 20
15.04233297972723
 40
0.0
 41
0.0
 10
-8.694647808519547
 20
16.62845157240304
 40
0.1969552685041935
 41
0.1969552685041935
  0
LWPOLYLINE
  5
122
330
70
100
AcDbEntity
  8
A-FURN-P-SEAT
100
AcDbPolyline
 90
        2
 70
     0
 10
-8.694647808519547
 20
16.62845157240304
 40
0.0
 41
0.0
 10
-7.690842041866247
 20
18.06203933911729
 40
0.1969552685041935
 41
0.1969552685041935
  0
LWPOLYLINE
  5
123
330
70
100
AcDbEntity
  8
A-FURN-P-SEAT
100
AcDbPolyline
 90
        2
 70
     0
 10
-8.182593062833113
 20
15.0629313495283
 40
0.0
 41
0.0
 10
-7.716038332410718
 20
16.06345544749797
 40
0.1969552685041935
 41
0.1969552685041935
  0
LWPOLYLINE
  5
124
330
70
100
AcDbEntity
  8
A-FURN-P-SEAT
100
AcDbPolyline
 90
        2
 70
     0
 10
-7.716038332410718
 20
16.06345544749797
 40
0.0
 41
0.0
 10
-7.464434673375741
 20
16.42278103326748
 40
0.1969552685041935
 41
0.1969552685041935
  0
LWPOLYLINE
  5
125
330
70
100
AcDbEntity
  8
A-FURN-P-SEAT
100
AcDbPolyline
 90
        2
 70
     0
 10
-7.690842041866247
 20
18.06203933911729
 40
0.0
 41
0.0
 10
-7.458784814543427
 20
18.2940963694848
 40
0.1969552685041935
 41
0.1969552685041935
  0
LWPOLYLINE
  5
126
330
70
100
AcDbEntity
  8
A-FURN-P-SEAT
100
AcDbPolyline
 90
        2
 70
     0
 10
-6.328233408725957
 20
21.16582787218454
 40
0.0
 41
0.0
 10
-5.953556735418615
 20
21.48362012179791
 40
0.1969552685041935
 41
0.1969552685041935
  0
LWPOLYLINE
  5
127
330
70
100
AcDbEntity
  8
A-FURN-P-SEAT
100
AcDbPolyline
 90
        2
 70
     0
 10
-5.902893537790752
 20
21.31382675741793
 40
0.0
 41
0.0
 10
-6.27476320461136
 20
20.99783763328765
 40
0.1969552685041935
 41
0.1969552685041935
  0
LWPOLYLINE
  5
128
330
70
100
AcDbEntity
  8
A-FURN-P-SEAT
100
AcDbPolyline
 90
        2
 70
     0
 10
-6.27476320461136
 20
21.01071831089257
 40
0.0
 41
0.0
 10
-5.902893537790752
 20
21.32670152636456
 40
0.1969552685041935
 41
0.1969552685041935
  0
LWPOLYLINE
  5
129
330
70
100
AcDbEntity
  8
A-FURN-P-SEAT
100
AcDbPolyline
 90
        2
 70
     0
 10
-5.112205385930352
 20
16.93530453249286
 40
0.0
 41
0.0
 10
-6.406269055660011
 20
16.42700631464277
 40
0.1969552685041935
 41
0.1969552685041935
  0
LWPOLYLINE
  5
12A
330
70
100
AcDbEntity
  8
A-FURN-P-SEAT
100
AcDbPolyline
 90
        2
 70
     0
 10
-2.757223057741825
 20
17.57397866901647
 40
0.0
 41
0.0
 10
-5.112205385930352
 20
16.93530453249286
 40
0.1969552685041935
 41
0.1969552685041935
  0
LWPOLYLINE
  5
12B
330
70
100
AcDbEntity
  8
A-FURN-P-SEAT
100
AcDbPolyline
 90
        2
 70
     0
 10
-2.757223057741825
 20
17.57397866901647
 40
0.0
 41
0.0
 10
0.0002288925584679
 20
17.81909087935673
 40
0.1969552685041935
 41
0.1969552685041935
  0
LWPOLYLINE
  5
12C
330
70
100
AcDbEntity
  8
A-FURN-P-SEAT
100
AcDbPolyline
 90
        2
 70
     0
 10
6.275214687159724
 20
20.99783763328765
 40
0.0
 41
0.0
 10
6.471538910983632
 20
20.70824090904785
 40
0.1969552685041935
 41
0.1969552685041935
  0
LWPOLYLINE
  5
12D
330
70
100
AcDbEntity
  8
A-FURN-P-SEAT
100
AcDbPolyline
 90
        2
 70
     0
 10
6.569253146615018
 20
20.4733349207213
 40
0.0
 41
0.0
 10
6.471538910983632
 20
20.70824090904785
 40
0.1969552685041935
 41
0.1969552685041935
  0
LWPOLYLINE
  5
12E
330
70
100
AcDbEntity
  8
A-FURN-P-SEAT
100
AcDbPolyline
 90
        2
 70
     0
 10
6.569253146615018
 20
20.4733349207213
 40
0.0
 41
0.0
 10
7.182538567296695
 20
18.81387491298096
 40
0.1969552685041935
 41
0.1969552685041935
  0
LWPOLYLINE
  5
12F
330
70
100
AcDbEntity
  8
A-FURN-P-SEAT
100
AcDbPolyline
 90
        2
 70
     0
 10
7.051862094883738
 20
16.36279515496017
 40
0.0
 41
0.0
 10
7.522564112395023
 20
16.43115379868686
 40
0.1969552685041935
 41
0.1969552685041935
  0
LWPOLYLINE
  5
130
330
70
100
AcDbEntity
  8
A-FURN-P-SEAT
100
AcDbPolyline
 90
        2
 70
     0
 10
7.051988343210844
 20
16.36281327484494
 40
0.0
 41
0.0
 10
7.31495198822261
 20
16.04807422580416
 40
0.1969552685041935
 41
0.1969552685041935
  0
LWPOLYLINE
  5
131
330
70
100
AcDbEntity
  8
A-FURN-P-SEAT
100
AcDbPolyline
 90
        2
 70
     0
 10
7.182538567296695
 20
18.81387491298096
 40
0.0
 41
0.0
 10
7.48625402995939
 20
17.78289503097699
 40
0.1969552685041935
 41
0.1969552685041935
  0
LWPOLYLINE
  5
132
330
70
100
AcDbEntity
  8
A-FURN-P-SEAT
100
AcDbPolyline
 90
        2
 70
     0
 10
7.48625402995939
 20
17.78289503097699
 40
0.0
 41
0.0
 10
7.625639864345608
 20
16.8235676726099
 40
0.1969552685041935
 41
0.1969552685041935
  0
LWPOLYLINE
  5
133
330
70
100
AcDbEntity
  8
A-FURN-P-SEAT
100
AcDbPolyline
 90
        2
 70
     0
 10
7.522564112395023
 20
16.43115379868686
 40
0.0
 41
0.0
 10
7.625639864345608
 20
16.8235676726099
 40
0.1969552685041935
 41
0.1969552685041935
  0
LWPOLYLINE
  5
134
330
70
100
AcDbEntity
  8
A-FURN-P-SEAT
100
AcDbPolyline
 90
        2
 70
     0
 10
-5.953556735418615
 20
21.48362012179791
 40
0.0
 41
0.0
 10
-5.4102950183035
 20
21.75676576332557
 40
0.1969552685041935
 41
0.1969552685041935
  0
LWPOLYLINE
  5
135
330
70
100
AcDbEntity
  8
A-FURN-P-SEAT
100
AcDbPolyline
 90
        2
 70
     0
 10
-5.353452743036854
 20
21.58795205445108
 40
0.0
 41
0.0
 10
-5.902893537790752
 20
21.31382675741793
 40
0.1969552685041935
 41
0.1969552685041935
  0
LWPOLYLINE
  5
136
330
70
100
AcDbEntity
  8
A-FURN-P-SEAT
100
AcDbPolyline
 90
        2
 70
     0
 10
-5.902893537790752
 20
21.32670152636456
 40
0.0
 41
0.0
 10
-5.362107942311261
 20
21.59747287213054
 40
0.1969552685041935
 41
0.1969552685041935
  0
LWPOLYLINE
  5
137
330
70
100
AcDbEntity
  8
A-FURN-P-SEAT
100
AcDbPolyline
 90
        2
 70
     0
 10
-5.4102950183035
 20
21.75676576332557
 40
0.0
 41
0.0
 10
-4.609755360867808
 20
22.06571038836705
 40
0.1969552685041935
 41
0.1969552685041935
  0
LWPOLYLINE
  5
138
330
70
100
AcDbEntity
  8
A-FURN-P-SEAT
100
AcDbPolyline
 90
        2
 70
     0
 10
-4.57327707863287
 20
21.89053167608017
 40
0.0
 41
0.0
 10
-5.353452743036854
 20
21.58795205445108
 40
0.1969552685041935
 41
0.1969552685041935
  0
LWPOLYLINE
  5
139
330
70
100
AcDbEntity
  8
A-FURN-P-SEAT
100
AcDbPolyline
 90
        2
 70
     0
 10
-4.609755360867808
 20
22.06571038836705
 40
0.0
 41
0.0
 10
-2.976561898600976
 20
22.40697419123831
 40
0.1969552685041935
 41
0.1969552685041935
  0
LWPOLYLINE
  5
13A
330
70
100
AcDbEntity
  8
A-FURN-P-SEAT
100
AcDbPolyline
 90
        2
 70
     0
 10
-2.976561898600976
 20
22.40697419123831
 40
0.0
 41
0.0
 10
-1.303626211389591
 20
22.56817242770103
 40
0.1969552685041935
 41
0.1969552685041935
  0
LWPOLYLINE
  5
13B
330
70
100
AcDbEntity
  8
A-FURN-P-SEAT
100
AcDbPolyline
 90
        2
 70
     0
 10
-1.303626211389591
 20
22.56817242770103
 40
0.0
 41
0.0
 10
-0.7499177898777348
 20
22.56817242770103
 40
0.1969552685041935
 41
0.1969552685041935
  0
LWPOLYLINE
  5
13C
330
70
100
AcDbEntity
  8
A-FURN-P-SEAT
100
AcDbPolyline
 90
        2
 70
     0
 10
-1.302688507356236
 20
22.54541621597787
 40
0.0
 41
0.0
 10
0.0002288925584679
 20
22.599054816847
 40
0.1969552685041935
 41
0.1969552685041935
  0
LWPOLYLINE
  5
13D
330
70
100
AcDbEntity
  8
A-FURN-P-SEAT
100
AcDbPolyline
 90
        2
 70
     0
 10
7.651918227135247
 20
17.16956175016503
 40
0.0
 41
0.0
 10
7.637510752288896
 20
17.26995674395584
 40
0.1969552685041935
 41
0.1969552685041935
  0
LWPOLYLINE
  5
13E
330
70
100
AcDbEntity
  8
A-FURN-P-SEAT
100
AcDbPolyline
 90
        2
 70
     0
 10
7.637510752288896
 20
17.26995674395584
 40
0.0
 41
0.0
 10
7.612055859476889
 20
17.3718182666762
 40
0.1969552685041935
 41
0.1969552685041935
  0
LWPOLYLINE
  5
13F
330
70
100
AcDbEntity
  8
A-FURN-P-SEAT
100
AcDbPolyline
 90
        2
 70
     0
 10
7.622057444966792
 20
17.33178769921847
 40
0.0
 41
0.0
 10
7.541737904739171
 20
17.40101767305304
 40
0.1969552685041935
 41
0.1969552685041935
  0
LWPOLYLINE
  5
140
330
70
100
AcDbEntity
  8
A-FURN-P-SEAT
100
AcDbPolyline
 90
        2
 70
     0
 10
7.612055859476889
 20
17.3718182666762
 40
0.0
 41
0.0
 10
7.10112494055253
 20
19.09368020300258
 40
0.1969552685041935
 41
0.1969552685041935
  0
LWPOLYLINE
  5
141
330
70
100
AcDbEntity
  8
A-FURN-P-SEAT
100
AcDbPolyline
 90
        2
 70
     0
 10
7.576557232747482
 20
17.49144121551012
 40
0.0
 41
0.0
 10
7.521800713774304
 20
17.53823975685941
 40
0.1969552685041935
 41
0.1969552685041935
  0
LWPOLYLINE
  5
142
330
70
100
AcDbEntity
  8
A-FURN-P-SEAT
100
AcDbPolyline
 90
        2
 70
     0
 10
7.570324189365145
 20
17.51245417615155
 40
0.0
 41
0.0
 10
7.519174118313536
 20
17.55634368818505
 40
0.1969552685041935
 41
0.1969552685041935
  0
LWPOLYLINE
  5
143
330
70
100
AcDbEntity
  8
A-FURN-P-SEAT
100
AcDbPolyline
 90
        2
 70
     0
 10
6.60900738583097
 20
20.3657691795147
 40
0.0
 41
0.0
 10
7.10112494055253
 20
19.09368020300258
 40
0.1969552685041935
 41
0.1969552685041935
  0
LWPOLYLINE
  5
144
330
70
100
AcDbEntity
  8
A-FURN-P-SEAT
100
AcDbPolyline
 90
        2
 70
     0
 10
6.471538910983632
 20
20.72111567799471
 40
0.0
 41
0.0
 10
6.542686441312291
 20
20.53720337823666
 40
0.1969552685041935
 41
0.1969552685041935
  0
LWPOLYLINE
  5
145
330
70
100
AcDbEntity
  8
A-FURN-P-SEAT
100
AcDbPolyline
 90
        2
 70
     0
 10
6.471538910983632
 20
20.72111567799471
 40
0.0
 41
0.0
 10
6.275220792773062
 20
21.01071831089257
 40
0.1969552685041935
 41
0.1969552685041935
  0
LWPOLYLINE
  5
146
330
70
100
AcDbEntity
  8
A-FURN-P-SEAT
100
AcDbPolyline
 90
        2
 70
     0
 10
6.275220792773062
 20
21.01071831089257
 40
0.0
 41
0.0
 10
5.903345020339109
 20
21.32670152636456
 40
0.1969552685041935
 41
0.1969552685041935
  0
LWPOLYLINE
  5
147
330
70
100
AcDbEntity
  8
A-FURN-P-SEAT
100
AcDbPolyline
 90
        2
 70
     0
 10
5.903345020339109
 20
21.32670152636456
 40
0.0
 41
0.0
 10
5.362559621814902
 20
21.59747287213054
 40
0.1969552685041935
 41
0.1969552685041935
  0
LWPOLYLINE
  5
148
330
70
100
AcDbEntity
  8
A-FURN-P-SEAT
100
AcDbPolyline
 90
        2
 70
     0
 10
2.977013381149355
 20
22.40697419123831
 40
0.0
 41
0.0
 10
1.304077693937948
 20
22.56817242770103
 40
0.1969552685041935
 41
0.1969552685041935
  0
LWPOLYLINE
  5
149
330
70
100
AcDbEntity
  8
A-FURN-P-SEAT
100
AcDbPolyline
 90
        2
 70
     0
 10
1.304077693937948
 20
22.56817242770103
 40
0.0
 41
0.0
 10
0.7503694693813685
 20
22.56817242770103
 40
0.1969552685041935
 41
0.1969552685041935
  0
LWPOLYLINE
  5
14A
330
70
100
AcDbEntity
  8
A-FURN-P-SEAT
100
AcDbPolyline
 90
        2
 70
     0
 10
1.3031399899046
 20
22.54541621597787
 40
0.0
 41
0.0
 10
0.0002288925584679
 20
22.599054816847
 40
0.1969552685041935
 41
0.1969552685041935
  0
LWPOLYLINE
  5
14B
330
70
100
AcDbEntity
  8
A-FURN-P-SEAT
100
AcDbPolyline
 90
        2
 70
     0
 10
7.4592124655043
 20
18.29416845511309
 40
0.0
 41
0.0
 10
7.691341581500118
 20
18.06204524777536
 40
0.1969552685041935
 41
0.1969552685041935
  0
LWPOLYLINE
  5
14C
330
70
100
AcDbEntity
  8
A-FURN-P-SEAT
100
AcDbPolyline
 90
        2
 70
     0
 10
6.834969635414658
 20
20.09579116957025
 40
0.0
 41
0.0
 10
7.736288940280736
 20
21.37960666581398
 40
0.1969552685041935
 41
0.1969552685041935
  0
LWPOLYLINE
  5
14D
330
70
100
AcDbEntity
  8
A-FURN-P-SEAT
100
AcDbPolyline
 90
        2
 70
     0
 10
5.362559621814902
 20
21.59747287213054
 40
0.0
 41
0.0
 10
4.573728758136503
 20
21.90340624807186
 40
0.1969552685041935
 41
0.1969552685041935
  0
LWPOLYLINE
  5
14E
330
70
100
AcDbEntity
  8
A-FURN-P-SEAT
100
AcDbPolyline
 90
        2
 70
     0
 10
4.573728758136503
 20
21.90340624807186
 40
0.0
 41
0.0
 10
2.956000420507912
 20
22.24224769809598
 40
0.1969552685041935
 41
0.1969552685041935
  0
LWPOLYLINE
  5
14F
330
70
100
AcDbEntity
  8
A-FURN-P-SEAT
100
AcDbPolyline
 90
        2
 70
     0
 10
2.956000420507912
 20
22.24224769809598
 40
0.0
 41
0.0
 10
1.294033960020577
 20
22.40253225906781
 40
0.1969552685041935
 41
0.1969552685041935
  0
LWPOLYLINE
  5
150
330
70
100
AcDbEntity
  8
A-FURN-P-SEAT
100
AcDbPolyline
 90
        2
 70
     0
 10
1.294033960020577
 20
22.40253225906781
 40
0.0
 41
0.0
 10
0.0002288925584679
 20
22.45576828336812
 40
0.1969552685041935
 41
0.1969552685041935
  0
LWPOLYLINE
  5
151
330
70
100
AcDbEntity
  8
A-FURN-P-SEAT
100
AcDbPolyline
 90
        2
 70
     0
 10
7.666716264279038
 20
16.84232667715855
 40
0.0
 41
0.0
 10
7.625309176449796
 20
16.83673078406991
 40
0.1969552685041935
 41
0.1969552685041935
  0
LWPOLYLINE
  5
152
330
70
100
AcDbEntity
  8
A-FURN-P-SEAT
100
AcDbPolyline
 90
        2
 70
     0
 10
7.623728413464782
 20
16.83673078406991
 40
0.0
 41
0.0
 10
7.625309176449796
 20
16.83673078406991
 40
0.1969552685041935
 41
0.1969552685041935
  0
LWPOLYLINE
  5
153
330
70
100
AcDbEntity
  8
A-FURN-P-SEAT
100
AcDbPolyline
 90
        2
 70
     0
 10
7.625309176449796
 20
16.83673078406991
 40
0.0
 41
0.0
 10
7.690752685247296
 20
17.05140533026019
 40
0.1969552685041935
 41
0.1969552685041935
  0
LWPOLYLINE
  5
154
330
70
100
AcDbEntity
  8
A-FURN-P-SEAT
100
AcDbPolyline
 90
        2
 70
     0
 10
7.748622673104996
 20
16.9295284253335
 40
0.0
 41
0.0
 10
7.666716264279038
 20
16.84232667715855
 40
0.1969552685041935
 41
0.1969552685041935
  0
LWPOLYLINE
  5
155
330
70
100
AcDbEntity
  8
A-FURN-P-SEAT
100
AcDbPolyline
 90
        2
 70
     0
 10
7.748622673104996
 20
16.9295284253335
 40
0.0
 41
0.0
 10
7.812755641545869
 20
17.14232165479916
 40
0.1969552685041935
 41
0.1969552685041935
  0
LWPOLYLINE
  5
156
330
70
100
AcDbEntity
  8
A-FURN-P-SEAT
100
AcDbPolyline
 90
        2
 70
     0
 10
7.60198809701675
 20
16.98635258071545
 40
0.0
 41
0.0
 10
7.671043962393888
 20
16.98675535423945
 40
0.1969552685041935
 41
0.1969552685041935
  0
LWPOLYLINE
  5
157
330
70
100
AcDbEntity
  8
A-FURN-P-SEAT
100
AcDbPolyline
 90
        2
 70
     0
 10
7.690752685247296
 20
17.05140533026019
 40
0.0
 41
0.0
 10
7.651918227135247
 20
17.16956175016503
 40
0.1969552685041935
 41
0.1969552685041935
  0
LWPOLYLINE
  5
158
330
70
100
AcDbEntity
  8
A-FURN-P-SEAT
100
AcDbPolyline
 90
        2
 70
     0
 10
7.812755641545869
 20
17.14232165479916
 40
0.0
 41
0.0
 10
7.761395222267488
 20
17.25949231358504
 40
0.1969552685041935
 41
0.1969552685041935
  0
LWPOLYLINE
  5
159
330
70
100
AcDbEntity
  8
A-FURN-P-SEAT
100
AcDbPolyline
 90
        2
 70
     0
 10
6.544940397405049
 20
20.84094306639736
 40
0.0
 41
0.0
 10
7.180669264843324
 20
19.2076170532348
 40
0.1969552685041935
 41
0.1969552685041935
  0
LWPOLYLINE
  5
15A
330
70
100
AcDbEntity
  8
A-FURN-P-SEAT
100
AcDbPolyline
 90
        2
 70
     0
 10
7.625405487576109
 20
16.98463966074519
 40
0.0
 41
0.0
 10
7.602222473786277
 20
16.98474188052955
 40
0.1969552685041935
 41
0.1969552685041935
  0
LWPOLYLINE
  5
15B
330
70
100
AcDbEntity
  8
A-FURN-P-SEAT
100
AcDbPolyline
 90
        2
 70
     0
 10
7.60852169413885
 20
16.94139340461879
 40
0.0
 41
0.0
 10
7.655422258317209
 20
16.93551507767506
 40
0.1969552685041935
 41
0.1969552685041935
  0
LWPOLYLINE
  5
15C
330
70
100
AcDbEntity
  8
A-FURN-P-SEAT
100
AcDbPolyline
 90
        2
 70
     0
 10
7.625411396234149
 20
16.98463966074519
 40
0.0
 41
0.0
 10
7.658992663424662
 20
16.98288459234754
 40
0.1969552685041935
 41
0.1969552685041935
  0
LWPOLYLINE
  5
15D
330
70
100
AcDbEntity
  8
A-FURN-P-SEAT
100
AcDbPolyline
 90
        2
 70
     0
 10
7.658998572082715
 20
16.98288459234754
 40
0.0
 41
0.0
 10
7.669817718892183
 20
16.98274022413579
 40
0.1969552685041935
 41
0.1969552685041935
  0
LWPOLYLINE
  5
15E
330
70
100
AcDbEntity
  8
A-FURN-P-SEAT
100
AcDbPolyline
 90
        2
 70
     0
 10
7.691341581500118
 20
18.06204524777536
 40
0.0
 41
0.0
 10
8.695147545108703
 20
16.62845767801627
 40
0.1969552685041935
 41
0.1969552685041935
  0
LWPOLYLINE
  5
15F
330
70
100
AcDbEntity
  8
A-FURN-P-SEAT
100
AcDbPolyline
 90
        2
 70
     0
 10
7.716538068999874
 20
16.06345544749797
 40
0.0
 41
0.0
 10
8.183206836522735
 20
15.06268476153218
 40
0.1969552685041935
 41
0.1969552685041935
  0
LWPOLYLINE
  5
160
330
70
100
AcDbEntity
  8
A-FURN-P-SEAT
100
AcDbPolyline
 90
        2
 70
     0
 10
8.420156629670451
 20
14.54338718280178
 40
0.0
 41
0.0
 10
7.31495198822261
 20
16.06094899475079
 40
0.1969552685041935
 41
0.1969552685041935
  0
LWPOLYLINE
  5
161
330
70
100
AcDbEntity
  8
A-FURN-P-SEAT
100
AcDbPolyline
 90
        2
 70
     0
 10
8.52605140237916
 20
14.57922240608513
 40
0.0
 41
0.0
 10
7.419362112117319
 20
16.13825118026511
 40
0.1969552685041935
 41
0.1969552685041935
  0
LWPOLYLINE
  5
162
330
70
100
AcDbEntity
  8
A-FURN-P-SEAT
100
AcDbPolyline
 90
        2
 70
     0
 10
7.464934409964889
 20
16.42278103326748
 40
0.0
 41
0.0
 10
7.716538068999874
 20
16.06345544749797
 40
0.1969552685041935
 41
0.1969552685041935
  0
LWPOLYLINE
  5
163
330
70
100
AcDbEntity
  8
A-FURN-P-SEAT
100
AcDbPolyline
 90
        2
 70
     0
 10
9.366880032584809
 20
12.75706159013884
 40
0.0
 41
0.0
 10
8.420156629670451
 20
14.54338718280178
 40
0.1969552685041935
 41
0.1969552685041935
  0
LWPOLYLINE
  5
164
330
70
100
AcDbEntity
  8
A-FURN-P-SEAT
100
AcDbPolyline
 90
        2
 70
     0
 10
9.473087176349345
 20
12.77172747029749
 40
0.0
 41
0.0
 10
8.52605140237916
 20
14.57922240608513
 40
0.1969552685041935
 41
0.1969552685041935
  0
LWPOLYLINE
  5
165
330
70
100
AcDbEntity
  8
A-FURN-P-SEAT
100
AcDbPolyline
 90
        2
 70
     0
 10
9.705312603471462
 20
11.4216030438065
 40
0.0
 41
0.0
 10
9.366880032584809
 20
12.75706159013884
 40
0.1969552685041935
 41
0.1969552685041935
  0
LWPOLYLINE
  5
166
330
70
100
AcDbEntity
  8
A-FURN-P-SEAT
100
AcDbPolyline
 90
        2
 70
     0
 10
9.814867789845315
 20
11.42248658514108
 40
0.0
 41
0.0
 10
9.473087176349345
 20
12.77172747029749
 40
0.1969552685041935
 41
0.1969552685041935
  0
LWPOLYLINE
  5
167
330
70
100
AcDbEntity
  8
A-FURN-P-SEAT
100
AcDbPolyline
 90
        2
 70
     0
 10
9.799366425437689
 20
10.07385862478031
 40
0.0
 41
0.0
 10
9.705312603471462
 20
11.4216030438065
 40
0.1969552685041935
 41
0.1969552685041935
  0
LWPOLYLINE
  5
168
330
70
100
AcDbEntity
  8
A-FURN-P-SEAT
100
AcDbPolyline
 90
        2
 70
     0
 10
9.709201485248094
 20
7.536154197521227
 40
0.0
 41
0.0
 10
9.910081678343026
 20
10.06630932933854
 40
0.1969552685041935
 41
0.1969552685041935
  0
LWPOLYLINE
  5
169
330
70
100
AcDbEntity
  8
A-FURN-P-SEAT
100
AcDbPolyline
 90
        2
 70
     0
 10
9.798687323671892
 20
10.06492690030882
 40
0.0
 41
0.0
 10
9.799366425437689
 20
10.07385862478031
 40
0.1969552685041935
 41
0.1969552685041935
  0
LWPOLYLINE
  5
16A
330
70
100
AcDbEntity
  8
A-FURN-P-SEAT
100
AcDbPolyline
 90
        2
 70
     0
 10
9.910081678343026
 20
10.06630932933854
 40
0.0
 41
0.0
 10
9.814867789845315
 20
11.42248658514108
 40
0.1969552685041935
 41
0.1969552685041935
  0
LWPOLYLINE
  5
16B
330
70
100
AcDbEntity
  8
A-FURN-P-SEAT
100
AcDbPolyline
 90
        2
 70
     0
 10
8.695147545108703
 20
16.62845767801627
 40
0.0
 41
0.0
 10
9.434769725817126
 20
15.0423388883853
 40
0.1969552685041935
 41
0.1969552685041935
  0
LWPOLYLINE
  5
16C
330
70
100
AcDbEntity
  8
A-FURN-P-SEAT
100
AcDbPolyline
 90
        2
 70
     0
 10
9.434769725817126
 20
15.0423388883853
 40
0.0
 41
0.0
 10
9.887722331486095
 20
13.35188245439826
 40
0.1969552685041935
 41
0.1969552685041935
  0
LWPOLYLINE
  5
16D
330
70
100
AcDbEntity
  8
A-FURN-P-SEAT
100
AcDbPolyline
 90
        2
 70
     0
 10
9.735594082093463
 20
7.868582390092342
 40
0.0
 41
0.0
 10
11.68416374369476
 20
7.270191317680655
 40
0.1969552685041935
 41
0.1969552685041935
  0
LWPOLYLINE
  5
16E
330
70
100
AcDbEntity
  8
A-FURN-P-SEAT
100
AcDbPolyline
 90
        2
 70
     0
 10
9.79876551491349
 20
10.06470453781071
 40
0.0
 41
0.0
 10
9.798687323671892
 20
10.06489676615274
 40
0.1969552685041935
 41
0.1969552685041935
  0
LWPOLYLINE
  5
16F
330
70
100
AcDbEntity
  8
A-FURN-P-SEAT
100
AcDbPolyline
 90
        2
 70
     0
 10
9.825139991874145
 20
8.996422903594066
 40
0.0
 41
0.0
 10
12.00243695807367
 20
8.249750315138953
 40
0.1969552685041935
 41
0.1969552685041935
  0
LWPOLYLINE
  5
170
330
70
100
AcDbEntity
  8
A-FURN-P-SEAT
100
AcDbPolyline
 90
        2
 70
     0
 10
9.887722331486095
 20
13.35188245439826
 40
0.0
 41
0.0
 10
10.04025315744754
 20
11.60845431008124
 40
0.1969552685041935
 41
0.1969552685041935
  0
LWPOLYLINE
  5
171
330
70
100
AcDbEntity
  8
A-FURN-P-SEAT
100
AcDbPolyline
 90
        2
 70
     0
 10
10.04025315744754
 20
11.60845431008124
 40
0.0
 41
0.0
 10
9.90796598484875
 20
10.09642851681928
 40
0.1969552685041935
 41
0.1969552685041935
  0
LWPOLYLINE
  5
172
330
70
100
AcDbEntity
  8
A-FURN-P-SEAT
100
AcDbPolyline
 90
        2
 70
     0
 10
12.86715764103575
 20
8.001098030802495
 40
0.0
 41
0.0
 10
12.52784724051737
 20
8.247616698715319
 40
0.1969552685041935
 41
0.1969552685041935
  0
LWPOLYLINE
  5
173
330
70
100
AcDbEntity
  8
A-FURN-P-SEAT
100
AcDbPolyline
 90
        2
 70
     0
 10
12.46181483546704
 20
8.125042572137999
 40
0.0
 41
0.0
 10
12.66021260435776
 20
8.011033439322318
 40
0.1969552685041935
 41
0.1969552685041935
  0
LWPOLYLINE
  5
174
330
70
100
AcDbEntity
  8
A-FURN-P-SEAT
100
AcDbPolyline
 90
        2
 70
     0
 10
12.5927977702778
 20
8.01804780425482
 40
0.0
 41
0.0
 10
12.46684566389046
 20
8.073850155703667
 40
0.1969552685041935
 41
0.1969552685041935
  0
LWPOLYLINE
  5
175
330
70
100
AcDbEntity
  8
A-FURN-P-SEAT
100
AcDbPolyline
 90
        2
 70
     0
 10
12.27721732832987
 20
8.155642527429108
 40
0.0
 41
0.0
 10
12.46684566389046
 20
8.073850155703667
 40
0.1969552685041935
 41
0.1969552685041935
  0
LWPOLYLINE
  5
176
330
70
100
AcDbEntity
  8
A-FURN-P-SEAT
100
AcDbPolyline
 90
        2
 70
     0
 10
12.46181483546704
 20
8.125042572137999
 40
0.0
 41
0.0
 10
12.27721732832987
 20
8.155642527429108
 40
0.1969552685041935
 41
0.1969552685041935
  0
LWPOLYLINE
  5
177
330
70
100
AcDbEntity
  8
A-FURN-P-SEAT
100
AcDbPolyline
 90
        2
 70
     0
 10
12.27721732832987
 20
8.155642527429108
 40
0.0
 41
0.0
 10
12.27537816003258
 20
8.156147323782306
 40
0.1969552685041935
 41
0.1969552685041935
  0
LWPOLYLINE
  5
178
330
70
100
AcDbEntity
  8
A-FURN-P-SEAT
100
AcDbPolyline
 90
        2
 70
     0
 10
12.10844576788283
 20
8.247616698715319
 40
0.0
 41
0.0
 10
12.0764454606326
 20
8.224367704910491
 40
0.1969552685041935
 41
0.1969552685041935
  0
LWPOLYLINE
  5
179
330
70
100
AcDbEntity
  8
A-FURN-P-SEAT
100
AcDbPolyline
 90
        2
 70
     0
 10
12.52784724051737
 20
8.247616698715319
 40
0.0
 41
0.0
 10
12.10844576788283
 20
8.247616698715319
 40
0.1969552685041935
 41
0.1969552685041935
  0
LWPOLYLINE
  5
17A
330
70
100
AcDbEntity
  8
A-FURN-P-SEAT
100
AcDbPolyline
 90
        2
 70
     0
 10
12.01907416351475
 20
8.522673594168509
 40
0.0
 41
0.0
 10
11.75854488562169
 20
8.333387763819928
 40
0.1969552685041935
 41
0.1969552685041935
  0
LWPOLYLINE
  5
17B
330
70
100
AcDbEntity
  8
A-FURN-P-SEAT
100
AcDbPolyline
 90
        2
 70
     0
 10
8.474775083000444
 20
2.18338623741647
 40
0.0
 41
0.0
 10
8.607921768390987
 20
2.42387630151552
 40
0.1969552685041935
 41
0.1969552685041935
  0
LWPOLYLINE
  5
17C
330
70
100
AcDbEntity
  8
A-FURN-P-SEAT
100
AcDbPolyline
 90
        2
 70
     0
 10
8.607921768390987
 20
2.42387630151552
 40
0.0
 41
0.0
 10
8.913488610577608
 20
3.341448158183311
 40
0.1969552685041935
 41
0.1969552685041935
  0
LWPOLYLINE
  5
17D
330
70
100
AcDbEntity
  8
A-FURN-P-SEAT
100
AcDbPolyline
 90
        2
 70
     0
 10
9.175821013953829
 20
4.440798501230347
 40
0.0
 41
0.0
 10
8.913488610577608
 20
3.341448158183311
 40
0.1969552685041935
 41
0.1969552685041935
  0
LWPOLYLINE
  5
17E
330
70
100
AcDbEntity
  8
A-FURN-P-SEAT
100
AcDbPolyline
 90
        2
 70
     0
 10
9.175821013953829
 20
4.440798501230347
 40
0.0
 41
0.0
 10
9.709201485248094
 20
7.536154197521227
 40
0.1969552685041935
 41
0.1969552685041935
  0
LWPOLYLINE
  5
17F
330
70
100
AcDbEntity
  8
A-FURN-P-SEAT
100
AcDbPolyline
 90
        2
 70
     0
 10
11.43316119213924
 20
7.347271140696648
 40
0.0
 41
0.0
 10
11.53516097745801
 20
7.033349652975402
 40
0.1969552685041935
 41
0.1969552685041935
  0
LWPOLYLINE
  5
180
330
70
100
AcDbEntity
  8
A-FURN-P-SEAT
100
AcDbPolyline
 90
        2
 70
     0
 10
11.53516097745801
 20
7.033349652975402
 40
0.0
 41
0.0
 10
12.01907416351475
 20
6.681765787944868
 40
0.1969552685041935
 41
0.1969552685041935
  0
LWPOLYLINE
  5
181
330
70
100
AcDbEntity
  8
A-FURN-P-SEAT
100
AcDbPolyline
 90
        2
 70
     0
 10
11.95999014338199
 20
7.185483811026188
 40
0.0
 41
0.0
 10
11.68416374369476
 20
7.270191317680655
 40
0.1969552685041935
 41
0.1969552685041935
  0
LWPOLYLINE
  5
182
330
70
100
AcDbEntity
  8
A-FURN-P-SEAT
100
AcDbPolyline
 90
        2
 70
     0
 10
11.95999014338199
 20
7.185483811026188
 40
0.0
 41
0.0
 10
11.96177514898044
 20
7.184816723531639
 40
0.1969552685041935
 41
0.1969552685041935
  0
LWPOLYLINE
  5
183
330
70
100
AcDbEntity
  8
A-FURN-P-SEAT
100
AcDbPolyline
 90
        2
 70
     0
 10
12.12910420904097
 20
7.101071146408457
 40
0.0
 41
0.0
 10
11.96177514898044
 20
7.184816723531639
 40
0.1969552685041935
 41
0.1969552685041935
  0
LWPOLYLINE
  5
184
330
70
100
AcDbEntity
  8
A-FURN-P-SEAT
100
AcDbPolyline
 90
        2
 70
     0
 10
12.16326846382625
 20
7.139526859539046
 40
0.0
 41
0.0
 10
11.96177514898044
 20
7.184816723531639
 40
0.1969552685041935
 41
0.1969552685041935
  0
LWPOLYLINE
  5
185
330
70
100
AcDbEntity
  8
A-FURN-P-SEAT
100
AcDbPolyline
 90
        2
 70
     0
 10
12.00243695807367
 20
8.249750315138953
 40
0.0
 41
0.0
 10
12.27537816003258
 20
8.156147323782306
 40
0.1969552685041935
 41
0.1969552685041935
  0
LWPOLYLINE
  5
186
330
70
100
AcDbEntity
  8
A-FURN-P-SEAT
100
AcDbPolyline
 90
        2
 70
     0
 10
12.01907416351475
 20
6.681765787944868
 40
0.0
 41
0.0
 10
12.61722495049877
 20
6.681765787944868
 40
0.1969552685041935
 41
0.1969552685041935
  0
LWPOLYLINE
  5
187
330
70
100
AcDbEntity
  8
A-FURN-P-SEAT
100
AcDbPolyline
 90
        2
 70
     0
 10
12.12910420904097
 20
7.101071146408457
 40
0.0
 41
0.0
 10
12.35662949563549
 20
7.076686114614858
 40
0.1969552685041935
 41
0.1969552685041935
  0
LWPOLYLINE
  5
188
330
70
100
AcDbEntity
  8
A-FURN-P-SEAT
100
AcDbPolyline
 90
        2
 70
     0
 10
12.16326846382625
 20
7.139526859539046
 40
0.0
 41
0.0
 10
12.29796597500098
 20
7.110633915560129
 40
0.1969552685041935
 41
0.1969552685041935
  0
LWPOLYLINE
  5
189
330
70
100
AcDbEntity
  8
A-FURN-P-SEAT
100
AcDbPolyline
 90
        2
 70
     0
 10
12.35662949563549
 20
7.076686114614858
 40
0.0
 41
0.0
 10
12.65370914139175
 20
7.210421893213606
 40
0.1969552685041935
 41
0.1969552685041935
  0
LWPOLYLINE
  5
18A
330
70
100
AcDbEntity
  8
A-FURN-P-SEAT
100
AcDbPolyline
 90
        2
 70
     0
 10
12.61722495049877
 20
6.681765787944868
 40
0.0
 41
0.0
 10
13.10113203094219
 20
7.033349652975402
 40
0.1969552685041935
 41
0.1969552685041935
  0
LWPOLYLINE
  5
18B
330
70
100
AcDbEntity
  8
A-FURN-P-SEAT
100
AcDbPolyline
 90
        2
 70
     0
 10
12.65370914139175
 20
7.210421893213606
 40
0.0
 41
0.0
 10
12.8080673183344
 20
7.446500159298238
 40
0.1969552685041935
 41
0.1969552685041935
  0
LWPOLYLINE
  5
18C
330
70
100
AcDbEntity
  8
A-FURN-P-SEAT
100
AcDbPolyline
 90
        2
 70
     0
 10
12.66021260435776
 20
8.011033439322318
 40
0.0
 41
0.0
 10
12.82194577132954
 20
7.72821690020055
 40
0.1969552685041935
 41
0.1969552685041935
  0
LWPOLYLINE
  5
18D
330
70
100
AcDbEntity
  8
A-FURN-P-SEAT
100
AcDbPolyline
 90
        2
 70
     0
 10
12.82194577132954
 20
7.72821690020055
 40
0.0
 41
0.0
 10
12.8080673183344
 20
7.446500159298238
 40
0.1969552685041935
 41
0.1969552685041935
  0
LWPOLYLINE
  5
18E
330
70
100
AcDbEntity
  8
A-FURN-P-SEAT
100
AcDbPolyline
 90
        2
 70
     0
 10
12.99675814681689
 20
7.602216736727768
 40
0.0
 41
0.0
 10
12.86715764103575
 20
7.203341351310882
 40
0.1969552685041935
 41
0.1969552685041935
  0
LWPOLYLINE
  5
18F
330
70
100
AcDbEntity
  8
A-FURN-P-SEAT
100
AcDbPolyline
 90
        2
 70
     0
 10
12.99675814681689
 20
7.602216736727768
 40
0.0
 41
0.0
 10
12.86715764103575
 20
8.001098030802495
 40
0.1969552685041935
 41
0.1969552685041935
  0
LWPOLYLINE
  5
190
330
70
100
AcDbEntity
  8
A-FURN-P-SEAT
100
AcDbPolyline
 90
        2
 70
     0
 10
4.610207040371442
 20
22.06571038836705
 40
0.0
 41
0.0
 10
2.977013381149355
 20
22.40697419123831
 40
0.1969552685041935
 41
0.1969552685041935
  0
LWPOLYLINE
  5
191
330
70
100
AcDbEntity
  8
A-FURN-P-SEAT
100
AcDbPolyline
 90
        2
 70
     0
 10
5.410746500851878
 20
21.75676576332557
 40
0.0
 41
0.0
 10
4.610207040371442
 20
22.06571038836705
 40
0.1969552685041935
 41
0.1969552685041935
  0
LWPOLYLINE
  5
192
330
70
100
AcDbEntity
  8
A-FURN-P-SEAT
100
AcDbPolyline
 90
        2
 70
     0
 10
5.954008414922249
 20
21.48362012179791
 40
0.0
 41
0.0
 10
5.410746500851878
 20
21.75676576332557
 40
0.1969552685041935
 41
0.1969552685041935
  0
LWPOLYLINE
  5
193
330
70
100
AcDbEntity
  8
A-FURN-P-SEAT
100
AcDbPolyline
 90
        2
 70
     0
 10
6.328685088229597
 20
21.16582787218454
 40
0.0
 41
0.0
 10
5.954008414922249
 20
21.48362012179791
 40
0.1969552685041935
 41
0.1969552685041935
  0
LWPOLYLINE
  5
194
330
70
100
AcDbEntity
  8
A-FURN-P-SEAT
100
AcDbPolyline
 90
        2
 70
     0
 10
6.527437573558891
 20
20.87504705287051
 40
0.0
 41
0.0
 10
6.544940397405049
 20
20.84094306639736
 40
0.1969552685041935
 41
0.1969552685041935
  0
LWPOLYLINE
  5
195
330
70
100
AcDbEntity
  8
A-FURN-P-SEAT
100
AcDbPolyline
 90
        2
 70
     0
 10
7.31495198822261
 20
16.06094899475079
 40
0.0
 41
0.0
 10
7.061581246518606
 20
16.36420771814596
 40
0.1969552685041935
 41
0.1969552685041935
  0
LWPOLYLINE
  5
196
330
70
100
AcDbEntity
  8
A-FURN-P-SEAT
100
AcDbPolyline
 90
        2
 70
     0
 10
12.61722495049877
 20
8.522673594168509
 40
0.0
 41
0.0
 10
12.01907416351475
 20
8.522673594168509
 40
0.1969552685041935
 41
0.1969552685041935
  0
LWPOLYLINE
  5
197
330
70
100
AcDbEntity
  8
A-FURN-P-SEAT
100
AcDbPolyline
 90
        2
 70
     0
 10
12.42688737901633
 20
7.108313782497134
 40
0.0
 41
0.0
 10
12.47862654327603
 20
7.108313782497134
 40
0.1969552685041935
 41
0.1969552685041935
  0
LWPOLYLINE
  5
198
330
70
100
AcDbEntity
  8
A-FURN-P-SEAT
100
AcDbPolyline
 90
        2
 70
     0
 10
12.47862654327603
 20
7.108313782497134
 40
0.0
 41
0.0
 10
12.56291315652186
 20
7.169549735893497
 40
0.1969552685041935
 41
0.1969552685041935
  0
LWPOLYLINE
  5
199
330
70
100
AcDbEntity
  8
A-FURN-P-SEAT
100
AcDbPolyline
 90
        2
 70
     0
 10
13.10113203094219
 20
8.171089729137975
 40
0.0
 41
0.0
 10
12.61722495049877
 20
8.522673594168509
 40
0.1969552685041935
 41
0.1969552685041935
  0
LWPOLYLINE
  5
19A
330
70
100
AcDbEntity
  8
A-FURN-P-SEAT
100
AcDbPolyline
 90
        2
 70
     0
 10
12.68496436686123
 20
7.258224118611224
 40
0.0
 41
0.0
 10
12.73829039971927
 20
7.296968371210141
 40
0.1969552685041935
 41
0.1969552685041935
  0
LWPOLYLINE
  5
19B
330
70
100
AcDbEntity
  8
A-FURN-P-SEAT
100
AcDbPolyline
 90
        2
 70
     0
 10
12.73829039971927
 20
7.907470813947838
 40
0.0
 41
0.0
 10
12.70603759581482
 20
7.93090021877856
 40
0.1969552685041935
 41
0.1969552685041935
  0
LWPOLYLINE
  5
19C
330
70
100
AcDbEntity
  8
A-FURN-P-SEAT
100
AcDbPolyline
 90
        2
 70
     0
 10
12.76594508592522
 20
7.382072545775599
 40
0.0
 41
0.0
 10
12.73829039971927
 20
7.296968371210141
 40
0.1969552685041935
 41
0.1969552685041935
  0
LWPOLYLINE
  5
19D
330
70
100
AcDbEntity
  8
A-FURN-P-SEAT
100
AcDbPolyline
 90
        2
 70
     0
 10
12.83747116427992
 20
7.602216736727768
 40
0.0
 41
0.0
 10
12.81185398032665
 20
7.523375739700668
 40
0.1969552685041935
 41
0.1969552685041935
  0
LWPOLYLINE
  5
19E
330
70
100
AcDbEntity
  8
A-FURN-P-SEAT
100
AcDbPolyline
 90
        2
 70
     0
 10
13.28597002046221
 20
7.602216736727768
 40
0.0
 41
0.0
 10
13.10113203094219
 20
8.171089729137975
 40
0.1969552685041935
 41
0.1969552685041935
  0
LWPOLYLINE
  5
19F
330
70
100
AcDbEntity
  8
A-FURN-P-SEAT
100
AcDbPolyline
 90
        2
 70
     0
 10
13.28597002046221
 20
7.602216736727768
 40
0.0
 41
0.0
 10
13.10113203094219
 20
7.033349652975402
 40
0.1969552685041935
 41
0.1969552685041935
  0
LWPOLYLINE
  5
1A0
330
70
100
AcDbEntity
  8
A-FURN-P-SEAT
100
AcDbPolyline
 90
        2
 70
     0
 10
11.39983833026104
 20
7.357501194298038
 40
0.0
 41
0.0
 10
11.51089017972024
 20
7.015714475188815
 40
0.1969552685041935
 41
0.1969552685041935
  0
LWPOLYLINE
  5
1A1
330
70
100
AcDbEntity
  8
A-FURN-P-SEAT
100
AcDbPolyline
 90
        2
 70
     0
 10
11.51089017972024
 20
7.015714475188815
 40
0.0
 41
0.0
 10
12.00980584248949
 20
6.65323346906257
 40
0.1969552685041935
 41
0.1969552685041935
  0
LWPOLYLINE
  5
1A2
330
70
100
AcDbEntity
  8
A-FURN-P-SEAT
100
AcDbPolyline
 90
        2
 70
     0
 10
12.00980584248949
 20
8.551199807437569
 40
0.0
 41
0.0
 10
11.72557674018205
 20
8.344693784053106
 40
0.1969552685041935
 41
0.1969552685041935
  0
LWPOLYLINE
  5
1A3
330
70
100
AcDbEntity
  8
A-FURN-P-SEAT
100
AcDbPolyline
 90
        2
 70
     0
 10
12.62649327152405
 20
8.551199807437569
 40
0.0
 41
0.0
 10
12.00980584248949
 20
8.551199807437569
 40
0.1969552685041935
 41
0.1969552685041935
  0
LWPOLYLINE
  5
1A4
330
70
100
AcDbEntity
  8
A-FURN-P-SEAT
100
AcDbPolyline
 90
        2
 70
     0
 10
12.00980584248949
 20
6.65323346906257
 40
0.0
 41
0.0
 10
12.62649327152405
 20
6.65323346906257
 40
0.1969552685041935
 41
0.1969552685041935
  0
LWPOLYLINE
  5
1A5
330
70
100
AcDbEntity
  8
A-FURN-P-SEAT
100
AcDbPolyline
 90
        2
 70
     0
 10
13.12540282867997
 20
8.188718801311324
 40
0.0
 41
0.0
 10
12.62649327152405
 20
8.551199807437569
 40
0.1969552685041935
 41
0.1969552685041935
  0
LWPOLYLINE
  5
1A6
330
70
100
AcDbEntity
  8
A-FURN-P-SEAT
100
AcDbPolyline
 90
        2
 70
     0
 10
12.62649327152405
 20
6.65323346906257
 40
0.0
 41
0.0
 10
13.12540282867997
 20
7.015714475188815
 40
0.1969552685041935
 41
0.1969552685041935
  0
LWPOLYLINE
  5
1A7
330
70
100
AcDbEntity
  8
A-FURN-P-SEAT
100
AcDbPolyline
 90
        2
 70
     0
 10
12.7630961279663
 20
7.831124255396616
 40
0.0
 41
0.0
 10
12.73829039971927
 20
7.907470813947838
 40
0.1969552685041935
 41
0.1969552685041935
  0
LWPOLYLINE
  5
1A8
330
70
100
AcDbEntity
  8
A-FURN-P-SEAT
100
AcDbPolyline
 90
        2
 70
     0
 10
12.83747116427992
 20
7.602216736727768
 40
0.0
 41
0.0
 10
12.81859792567551
 20
7.660297072812227
 40
0.1969552685041935
 41
0.1969552685041935
  0
LWPOLYLINE
  5
1A9
330
70
100
AcDbEntity
  8
A-FURN-P-SEAT
100
AcDbPolyline
 90
        2
 70
     0
 10
13.31596886827389
 20
7.602216736727768
 40
0.0
 41
0.0
 10
13.12540282867997
 20
7.015714475188815
 40
0.1969552685041935
 41
0.1969552685041935
  0
LWPOLYLINE
  5
1AA
330
70
100
AcDbEntity
  8
A-FURN-P-SEAT
100
AcDbPolyline
 90
        2
 70
     0
 10
-12.12859856379376
 20
7.101065040795219
 40
0.0
 41
0.0
 10
-12.35612365343303
 20
7.07668000900162
 40
0.1969552685041935
 41
0.1969552685041935
  0
LWPOLYLINE
  5
1AB
330
70
100
AcDbEntity
  8
A-FURN-P-SEAT
100
AcDbPolyline
 90
        2
 70
     0
 10
-12.35612365343303
 20
7.07668000900162
 40
0.0
 41
0.0
 10
-12.65320054181553
 20
7.210421893213606
 40
0.1969552685041935
 41
0.1969552685041935
  0
LWPOLYLINE
  5
1AC
330
70
100
AcDbEntity
  8
A-FURN-P-SEAT
100
AcDbPolyline
 90
        2
 70
     0
 10
-12.12859856379376
 20
7.101065040795219
 40
0.0
 41
0.0
 10
-11.96126950373323
 20
7.184804709260333
 40
0.1969552685041935
 41
0.1969552685041935
  0
LWPOLYLINE
  5
1AD
330
70
100
AcDbEntity
  8
A-FURN-P-SEAT
100
AcDbPolyline
 90
        2
 70
     0
 10
-12.29746032975379
 20
7.110633915560129
 40
0.0
 41
0.0
 10
-12.16276281857903
 20
7.139520753925808
 40
0.1969552685041935
 41
0.1969552685041935
  0
LWPOLYLINE
  5
1AE
330
70
100
AcDbEntity
  8
A-FURN-P-SEAT
100
AcDbPolyline
 90
        2
 70
     0
 10
-11.96126950373323
 20
7.184804709260333
 40
0.0
 41
0.0
 10
-12.16276281857903
 20
7.139520753925808
 40
0.1969552685041935
 41
0.1969552685041935
  0
LWPOLYLINE
  5
1AF
330
70
100
AcDbEntity
  8
A-FURN-P-SEAT
100
AcDbPolyline
 90
        2
 70
     0
 10
-11.96126950373323
 20
7.184804709260333
 40
0.0
 41
0.0
 10
-11.95948430117952
 20
7.18547790236812
 40
0.1969552685041935
 41
0.1969552685041935
  0
LWPOLYLINE
  5
1B0
330
70
100
AcDbEntity
  8
A-FURN-P-SEAT
100
AcDbPolyline
 90
        2
 70
     0
 10
-11.68365809844755
 20
7.270185212067417
 40
0.0
 41
0.0
 10
-11.95948430117952
 20
7.18547790236812
 40
0.1969552685041935
 41
0.1969552685041935
  0
LWPOLYLINE
  5
1B1
330
70
100
AcDbEntity
  8
A-FURN-P-SEAT
100
AcDbPolyline
 90
        2
 70
     0
 10
-12.65320054181553
 20
7.210421893213606
 40
0.0
 41
0.0
 10
-12.80755871875816
 20
7.446494053684773
 40
0.1969552685041935
 41
0.1969552685041935
  0
LWPOLYLINE
  5
1B2
330
70
100
AcDbEntity
  8
A-FURN-P-SEAT
100
AcDbPolyline
 90
        2
 70
     0
 10
-9.735142402589822
 20
7.868558361549503
 40
0.0
 41
0.0
 10
-11.68365809844755
 20
7.270185212067417
 40
0.1969552685041935
 41
0.1969552685041935
  0
LWPOLYLINE
  5
1B3
330
70
100
AcDbEntity
  8
A-FURN-P-SEAT
100
AcDbPolyline
 90
        2
 70
     0
 10
13.31596886827389
 20
7.602216736727768
 40
0.0
 41
0.0
 10
13.12540282867997
 20
8.188718801311324
 40
0.1969552685041935
 41
0.1969552685041935
  0
LWPOLYLINE
  5
1B4
330
70
100
AcDbEntity
  8
A-FURN-P-SEAT
100
AcDbPolyline
 90
        2
 70
     0
 10
-11.72468033568215
 20
8.344825941038152
 40
0.0
 41
0.0
 10
-12.00940832568469
 20
8.551686680861394
 40
0.1969552685041935
 41
0.1969552685041935
  0
LWPOLYLINE
  5
1B5
330
70
100
AcDbEntity
  8
A-FURN-P-SEAT
100
AcDbPolyline
 90
        2
 70
     0
 10
-12.52744972371257
 20
6.957303648163815
 40
0.0
 41
0.0
 10
-12.10804825107804
 20
6.957303648163815
 40
0.1969552685041935
 41
0.1969552685041935
  0
LWPOLYLINE
  5
1B6
330
70
100
AcDbEntity
  8
A-FURN-P-SEAT
100
AcDbPolyline
 90
        2
 70
     0
 10
-12.86676012423096
 20
7.203828224734479
 40
0.0
 41
0.0
 10
-12.52744972371257
 20
6.957303648163815
 40
0.1969552685041935
 41
0.1969552685041935
  0
LWPOLYLINE
  5
1B7
330
70
100
AcDbEntity
  8
A-FURN-P-SEAT
100
AcDbPolyline
 90
        2
 70
     0
 10
-12.10804825107804
 20
6.957303648163815
 40
0.0
 41
0.0
 10
-11.76873804751492
 20
7.203828224734479
 40
0.1969552685041935
 41
0.1969552685041935
  0
LWPOLYLINE
  5
1B8
330
70
100
AcDbEntity
  8
A-FURN-P-SEAT
100
AcDbPolyline
 90
        2
 70
     0
 10
-13.31557135146909
 20
7.602703610151365
 40
0.0
 41
0.0
 10
-13.12500531187517
 20
7.016201348612639
 40
0.1969552685041935
 41
0.1969552685041935
  0
LWPOLYLINE
  5
1B9
330
70
100
AcDbEntity
  8
A-FURN-P-SEAT
100
AcDbPolyline
 90
        2
 70
     0
 10
-11.43294999501846
 20
7.347175026525746
 40
0.0
 41
0.0
 10
-11.53476346065321
 20
7.033830420785761
 40
0.1969552685041935
 41
0.1969552685041935
  0
LWPOLYLINE
  5
1BA
330
70
100
AcDbEntity
  8
A-FURN-P-SEAT
100
AcDbPolyline
 90
        2
 70
     0
 10
-12.56091675684735
 20
7.16887654278571
 40
0.0
 41
0.0
 10
-12.47822902647122
 20
7.108794747262891
 40
0.1969552685041935
 41
0.1969552685041935
  0
LWPOLYLINE
  5
1BB
330
70
100
AcDbEntity
  8
A-FURN-P-SEAT
100
AcDbPolyline
 90
        2
 70
     0
 10
-12.47822902647122
 20
7.108794747262891
 40
0.0
 41
0.0
 10
-12.42746951771706
 20
7.108794747262891
 40
0.1969552685041935
 41
0.1969552685041935
  0
LWPOLYLINE
  5
1BC
330
70
100
AcDbEntity
  8
A-FURN-P-SEAT
100
AcDbPolyline
 90
        2
 70
     0
 10
-12.73789288291448
 20
7.297455244633965
 40
0.0
 41
0.0
 10
-12.68496647229621
 20
7.25899953150315
 40
0.1969552685041935
 41
0.1969552685041935
  0
LWPOLYLINE
  5
1BD
330
70
100
AcDbEntity
  8
A-FURN-P-SEAT
100
AcDbPolyline
 90
        2
 70
     0
 10
-13.12500531187517
 20
8.189211583392989
 40
0.0
 41
0.0
 10
-13.31557135146909
 20
7.602703610151365
 40
0.1969552685041935
 41
0.1969552685041935
  0
LWPOLYLINE
  5
1BE
330
70
100
AcDbEntity
  8
A-FURN-P-SEAT
100
AcDbPolyline
 90
        2
 70
     0
 10
-12.62609575471925
 20
8.551686680861394
 40
0.0
 41
0.0
 10
-13.12500531187517
 20
8.189211583392989
 40
0.1969552685041935
 41
0.1969552685041935
  0
LWPOLYLINE
  5
1BF
330
70
100
AcDbEntity
  8
A-FURN-P-SEAT
100
AcDbPolyline
 90
        2
 70
     0
 10
-12.00940832568469
 20
8.551686680861394
 40
0.0
 41
0.0
 10
-12.62609575471925
 20
8.551686680861394
 40
0.1969552685041935
 41
0.1969552685041935
  0
LWPOLYLINE
  5
1C0
330
70
100
AcDbEntity
  8
A-FURN-P-SEAT
100
AcDbPolyline
 90
        2
 70
     0
 10
-8.161928516061657
 20
22.48216068325814
 40
0.0
 41
0.0
 10
-8.291529021842777
 20
22.08327938918342
 40
0.1969552685041935
 41
0.1969552685041935
  0
LWPOLYLINE
  5
1C1
330
70
100
AcDbEntity
  8
A-FURN-P-SEAT
100
AcDbPolyline
 90
        2
 70
     0
 10
-8.291529021842777
 20
22.08327938918342
 40
0.0
 41
0.0
 10
-8.161928516061657
 20
21.68439809510847
 40
0.1969552685041935
 41
0.1969552685041935
  0
LWPOLYLINE
  5
1C2
330
70
100
AcDbEntity
  8
A-FURN-P-SEAT
100
AcDbPolyline
 90
        2
 70
     0
 10
-8.161928516061657
 20
21.68439809510847
 40
0.0
 41
0.0
 10
-7.822618312498541
 20
21.43787942719564
 40
0.1969552685041935
 41
0.1969552685041935
  0
LWPOLYLINE
  5
1C3
330
70
100
AcDbEntity
  8
A-FURN-P-SEAT
100
AcDbPolyline
 90
        2
 70
     0
 10
-7.822618312498541
 20
21.43787942719564
 40
0.0
 41
0.0
 10
-7.776703312483761
 20
21.43787942719564
 40
0.1969552685041935
 41
0.1969552685041935
  0
LWPOLYLINE
  5
1C4
330
70
100
AcDbEntity
  8
A-FURN-P-SEAT
100
AcDbPolyline
 90
        2
 70
     0
 10
-0.8070005475272381
 20
-0.7608840876284831
 40
0.0
 41
0.0
 10
-0.9975663901658862
 20
-1.347389106541186
 40
0.1969552685041935
 41
0.1969552685041935
  0
LWPOLYLINE
  5
1C5
330
70
100
AcDbEntity
  8
A-FURN-P-SEAT
100
AcDbPolyline
 90
        2
 70
     0
 10
-0.9975663901658862
 20
-1.347389106541186
 40
0.0
 41
0.0
 10
-0.8070005475272381
 20
-1.933891171124741
 40
0.1969552685041935
 41
0.1969552685041935
  0
LWPOLYLINE
  5
1C6
330
70
100
AcDbEntity
  8
A-FURN-P-SEAT
100
AcDbPolyline
 90
        2
 70
     0
 10
-0.519471459696014
 20
-0.551982694268645
 40
0.0
 41
0.0
 10
-0.8070005475272381
 20
-0.7608840876284831
 40
0.1969552685041935
 41
0.1969552685041935
  0
LWPOLYLINE
  5
1C7
330
70
100
AcDbEntity
  8
A-FURN-P-SEAT
100
AcDbPolyline
 90
        2
 70
     0
 10
0.8075061927744329
 20
-0.7608840876284831
 40
0.0
 41
0.0
 10
0.5199832105565534
 20
-0.5519856485975652
 40
0.1969552685041935
 41
0.1969552685041935
  0
LWPOLYLINE
  5
1C8
330
70
100
AcDbEntity
  8
A-FURN-P-SEAT
100
AcDbPolyline
 90
        2
 70
     0
 10
0.9980781410264185
 20
-1.347389106541186
 40
0.0
 41
0.0
 10
0.8075061927744329
 20
-0.7608840876284831
 40
0.1969552685041935
 41
0.1969552685041935
  0
LWPOLYLINE
  5
1C9
330
70
100
AcDbEntity
  8
A-FURN-P-SEAT
100
AcDbPolyline
 90
        2
 70
     0
 10
0.9980781410264185
 20
-1.347389106541186
 40
0.0
 41
0.0
 10
0.8075061927744329
 20
-1.933891171124741
 40
0.1969552685041935
 41
0.1969552685041935
  0
LWPOLYLINE
  5
1CA
330
70
100
AcDbEntity
  8
A-FURN-P-SEAT
100
AcDbPolyline
 90
        2
 70
     0
 10
-12.82144012608235
 20
7.728210794587312
 40
0.0
 41
0.0
 10
-12.80755871875816
 20
7.446494053684773
 40
0.1969552685041935
 41
0.1969552685041935
  0
LWPOLYLINE
  5
1CB
330
70
100
AcDbEntity
  8
A-FURN-P-SEAT
100
AcDbPolyline
 90
        2
 70
     0
 10
-12.65970695911056
 20
8.011021425050785
 40
0.0
 41
0.0
 10
-12.82144012608235
 20
7.728210794587312
 40
0.1969552685041935
 41
0.1969552685041935
  0
LWPOLYLINE
  5
1CC
330
70
100
AcDbEntity
  8
A-FURN-P-SEAT
100
AcDbPolyline
 90
        2
 70
     0
 10
-12.46130308460651
 20
8.125030557866693
 40
0.0
 41
0.0
 10
-12.65970695911056
 20
8.011021425050785
 40
0.1969552685041935
 41
0.1969552685041935
  0
LWPOLYLINE
  5
1CD
330
70
100
AcDbEntity
  8
A-FURN-P-SEAT
100
AcDbPolyline
 90
        2
 70
     0
 10
-12.46634001864325
 20
8.073844247045599
 40
0.0
 41
0.0
 10
-12.5922921250306
 20
8.018041895596752
 40
0.1969552685041935
 41
0.1969552685041935
  0
LWPOLYLINE
  5
1CE
330
70
100
AcDbEntity
  8
A-FURN-P-SEAT
100
AcDbPolyline
 90
        2
 70
     0
 10
-12.46634001864325
 20
8.073844247045599
 40
0.0
 41
0.0
 10
-12.27671168308267
 20
8.15563642181587
 40
0.1969552685041935
 41
0.1969552685041935
  0
LWPOLYLINE
  5
1CF
330
70
100
AcDbEntity
  8
A-FURN-P-SEAT
100
AcDbPolyline
 90
        2
 70
     0
 10
-12.46130308460651
 20
8.125030557866693
 40
0.0
 41
0.0
 10
-12.27671168308267
 20
8.15563642181587
 40
0.1969552685041935
 41
0.1969552685041935
  0
LWPOLYLINE
  5
1D0
330
70
100
AcDbEntity
  8
A-FURN-P-SEAT
100
AcDbPolyline
 90
        2
 70
     0
 10
-12.27487251478538
 20
8.156141415124238
 40
0.0
 41
0.0
 10
-12.27671168308267
 20
8.15563642181587
 40
0.1969552685041935
 41
0.1969552685041935
  0
LWPOLYLINE
  5
1D1
330
70
100
AcDbEntity
  8
A-FURN-P-SEAT
100
AcDbPolyline
 90
        2
 70
     0
 10
-12.27487251478538
 20
8.156141415124238
 40
0.0
 41
0.0
 10
-12.0019311158712
 20
8.249744406480886
 40
0.1969552685041935
 41
0.1969552685041935
  0
LWPOLYLINE
  5
1D2
330
70
100
AcDbEntity
  8
A-FURN-P-SEAT
100
AcDbPolyline
 90
        2
 70
     0
 10
-9.824688312370518
 20
8.996398875051227
 40
0.0
 41
0.0
 10
-12.0019311158712
 20
8.249744406480886
 40
0.1969552685041935
 41
0.1969552685041935
  0
LWPOLYLINE
  5
1D3
330
70
100
AcDbEntity
  8
A-FURN-P-SEAT
100
AcDbPolyline
 90
        2
 70
     0
 10
-7.90277556158491
 20
21.617247771954
 40
0.0
 41
0.0
 10
-7.901585557852605
 20
21.61575721448207
 40
0.1969552685041935
 41
0.1969552685041935
  0
LWPOLYLINE
  5
1D4
330
70
100
AcDbEntity
  8
A-FURN-P-SEAT
100
AcDbPolyline
 90
        2
 70
     0
 10
-8.092235697346175
 20
22.2832279838583
 40
0.0
 41
0.0
 10
-7.915415953762241
 20
22.50298141555754
 40
0.1969552685041935
 41
0.1969552685041935
  0
LWPOLYLINE
  5
1D5
330
70
100
AcDbEntity
  8
A-FURN-P-SEAT
100
AcDbPolyline
 90
        2
 70
     0
 10
6.303428529372958
 20
21.1872556206215
 40
0.0
 41
0.0
 10
6.903021619788241
 20
21.98500619449987
 40
0.1969552685041935
 41
0.1969552685041935
  0
LWPOLYLINE
  5
1D6
330
70
100
AcDbEntity
  8
A-FURN-P-SEAT
100
AcDbPolyline
 90
        2
 70
     0
 10
6.903021619788241
 20
21.98500619449987
 40
0.0
 41
0.0
 10
7.076385389275721
 20
22.21566287290853
 40
0.1969552685041935
 41
0.1969552685041935
  0
LWPOLYLINE
  5
1D7
330
70
100
AcDbEntity
  8
A-FURN-P-SEAT
100
AcDbPolyline
 90
        2
 70
     0
 10
7.163587137450683
 20
22.38335846672362
 40
0.0
 41
0.0
 10
7.333320430473854
 20
22.53682108806038
 40
0.1969552685041935
 41
0.1969552685041935
  0
LWPOLYLINE
  5
1D8
330
70
100
AcDbEntity
  8
A-FURN-P-SEAT
100
AcDbPolyline
 90
        2
 70
     0
 10
7.90207918882843
 20
21.61576312314014
 40
0.0
 41
0.0
 10
7.736288940280736
 20
21.37960666581398
 40
0.1969552685041935
 41
0.1969552685041935
  0
LWPOLYLINE
  5
1D9
330
70
100
AcDbEntity
  8
A-FURN-P-SEAT
100
AcDbPolyline
 90
        2
 70
     0
 10
7.90207918882843
 20
21.61576312314014
 40
0.0
 41
0.0
 10
7.903269389516005
 20
21.617247771954
 40
0.1969552685041935
 41
0.1969552685041935
  0
LWPOLYLINE
  5
1DA
330
70
100
AcDbEntity
  8
A-FURN-P-SEAT
100
AcDbPolyline
 90
        2
 70
     0
 10
8.034624963694774
 20
21.7505147970137
 40
0.0
 41
0.0
 10
7.903269389516005
 20
21.617247771954
 40
0.1969552685041935
 41
0.1969552685041935
  0
LWPOLYLINE
  5
1DB
330
70
100
AcDbEntity
  8
A-FURN-P-SEAT
100
AcDbPolyline
 90
        2
 70
     0
 10
8.008605006217415
 20
21.79488487990238
 40
0.0
 41
0.0
 10
7.903269389516005
 20
21.617247771954
 40
0.1969552685041935
 41
0.1969552685041935
  0
LWPOLYLINE
  5
1DC
330
70
100
AcDbEntity
  8
A-FURN-P-SEAT
100
AcDbPolyline
 90
        2
 70
     0
 10
8.092735433935324
 20
22.28323408947153
 40
0.0
 41
0.0
 10
7.91591569035139
 20
22.50298141555754
 40
0.1969552685041935
 41
0.1969552685041935
  0
LWPOLYLINE
  5
1DD
330
70
100
AcDbEntity
  8
A-FURN-P-SEAT
100
AcDbPolyline
 90
        2
 70
     0
 10
8.008605006217415
 20
21.79488487990238
 40
0.0
 41
0.0
 10
8.077708928680074
 20
21.91406310374009
 40
0.1969552685041935
 41
0.1969552685041935
  0
LWPOLYLINE
  5
1DE
330
70
100
AcDbEntity
  8
A-FURN-P-SEAT
100
AcDbPolyline
 90
        2
 70
     0
 10
8.034624963694774
 20
21.7505147970137
 40
0.0
 41
0.0
 10
8.12812573526704
 20
21.95936498200399
 40
0.1969552685041935
 41
0.1969552685041935
  0
LWPOLYLINE
  5
1DF
330
70
100
AcDbEntity
  8
A-FURN-P-SEAT
100
AcDbPolyline
 90
        2
 70
     0
 10
8.12812573526704
 20
21.95936498200399
 40
0.0
 41
0.0
 10
8.092735433935324
 20
22.28323408947153
 40
0.1969552685041935
 41
0.1969552685041935
  0
LWPOLYLINE
  5
1E0
330
70
100
AcDbEntity
  8
A-FURN-P-SEAT
100
AcDbPolyline
 90
        2
 70
     0
 10
-7.332826799498008
 20
22.53681517940231
 40
0.0
 41
0.0
 10
-7.651773010029408
 20
22.60323814675007
 40
0.1969552685041935
 41
0.1969552685041935
  0
LWPOLYLINE
  5
1E1
330
70
100
AcDbEntity
  8
A-FURN-P-SEAT
100
AcDbPolyline
 90
        2
 70
     0
 10
-7.163087400861535
 20
22.38335846672362
 40
0.0
 41
0.0
 10
-7.332826799498008
 20
22.53681517940231
 40
0.1969552685041935
 41
0.1969552685041935
  0
LWPOLYLINE
  5
1E2
330
70
100
AcDbEntity
  8
A-FURN-P-SEAT
100
AcDbPolyline
 90
        2
 70
     0
 10
-7.163087400861535
 20
22.38335846672362
 40
0.0
 41
0.0
 10
-7.076937590775649
 20
22.21724974150675
 40
0.1969552685041935
 41
0.1969552685041935
  0
LWPOLYLINE
  5
1E3
330
70
100
AcDbEntity
  8
A-FURN-P-SEAT
100
AcDbPolyline
 90
        2
 70
     0
 10
-7.075885652686572
 20
22.21566287290853
 40
0.0
 41
0.0
 10
-7.076937590775649
 20
22.21724974150675
 40
0.1969552685041935
 41
0.1969552685041935
  0
LWPOLYLINE
  5
1E4
330
70
100
AcDbEntity
  8
A-FURN-P-SEAT
100
AcDbPolyline
 90
        2
 70
     0
 10
-6.30294691266851
 20
21.1872735435511
 40
0.0
 41
0.0
 10
-6.902527988812394
 20
21.98500619449987
 40
0.1969552685041935
 41
0.1969552685041935
  0
LWPOLYLINE
  5
1E5
330
70
100
AcDbEntity
  8
A-FURN-P-SEAT
100
AcDbPolyline
 90
        2
 70
     0
 10
7.077437327364798
 20
22.21725565016482
 40
0.0
 41
0.0
 10
7.076385389275721
 20
22.21566287290853
 40
0.1969552685041935
 41
0.1969552685041935
  0
LWPOLYLINE
  5
1E6
330
70
100
AcDbEntity
  8
A-FURN-P-SEAT
100
AcDbPolyline
 90
        2
 70
     0
 10
7.163587137450683
 20
22.38335846672362
 40
0.0
 41
0.0
 10
7.077437327364798
 20
22.21725565016482
 40
0.1969552685041935
 41
0.1969552685041935
  0
LWPOLYLINE
  5
1E7
330
70
100
AcDbEntity
  8
A-FURN-P-SEAT
100
AcDbPolyline
 90
        2
 70
     0
 10
7.077437327364798
 20
22.21725565016482
 40
0.0
 41
0.0
 10
7.213823729966968
 20
22.3723230630294
 40
0.1969552685041935
 41
0.1969552685041935
  0
LWPOLYLINE
  5
1E8
330
70
100
AcDbEntity
  8
A-FURN-P-SEAT
100
AcDbPolyline
 90
        2
 70
     0
 10
7.305815824182509
 20
22.47486999008402
 40
0.0
 41
0.0
 10
7.213823729966968
 20
22.3723230630294
 40
0.1969552685041935
 41
0.1969552685041935
  0
LWPOLYLINE
  5
1E9
330
70
100
AcDbEntity
  8
A-FURN-P-SEAT
100
AcDbPolyline
 90
        2
 70
     0
 10
7.333320430473854
 20
22.53682108806038
 40
0.0
 41
0.0
 10
7.652272746618557
 20
22.60324425236354
 40
0.1969552685041935
 41
0.1969552685041935
  0
LWPOLYLINE
  5
1EA
330
70
100
AcDbEntity
  8
A-FURN-P-SEAT
100
AcDbPolyline
 90
        2
 70
     0
 10
7.652272746618557
 20
22.60324425236354
 40
0.0
 41
0.0
 10
7.91591569035139
 20
22.50298141555754
 40
0.1969552685041935
 41
0.1969552685041935
  0
LWPOLYLINE
  5
1EB
330
70
100
AcDbEntity
  8
A-FURN-P-SEAT
100
AcDbPolyline
 90
        2
 70
     0
 10
-8.034125227105633
 20
21.75050869140045
 40
0.0
 41
0.0
 10
-8.127620090019838
 20
21.95935887639052
 40
0.1969552685041935
 41
0.1969552685041935
  0
LWPOLYLINE
  5
1EC
330
70
100
AcDbEntity
  8
A-FURN-P-SEAT
100
AcDbPolyline
 90
        2
 70
     0
 10
-8.127620090019838
 20
21.95935887639052
 40
0.0
 41
0.0
 10
-8.092235697346175
 20
22.2832279838583
 40
0.1969552685041935
 41
0.1969552685041935
  0
LWPOLYLINE
  5
1ED
330
70
100
AcDbEntity
  8
A-FURN-P-SEAT
100
AcDbPolyline
 90
        2
 70
     0
 10
-8.077209192090926
 20
21.91406310374009
 40
0.0
 41
0.0
 10
-8.008105269628273
 20
21.79487897124432
 40
0.1969552685041935
 41
0.1969552685041935
  0
LWPOLYLINE
  5
1EE
330
70
100
AcDbEntity
  8
A-FURN-P-SEAT
100
AcDbPolyline
 90
        2
 70
     0
 10
-8.034125227105633
 20
21.75050869140045
 40
0.0
 41
0.0
 10
-7.90277556158491
 20
21.617247771954
 40
0.1969552685041935
 41
0.1969552685041935
  0
LWPOLYLINE
  5
1EF
330
70
100
AcDbEntity
  8
A-FURN-P-SEAT
100
AcDbPolyline
 90
        2
 70
     0
 10
-7.90277556158491
 20
21.617247771954
 40
0.0
 41
0.0
 10
-8.008105269628273
 20
21.79487897124432
 40
0.1969552685041935
 41
0.1969552685041935
  0
LWPOLYLINE
  5
1F0
330
70
100
AcDbEntity
  8
A-FURN-P-SEAT
100
AcDbPolyline
 90
        2
 70
     0
 10
-7.651773010029408
 20
22.60323814675007
 40
0.0
 41
0.0
 10
-7.915415953762241
 20
22.50298141555754
 40
0.1969552685041935
 41
0.1969552685041935
  0
LWPOLYLINE
  5
1F1
330
70
100
AcDbEntity
  8
A-FURN-P-SEAT
100
AcDbPolyline
 90
        2
 70
     0
 10
-7.735789203691588
 20
21.37960075715591
 40
0.0
 41
0.0
 10
-7.901585557852605
 20
21.61575721448207
 40
0.1969552685041935
 41
0.1969552685041935
  0
LWPOLYLINE
  5
1F2
330
70
100
AcDbEntity
  8
A-FURN-P-SEAT
100
AcDbPolyline
 90
        2
 70
     0
 10
-6.834500032981587
 20
20.09583312104246
 40
0.0
 41
0.0
 10
-7.735789203691588
 20
21.37960075715591
 40
0.1969552685041935
 41
0.1969552685041935
  0
LWPOLYLINE
  5
1F3
330
70
100
AcDbEntity
  8
A-FURN-P-SEAT
100
AcDbPolyline
 90
        2
 70
     0
 10
-7.213323993377827
 20
22.3723230630294
 40
0.0
 41
0.0
 10
-7.30532219320667
 20
22.47486999008402
 40
0.1969552685041935
 41
0.1969552685041935
  0
LWPOLYLINE
  5
1F4
330
70
100
AcDbEntity
  8
A-FURN-P-SEAT
100
AcDbPolyline
 90
        2
 70
     0
 10
-7.213323993377827
 20
22.3723230630294
 40
0.0
 41
0.0
 10
-7.076937590775649
 20
22.21724974150675
 40
0.1969552685041935
 41
0.1969552685041935
  0
LWPOLYLINE
  5
1F5
330
70
100
AcDbEntity
  8
A-FURN-P-SEAT
100
AcDbPolyline
 90
        2
 70
     0
 10
-7.075885652686572
 20
22.21566287290853
 40
0.0
 41
0.0
 10
-6.902527988812394
 20
21.98500619449987
 40
0.1969552685041935
 41
0.1969552685041935
  0
LWPOLYLINE
  5
1F6
330
70
100
AcDbEntity
  8
A-FURN-P-SEAT
100
AcDbPolyline
 90
        2
 70
     0
 10
6.805722171952332
 20
22.67020825583381
 40
0.0
 41
0.0
 10
6.615156132358414
 20
22.08370619125026
 40
0.1969552685041935
 41
0.1969552685041935
  0
LWPOLYLINE
  5
1F7
330
70
100
AcDbEntity
  8
A-FURN-P-SEAT
100
AcDbPolyline
 90
        2
 70
     0
 10
7.304631729108244
 20
23.03269536757353
 40
0.0
 41
0.0
 10
6.805722171952332
 20
22.67020825583381
 40
0.1969552685041935
 41
0.1969552685041935
  0
LWPOLYLINE
  5
1F8
330
70
100
AcDbEntity
  8
A-FURN-P-SEAT
100
AcDbPolyline
 90
        2
 70
     0
 10
7.921319158142814
 20
23.03269536757353
 40
0.0
 41
0.0
 10
7.304631729108244
 20
23.03269536757353
 40
0.1969552685041935
 41
0.1969552685041935
  0
LWPOLYLINE
  5
1F9
330
70
100
AcDbEntity
  8
A-FURN-P-SEAT
100
AcDbPolyline
 90
        2
 70
     0
 10
8.420228912253996
 20
22.67020825583381
 40
0.0
 41
0.0
 10
7.921319158142814
 20
23.03269536757353
 40
0.1969552685041935
 41
0.1969552685041935
  0
LWPOLYLINE
  5
1FA
330
70
100
AcDbEntity
  8
A-FURN-P-SEAT
100
AcDbPolyline
 90
        2
 70
     0
 10
8.610794754892644
 20
22.08370619125026
 40
0.0
 41
0.0
 10
8.420228912253996
 20
22.67020825583381
 40
0.1969552685041935
 41
0.1969552685041935
  0
LWPOLYLINE
  5
1FB
330
70
100
AcDbEntity
  8
A-FURN-P-SEAT
100
AcDbPolyline
 90
        2
 70
     0
 10
8.610794754892644
 20
22.08370619125026
 40
0.0
 41
0.0
 10
8.420228912253996
 20
21.4972041266667
 40
0.1969552685041935
 41
0.1969552685041935
  0
LWPOLYLINE
  5
1FC
330
70
100
AcDbEntity
  8
A-FURN-P-SEAT
100
AcDbPolyline
 90
        2
 70
     0
 10
11.75443364134695
 20
7.248613292373875
 40
0.0
 41
0.0
 10
11.76914166993304
 20
7.203341351310882
 40
0.1969552685041935
 41
0.1969552685041935
  0
LWPOLYLINE
  5
1FD
330
70
100
AcDbEntity
  8
A-FURN-P-SEAT
100
AcDbPolyline
 90
        2
 70
     0
 10
11.76914166993304
 20
7.203341351310882
 40
0.0
 41
0.0
 10
12.10844576788283
 20
6.956822683398058
 40
0.1969552685041935
 41
0.1969552685041935
  0
LWPOLYLINE
  5
1FE
330
70
100
AcDbEntity
  8
A-FURN-P-SEAT
100
AcDbPolyline
 90
        2
 70
     0
 10
12.10844576788283
 20
6.956822683398058
 40
0.0
 41
0.0
 10
12.52784724051737
 20
6.956822683398058
 40
0.1969552685041935
 41
0.1969552685041935
  0
LWPOLYLINE
  5
1FF
330
70
100
AcDbEntity
  8
A-FURN-P-SEAT
100
AcDbPolyline
 90
        2
 70
     0
 10
12.52784724051737
 20
6.956822683398058
 40
0.0
 41
0.0
 10
12.86715764103575
 20
7.203341351310882
 40
0.1969552685041935
 41
0.1969552685041935
  0
LWPOLYLINE
  5
200
330
70
100
AcDbEntity
  8
A-FURN-P-SEAT
100
AcDbPolyline
 90
        2
 70
     0
 10
-13.12500531187517
 20
7.016201348612639
 40
0.0
 41
0.0
 10
-12.62609575471925
 20
6.653720342486167
 40
0.1969552685041935
 41
0.1969552685041935
  0
LWPOLYLINE
  5
201
330
70
100
AcDbEntity
  8
A-FURN-P-SEAT
100
AcDbPolyline
 90
        2
 70
     0
 10
-13.10073451413739
 20
7.033830420785761
 40
0.0
 41
0.0
 10
-12.61682447936495
 20
6.682246555755227
 40
0.1969552685041935
 41
0.1969552685041935
  0
LWPOLYLINE
  5
202
330
70
100
AcDbEntity
  8
A-FURN-P-SEAT
100
AcDbPolyline
 90
        2
 70
     0
 10
-12.62609575471925
 20
6.653720342486167
 40
0.0
 41
0.0
 10
-12.00940832568469
 20
6.653720342486167
 40
0.1969552685041935
 41
0.1969552685041935
  0
LWPOLYLINE
  5
203
330
70
100
AcDbEntity
  8
A-FURN-P-SEAT
100
AcDbPolyline
 90
        2
 70
     0
 10
-12.61682447936495
 20
6.682246555755227
 40
0.0
 41
0.0
 10
-12.01867664670995
 20
6.682246555755227
 40
0.1969552685041935
 41
0.1969552685041935
  0
LWPOLYLINE
  5
204
330
70
100
AcDbEntity
  8
A-FURN-P-SEAT
100
AcDbPolyline
 90
        2
 70
     0
 10
-12.01867664670995
 20
6.682246555755227
 40
0.0
 41
0.0
 10
-11.53476346065321
 20
7.033830420785761
 40
0.1969552685041935
 41
0.1969552685041935
  0
LWPOLYLINE
  5
205
330
70
100
AcDbEntity
  8
A-FURN-P-SEAT
100
AcDbPolyline
 90
        2
 70
     0
 10
-12.00940832568469
 20
6.653720342486167
 40
0.0
 41
0.0
 10
-11.51049266291544
 20
7.016201348612639
 40
0.1969552685041935
 41
0.1969552685041935
  0
LWPOLYLINE
  5
206
330
70
100
AcDbEntity
  8
A-FURN-P-SEAT
100
AcDbPolyline
 90
        2
 70
     0
 10
-11.7542165355681
 20
7.248516981247576
 40
0.0
 41
0.0
 10
-11.76873804751492
 20
7.203828224734479
 40
0.1969552685041935
 41
0.1969552685041935
  0
LWPOLYLINE
  5
207
330
70
100
AcDbEntity
  8
A-FURN-P-SEAT
100
AcDbPolyline
 90
        2
 70
     0
 10
-13.2855725036574
 20
7.602703610151365
 40
0.0
 41
0.0
 10
-13.10073451413739
 20
7.033830420785761
 40
0.1969552685041935
 41
0.1969552685041935
  0
LWPOLYLINE
  5
208
330
70
100
AcDbEntity
  8
A-FURN-P-SEAT
100
AcDbPolyline
 90
        2
 70
     0
 10
-12.9963606300121
 20
7.602703610151365
 40
0.0
 41
0.0
 10
-12.86676012423096
 20
7.203828224734479
 40
0.1969552685041935
 41
0.1969552685041935
  0
LWPOLYLINE
  5
209
330
70
100
AcDbEntity
  8
A-FURN-P-SEAT
100
AcDbPolyline
 90
        2
 70
     0
 10
-12.86676012423096
 20
8.001584904226319
 40
0.0
 41
0.0
 10
-12.9963606300121
 20
7.602703610151365
 40
0.1969552685041935
 41
0.1969552685041935
  0
LWPOLYLINE
  5
20A
330
70
100
AcDbEntity
  8
A-FURN-P-SEAT
100
AcDbPolyline
 90
        2
 70
     0
 10
-13.10073451413739
 20
8.171576602561799
 40
0.0
 41
0.0
 10
-13.2855725036574
 20
7.602703610151365
 40
0.1969552685041935
 41
0.1969552685041935
  0
LWPOLYLINE
  5
20B
330
70
100
AcDbEntity
  8
A-FURN-P-SEAT
100
AcDbPolyline
 90
        2
 70
     0
 10
-12.07555496479075
 20
8.224493953237697
 40
0.0
 41
0.0
 10
-12.10804825107804
 20
8.248103572139143
 40
0.1969552685041935
 41
0.1969552685041935
  0
LWPOLYLINE
  5
20C
330
70
100
AcDbEntity
  8
A-FURN-P-SEAT
100
AcDbPolyline
 90
        2
 70
     0
 10
-12.10804825107804
 20
8.248103572139143
 40
0.0
 41
0.0
 10
-12.52744972371257
 20
8.248103572139143
 40
0.1969552685041935
 41
0.1969552685041935
  0
LWPOLYLINE
  5
20D
330
70
100
AcDbEntity
  8
A-FURN-P-SEAT
100
AcDbPolyline
 90
        2
 70
     0
 10
-12.52744972371257
 20
8.248103572139143
 40
0.0
 41
0.0
 10
-12.86676012423096
 20
8.001584904226319
 40
0.1969552685041935
 41
0.1969552685041935
  0
LWPOLYLINE
  5
20E
330
70
100
AcDbEntity
  8
A-FURN-P-SEAT
100
AcDbPolyline
 90
        2
 70
     0
 10
-12.01867664670995
 20
8.523160467592333
 40
0.0
 41
0.0
 10
-12.61682447936495
 20
8.523160467592333
 40
0.1969552685041935
 41
0.1969552685041935
  0
LWPOLYLINE
  5
20F
330
70
100
AcDbEntity
  8
A-FURN-P-SEAT
100
AcDbPolyline
 90
        2
 70
     0
 10
-12.61682447936495
 20
8.523160467592333
 40
0.0
 41
0.0
 10
-13.10073451413739
 20
8.171576602561799
 40
0.1969552685041935
 41
0.1969552685041935
  0
LWPOLYLINE
  5
210
330
70
100
AcDbEntity
  8
A-FURN-P-SEAT
100
AcDbPolyline
 90
        2
 70
     0
 10
-8.42017390066114
 20
22.66978755938021
 40
0.0
 41
0.0
 10
-8.610739940255044
 20
22.08327938918342
 40
0.1969552685041935
 41
0.1969552685041935
  0
LWPOLYLINE
  5
211
330
70
100
AcDbEntity
  8
A-FURN-P-SEAT
100
AcDbPolyline
 90
        2
 70
     0
 10
-8.610739940255044
 20
22.08327938918342
 40
0.0
 41
0.0
 10
-8.42017390066114
 20
21.49677732459986
 40
0.1969552685041935
 41
0.1969552685041935
  0
LWPOLYLINE
  5
212
330
70
100
AcDbEntity
  8
A-FURN-P-SEAT
100
AcDbPolyline
 90
        2
 70
     0
 10
-7.921264146549937
 20
23.03226265684862
 40
0.0
 41
0.0
 10
-8.42017390066114
 20
22.66978755938021
 40
0.1969552685041935
 41
0.1969552685041935
  0
LWPOLYLINE
  5
213
330
70
100
AcDbEntity
  8
A-FURN-P-SEAT
100
AcDbPolyline
 90
        2
 70
     0
 10
-8.42017390066114
 20
21.49677732459986
 40
0.0
 41
0.0
 10
-7.921264146549937
 20
21.13429631847339
 40
0.1969552685041935
 41
0.1969552685041935
  0
LWPOLYLINE
  5
214
330
70
100
AcDbEntity
  8
A-FURN-P-SEAT
100
AcDbPolyline
 90
        2
 70
     0
 10
-7.304576914470644
 20
23.03226265684862
 40
0.0
 41
0.0
 10
-7.921264146549937
 20
23.03226265684862
 40
0.1969552685041935
 41
0.1969552685041935
  0
LWPOLYLINE
  5
215
330
70
100
AcDbEntity
  8
A-FURN-P-SEAT
100
AcDbPolyline
 90
        2
 70
     0
 10
-7.921264146549937
 20
21.13429631847339
 40
0.0
 41
0.0
 10
-7.563567577806153
 20
21.13429631847339
 40
0.1969552685041935
 41
0.1969552685041935
  0
LWPOLYLINE
  5
216
330
70
100
AcDbEntity
  8
A-FURN-P-SEAT
100
AcDbPolyline
 90
        2
 70
     0
 10
-7.452437537105346
 20
22.57718825207189
 40
0.0
 41
0.0
 10
-7.526680613389068
 20
22.57718825207189
 40
0.1969552685041935
 41
0.1969552685041935
  0
LWPOLYLINE
  5
217
330
70
100
AcDbEntity
  8
A-FURN-P-SEAT
100
AcDbPolyline
 90
        2
 70
     0
 10
-7.42260708604823
 20
22.55551411259421
 40
0.0
 41
0.0
 10
-7.452437537105346
 20
22.57718825207189
 40
0.1969552685041935
 41
0.1969552685041935
  0
LWPOLYLINE
  5
218
330
70
100
AcDbEntity
  8
A-FURN-P-SEAT
100
AcDbPolyline
 90
        2
 70
     0
 10
-6.805661251701401
 20
22.66978755938021
 40
0.0
 41
0.0
 10
-7.304576914470644
 20
23.03226265684862
 40
0.1969552685041935
 41
0.1969552685041935
  0
LWPOLYLINE
  5
219
330
70
100
AcDbEntity
  8
A-FURN-P-SEAT
100
AcDbPolyline
 90
        2
 70
     0
 10
-6.61509521210749
 20
22.08327938918342
 40
0.0
 41
0.0
 10
-6.724139496514837
 20
21.74766564209949
 40
0.1969552685041935
 41
0.1969552685041935
  0
LWPOLYLINE
  5
21A
330
70
100
AcDbEntity
  8
A-FURN-P-SEAT
100
AcDbPolyline
 90
        2
 70
     0
 10
6.615156132358414
 20
22.08370619125026
 40
0.0
 41
0.0
 10
6.72442888487722
 20
21.74739522251593
 40
0.1969552685041935
 41
0.1969552685041935
  0
LWPOLYLINE
  5
21B
330
70
100
AcDbEntity
  8
A-FURN-P-SEAT
100
AcDbPolyline
 90
        2
 70
     0
 10
7.529205837959516
 20
22.57761505413873
 40
0.0
 41
0.0
 10
7.452498457356277
 20
22.57761505413873
 40
0.1969552685041935
 41
0.1969552685041935
  0
LWPOLYLINE
  5
21C
330
70
100
AcDbEntity
  8
A-FURN-P-SEAT
100
AcDbPolyline
 90
        2
 70
     0
 10
7.564367868135043
 20
21.13472292358506
 40
0.0
 41
0.0
 10
7.921319158142814
 20
21.13472292358506
 40
0.1969552685041935
 41
0.1969552685041935
  0
LWPOLYLINE
  5
21D
330
70
100
AcDbEntity
  8
A-FURN-P-SEAT
100
AcDbPolyline
 90
        2
 70
     0
 10
7.773452429894796
 20
22.57761505413873
 40
0.0
 41
0.0
 10
7.719669657769081
 20
22.57761505413873
 40
0.1969552685041935
 41
0.1969552685041935
  0
LWPOLYLINE
  5
21E
330
70
100
AcDbEntity
  8
A-FURN-P-SEAT
100
AcDbPolyline
 90
        2
 70
     0
 10
7.832518527098123
 20
22.53469948590805
 40
0.0
 41
0.0
 10
7.773452429894796
 20
22.57761505413873
 40
0.1969552685041935
 41
0.1969552685041935
  0
LWPOLYLINE
  5
21F
330
70
100
AcDbEntity
  8
A-FURN-P-SEAT
100
AcDbPolyline
 90
        2
 70
     0
 10
7.921319158142814
 20
21.13472292358506
 40
0.0
 41
0.0
 10
8.420228912253996
 20
21.4972041266667
 40
0.1969552685041935
 41
0.1969552685041935
  0
LWPOLYLINE
  5
220
330
70
100
AcDbEntity
  8
A-FURN-P-SEAT
100
AcDbPolyline
 90
        2
 70
     0
 10
8.033116286338035
 20
22.38896046542572
 40
0.0
 41
0.0
 10
7.97185019878551
 20
22.43347491652617
 40
0.1969552685041935
 41
0.1969552685041935
  0
LWPOLYLINE
  5
221
330
70
100
AcDbEntity
  8
A-FURN-P-SEAT
100
AcDbPolyline
 90
        2
 70
     0
 10
8.050354599258604
 20
22.33589894349325
 40
0.0
 41
0.0
 10
8.033116286338035
 20
22.38896046542572
 40
0.1969552685041935
 41
0.1969552685041935
  0
LWPOLYLINE
  5
222
330
70
100
AcDbEntity
  8
A-FURN-P-SEAT
100
AcDbPolyline
 90
        2
 70
     0
 10
8.132297247853962
 20
22.08370619125026
 40
0.0
 41
0.0
 10
8.105537920298637
 20
22.16606343068566
 40
0.1969552685041935
 41
0.1969552685041935
  0
LWPOLYLINE
  5
223
330
70
100
AcDbEntity
  8
A-FURN-P-SEAT
100
AcDbPolyline
 90
        2
 70
     0
 10
8.132297247853962
 20
22.08370619125026
 40
0.0
 41
0.0
 10
8.11900769111164
 20
22.04281000538754
 40
0.1969552685041935
 41
0.1969552685041935
  0
LWPOLYLINE
  5
224
330
70
100
AcDbEntity
  8
A-FURN-P-SEAT
100
AcDbPolyline
 90
        2
 70
     0
 10
-8.395903102923355
 20
22.65215257854902
 40
0.0
 41
0.0
 10
-8.580741092443361
 20
22.08327938918342
 40
0.1969552685041935
 41
0.1969552685041935
  0
LWPOLYLINE
  5
225
330
70
100
AcDbEntity
  8
A-FURN-P-SEAT
100
AcDbPolyline
 90
        2
 70
     0
 10
-8.580741092443361
 20
22.08327938918342
 40
0.0
 41
0.0
 10
-8.395903102923355
 20
21.51440639677298
 40
0.1969552685041935
 41
0.1969552685041935
  0
LWPOLYLINE
  5
226
330
70
100
AcDbEntity
  8
A-FURN-P-SEAT
100
AcDbPolyline
 90
        2
 70
     0
 10
-7.911989916866616
 20
23.00373644357955
 40
0.0
 41
0.0
 10
-8.395903102923355
 20
22.65215257854902
 40
0.1969552685041935
 41
0.1969552685041935
  0
LWPOLYLINE
  5
227
330
70
100
AcDbEntity
  8
A-FURN-P-SEAT
100
AcDbPolyline
 90
        2
 70
     0
 10
-8.395903102923355
 20
21.51440639677298
 40
0.0
 41
0.0
 10
-7.911989916866616
 20
21.16282253174245
 40
0.1969552685041935
 41
0.1969552685041935
  0
LWPOLYLINE
  5
228
330
70
100
AcDbEntity
  8
A-FURN-P-SEAT
100
AcDbPolyline
 90
        2
 70
     0
 10
-7.822618312498541
 20
22.72867935117097
 40
0.0
 41
0.0
 10
-8.161928516061657
 20
22.48216068325814
 40
0.1969552685041935
 41
0.1969552685041935
  0
LWPOLYLINE
  5
229
330
70
100
AcDbEntity
  8
A-FURN-P-SEAT
100
AcDbPolyline
 90
        2
 70
     0
 10
-7.911989916866616
 20
21.16282253174245
 40
0.0
 41
0.0
 10
-7.583594777328727
 20
21.16282253174245
 40
0.1969552685041935
 41
0.1969552685041935
  0
LWPOLYLINE
  5
22A
330
70
100
AcDbEntity
  8
A-FURN-P-SEAT
100
AcDbPolyline
 90
        2
 70
     0
 10
-7.403216839863993
 20
22.72867935117097
 40
0.0
 41
0.0
 10
-7.822618312498541
 20
22.72867935117097
 40
0.1969552685041935
 41
0.1969552685041935
  0
LWPOLYLINE
  5
22B
330
70
100
AcDbEntity
  8
A-FURN-P-SEAT
100
AcDbPolyline
 90
        2
 70
     0
 10
-7.063906636300885
 20
22.48216068325814
 40
0.0
 41
0.0
 10
-7.403216839863993
 20
22.72867935117097
 40
0.1969552685041935
 41
0.1969552685041935
  0
LWPOLYLINE
  5
22C
330
70
100
AcDbEntity
  8
A-FURN-P-SEAT
100
AcDbPolyline
 90
        2
 70
     0
 10
-6.93430613051975
 20
22.08327938918342
 40
0.0
 41
0.0
 10
-7.063906636300885
 20
22.48216068325814
 40
0.1969552685041935
 41
0.1969552685041935
  0
LWPOLYLINE
  5
22D
330
70
100
AcDbEntity
  8
A-FURN-P-SEAT
100
AcDbPolyline
 90
        2
 70
     0
 10
-6.93430613051975
 20
22.08327938918342
 40
0.0
 41
0.0
 10
-6.947006397098704
 20
22.04418652575896
 40
0.1969552685041935
 41
0.1969552685041935
  0
LWPOLYLINE
  5
22E
330
70
100
AcDbEntity
  8
A-FURN-P-SEAT
100
AcDbPolyline
 90
        2
 70
     0
 10
6.829992969690088
 20
22.65257918366046
 40
0.0
 41
0.0
 10
6.645154980170083
 20
22.08370619125026
 40
0.1969552685041935
 41
0.1969552685041935
  0
LWPOLYLINE
  5
22F
330
70
100
AcDbEntity
  8
A-FURN-P-SEAT
100
AcDbPolyline
 90
        2
 70
     0
 10
6.645154980170083
 20
22.08370619125026
 40
0.0
 41
0.0
 10
6.74537566854844
 20
21.77526045390391
 40
0.1969552685041935
 41
0.1969552685041935
  0
LWPOLYLINE
  5
230
330
70
100
AcDbEntity
  8
A-FURN-P-SEAT
100
AcDbPolyline
 90
        2
 70
     0
 10
7.313900247088788
 20
23.00415714003293
 40
0.0
 41
0.0
 10
6.829992969690088
 20
22.65257918366046
 40
0.1969552685041935
 41
0.1969552685041935
  0
LWPOLYLINE
  5
231
330
70
100
AcDbEntity
  8
A-FURN-P-SEAT
100
AcDbPolyline
 90
        2
 70
     0
 10
7.912050837117526
 20
23.00415714003293
 40
0.0
 41
0.0
 10
7.313900247088788
 20
23.00415714003293
 40
0.1969552685041935
 41
0.1969552685041935
  0
LWPOLYLINE
  5
232
330
70
100
AcDbEntity
  8
A-FURN-P-SEAT
100
AcDbPolyline
 90
        2
 70
     0
 10
7.452498457356277
 20
22.57761505413873
 40
0.0
 41
0.0
 10
7.421676139566962
 20
22.55521966446782
 40
0.1969552685041935
 41
0.1969552685041935
  0
LWPOLYLINE
  5
233
330
70
100
AcDbEntity
  8
A-FURN-P-SEAT
100
AcDbPolyline
 90
        2
 70
     0
 10
7.584395067657617
 20
21.16325524246736
 40
0.0
 41
0.0
 10
7.912050837117526
 20
21.16325524246736
 40
0.1969552685041935
 41
0.1969552685041935
  0
LWPOLYLINE
  5
234
330
70
100
AcDbEntity
  8
A-FURN-P-SEAT
100
AcDbPolyline
 90
        2
 70
     0
 10
8.395958114516226
 20
22.65257918366046
 40
0.0
 41
0.0
 10
7.912050837117526
 20
23.00415714003293
 40
0.1969552685041935
 41
0.1969552685041935
  0
LWPOLYLINE
  5
235
330
70
100
AcDbEntity
  8
A-FURN-P-SEAT
100
AcDbPolyline
 90
        2
 70
     0
 10
7.912050837117526
 20
21.16325524246736
 40
0.0
 41
0.0
 10
8.395958114516226
 20
21.51483319883983
 40
0.1969552685041935
 41
0.1969552685041935
  0
LWPOLYLINE
  5
236
330
70
100
AcDbEntity
  8
A-FURN-P-SEAT
100
AcDbPolyline
 90
        2
 70
     0
 10
8.580795907080961
 20
22.08370619125026
 40
0.0
 41
0.0
 10
8.395958114516226
 20
22.65257918366046
 40
0.1969552685041935
 41
0.1969552685041935
  0
LWPOLYLINE
  5
237
330
70
100
AcDbEntity
  8
A-FURN-P-SEAT
100
AcDbPolyline
 90
        2
 70
     0
 10
8.580795907080961
 20
22.08370619125026
 40
0.0
 41
0.0
 10
8.395958114516226
 20
21.51483319883983
 40
0.1969552685041935
 41
0.1969552685041935
  0
LWPOLYLINE
  5
238
330
70
100
AcDbEntity
  8
A-FURN-P-SEAT
100
AcDbPolyline
 90
        2
 70
     0
 10
-6.61509521210749
 20
22.08327938918342
 40
0.0
 41
0.0
 10
-6.805661251701401
 20
22.66978755938021
 40
0.1969552685041935
 41
0.1969552685041935
  0
LWPOLYLINE
  5
239
330
70
100
AcDbEntity
  8
A-FURN-P-SEAT
100
AcDbPolyline
 90
        2
 70
     0
 10
7.063967556551794
 20
22.48258748532521
 40
0.0
 41
0.0
 10
6.934360945157358
 20
22.08370619125026
 40
0.1969552685041935
 41
0.1969552685041935
  0
LWPOLYLINE
  5
23A
330
70
100
AcDbEntity
  8
A-FURN-P-SEAT
100
AcDbPolyline
 90
        2
 70
     0
 10
6.934360945157358
 20
22.08370619125026
 40
0.0
 41
0.0
 10
6.947289679847763
 20
22.04391000056194
 40
0.1969552685041935
 41
0.1969552685041935
  0
LWPOLYLINE
  5
23B
330
70
100
AcDbEntity
  8
A-FURN-P-SEAT
100
AcDbPolyline
 90
        2
 70
     0
 10
7.403271654501587
 20
22.72910615323781
 40
0.0
 41
0.0
 10
7.063967556551794
 20
22.48258748532521
 40
0.1969552685041935
 41
0.1969552685041935
  0
LWPOLYLINE
  5
23C
330
70
100
AcDbEntity
  8
A-FURN-P-SEAT
100
AcDbPolyline
 90
        2
 70
     0
 10
7.822679232749457
 20
22.72910615323781
 40
0.0
 41
0.0
 10
7.403271654501587
 20
22.72910615323781
 40
0.1969552685041935
 41
0.1969552685041935
  0
LWPOLYLINE
  5
23D
330
70
100
AcDbEntity
  8
A-FURN-P-SEAT
100
AcDbPolyline
 90
        2
 70
     0
 10
7.777497497199327
 20
21.43830622926248
 40
0.0
 41
0.0
 10
7.822679232749457
 20
21.43830622926248
 40
0.1969552685041935
 41
0.1969552685041935
  0
LWPOLYLINE
  5
23E
330
70
100
AcDbEntity
  8
A-FURN-P-SEAT
100
AcDbPolyline
 90
        2
 70
     0
 10
8.161983527654534
 20
22.48258748532521
 40
0.0
 41
0.0
 10
7.822679232749457
 20
22.72910615323781
 40
0.1969552685041935
 41
0.1969552685041935
  0
LWPOLYLINE
  5
23F
330
70
100
AcDbEntity
  8
A-FURN-P-SEAT
100
AcDbPolyline
 90
        2
 70
     0
 10
7.822679232749457
 20
21.43830622926248
 40
0.0
 41
0.0
 10
8.161983527654534
 20
21.68483100278854
 40
0.1969552685041935
 41
0.1969552685041935
  0
LWPOLYLINE
  5
240
330
70
100
AcDbEntity
  8
A-FURN-P-SEAT
100
AcDbPolyline
 90
        2
 70
     0
 10
8.291589942093715
 20
22.08370619125026
 40
0.0
 41
0.0
 10
8.161983527654534
 20
22.48258748532521
 40
0.1969552685041935
 41
0.1969552685041935
  0
LWPOLYLINE
  5
241
330
70
100
AcDbEntity
  8
A-FURN-P-SEAT
100
AcDbPolyline
 90
        2
 70
     0
 10
8.291589942093715
 20
22.08370619125026
 40
0.0
 41
0.0
 10
8.161983527654534
 20
21.68483100278854
 40
0.1969552685041935
 41
0.1969552685041935
  0
LWPOLYLINE
  5
242
330
70
100
AcDbEntity
  8
A-FURN-P-SEAT
100
AcDbPolyline
 90
        2
 70
     0
 10
-8.104881998181561
 20
22.16749391680082
 40
0.0
 41
0.0
 10
-8.132242236261092
 20
22.08327938918342
 40
0.1969552685041935
 41
0.1969552685041935
  0
LWPOLYLINE
  5
243
330
70
100
AcDbEntity
  8
A-FURN-P-SEAT
100
AcDbPolyline
 90
        2
 70
     0
 10
-8.132242236261092
 20
22.08327938918342
 40
0.0
 41
0.0
 10
-8.118652322734305
 20
22.04145180185583
 40
0.1969552685041935
 41
0.1969552685041935
  0
LWPOLYLINE
  5
244
330
70
100
AcDbEntity
  8
A-FURN-P-SEAT
100
AcDbPolyline
 90
        2
 70
     0
 10
-8.033061274745172
 20
22.38852775470082
 40
0.0
 41
0.0
 10
-8.050371870249279
 20
22.33526179319961
 40
0.1969552685041935
 41
0.1969552685041935
  0
LWPOLYLINE
  5
245
330
70
100
AcDbEntity
  8
A-FURN-P-SEAT
100
AcDbPolyline
 90
        2
 70
     0
 10
-7.971542887493683
 20
22.43322852548522
 40
0.0
 41
0.0
 10
-8.033061274745172
 20
22.38852775470082
 40
0.1969552685041935
 41
0.1969552685041935
  0
LWPOLYLINE
  5
246
330
70
100
AcDbEntity
  8
A-FURN-P-SEAT
100
AcDbPolyline
 90
        2
 70
     0
 10
-7.313845235495925
 20
23.00373644357955
 40
0.0
 41
0.0
 10
-7.911989916866616
 20
23.00373644357955
 40
0.1969552685041935
 41
0.1969552685041935
  0
LWPOLYLINE
  5
247
330
70
100
AcDbEntity
  8
A-FURN-P-SEAT
100
AcDbPolyline
 90
        2
 70
     0
 10
-7.773397615257195
 20
22.57718825207189
 40
0.0
 41
0.0
 10
-7.831736356653948
 20
22.53480150873725
 40
0.1969552685041935
 41
0.1969552685041935
  0
LWPOLYLINE
  5
248
330
70
100
AcDbEntity
  8
A-FURN-P-SEAT
100
AcDbPolyline
 90
        2
 70
     0
 10
-7.720281930625908
 20
22.57718825207189
 40
0.0
 41
0.0
 10
-7.773397615257195
 20
22.57718825207189
 40
0.1969552685041935
 41
0.1969552685041935
  0
LWPOLYLINE
  5
249
330
70
100
AcDbEntity
  8
A-FURN-P-SEAT
100
AcDbPolyline
 90
        2
 70
     0
 10
-6.829932049439172
 20
22.65215257854902
 40
0.0
 41
0.0
 10
-7.313845235495925
 20
23.00373644357955
 40
0.1969552685041935
 41
0.1969552685041935
  0
LWPOLYLINE
  5
24A
330
70
100
AcDbEntity
  8
A-FURN-P-SEAT
100
AcDbPolyline
 90
        2
 70
     0
 10
-6.645094059919166
 20
22.08327938918342
 40
0.0
 41
0.0
 10
-6.829932049439172
 20
22.65215257854902
 40
0.1969552685041935
 41
0.1969552685041935
  0
LWPOLYLINE
  5
24B
330
70
100
AcDbEntity
  8
A-FURN-P-SEAT
100
AcDbPolyline
 90
        2
 70
     0
 10
-6.645094059919166
 20
22.08327938918342
 40
0.0
 41
0.0
 10
-6.74508647714132
 20
21.77553087348747
 40
0.1969552685041935
 41
0.1969552685041935
  0
ENDSEC
  0
SECTION
  2
OBJECTS
  0
DICTIONARY
  5
C
330
0
100
AcDbDictionary
281
     1
  3
ACAD_CIP_PREVIOUS_PRODUCT_INFO
350
2CF
  3
ACAD_COLOR
350
63
  3
ACAD_DETAILVIEWSTYLE
350
6A
  3
ACAD_GROUP
350
D
  3
ACAD_LAYOUT
350
62
  3
ACAD_MATERIAL
350
10
  3
ACAD_MLEADERSTYLE
350
66
  3
ACAD_MLINESTYLE
350
5F
  3
ACAD_PLOTSETTINGS
350
61
  3
ACAD_PLOTSTYLENAME
350
E
  3
ACAD_SCALELIST
350
42
  3
ACAD_SECTIONVIEWSTYLE
350
68
  3
ACAD_TABLESTYLE
350
64
  3
ACAD_VISUALSTYLE
350
29
  3
ACDB_RECOMPOSE_DATA
350
2DB
  3
AcDbVariableDictionary
350
2C3
  3
AcDsDecomposeData
350
2E1
  0
DICTIONARY
  5
2D3
330
2
100
AcDbDictionary
280
     1
281
     1
  3
ACAD_LAYERSTATES
360
2D4
  0
DICTIONARY
  5
24C
330
70
100
AcDbDictionary
280
     1
281
     1
  0
XRECORD
  5
2CF
102
{ACAD_REACTORS
330
C
102
}
330
C
100
AcDbXrecord
280
     1
300
ACD
300
2018
300
ACD_F_S
  0
DICTIONARY
  5
63
102
{ACAD_REACTORS
330
C
102
}
330
C
100
AcDbDictionary
281
     1
  0
DICTIONARY
  5
6A
102
{ACAD_REACTORS
330
C
102
}
330
C
100
AcDbDictionary
281
     1
  3
Imperial24
350
6B
  0
DICTIONARY
  5
D
102
{ACAD_REACTORS
330
C
102
}
330
C
100
AcDbDictionary
281
     1
  0
DICTIONARY
  5
62
102
{ACAD_REACTORS
330
C
102
}
330
C
100
AcDbDictionary
281
     1
  3
Layout1
350
6F
  3
Layout2
350
77
  3
Model
350
73
  0
DICTIONARY
  5
10
102
{ACAD_REACTORS
330
C
102
}
330
C
100
AcDbDictionary
281
     1
  3
ByBlock
350
19
  3
ByLayer
350
11
  3
Global
350
21
  0
DICTIONARY
  5
66
102
{ACAD_REACTORS
330
C
102
}
330
C
100
AcDbDictionary
281
     1
  3
Standard
350
67
  0
DICTIONARY
  5
5F
102
{ACAD_REACTORS
330
C
102
}
330
C
100
AcDbDictionary
281
     1
  3
Standard
350
60
  0
DICTIONARY
  5
61
102
{ACAD_REACTORS
330
C
102
}
330
C
100
AcDbDictionary
281
     1
  0
ACDBDICTIONARYWDFLT
  5
E
102
{ACAD_REACTORS
330
C
102
}
330
C
100
AcDbDictionary
281
     1
  3
Normal
350
F
100
AcDbDictionaryWithDefault
340
F
  0
DICTIONARY
  5
42
102
{ACAD_REACTORS
330
C
102
}
330
C
100
AcDbDictionary
281
     1
  3
A0
350
43
  3
A1
350
44
  3
A2
350
45
  3
A3
350
46
  3
A4
350
47
  3
A5
350
48
  3
A6
350
49
  3
A7
350
4A
  3
A8
350
4B
  3
A9
350
4C
  3
B0
350
4D
  3
B1
350
4E
  3
B2
350
4F
  3
B3
350
50
  3
B4
350
51
  3
B5
350
52
  3
B6
350
53
  0
DICTIONARY
  5
68
102
{ACAD_REACTORS
330
C
102
}
330
C
100
AcDbDictionary
281
     1
  3
Imperial24
350
69
  0
DICTIONARY
  5
64
102
{ACAD_REACTORS
330
C
102
}
330
C
100
AcDbDictionary
281
     1
  3
Standard
350
65
  0
DICTIONARY
  5
29
102
{ACAD_REACTORS
330
C
102
}
330
C
100
AcDbDictionary
281
     1
  3
2dWireframe
350
2F
  3
Basic
350
2E
  3
Brighten
350
35
  3
ColorChange
350
39
  3
Conceptual
350
32
  3
Dim
350
34
  3
EdgeColorOff
350
41
  3
Facepattern
350
38
  3
Flat
350
2A
  3
FlatWithEdges
350
2B
  3
Gouraud
350
2C
  3
GouraudWithEdges
350
2D
  3
Hidden
350
31
  3
JitterOff
350
3F
  3
Linepattern
350
37
  3
OverhangOff
350
40
  3
Realistic
350
33
  3
Shaded
350
3E
  3
Shaded with edges
350
3D
  3
Shades of Gray
350
3A
  3
Sketchy
350
3B
  3
Thicken
350
36
  3
Wireframe
350
30
  3
X-Ray
350
3C
  0
XRECORD
  5
2DB
102
{ACAD_REACTORS
330
C
102
}
330
C
100
AcDbXrecord
280
     1
 90
        1
330
65
  0
DICTIONARY
  5
2C3
102
{ACAD_REACTORS
330
C
102
}
330
C
100
AcDbDictionary
281
     1
  3
CANNOSCALE
350
2C8
  3
CMLEADERSTYLE
350
2C5
  3
CTABLESTYLE
350
2C4
  3
CVIEWDETAILSTYLE
350
2C6
  3
CVIEWSECTIONSTYLE
350
2C7
  0
DICTIONARY
  5
2E1
102
{ACAD_REACTORS
330
C
102
}
330
C
100
AcDbDictionary
281
     1
  3
AcDsRecords
350
2E3
  3
AcDsSchemas
350
2E2
1001
ACAD
1070
     2
  0
DICTIONARY
  5
2D4
102
{ACAD_REACTORS
330
2D3
102
}
330
2D3
100
AcDbDictionary
281
     1
  0
ACDBDETAILVIEWSTYLE
  5
6B
102
{ACAD_XDICTIONARY
360
2E6
102
}
102
{ACAD_REACTORS
330
6A
102
}
330
6A
100
AcDbModelDocViewStyle
 70
     0
  3
Imperial24
290
     0
100
AcDbDetailViewStyle
 70
     0
 71
     0
 90
        3
 71
     1
340
55
 62
   256
 40
0.24
340
0
 62
   256
 40
0.24
300

 40
0.36
280
     3
 71
     2
340
5D
 90
       25
 62
   256
 71
     3
340
55
 62
   256
 40
0.24
 90
        1
 40
0.75
 90
        1
300
%<\AcVar ViewType \f "%tc1">% %<\AcVar ViewDetailId>%\PSCALE %<\AcVar ViewScale \f "%sn">%
 71
     4
340
5D
 90
       25
 62
   256
340
5D
 90
       25
 62
   256
280
     0
  0
LAYOUT
  5
6F
102
{ACAD_REACTORS
330
62
102
}
330
62
100
AcDbPlotSettings
  1

  2
Send To OneNote 2010
  4

  6

 40
0.0
 41
0.0
 42
0.0
 43
0.0
 44
0.0
 45
0.0
 46
0.0
 47
0.0
 48
0.0
 49
0.0
140
0.0
141
0.0
142
1.0
143
1.0
 70
   688
 72
     0
 73
     0
 74
     5
  7

 75
    16
147
1.0
 76
     0
 77
     2
 78
   300
148
0.0
149
0.0
100
AcDbLayout
  1
Layout1
 70
     1
 71
     1
 10
0.0
 20
0.0
 11
12.0
 21
9.0
 12
0.0
 22
0.0
 32
0.0
 14
1.000000000000000E+20
 24
1.000000000000000E+20
 34
1.000000000000000E+20
 15
-1.000000000000000E+20
 25
-1.000000000000000E+20
 35
-1.000000000000000E+20
146
0.0
 13
0.0
 23
0.0
 33
0.0
 16
1.0
 26
0.0
 36
0.0
 17
0.0
 27
1.0
 37
0.0
 76
     0
330
6C
  0
LAYOUT
  5
77
102
{ACAD_REACTORS
330
62
102
}
330
62
100
AcDbPlotSettings
  1

  2
Send To OneNote 2010
  4

  6

 40
0.0
 41
0.0
 42
0.0
 43
0.0
 44
0.0
 45
0.0
 46
0.0
 47
0.0
 48
0.0
 49
0.0
140
0.0
141
0.0
142
1.0
143
1.0
 70
   688
 72
     0
 73
     0
 74
     5
  7

 75
    16
147
1.0
 76
     0
 77
     2
 78
   300
148
0.0
149
0.0
100
AcDbLayout
  1
Layout2
 70
     1
 71
     2
 10
0.0
 20
0.0
 11
12.0
 21
9.0
 12
0.0
 22
0.0
 32
0.0
 14
0.0
 24
0.0
 34
0.0
 15
0.0
 25
0.0
 35
0.0
146
0.0
 13
0.0
 23
0.0
 33
0.0
 16
1.0
 26
0.0
 36
0.0
 17
0.0
 27
1.0
 37
0.0
 76
     0
330
74
  0
LAYOUT
  5
73
102
{ACAD_REACTORS
330
62
102
}
330
62
100
AcDbPlotSettings
  1

  2
Send To OneNote 2010
  4

  6

 40
0.0
 41
0.0
 42
0.0
 43
0.0
 44
0.0
 45
0.0
 46
0.0
 47
0.0
 48
0.0
 49
0.0
140
0.0
141
0.0
142
1.0
143
1.0
 70
  1712
 72
     0
 73
     0
 74
     0
  7

 75
     0
147
1.0
 76
     0
 77
     2
 78
   300
148
0.0
149
0.0
100
AcDbLayout
  1
Model
 70
     1
 71
     0
 10
0.0
 20
0.0
 11
12.0
 21
9.0
 12
0.0
 22
0.0
 32
0.0
 14
0.0
 24
0.0
 34
0.0
 15
0.0
 25
0.0
 35
0.0
146
0.0
 13
0.0
 23
0.0
 33
0.0
 16
1.0
 26
0.0
 36
0.0
 17
0.0
 27
1.0
 37
0.0
 76
     0
330
70
  0
MATERIAL
  5
19
102
{ACAD_XDICTIONARY
360
1A
102
}
102
{ACAD_REACTORS
330
10
102
}
330
10
100
AcDbMaterial
  1
ByBlock
 72
     0
 43
0.0208333333333333
 43
0.0
 43
0.0
 43
0.0
 43
0.0
 43
0.0208333333333333
 43
0.0
 43
0.0
 43
0.0
 43
0.0
 43
1.0
 43
0.0
 43
0.0
 43
0.0
 43
0.0
 43
1.0
 77
     0
 47
0.0208333333333333
 47
0.0
 47
0.0
 47
0.0
 47
0.0
 47
0.0208333333333333
 47
0.0
 47
0.0
 47
0.0
 47
0.0
 47
1.0
 47
0.0
 47
0.0
 47
0.0
 47
0.0
 47
1.0
171
     0
 49
0.0208333333333333
 49
0.0
 49
0.0
 49
0.0
 49
0.0
 49
0.0208333333333333
 49
0.0
 49
0.0
 49
0.0
 49
0.0
 49
1.0
 49
0.0
 49
0.0
 49
0.0
 49
0.0
 49
1.0
175
     0
142
0.0208333333333333
142
0.0
142
0.0
142
0.0
142
0.0
142
0.0208333333333333
142
0.0
142
0.0
142
0.0
142
0.0
142
1.0
142
0.0
142
0.0
142
0.0
142
0.0
142
1.0
179
     0
144
0.0208333333333333
144
0.0
144
0.0
144
0.0
144
0.0
144
0.0208333333333333
144
0.0
144
0.0
144
0.0
144
0.0
144
1.0
144
0.0
144
0.0
144
0.0
144
0.0
144
1.0
147
0.0208333333333333
147
0.0
147
0.0
147
0.0
147
0.0
147
0.0208333333333333
147
0.0
147
0.0
147
0.0
147
0.0
147
1.0
147
0.0
147
0.0
147
0.0
147
0.0
147
1.0
  0
MATERIAL
  5
11
102
{ACAD_XDICTIONARY
360
12
102
}
102
{ACAD_REACTORS
330
10
102
}
330
10
100
AcDbMaterial
  1
ByLayer
 72
     0
 43
0.0208333333333333
 43
0.0
 43
0.0
 43
0.0
 43
0.0
 43
0.0208333333333333
 43
0.0
 43
0.0
 43
0.0
 43
0.0
 43
1.0
 43
0.0
 43
0.0
 43
0.0
 43
0.0
 43
1.0
 77
     0
 47
0.0208333333333333
 47
0.0
 47
0.0
 47
0.0
 47
0.0
 47
0.0208333333333333
 47
0.0
 47
0.0
 47
0.0
 47
0.0
 47
1.0
 47
0.0
 47
0.0
 47
0.0
 47
0.0
 47
1.0
171
     0
 49
0.0208333333333333
 49
0.0
 49
0.0
 49
0.0
 49
0.0
 49
0.0208333333333333
 49
0.0
 49
0.0
 49
0.0
 49
0.0
 49
1.0
 49
0.0
 49
0.0
 49
0.0
 49
0.0
 49
1.0
175
     0
142
0.0208333333333333
142
0.0
142
0.0
142
0.0
142
0.0
142
0.0208333333333333
142
0.0
142
0.0
142
0.0
142
0.0
142
1.0
142
0.0
142
0.0
142
0.0
142
0.0
142
1.0
179
     0
144
0.0208333333333333
144
0.0
144
0.0
144
0.0
144
0.0
144
0.0208333333333333
144
0.0
144
0.0
144
0.0
144
0.0
144
1.0
144
0.0
144
0.0
144
0.0
144
0.0
144
1.0
147
0.0208333333333333
147
0.0
147
0.0
147
0.0
147
0.0
147
0.0208333333333333
147
0.0
147
0.0
147
0.0
147
0.0
147
1.0
147
0.0
147
0.0
147
0.0
147
0.0
147
1.0
  0
MATERIAL
  5
21
102
{ACAD_XDICTIONARY
360
22
102
}
102
{ACAD_REACTORS
330
10
102
}
330
10
100
AcDbMaterial
  1
Global
 72
     0
 43
0.0208333333333333
 43
0.0
 43
0.0
 43
0.0
 43
0.0
 43
0.0208333333333333
 43
0.0
 43
0.0
 43
0.0
 43
0.0
 43
1.0
 43
0.0
 43
0.0
 43
0.0
 43
0.0
 43
1.0
 77
     0
 47
0.0208333333333333
 47
0.0
 47
0.0
 47
0.0
 47
0.0
 47
0.0208333333333333
 47
0.0
 47
0.0
 47
0.0
 47
0.0
 47
1.0
 47
0.0
 47
0.0
 47
0.0
 47
0.0
 47
1.0
171
     0
 49
0.0208333333333333
 49
0.0
 49
0.0
 49
0.0
 49
0.0
 49
0.0208333333333333
 49
0.0
 49
0.0
 49
0.0
 49
0.0
 49
1.0
 49
0.0
 49
0.0
 49
0.0
 49
0.0
 49
1.0
175
     0
142
0.0208333333333333
142
0.0
142
0.0
142
0.0
142
0.0
142
0.0208333333333333
142
0.0
142
0.0
142
0.0
142
0.0
142
1.0
142
0.0
142
0.0
142
0.0
142
0.0
142
1.0
179
     0
144
0.0208333333333333
144
0.0
144
0.0
144
0.0
144
0.0
144
0.0208333333333333
144
0.0
144
0.0
144
0.0
144
0.0
144
1.0
144
0.0
144
0.0
144
0.0
144
0.0
144
1.0
147
0.0208333333333333
147
0.0
147
0.0
147
0.0
147
0.0
147
0.0208333333333333
147
0.0
147
0.0
147
0.0
147
0.0
147
1.0
147
0.0
147
0.0
147
0.0
147
0.0
147
1.0
  0
MLEADERSTYLE
  5
67
102
{ACAD_REACTORS
330
66
102
}
330
66
100
AcDbMLeaderStyle
179
     2
170
     2
171
     1
172
     0
 90
        2
 40
0.0
 41
0.0
173
     1
 91
-1056964608
340
5B
 92
       -2
290
     1
 42
0.09
291
     1
 43
0.36
  3
Standard
 44
0.18
300

342
55
174
     1
178
     6
175
     1
176
     0
 93
-1056964608
 45
0.18
292
     0
297
     0
 46
0.18
 94
-1056964608
 47
1.0
 49
1.0
140
1.0
293
     1
141
0.0
294
     1
177
     0
142
1.0
295
     0
296
     0
143
0.125
271
     0
272
     9
273
     9
298
     1
  0
MLINESTYLE
  5
60
102
{ACAD_REACTORS
330
5F
102
}
330
5F
100
AcDbMlineStyle
  2
STANDARD
 70
     0
  3

 62
   256
 51
90.0
 52
90.0
 71
     2
 49
0.5
 62
   256
  6
BYLAYER
 49
-0.5
 62
   256
  6
BYLAYER
  0
ACDBPLACEHOLDER
  5
F
102
{ACAD_REACTORS
330
E
102
}
330
E
  0
SCALE
  5
43
102
{ACAD_REACTORS
330
42
102
}
330
42
100
AcDbScale
 70
     0
300
1:1
140
1.0
141
1.0
290
     1
  0
SCALE
  5
44
102
{ACAD_REACTORS
330
42
102
}
330
42
100
AcDbScale
 70
     0
300
1/128" = 1'-0"
140
0.0078125
141
12.0
290
     0
  0
SCALE
  5
45
102
{ACAD_REACTORS
330
42
102
}
330
42
100
AcDbScale
 70
     0
300
1/64" = 1'-0"
140
0.015625
141
12.0
290
     0
  0
SCALE
  5
46
102
{ACAD_REACTORS
330
42
102
}
330
42
100
AcDbScale
 70
     0
300
1/32" = 1'-0"
140
0.03125
141
12.0
290
     0
  0
SCALE
  5
47
102
{ACAD_REACTORS
330
42
102
}
330
42
100
AcDbScale
 70
     0
300
1/16" = 1'-0"
140
0.0625
141
12.0
290
     0
  0
SCALE
  5
48
102
{ACAD_REACTORS
330
42
102
}
330
42
100
AcDbScale
 70
     0
300
3/32" = 1'-0"
140
0.09375
141
12.0
290
     0
  0
SCALE
  5
49
102
{ACAD_REACTORS
330
42
102
}
330
42
100
AcDbScale
 70
     0
300
1/8" = 1'-0"
140
0.125
141
12.0
290
     0
  0
SCALE
  5
4A
102
{ACAD_REACTORS
330
42
102
}
330
42
100
AcDbScale
 70
     0
300
3/16" = 1'-0"
140
0.1875
141
12.0
290
     0
  0
SCALE
  5
4B
102
{ACAD_REACTORS
330
42
102
}
330
42
100
AcDbScale
 70
     0
300
1/4" = 1'-0"
140
0.25
141
12.0
290
     0
  0
SCALE
  5
4C
102
{ACAD_REACTORS
330
42
102
}
330
42
100
AcDbScale
 70
     0
300
3/8" = 1'-0"
140
0.375
141
12.0
290
     0
  0
SCALE
  5
4D
102
{ACAD_REACTORS
330
42
102
}
330
42
100
AcDbScale
 70
     0
300
1/2" = 1'-0"
140
0.5
141
12.0
290
     0
  0
SCALE
  5
4E
102
{ACAD_REACTORS
330
42
102
}
330
42
100
AcDbScale
 70
     0
300
3/4" = 1'-0"
140
0.75
141
12.0
290
     0
  0
SCALE
  5
4F
102
{ACAD_REACTORS
330
42
102
}
330
42
100
AcDbScale
 70
     0
300
1" = 1'-0"
140
1.0
141
12.0
290
     0
  0
SCALE
  5
50
102
{ACAD_REACTORS
330
42
102
}
330
42
100
AcDbScale
 70
     0
300
1-1/2" = 1'-0"
140
1.5
141
12.0
290
     0
  0
SCALE
  5
51
102
{ACAD_REACTORS
330
42
102
}
330
42
100
AcDbScale
 70
     0
300
3" = 1'-0"
140
3.0
141
12.0
290
     0
  0
SCALE
  5
52
102
{ACAD_REACTORS
330
42
102
}
330
42
100
AcDbScale
 70
     0
300
6" = 1'-0"
140
6.0
141
12.0
290
     0
  0
SCALE
  5
53
102
{ACAD_REACTORS
330
42
102
}
330
42
100
AcDbScale
 70
     0
300
1'-0" = 1'-0"
140
12.0
141
12.0
290
     0
  0
ACDBSECTIONVIEWSTYLE
  5
69
102
{ACAD_XDICTIONARY
360
2E4
102
}
102
{ACAD_REACTORS
330
68
102
}
330
68
100
AcDbModelDocViewStyle
 70
     0
  3
Imperial24
290
     0
100
AcDbSectionViewStyle
 70
     0
 71
     0
 90
       78
 71
     1
340
55
 62
   256
 40
0.24
340
0
340
0
 62
   256
 40
0.24
300
I, O, Q, S, X, Z
 40
0.48
 90
        3
 40
0.18
 90
        1
 71
     2
340
5D
 90
       25
 62
   256
340
5D
 90
       50
 62
   256
 40
0.24
 40
0.0
 40
0.24
 71
     3
340
55
 62
   256
 40
0.24
 90
        1
 40
0.75
 90
        1
300
%<\AcVar ViewType \f "%tc1">% %<\AcVar ViewSectionStartId>%-%<\AcVar ViewSectionEndId>%\PSCALE %<\AcVar ViewScale \f "%sn">%
 71
     4
 62
   256
 62
   257
300
ANSI31
 40
1.0
 90
        0
290
     0
290
     0
 90
        6
 40
0.0
 40
1.570796326794896
 40
0.2617993877991494
 40
1.308996938995747
 40
-0.2617993877991494
 40
1.832595714594046
  0
TABLESTYLE
  5
65
102
{ACAD_XDICTIONARY
360
289
102
}
102
{ACAD_REACTORS
330
64
102
}
330
64
100
AcDbTableStyle
280
     0
  3
Standard
 70
     0
 71
     0
 40
0.06
 41
0.06
280
     0
281
     0
  7
Standard
140
0.18
170
     2
 62
     0
 63
     7
283
     0
 90
      512
 91
        0
  1

274
    -2
284
     1
 64
     0
275
    -2
285
     1
 65
     0
276
    -2
286
     1
 66
     0
277
    -2
287
     1
 67
     0
278
    -2
288
     1
 68
     0
279
    -2
289
     1
 69
     0
  7
Standard
140
0.25
170
     5
 62
     0
 63
     7
283
     0
 90
      512
 91
        0
  1

274
    -2
284
     1
 64
     0
275
    -2
285
     1
 65
     0
276
    -2
286
     1
 66
     0
277
    -2
287
     1
 67
     0
278
    -2
288
     1
 68
     0
279
    -2
289
     1
 69
     0
  7
Standard
140
0.18
170
     5
 62
     0
 63
     7
283
     0
 90
      512
 91
        0
  1

274
    -2
284
     1
 64
     0
275
    -2
285
     1
 65
     0
276
    -2
286
     1
 66
     0
277
    -2
287
     1
 67
     0
278
    -2
288
     1
 68
     0
279
    -2
289
     1
 69
     0
  0
VISUALSTYLE
  5
2F
102
{ACAD_REACTORS
330
29
102
}
330
29
100
AcDbVisualStyle
  2
2dWireframe
 70
     4
177
     3
291
     0
 70
    58
 90
        0
176
     1
 90
        2
176
     1
 90
        0
176
     1
 90
        0
176
     1
 40
0.6
176
     1
 40
30.0
176
     1
 62
     7
420
 16777215
176
     1
 90
        1
176
     1
 90
        4
176
     1
 62
     7
176
     1
 62
   257
176
     1
 90
        1
176
     1
 90
        1
176
     1
 40
1.0
176
     1
 90
        0
176
     1
 62
   257
176
     1
 40
1.0
176
     1
 90
        1
176
     1
 90
        6
176
     1
 90
        2
176
     1
 62
     7
176
     1
 90
        5
176
     1
 90
        0
176
     1
 90
        0
176
     1
290
     0
176
     1
 90
        1
176
     1
 40
0.0
176
     1
 90
        0
176
     1
290
     1
176
     1
290
     1
176
     1
290
     0
176
     1
290
     0
176
     1
290
     0
176
     1
290
     0
176
     1
290
     0
176
     1
290
     0
176
     1
290
     0
176
     1
 90
       50
176
     1
 40
0.0
176
     1
 40
1.0
176
     1
 90
        0
176
     1
 62
    18
420
        0
176
     1
 90
       50
176
     1
 90
        3
176
     1
 62
     5
420
      255
176
     1
290
     0
176
     1
 90
       50
176
     1
 90
       50
176
     1
 90
       50
176
     1
290
     0
176
     1
 90
       50
176
     1
 62
   256
176
     0
 40
1.0
176
     0
 90
        2
176
     1
  1
strokes_ogs.tif
176
     1
290
     0
176
     1
 40
1.0
176
     1
 40
1.0
176
     1
1001
ACAD
1000
AcDbSavedByObjectVersion
1070
     0
  0
VISUALSTYLE
  5
2E
102
{ACAD_REACTORS
330
29
102
}
330
29
100
AcDbVisualStyle
  2
Basic
 70
     7
177
     3
291
     1
 70
    58
 90
        1
176
     1
 90
        0
176
     1
 90
        1
176
     1
 90
        0
176
     1
 40
0.6
176
     1
 40
30.0
176
     1
 62
     7
420
 16777215
176
     1
 90
        0
176
     1
 90
        4
176
     1
 62
     7
176
     1
 62
   257
176
     1
 90
        1
176
     1
 90
        1
176
     1
 40
1.0
176
     1
 90
        8
176
     1
 62
     7
176
     1
 40
1.0
176
     1
 90
        1
176
     1
 90
        6
176
     1
 90
        2
176
     1
 62
     7
176
     1
 90
        5
176
     1
 90
        0
176
     1
 90
        0
176
     1
290
     0
176
     1
 90
        1
176
     1
 40
0.0
176
     1
 90
        0
176
     1
290
     0
176
     1
290
     1
176
     1
290
     1
176
     1
290
     0
176
     1
290
     0
176
     1
290
     0
176
     1
290
     0
176
     1
290
     0
176
     1
290
     0
176
     1
 90
       50
176
     1
 40
0.0
176
     1
 40
1.0
176
     1
 90
        0
176
     1
 62
    18
420
        0
176
     1
 90
       50
176
     1
 90
        3
176
     1
 62
     5
420
      255
176
     1
290
     0
176
     1
 90
       50
176
     1
 90
       50
176
     1
 90
       50
176
     1
290
     0
176
     1
 90
       50
176
     1
 62
   256
176
     0
 40
1.0
176
     0
 90
        2
176
     1
  1
strokes_ogs.tif
176
     1
290
     0
176
     1
 40
1.0
176
     1
 40
1.0
176
     1
1001
ACAD
1000
AcDbSavedByObjectVersion
1070
     0
  0
VISUALSTYLE
  5
35
102
{ACAD_REACTORS
330
29
102
}
330
29
100
AcDbVisualStyle
  2
Brighten
 70
    12
177
     3
291
     1
 70
    58
 90
        2
176
     1
 90
        2
176
     1
 90
        0
176
     1
 90
        0
176
     1
 40
0.6
176
     1
 40
30.0
176
     1
 62
     7
420
 16777215
176
     1
 90
        1
176
     1
 90
        4
176
     1
 62
     7
176
     1
 62
   257
176
     1
 90
        1
176
     1
 90
        1
176
     1
 40
1.0
176
     1
 90
        8
176
     1
 62
     7
176
     1
 40
1.0
176
     1
 90
        1
176
     1
 90
        6
176
     1
 90
        2
176
     1
 62
     7
176
     1
 90
        5
176
     1
 90
        0
176
     1
 90
        0
176
     1
290
     0
176
     1
 90
        1
176
     1
 40
50.0
176
     1
 90
        0
176
     1
290
     0
176
     1
290
     1
176
     1
290
     1
176
     1
290
     0
176
     1
290
     0
176
     1
290
     0
176
     1
290
     0
176
     1
290
     0
176
     1
290
     0
176
     1
 90
       50
176
     1
 40
0.0
176
     1
 40
1.0
176
     1
 90
        0
176
     1
 62
    18
420
        0
176
     1
 90
       50
176
     1
 90
        3
176
     1
 62
     5
420
      255
176
     1
290
     0
176
     1
 90
       50
176
     1
 90
       50
176
     1
 90
       50
176
     1
290
     0
176
     1
 90
       50
176
     1
 62
   256
176
     0
 40
1.0
176
     0
 90
        2
176
     1
  1
strokes_ogs.tif
176
     1
290
     0
176
     1
 40
1.0
176
     1
 40
1.0
176
     1
1001
ACAD
1000
AcDbSavedByObjectVersion
1070
     0
  0
VISUALSTYLE
  5
39
102
{ACAD_REACTORS
330
29
102
}
330
29
100
AcDbVisualStyle
  2
ColorChange
 70
    16
177
     3
291
     1
 70
    58
 90
        2
176
     1
 90
        2
176
     1
 90
        3
176
     1
 90
        0
176
     1
 40
0.6
176
     1
 40
30.0
176
     1
 62
     8
420
  8421504
176
     1
 90
        1
176
     1
 90
        4
176
     1
 62
     7
176
     1
 62
   257
176
     1
 90
        1
176
     1
 90
        1
176
     1
 40
1.0
176
     1
 90
        8
176
     1
 62
     8
420
  8421504
176
     1
 40
1.0
176
     1
 90
        1
176
     1
 90
        6
176
     1
 90
        2
176
     1
 62
     7
176
     1
 90
        5
176
     1
 90
        0
176
     1
 90
        0
176
     1
290
     0
176
     1
 90
        1
176
     1
 40
0.0
176
     1
 90
        0
176
     1
290
     0
176
     1
290
     1
176
     1
290
     1
176
     1
290
     0
176
     1
290
     0
176
     1
290
     0
176
     1
290
     0
176
     1
290
     0
176
     1
290
     0
176
     1
 90
       50
176
     1
 40
0.0
176
     1
 40
1.0
176
     1
 90
        0
176
     1
 62
    18
420
        0
176
     1
 90
       50
176
     1
 90
        3
176
     1
 62
     5
420
      255
176
     1
290
     0
176
     1
 90
       50
176
     1
 90
       50
176
     1
 90
       50
176
     1
290
     0
176
     1
 90
       50
176
     1
 62
   256
176
     0
 40
1.0
176
     0
 90
        2
176
     1
  1
strokes_ogs.tif
176
     1
290
     0
176
     1
 40
1.0
176
     1
 40
1.0
176
     1
1001
ACAD
1000
AcDbSavedByObjectVersion
1070
     0
  0
VISUALSTYLE
  5
32
102
{ACAD_REACTORS
330
29
102
}
330
29
100
AcDbVisualStyle
  2
Conceptual
 70
     9
177
     3
291
     0
 70
    58
 90
        3
176
     1
 90
        2
176
     1
 90
        0
176
     1
 90
        0
176
     1
 40
0.6
176
     1
 40
30.0
176
     1
 62
     7
420
 16777215
176
     1
 90
        2
176
     1
 90
        2
176
     1
 62
     7
176
     1
 62
   257
176
     1
 90
        1
176
     1
 90
        1
176
     1
 40
179.0
176
     1
 90
        8
176
     1
 62
     7
176
     1
 40
1.0
176
     1
 90
        1
176
     1
 90
        6
176
     1
 90
        2
176
     1
 62
     7
176
     1
 90
        3
176
     1
 90
        0
176
     1
 90
        0
176
     1
290
     0
176
     1
 90
        1
176
     1
 40
0.0
176
     1
 90
        0
176
     1
290
     0
176
     1
290
     1
176
     1
290
     1
176
     1
290
     0
176
     1
290
     0
176
     1
290
     0
176
     1
290
     0
176
     1
290
     0
176
     1
290
     0
176
     1
 90
       50
176
     1
 40
0.0
176
     1
 40
1.0
176
     1
 90
        0
176
     1
 62
    18
420
        0
176
     1
 90
       50
176
     1
 90
        3
176
     1
 62
     5
420
      255
176
     1
290
     0
176
     1
 90
       50
176
     1
 90
       50
176
     1
 90
       50
176
     1
290
     0
176
     1
 90
       50
176
     1
 62
   256
176
     0
 40
1.0
176
     0
 90
        2
176
     1
  1
strokes_ogs.tif
176
     1
290
     0
176
     1
 40
1.0
176
     1
 40
1.0
176
     1
1001
ACAD
1000
AcDbSavedByObjectVersion
1070
     0
  0
VISUALSTYLE
  5
34
102
{ACAD_REACTORS
330
29
102
}
330
29
100
AcDbVisualStyle
  2
Dim
 70
    11
177
     3
291
     1
 70
    58
 90
        2
176
     1
 90
        2
176
     1
 90
        0
176
     1
 90
        0
176
     1
 40
0.6
176
     1
 40
30.0
176
     1
 62
     7
420
 16777215
176
     1
 90
        1
176
     1
 90
        4
176
     1
 62
     7
176
     1
 62
   257
176
     1
 90
        1
176
     1
 90
        1
176
     1
 40
1.0
176
     1
 90
        8
176
     1
 62
     7
176
     1
 40
1.0
176
     1
 90
        1
176
     1
 90
        6
176
     1
 90
        2
176
     1
 62
     7
176
     1
 90
        5
176
     1
 90
        0
176
     1
 90
        0
176
     1
290
     0
176
     1
 90
        1
176
     1
 40
-50.0
176
     1
 90
        0
176
     1
290
     0
176
     1
290
     1
176
     1
290
     1
176
     1
290
     0
176
     1
290
     0
176
     1
290
     0
176
     1
290
     0
176
     1
290
     0
176
     1
290
     0
176
     1
 90
       50
176
     1
 40
0.0
176
     1
 40
1.0
176
     1
 90
        0
176
     1
 62
    18
420
        0
176
     1
 90
       50
176
     1
 90
        3
176
     1
 62
     5
420
      255
176
     1
290
     0
176
     1
 90
       50
176
     1
 90
       50
176
     1
 90
       50
176
     1
290
     0
176
     1
 90
       50
176
     1
 62
   256
176
     0
 40
1.0
176
     0
 90
        2
176
     1
  1
strokes_ogs.tif
176
     1
290
     0
176
     1
 40
1.0
176
     1
 40
1.0
176
     1
1001
ACAD
1000
AcDbSavedByObjectVersion
1070
     0
  0
VISUALSTYLE
  5
41
102
{ACAD_REACTORS
330
29
102
}
330
29
100
AcDbVisualStyle
  2
EdgeColorOff
 70
    22
177
     3
291
     1
 70
    58
 90
        2
176
     0
 90
        2
176
     0
 90
        0
176
     0
 90
        0
176
     0
 40
0.6
176
     0
 40
30.0
176
     0
 62
     7
420
 16777215
176
     0
 90
        1
176
     0
 90
        4
176
     0
 62
     7
176
     0
 62
   257
176
     0
 90
        1
176
     0
 90
        1
176
     0
 40
1.0
176
     0
 90
        8
176
     2
 62
     7
176
     0
 40
1.0
176
     0
 90
        1
176
     0
 90
        6
176
     0
 90
        2
176
     0
 62
     7
176
     0
 90
        5
176
     0
 90
        0
176
     0
 90
        0
176
     0
290
     0
176
     0
 90
        1
176
     0
 40
0.0
176
     0
 90
        0
176
     0
290
     0
176
     0
290
     1
176
     0
290
     1
176
     0
290
     0
176
     0
290
     0
176
     0
290
     0
176
     0
290
     0
176
     0
290
     0
176
     0
290
     0
176
     0
 90
       50
176
     0
 40
0.0
176
     0
 40
1.0
176
     0
 90
        0
176
     0
 62
    18
420
        0
176
     0
 90
       50
176
     0
 90
        3
176
     0
 62
     5
420
      255
176
     0
290
     0
176
     0
 90
       50
176
     0
 90
       50
176
     0
 90
       50
176
     0
290
     0
176
     0
 90
       50
176
     0
 62
   256
176
     0
 40
1.0
176
     0
 90
        2
176
     0
  1
strokes_ogs.tif
176
     0
290
     0
176
     0
 40
1.0
176
     0
 40
1.0
176
     0
1001
ACAD
1000
AcDbSavedByObjectVersion
1070
     0
  0
VISUALSTYLE
  5
38
102
{ACAD_REACTORS
330
29
102
}
330
29
100
AcDbVisualStyle
  2
Facepattern
 70
    15
177
     3
291
     1
 70
    58
 90
        2
176
     1
 90
        2
176
     1
 90
        0
176
     1
 90
        0
176
     1
 40
0.6
176
     1
 40
30.0
176
     1
 62
     7
420
 16777215
176
     1
 90
        1
176
     1
 90
        4
176
     1
 62
     7
176
     1
 62
   257
176
     1
 90
        1
176
     1
 90
        1
176
     1
 40
1.0
176
     1
 90
        8
176
     1
 62
     7
176
     1
 40
1.0
176
     1
 90
        1
176
     1
 90
        6
176
     1
 90
        2
176
     1
 62
     7
176
     1
 90
        5
176
     1
 90
        0
176
     1
 90
        0
176
     1
290
     0
176
     1
 90
        1
176
     1
 40
0.0
176
     1
 90
        0
176
     1
290
     0
176
     1
290
     1
176
     1
290
     1
176
     1
290
     0
176
     1
290
     0
176
     1
290
     0
176
     1
290
     0
176
     1
290
     0
176
     1
290
     0
176
     1
 90
       50
176
     1
 40
0.0
176
     1
 40
1.0
176
     1
 90
        0
176
     1
 62
    18
420
        0
176
     1
 90
       50
176
     1
 90
        3
176
     1
 62
     5
420
      255
176
     1
290
     0
176
     1
 90
       50
176
     1
 90
       50
176
     1
 90
       50
176
     1
290
     0
176
     1
 90
       50
176
     1
 62
   256
176
     0
 40
1.0
176
     0
 90
        2
176
     1
  1
strokes_ogs.tif
176
     1
290
     0
176
     1
 40
1.0
176
     1
 40
1.0
176
     1
1001
ACAD
1000
AcDbSavedByObjectVersion
1070
     0
  0
VISUALSTYLE
  5
2A
102
{ACAD_REACTORS
330
29
102
}
330
29
100
AcDbVisualStyle
  2
Flat
 70
     0
177
     3
291
     1
 70
    58
 90
        2
176
     1
 90
        1
176
     1
 90
        1
176
     1
 90
        2
176
     1
 40
0.6
176
     1
 40
30.0
176
     1
 62
     7
420
 16777215
176
     1
 90
        0
176
     1
 90
        0
176
     1
 62
     7
176
     1
 62
   257
176
     1
 90
        1
176
     1
 90
        1
176
     1
 40
1.0
176
     1
 90
        8
176
     1
 62
     7
176
     1
 40
1.0
176
     1
 90
        1
176
     1
 90
        6
176
     1
 90
        2
176
     1
 62
     7
176
     1
 90
        5
176
     1
 90
        0
176
     1
 90
        0
176
     1
290
     0
176
     1
 90
       13
176
     1
 40
0.0
176
     1
 90
        0
176
     1
290
     0
176
     1
290
     1
176
     1
290
     1
176
     1
290
     0
176
     1
290
     0
176
     1
290
     0
176
     1
290
     0
176
     1
290
     0
176
     1
290
     0
176
     1
 90
       50
176
     1
 40
0.0
176
     1
 40
1.0
176
     1
 90
        0
176
     1
 62
    18
420
        0
176
     1
 90
       50
176
     1
 90
        3
176
     1
 62
     5
420
      255
176
     1
290
     0
176
     1
 90
       50
176
     1
 90
       50
176
     1
 90
       50
176
     1
290
     0
176
     1
 90
       50
176
     1
 62
   256
176
     0
 40
1.0
176
     0
 90
        2
176
     1
  1
strokes_ogs.tif
176
     1
290
     0
176
     1
 40
1.0
176
     1
 40
1.0
176
     1
1001
ACAD
1000
AcDbSavedByObjectVersion
1070
     0
  0
VISUALSTYLE
  5
2B
102
{ACAD_REACTORS
330
29
102
}
330
29
100
AcDbVisualStyle
  2
FlatWithEdges
 70
     1
177
     3
291
     1
 70
    58
 90
        2
176
     1
 90
        1
176
     1
 90
        1
176
     1
 90
        2
176
     1
 40
0.6
176
     1
 40
30.0
176
     1
 62
     7
420
 16777215
176
     1
 90
        1
176
     1
 90
        0
176
     1
 62
     7
176
     1
 62
   257
176
     1
 90
        1
176
     1
 90
        1
176
     1
 40
1.0
176
     1
 90
        0
176
     1
 62
   257
176
     1
 40
1.0
176
     1
 90
        1
176
     1
 90
        6
176
     1
 90
        2
176
     1
 62
     7
176
     1
 90
        5
176
     1
 90
        0
176
     1
 90
        0
176
     1
290
     0
176
     1
 90
       13
176
     1
 40
0.0
176
     1
 90
        0
176
     1
290
     0
176
     1
290
     1
176
     1
290
     1
176
     1
290
     0
176
     1
290
     0
176
     1
290
     0
176
     1
290
     0
176
     1
290
     0
176
     1
290
     0
176
     1
 90
       50
176
     1
 40
0.0
176
     1
 40
1.0
176
     1
 90
        0
176
     1
 62
    18
420
        0
176
     1
 90
       50
176
     1
 90
        3
176
     1
 62
     5
420
      255
176
     1
290
     0
176
     1
 90
       50
176
     1
 90
       50
176
     1
 90
       50
176
     1
290
     0
176
     1
 90
       50
176
     1
 62
   256
176
     0
 40
1.0
176
     0
 90
        2
176
     1
  1
strokes_ogs.tif
176
     1
290
     0
176
     1
 40
1.0
176
     1
 40
1.0
176
     1
1001
ACAD
1000
AcDbSavedByObjectVersion
1070
     0
  0
VISUALSTYLE
  5
2C
102
{ACAD_REACTORS
330
29
102
}
330
29
100
AcDbVisualStyle
  2
Gouraud
 70
     2
177
     3
291
     1
 70
    58
 90
        2
176
     1
 90
        2
176
     1
 90
        1
176
     1
 90
        2
176
     1
 40
0.6
176
     1
 40
30.0
176
     1
 62
     7
420
 16777215
176
     1
 90
        0
176
     1
 90
        0
176
     1
 62
     7
176
     1
 62
   257
176
     1
 90
        1
176
     1
 90
        1
176
     1
 40
1.0
176
     1
 90
        0
176
     1
 62
     7
176
     1
 40
1.0
176
     1
 90
        1
176
     1
 90
        6
176
     1
 90
        2
176
     1
 62
     7
176
     1
 90
        5
176
     1
 90
        0
176
     1
 90
        0
176
     1
290
     0
176
     1
 90
       13
176
     1
 40
0.0
176
     1
 90
        0
176
     1
290
     0
176
     1
290
     1
176
     1
290
     1
176
     1
290
     0
176
     1
290
     0
176
     1
290
     0
176
     1
290
     0
176
     1
290
     0
176
     1
290
     0
176
     1
 90
       50
176
     1
 40
0.0
176
     1
 40
1.0
176
     1
 90
        0
176
     1
 62
    18
420
        0
176
     1
 90
       50
176
     1
 90
        3
176
     1
 62
     5
420
      255
176
     1
290
     0
176
     1
 90
       50
176
     1
 90
       50
176
     1
 90
       50
176
     1
290
     0
176
     1
 90
       50
176
     1
 62
   256
176
     0
 40
1.0
176
     0
 90
        2
176
     1
  1
strokes_ogs.tif
176
     1
290
     0
176
     1
 40
1.0
176
     1
 40
1.0
176
     1
1001
ACAD
1000
AcDbSavedByObjectVersion
1070
     0
  0
VISUALSTYLE
  5
2D
102
{ACAD_REACTORS
330
29
102
}
330
29
100
AcDbVisualStyle
  2
GouraudWithEdges
 70
     3
177
     3
291
     1
 70
    58
 90
        2
176
     1
 90
        2
176
     1
 90
        1
176
     1
 90
        2
176
     1
 40
0.6
176
     1
 40
30.0
176
     1
 62
     7
420
 16777215
176
     1
 90
        1
176
     1
 90
        0
176
     1
 62
     7
176
     1
 62
   257
176
     1
 90
        1
176
     1
 90
        1
176
     1
 40
1.0
176
     1
 90
        0
176
     1
 62
   257
176
     1
 40
1.0
176
     1
 90
        1
176
     1
 90
        6
176
     1
 90
        2
176
     1
 62
     7
176
     1
 90
        5
176
     1
 90
        0
176
     1
 90
        0
176
     1
290
     0
176
     1
 90
       13
176
     1
 40
0.0
176
     1
 90
        0
176
     1
290
     0
176
     1
290
     1
176
     1
290
     1
176
     1
290
     0
176
     1
290
     0
176
     1
290
     0
176
     1
290
     0
176
     1
290
     0
176
     1
290
     0
176
     1
 90
       50
176
     1
 40
0.0
176
     1
 40
1.0
176
     1
 90
        0
176
     1
 62
    18
420
        0
176
     1
 90
       50
176
     1
 90
        3
176
     1
 62
     5
420
      255
176
     1
290
     0
176
     1
 90
       50
176
     1
 90
       50
176
     1
 90
       50
176
     1
290
     0
176
     1
 90
       50
176
     1
 62
   256
176
     0
 40
1.0
176
     0
 90
        2
176
     1
  1
strokes_ogs.tif
176
     1
290
     0
176
     1
 40
1.0
176
     1
 40
1.0
176
     1
1001
ACAD
1000
AcDbSavedByObjectVersion
1070
     0
  0
VISUALSTYLE
  5
31
102
{ACAD_REACTORS
330
29
102
}
330
29
100
AcDbVisualStyle
  2
Hidden
 70
     6
177
     3
291
     0
 70
    58
 90
        1
176
     1
 90
        2
176
     1
 90
        2
176
     1
 90
        0
176
     1
 40
0.6
176
     1
 40
30.0
176
     1
 62
     7
420
 16777215
176
     1
 90
        2
176
     1
 90
        2
176
     1
 62
     7
176
     1
 62
   257
176
     1
 90
        2
176
     1
 90
        1
176
     1
 40
40.0
176
     1
 90
        0
176
     1
 62
   257
176
     1
 40
1.0
176
     1
 90
        1
176
     1
 90
        6
176
     1
 90
        2
176
     1
 62
     7
176
     1
 90
        3
176
     1
 90
        0
176
     1
 90
        0
176
     1
290
     0
176
     1
 90
        1
176
     1
 40
0.0
176
     1
 90
        0
176
     1
290
     0
176
     1
290
     1
176
     1
290
     1
176
     1
290
     0
176
     1
290
     0
176
     1
290
     0
176
     1
290
     0
176
     1
290
     0
176
     1
290
     0
176
     1
 90
       50
176
     1
 40
0.0
176
     1
 40
1.0
176
     1
 90
        0
176
     1
 62
    18
420
        0
176
     1
 90
       50
176
     1
 90
        3
176
     1
 62
     5
420
      255
176
     1
290
     0
176
     1
 90
       50
176
     1
 90
       50
176
     1
 90
       50
176
     1
290
     0
176
     1
 90
       50
176
     1
 62
   256
176
     0
 40
1.0
176
     0
 90
        2
176
     1
  1
strokes_ogs.tif
176
     1
290
     0
176
     1
 40
1.0
176
     1
 40
1.0
176
     1
1001
ACAD
1000
AcDbSavedByObjectVersion
1070
     0
  0
VISUALSTYLE
  5
3F
102
{ACAD_REACTORS
330
29
102
}
330
29
100
AcDbVisualStyle
  2
JitterOff
 70
    20
177
     3
291
     1
 70
    58
 90
        2
176
     0
 90
        2
176
     0
 90
        0
176
     0
 90
        0
176
     0
 40
0.6
176
     0
 40
30.0
176
     0
 62
     7
420
 16777215
176
     0
 90
        1
176
     0
 90
        4
176
     0
 62
     7
176
     0
 62
   257
176
     0
 90
        1
176
     0
 90
        1
176
     0
 40
1.0
176
     0
 90
       10
176
     2
 62
     7
176
     0
 40
1.0
176
     0
 90
        1
176
     0
 90
        6
176
     0
 90
        2
176
     0
 62
     7
176
     0
 90
        5
176
     0
 90
        0
176
     0
 90
        0
176
     0
290
     0
176
     0
 90
        1
176
     0
 40
0.0
176
     0
 90
        0
176
     0
290
     0
176
     0
290
     1
176
     0
290
     1
176
     0
290
     0
176
     0
290
     0
176
     0
290
     0
176
     0
290
     0
176
     0
290
     0
176
     0
290
     0
176
     0
 90
       50
176
     0
 40
0.0
176
     0
 40
1.0
176
     0
 90
        0
176
     0
 62
    18
420
        0
176
     0
 90
       50
176
     0
 90
        3
176
     0
 62
     5
420
      255
176
     0
290
     0
176
     0
 90
       50
176
     0
 90
       50
176
     0
 90
       50
176
     0
290
     0
176
     0
 90
       50
176
     0
 62
   256
176
     0
 40
1.0
176
     0
 90
        2
176
     0
  1
strokes_ogs.tif
176
     0
290
     0
176
     0
 40
1.0
176
     0
 40
1.0
176
     0
1001
ACAD
1000
AcDbSavedByObjectVersion
1070
     0
  0
VISUALSTYLE
  5
37
102
{ACAD_REACTORS
330
29
102
}
330
29
100
AcDbVisualStyle
  2
Linepattern
 70
    14
177
     3
291
     1
 70
    58
 90
        2
176
     1
 90
        2
176
     1
 90
        0
176
     1
 90
        0
176
     1
 40
0.6
176
     1
 40
30.0
176
     1
 62
     7
420
 16777215
176
     1
 90
        1
176
     1
 90
        4
176
     1
 62
     7
176
     1
 62
   257
176
     1
 90
        7
176
     1
 90
        7
176
     1
 40
1.0
176
     1
 90
        8
176
     1
 62
     7
176
     1
 40
1.0
176
     1
 90
        1
176
     1
 90
        6
176
     1
 90
        2
176
     1
 62
     7
176
     1
 90
        5
176
     1
 90
        0
176
     1
 90
        0
176
     1
290
     0
176
     1
 90
        1
176
     1
 40
0.0
176
     1
 90
        0
176
     1
290
     0
176
     1
290
     1
176
     1
290
     1
176
     1
290
     0
176
     1
290
     0
176
     1
290
     0
176
     1
290
     0
176
     1
290
     0
176
     1
290
     0
176
     1
 90
       50
176
     1
 40
0.0
176
     1
 40
1.0
176
     1
 90
        0
176
     1
 62
    18
420
        0
176
     1
 90
       50
176
     1
 90
        3
176
     1
 62
     5
420
      255
176
     1
290
     0
176
     1
 90
       50
176
     1
 90
       50
176
     1
 90
       50
176
     1
290
     0
176
     1
 90
       50
176
     1
 62
   256
176
     0
 40
1.0
176
     0
 90
        2
176
     1
  1
strokes_ogs.tif
176
     1
290
     0
176
     1
 40
1.0
176
     1
 40
1.0
176
     1
1001
ACAD
1000
AcDbSavedByObjectVersion
1070
     0
  0
VISUALSTYLE
  5
40
102
{ACAD_REACTORS
330
29
102
}
330
29
100
AcDbVisualStyle
  2
OverhangOff
 70
    21
177
     3
291
     1
 70
    58
 90
        2
176
     0
 90
        2
176
     0
 90
        0
176
     0
 90
        0
176
     0
 40
0.6
176
     0
 40
30.0
176
     0
 62
     7
420
 16777215
176
     0
 90
        1
176
     0
 90
        4
176
     0
 62
     7
176
     0
 62
   257
176
     0
 90
        1
176
     0
 90
        1
176
     0
 40
1.0
176
     0
 90
        9
176
     2
 62
     7
176
     0
 40
1.0
176
     0
 90
        1
176
     0
 90
        6
176
     0
 90
        2
176
     0
 62
     7
176
     0
 90
        5
176
     0
 90
        0
176
     0
 90
        0
176
     0
290
     0
176
     0
 90
        1
176
     0
 40
0.0
176
     0
 90
        0
176
     0
290
     0
176
     0
290
     1
176
     0
290
     1
176
     0
290
     0
176
     0
290
     0
176
     0
290
     0
176
     0
290
     0
176
     0
290
     0
176
     0
290
     0
176
     0
 90
       50
176
     0
 40
0.0
176
     0
 40
1.0
176
     0
 90
        0
176
     0
 62
    18
420
        0
176
     0
 90
       50
176
     0
 90
        3
176
     0
 62
     5
420
      255
176
     0
290
     0
176
     0
 90
       50
176
     0
 90
       50
176
     0
 90
       50
176
     0
290
     0
176
     0
 90
       50
176
     0
 62
   256
176
     0
 40
1.0
176
     0
 90
        2
176
     0
  1
strokes_ogs.tif
176
     0
290
     0
176
     0
 40
1.0
176
     0
 40
1.0
176
     0
1001
ACAD
1000
AcDbSavedByObjectVersion
1070
     0
  0
VISUALSTYLE
  5
33
102
{ACAD_REACTORS
330
29
102
}
330
29
100
AcDbVisualStyle
  2
Realistic
 70
     8
177
     3
291
     0
 70
    58
 90
        2
176
     1
 90
        2
176
     1
 90
        0
176
     1
 90
        2
176
     1
 40
0.6
176
     1
 40
30.0
176
     1
 62
     7
420
 16777215
176
     1
 90
        0
176
     1
 90
        0
176
     1
 62
     7
176
     1
 62
   257
176
     1
 90
        1
176
     1
 90
        1
176
     1
 40
1.0
176
     1
 90
        8
176
     1
 62
   257
176
     1
 40
1.0
176
     1
 90
        1
176
     1
 90
        6
176
     1
 90
        2
176
     1
 62
     7
176
     1
 90
        3
176
     1
 90
        0
176
     1
 90
        0
176
     1
290
     0
176
     1
 90
       13
176
     1
 40
0.0
176
     1
 90
        0
176
     1
290
     0
176
     1
290
     1
176
     1
290
     1
176
     1
290
     0
176
     1
290
     0
176
     1
290
     0
176
     1
290
     0
176
     1
290
     0
176
     1
290
     0
176
     1
 90
       50
176
     1
 40
0.0
176
     1
 40
1.0
176
     1
 90
        0
176
     1
 62
    18
420
        0
176
     1
 90
       50
176
     1
 90
        3
176
     1
 62
     5
420
      255
176
     1
290
     0
176
     1
 90
       50
176
     1
 90
       50
176
     1
 90
       50
176
     1
290
     0
176
     1
 90
       50
176
     1
 62
   256
176
     0
 40
1.0
176
     0
 90
        2
176
     1
  1
strokes_ogs.tif
176
     1
290
     0
176
     1
 40
1.0
176
     1
 40
1.0
176
     1
1001
ACAD
1000
AcDbSavedByObjectVersion
1070
     0
  0
VISUALSTYLE
  5
3E
102
{ACAD_REACTORS
330
29
102
}
330
29
100
AcDbVisualStyle
  2
Shaded
 70
    27
177
     3
291
     0
 70
    58
 90
        2
176
     1
 90
        2
176
     1
 90
        1
176
     1
 90
        2
176
     1
 40
0.6
176
     1
 40
30.0
176
     1
 62
     7
420
 16777215
176
     1
 90
        0
176
     1
 90
        4
176
     1
 62
     7
176
     1
 62
   257
176
     1
 90
        1
176
     1
 90
        1
176
     1
 40
1.0
176
     1
 90
        8
176
     1
 62
   257
176
     1
 40
1.0
176
     1
 90
        1
176
     1
 90
        6
176
     1
 90
        2
176
     1
 62
     8
420
  7895160
176
     1
 90
        3
176
     1
 90
        0
176
     1
 90
        0
176
     1
290
     0
176
     1
 90
        5
176
     1
 40
0.0
176
     1
 90
        0
176
     1
290
     0
176
     1
290
     1
176
     1
290
     1
176
     1
290
     0
176
     1
290
     0
176
     1
290
     0
176
     1
290
     0
176
     1
290
     0
176
     1
290
     0
176
     1
 90
       50
176
     1
 40
0.0
176
     1
 40
1.0
176
     1
 90
        0
176
     1
 62
    18
420
        0
176
     1
 90
       50
176
     1
 90
        3
176
     1
 62
     5
420
      255
176
     1
290
     0
176
     1
 90
       50
176
     1
 90
       50
176
     1
 90
       50
176
     1
290
     0
176
     1
 90
       50
176
     1
 62
   256
176
     0
 40
1.0
176
     0
 90
        2
176
     1
  1
strokes_ogs.tif
176
     1
290
     0
176
     1
 40
1.0
176
     1
 40
1.0
176
     1
1001
ACAD
1000
AcDbSavedByObjectVersion
1070
     0
  0
VISUALSTYLE
  5
3D
102
{ACAD_REACTORS
330
29
102
}
330
29
100
AcDbVisualStyle
  2
Shaded with edges
 70
    26
177
     3
291
     0
 70
    58
 90
        2
176
     1
 90
        2
176
     1
 90
        1
176
     1
 90
        2
176
     1
 40
0.6
176
     1
 40
30.0
176
     1
 62
     7
420
 16777215
176
     1
 90
        1
176
     1
 90
        2
176
     1
 62
     7
176
     1
 62
   257
176
     1
 90
        2
176
     1
 90
        1
176
     1
 40
1.0
176
     1
 90
        8
176
     1
 62
   257
176
     1
 40
1.0
176
     1
 90
        1
176
     1
 90
        6
176
     1
 90
        2
176
     1
 62
     7
176
     1
 90
        3
176
     1
 90
        0
176
     1
 90
        0
176
     1
290
     0
176
     1
 90
        5
176
     1
 40
0.0
176
     1
 90
        0
176
     1
290
     0
176
     1
290
     1
176
     1
290
     1
176
     1
290
     0
176
     1
290
     0
176
     1
290
     0
176
     1
290
     0
176
     1
290
     0
176
     1
290
     0
176
     1
 90
       50
176
     1
 40
0.0
176
     1
 40
1.0
176
     1
 90
        0
176
     1
 62
    18
420
        0
176
     1
 90
       50
176
     1
 90
        3
176
     1
 62
     5
420
      255
176
     1
290
     0
176
     1
 90
       50
176
     1
 90
       50
176
     1
 90
       50
176
     1
290
     0
176
     1
 90
       50
176
     1
 62
   256
176
     0
 40
1.0
176
     0
 90
        2
176
     1
  1
strokes_ogs.tif
176
     1
290
     0
176
     1
 40
1.0
176
     1
 40
1.0
176
     1
1001
ACAD
1000
AcDbSavedByObjectVersion
1070
     0
  0
VISUALSTYLE
  5
3A
102
{ACAD_REACTORS
330
29
102
}
330
29
100
AcDbVisualStyle
  2
Shades of Gray
 70
    23
177
     3
291
     0
 70
    58
 90
        2
176
     1
 90
        2
176
     1
 90
        3
176
     1
 90
        0
176
     1
 40
0.6
176
     1
 40
30.0
176
     1
 62
     7
420
 16777215
176
     1
 90
        2
176
     1
 90
        2
176
     1
 62
     7
176
     1
 62
     7
176
     1
 90
        1
176
     1
 90
        1
176
     1
 40
40.0
176
     1
 90
        8
176
     1
 62
     7
176
     1
 40
1.0
176
     1
 90
        1
176
     1
 90
        6
176
     1
 90
        2
176
     1
 62
     7
176
     1
 90
        3
176
     1
 90
        0
176
     1
 90
        0
176
     1
290
     0
176
     1
 90
        1
176
     1
 40
0.0
176
     1
 90
        0
176
     1
290
     0
176
     1
290
     1
176
     1
290
     1
176
     1
290
     0
176
     1
290
     0
176
     1
290
     0
176
     1
290
     0
176
     1
290
     0
176
     1
290
     0
176
     1
 90
       50
176
     1
 40
0.0
176
     1
 40
1.0
176
     1
 90
        0
176
     1
 62
    18
420
        0
176
     1
 90
       50
176
     1
 90
        3
176
     1
 62
     5
420
      255
176
     1
290
     0
176
     1
 90
       50
176
     1
 90
       50
176
     1
 90
       50
176
     1
290
     0
176
     1
 90
       50
176
     1
 62
   256
176
     0
 40
1.0
176
     0
 90
        2
176
     1
  1
strokes_ogs.tif
176
     1
290
     0
176
     1
 40
1.0
176
     1
 40
1.0
176
     1
1001
ACAD
1000
AcDbSavedByObjectVersion
1070
     0
  0
VISUALSTYLE
  5
3B
102
{ACAD_REACTORS
330
29
102
}
330
29
100
AcDbVisualStyle
  2
Sketchy
 70
    24
177
     3
291
     0
 70
    58
 90
        1
176
     1
 90
        2
176
     1
 90
        2
176
     1
 90
        0
176
     1
 40
0.6
176
     1
 40
30.0
176
     1
 62
     7
420
 16777215
176
     1
 90
        2
176
     1
 90
        2
176
     1
 62
     7
176
     1
 62
     7
176
     1
 90
        1
176
     1
 90
        1
176
     1
 40
40.0
176
     1
 90
       11
176
     1
 62
     7
176
     1
 40
1.0
176
     1
 90
        1
176
     1
 90
        6
176
     1
 90
        2
176
     1
 62
     7
176
     1
 90
        6
176
     1
 90
        0
176
     1
 90
        0
176
     1
290
     0
176
     1
 90
        1
176
     1
 40
0.0
176
     1
 90
        0
176
     1
290
     0
176
     1
290
     1
176
     1
290
     1
176
     1
290
     0
176
     1
290
     0
176
     1
290
     0
176
     1
290
     0
176
     1
290
     0
176
     1
290
     0
176
     1
 90
       50
176
     1
 40
0.0
176
     1
 40
1.0
176
     1
 90
        0
176
     1
 62
    18
420
        0
176
     1
 90
       50
176
     1
 90
        3
176
     1
 62
     5
420
      255
176
     1
290
     0
176
     1
 90
       50
176
     1
 90
       50
176
     1
 90
       50
176
     1
290
     0
176
     1
 90
       50
176
     1
 62
   256
176
     0
 40
1.0
176
     0
 90
        2
176
     1
  1
strokes_ogs.tif
176
     1
290
     0
176
     1
 40
1.0
176
     1
 40
1.0
176
     1
1001
ACAD
1000
AcDbSavedByObjectVersion
1070
     0
  0
VISUALSTYLE
  5
36
102
{ACAD_REACTORS
330
29
102
}
330
29
100
AcDbVisualStyle
  2
Thicken
 70
    13
177
     3
291
     1
 70
    58
 90
        2
176
     1
 90
        2
176
     1
 90
        0
176
     1
 90
        0
176
     1
 40
0.6
176
     1
 40
30.0
176
     1
 62
     7
420
 16777215
176
     1
 90
        1
176
     1
 90
        4
176
     1
 62
     7
176
     1
 62
   257
176
     1
 90
        1
176
     1
 90
        1
176
     1
 40
1.0
176
     1
 90
       12
176
     1
 62
     7
176
     1
 40
1.0
176
     1
 90
        1
176
     1
 90
        6
176
     1
 90
        2
176
     1
 62
     7
176
     1
 90
        5
176
     1
 90
        0
176
     1
 90
        0
176
     1
290
     0
176
     1
 90
        1
176
     1
 40
0.0
176
     1
 90
        0
176
     1
290
     0
176
     1
290
     1
176
     1
290
     1
176
     1
290
     0
176
     1
290
     0
176
     1
290
     0
176
     1
290
     0
176
     1
290
     0
176
     1
290
     0
176
     1
 90
       50
176
     1
 40
0.0
176
     1
 40
1.0
176
     1
 90
        0
176
     1
 62
    18
420
        0
176
     1
 90
       50
176
     1
 90
        3
176
     1
 62
     5
420
      255
176
     1
290
     0
176
     1
 90
       50
176
     1
 90
       50
176
     1
 90
       50
176
     1
290
     0
176
     1
 90
       50
176
     1
 62
   256
176
     0
 40
1.0
176
     0
 90
        2
176
     1
  1
strokes_ogs.tif
176
     1
290
     0
176
     1
 40
1.0
176
     1
 40
1.0
176
     1
1001
ACAD
1000
AcDbSavedByObjectVersion
1070
     0
  0
VISUALSTYLE
  5
30
102
{ACAD_REACTORS
330
29
102
}
330
29
100
AcDbVisualStyle
  2
Wireframe
 70
     5
177
     3
291
     0
 70
    58
 90
        0
176
     1
 90
        2
176
     1
 90
        0
176
     1
 90
        0
176
     1
 40
0.6
176
     1
 40
30.0
176
     1
 62
     7
420
 16777215
176
     1
 90
        1
176
     1
 90
        4
176
     1
 62
     7
176
     1
 62
   257
176
     1
 90
        1
176
     1
 90
        1
176
     1
 40
1.0
176
     1
 90
        0
176
     1
 62
   257
176
     1
 40
1.0
176
     1
 90
        1
176
     1
 90
        6
176
     1
 90
        2
176
     1
 62
     7
176
     1
 90
        3
176
     1
 90
        0
176
     1
 90
        0
176
     1
290
     0
176
     1
 90
        1
176
     1
 40
0.0
176
     1
 90
        0
176
     1
290
     0
176
     1
290
     1
176
     1
290
     1
176
     1
290
     0
176
     1
290
     0
176
     1
290
     0
176
     1
290
     0
176
     1
290
     0
176
     1
290
     0
176
     1
 90
       50
176
     1
 40
0.0
176
     1
 40
1.0
176
     1
 90
        0
176
     1
 62
    18
420
        0
176
     1
 90
       50
176
     1
 90
        3
176
     1
 62
     5
420
      255
176
     1
290
     0
176
     1
 90
       50
176
     1
 90
       50
176
     1
 90
       50
176
     1
290
     0
176
     1
 90
       50
176
     1
 62
   256
176
     0
 40
1.0
176
     0
 90
        2
176
     1
  1
strokes_ogs.tif
176
     1
290
     0
176
     1
 40
1.0
176
     1
 40
1.0
176
     1
1001
ACAD
1000
AcDbSavedByObjectVersion
1070
     0
  0
VISUALSTYLE
  5
3C
102
{ACAD_REACTORS
330
29
102
}
330
29
100
AcDbVisualStyle
  2
X-Ray
 70
    25
177
     3
291
     0
 70
    58
 90
        2
176
     1
 90
        2
176
     1
 90
        1
176
     1
 90
        1
176
     1
 40
0.5
176
     1
 40
30.0
176
     1
 62
     7
420
 16777215
176
     1
 90
        1
176
     1
 90
        0
176
     1
 62
     7
176
     1
 62
   257
176
     1
 90
        1
176
     1
 90
        1
176
     1
 40
1.0
176
     1
 90
        8
176
     1
 62
     7
176
     1
 40
1.0
176
     1
 90
        1
176
     1
 90
        6
176
     1
 90
        2
176
     1
 62
     7
176
     1
 90
        3
176
     1
 90
        0
176
     1
 90
        0
176
     1
290
     0
176
     1
 90
       13
176
     1
 40
0.0
176
     1
 90
        0
176
     1
290
     0
176
     1
290
     1
176
     1
290
     1
176
     1
290
     0
176
     1
290
     0
176
     1
290
     0
176
     1
290
     0
176
     1
290
     0
176
     1
290
     0
176
     1
 90
       50
176
     1
 40
0.0
176
     1
 40
1.0
176
     1
 90
        0
176
     1
 62
    18
420
        0
176
     1
 90
       50
176
     1
 90
        3
176
     1
 62
     5
420
      255
176
     1
290
     0
176
     1
 90
       50
176
     1
 90
       50
176
     1
 90
       50
176
     1
290
     0
176
     1
 90
       50
176
     1
 62
   256
176
     0
 40
1.0
176
     0
 90
        2
176
     1
  1
strokes_ogs.tif
176
     1
290
     0
176
     1
 40
1.0
176
     1
 40
1.0
176
     1
1001
ACAD
1000
AcDbSavedByObjectVersion
1070
     0
  0
DICTIONARYVAR
  5
2C8
102
{ACAD_REACTORS
330
2C3
102
}
330
2C3
100
DictionaryVariables
280
     0
  1
1:1
  0
DICTIONARYVAR
  5
2C5
102
{ACAD_REACTORS
330
2C3
102
}
330
2C3
100
DictionaryVariables
280
     0
  1
STANDARD
  0
DICTIONARYVAR
  5
2C4
102
{ACAD_REACTORS
330
2C3
102
}
330
2C3
100
DictionaryVariables
280
     0
  1
STANDARD
  0
DICTIONARYVAR
  5
2C6
102
{ACAD_REACTORS
330
2C3
102
}
330
2C3
100
DictionaryVariables
280
     0
  1
Imperial24
  0
DICTIONARYVAR
  5
2C7
102
{ACAD_REACTORS
330
2C3
102
}
330
2C3
100
DictionaryVariables
280
     0
  1
Imperial24
  0
DICTIONARY
  5
2E3
102
{ACAD_REACTORS
330
2E1
102
}
330
2E1
100
AcDbDictionary
281
     1
  0
DICTIONARY
  5
2E2
102
{ACAD_REACTORS
330
2E1
102
}
330
2E1
100
AcDbDictionary
281
     1
  3
456389606592
350
2DC
  3
456389606608
350
2DD
  3
456389606624
350
2DE
  3
456389606640
350
2DF
  3
456389606656
350
2E0
  0
DICTIONARY
  5
2E6
330
6B
100
AcDbDictionary
280
     1
281
     1
  3
ACAD_XREC_ROUNDTRIP
360
2E7
  0
DICTIONARY
  5
1A
330
19
100
AcDbDictionary
280
     1
281
     1
  3
BUMPTILE
360
1C
  3
DIFFUSETILE
360
1B
  3
OPACITYTILE
360
1F
  3
REFLECTIONTILE
360
1E
  3
REFRACTIONTILE
360
20
  3
SPECULARTILE
360
1D
  0
DICTIONARY
  5
12
330
11
100
AcDbDictionary
280
     1
281
     1
  3
BUMPTILE
360
14
  3
DIFFUSETILE
360
13
  3
OPACITYTILE
360
17
  3
REFLECTIONTILE
360
16
  3
REFRACTIONTILE
360
18
  3
SPECULARTILE
360
15
  0
DICTIONARY
  5
22
330
21
100
AcDbDictionary
280
     1
281
     1
  3
BUMPTILE
360
24
  3
DIFFUSETILE
360
23
  3
OPACITYTILE
360
27
  3
REFLECTIONTILE
360
26
  3
REFRACTIONTILE
360
28
  3
SPECULARTILE
360
25
  0
DICTIONARY
  5
2E4
330
69
100
AcDbDictionary
280
     1
281
     1
  3
ACAD_XREC_ROUNDTRIP
360
2E5
  0
DICTIONARY
  5
289
330
65
100
AcDbDictionary
280
     1
281
     1
  3
ACAD_ROUNDTRIP_2008_TABLESTYLE_CELLSTYLEMAP
360
2DA
  0
XRECORD
  5
2DC
102
{ACAD_REACTORS
330
2E2
102
}
330
2E2
100
AcDbXrecord
280
     1
  1
AcDb_Thumbnail_Schema
102
{ATTRRECORD
341
2DD
  2
AcDbDs::TreatedAsObjectData
280
     1
291
     1
102
ATTRRECORD}
102
{ATTRRECORD
341
2DE
  2
AcDbDs::Legacy
280
     1
291
     1
102
ATTRRECORD}
  2
AcDbDs::ID
280
    10
 91
        8
102
{ATTRRECORD
341
2DF
  2
AcDs:Indexable
280
     1
291
     1
102
ATTRRECORD}
102
{ATTRRECORD
341
2E0
  2
AcDbDs::HandleAttribute
280
     7
282
     1
102
ATTRRECORD}
  2
Thumbnail_Data
280
    15
 91
        0
  0
XRECORD
  5
2DD
102
{ACAD_REACTORS
330
2E2
102
}
330
2E2
100
AcDbXrecord
280
     1
  1
AcDbDs::TreatedAsObjectDataSchema
  2
AcDbDs::TreatedAsObjectData
280
     1
 91
        0
  0
XRECORD
  5
2DE
102
{ACAD_REACTORS
330
2E2
102
}
330
2E2
100
AcDbXrecord
280
     1
  1
AcDbDs::LegacySchema
  2
AcDbDs::Legacy
280
     1
 91
        0
  0
XRECORD
  5
2DF
102
{ACAD_REACTORS
330
2E2
102
}
330
2E2
100
AcDbXrecord
280
     1
  1
AcDbDs::IndexedPropertySchema
  2
AcDs:Indexable
280
     1
 91
        0
  0
XRECORD
  5
2E0
102
{ACAD_REACTORS
330
2E2
102
}
330
2E2
100
AcDbXrecord
280
     1
  1
AcDbDs::HandleAttributeSchema
  2
AcDbDs::HandleAttribute
280
     7
 91
        1
284
     1
  0
XRECORD
  5
2E7
102
{ACAD_REACTORS
330
2E6
102
}
330
2E6
100
AcDbXrecord
280
     1
102
DISPLAYNAME
  1
Imperial24
102
FLAGS
 90
        0
  0
XRECORD
  5
1C
102
{ACAD_REACTORS
330
1A
102
}
330
1A
100
AcDbXrecord
280
     1
270
     1
271
     1
  0
XRECORD
  5
1B
102
{ACAD_REACTORS
330
1A
102
}
330
1A
100
AcDbXrecord
280
     1
270
     1
271
     1
  0
XRECORD
  5
1F
102
{ACAD_REACTORS
330
1A
102
}
330
1A
100
AcDbXrecord
280
     1
270
     1
271
     1
  0
XRECORD
  5
1E
102
{ACAD_REACTORS
330
1A
102
}
330
1A
100
AcDbXrecord
280
     1
270
     1
271
     1
  0
XRECORD
  5
20
102
{ACAD_REACTORS
330
1A
102
}
330
1A
100
AcDbXrecord
280
     1
270
     1
271
     1
  0
XRECORD
  5
1D
102
{ACAD_REACTORS
330
1A
102
}
330
1A
100
AcDbXrecord
280
     1
270
     1
271
     1
  0
XRECORD
  5
14
102
{ACAD_REACTORS
330
12
102
}
330
12
100
AcDbXrecord
280
     1
270
     1
271
     1
  0
XRECORD
  5
13
102
{ACAD_REACTORS
330
12
102
}
330
12
100
AcDbXrecord
280
     1
270
     1
271
     1
  0
XRECORD
  5
17
102
{ACAD_REACTORS
330
12
102
}
330
12
100
AcDbXrecord
280
     1
270
     1
271
     1
  0
XRECORD
  5
16
102
{ACAD_REACTORS
330
12
102
}
330
12
100
AcDbXrecord
280
     1
270
     1
271
     1
  0
XRECORD
  5
18
102
{ACAD_REACTORS
330
12
102
}
330
12
100
AcDbXrecord
280
     1
270
     1
271
     1
  0
XRECORD
  5
15
102
{ACAD_REACTORS
330
12
102
}
330
12
100
AcDbXrecord
280
     1
270
     1
271
     1
  0
XRECORD
  5
24
102
{ACAD_REACTORS
330
22
102
}
330
22
100
AcDbXrecord
280
     1
270
     1
271
     1
  0
XRECORD
  5
23
102
{ACAD_REACTORS
330
22
102
}
330
22
100
AcDbXrecord
280
     1
270
     1
271
     1
  0
XRECORD
  5
27
102
{ACAD_REACTORS
330
22
102
}
330
22
100
AcDbXrecord
280
     1
270
     1
271
     1
  0
XRECORD
  5
26
102
{ACAD_REACTORS
330
22
102
}
330
22
100
AcDbXrecord
280
     1
270
     1
271
     1
  0
XRECORD
  5
28
102
{ACAD_REACTORS
330
22
102
}
330
22
100
AcDbXrecord
280
     1
270
     1
271
     1
  0
XRECORD
  5
25
102
{ACAD_REACTORS
330
22
102
}
330
22
100
AcDbXrecord
280
     1
270
     1
271
     1
  0
XRECORD
  5
2E5
102
{ACAD_REACTORS
330
2E4
102
}
330
2E4
100
AcDbXrecord
280
     1
102
DISPLAYNAME
  1
Imperial24
102
FLAGS
 90
        0
  0
CELLSTYLEMAP
  5
2DA
102
{ACAD_REACTORS
330
289
102
}
330
289
100
AcDbCellStyleMap
 90
        3
300
CELLSTYLE
  1
TABLEFORMAT_BEGIN
 90
        5
170
     1
 91
        0
 92
    32768
 62
   257
 93
        1
300
CONTENTFORMAT
  1
CONTENTFORMAT_BEGIN
 90
        0
 91
        0
 92
      512
 93
        0
300

 40
0.0
140
1.0
 94
        5
 62
     0
340
55
144
0.25
309
CONTENTFORMAT_END
171
     0
 94
        0
309
TABLEFORMAT_END
  1
CELLSTYLE_BEGIN
 90
        1
 91
        1
300
_TITLE
309
CELLSTYLE_END
300
CELLSTYLE
  1
TABLEFORMAT_BEGIN
 90
        5
170
     1
 91
        0
 92
        0
 62
   257
 93
        1
300
CONTENTFORMAT
  1
CONTENTFORMAT_BEGIN
 90
        0
 91
        0
 92
      512
 93
        0
300

 40
0.0
140
1.0
 94
        5
 62
     0
340
55
144
0.18
309
CONTENTFORMAT_END
171
     0
 94
        0
309
TABLEFORMAT_END
  1
CELLSTYLE_BEGIN
 90
        2
 91
        1
300
_HEADER
309
CELLSTYLE_END
300
CELLSTYLE
  1
TABLEFORMAT_BEGIN
 90
        5
170
     1
 91
        0
 92
        0
 62
   257
 93
        1
300
CONTENTFORMAT
  1
CONTENTFORMAT_BEGIN
 90
        0
 91
        0
 92
      512
 93
        0
300

 40
0.0
140
1.0
 94
        2
 62
     0
340
55
144
0.18
309
CONTENTFORMAT_END
171
     0
 94
        0
309
TABLEFORMAT_END
  1
CELLSTYLE_BEGIN
 90
        3
 91
        2
300
_DATA
309
CELLSTYLE_END
  0
ENDSEC
  0
SECTION
  2
ACDSDATA
 70
     2
 71
     8
  0
ACDSSCHEMA
 90
        0
  1
AcDb_Thumbnail_Schema
  2
AcDbDs::ID
280
    10
 91
        8
  2
Thumbnail_Data
280
    15
 91
        0
101
ACDSRECORD
 95
        0
 90
        1
  2
AcDbDs::TreatedAsObjectData
280
     1
291
     1
101
ACDSRECORD
 95
        0
 90
        2
  2
AcDbDs::Legacy
280
     1
291
     1
101
ACDSRECORD
  1
AcDbDs::ID
 90
        3
  2
AcDs:Indexable
280
     1
291
     1
101
ACDSRECORD
  1
AcDbDs::ID
 90
        4
  2
AcDbDs::HandleAttribute
280
     7
282
     1
  0
ACDSSCHEMA
 90
        1
  1
AcDbDs::TreatedAsObjectDataSchema
  2
AcDbDs::TreatedAsObjectData
280
     1
 91
        0
  0
ACDSSCHEMA
 90
        2
  1
AcDbDs::LegacySchema
  2
AcDbDs::Legacy
280
     1
 91
        0
  0
ACDSSCHEMA
 90
        3
  1
AcDbDs::IndexedPropertySchema
  2
AcDs:Indexable
280
     1
 91
        0
  0
ACDSSCHEMA
 90
        4
  1
AcDbDs::HandleAttributeSchema
  2
AcDbDs::HandleAttribute
280
     7
 91
        1
284
     1
  0
ACDSRECORD
 90
        0
  2
AcDbDs::ID
280
    10
320
73
  2
Thumbnail_Data
280
    15
 94
      889
310
89504E470D0A1A0A0000000D49484452000001000000007508030000009634CF9200000300504C5445212830FFFFFF2128300000000000000000000000000000000000000000000000000000330000660000990000CC0000FF0033000033330033660033990033CC0033FF0066000066330066660066990066CC0066FF0099
310
000099330099660099990099CC0099FF00CC0000CC3300CC6600CC9900CCCC00CCFF00FF0000FF3300FF6600FF9900FFCC00FFFF3300003300333300663300993300CC3300FF3333003333333333663333993333CC3333FF3366003366333366663366993366CC3366FF3399003399333399663399993399CC3399FF33CC00
310
33CC3333CC6633CC9933CCCC33CCFF33FF0033FF3333FF6633FF9933FFCC33FFFF6600006600336600666600996600CC6600FF6633006633336633666633996633CC6633FF6666006666336666666666996666CC6666FF6699006699336699666699996699CC6699FF66CC0066CC3366CC6666CC9966CCCC66CCFF66FF0066
310
FF3366FF6666FF9966FFCC66FFFF9900009900339900669900999900CC9900FF9933009933339933669933999933CC9933FF9966009966339966669966999966CC9966FF9999009999339999669999999999CC9999FF99CC0099CC3399CC6699CC9999CCCC99CCFF99FF0099FF3399FF6699FF9999FFCC99FFFFCC0000CC00
310
33CC0066CC0099CC00CCCC00FFCC3300CC3333CC3366CC3399CC33CCCC33FFCC6600CC6633CC6666CC6699CC66CCCC66FFCC9900CC9933CC9966CC9999CC99CCCC99FFCCCC00CCCC33CCCC66CCCC99CCCCCCCCCCFFCCFF00CCFF33CCFF66CCFF99CCFFCCCCFFFFFF0000FF0033FF0066FF0099FF00CCFF00FFFF3300FF3333
310
FF3366FF3399FF33CCFF33FFFF6600FF6633FF6666FF6699FF66CCFF66FFFF9900FF9933FF9966FF9999FF99CCFF99FFFFCC00FFCC33FFCC66FFCC99FFCCCCFFCCFFFFFF00FFFF33FFFF66FFFF99FFFFCCFFFFFF0000000D0D0D1A1A1A2828283535354343435050505D5D5D6B6B6B787878868686939393A1A1A1AEAEAEBB
310
BBBBC9C9C9D6D6D6E4E4E4F1F1F1FFFFFF0000000000000000000000000000000000000000000000000000000000002E4550F1000000344944415478DAEDC13101000000C2A0F54F6D0D0FA000000000000000000000000000000000000000000000000000000000008E0C757500019AC925960000000049454E44AE426082
  0
ENDSEC
  0
EOF
